<?xml version="1.0" encoding="UTF-8" standalone="no"?><!DOCTYPE svg PUBLIC "-//W3C//DTD SVG 1.1//EN" "http://www.w3.org/Graphics/SVG/1.1/DTD/svg11.dtd"><svg width="100%" height="100%" viewBox="0 0 396 204" version="1.1" xmlns="http://www.w3.org/2000/svg" xmlns:xlink="http://www.w3.org/1999/xlink" xml:space="preserve" xmlns:serif="http://www.serif.com/" style="fill-rule:evenodd;clip-rule:evenodd;stroke-linecap:round;stroke-linejoin:round;stroke-miterlimit:1.5;"><rect id="background--Rectangle-" serif:id="background (Rectangle)" x="0" y="0" width="396" height="204" style="fill:#5a5c5c;"/><path id="Enclosure" d="M346,27.063c0,-1.69 -1.373,-3.063 -3.063,-3.063l-299.874,0c-1.69,0 -3.063,1.373 -3.063,3.063l0,155.874c0,1.69 1.373,3.063 3.063,3.063l299.874,0c1.69,0 3.063,-1.373 3.063,-3.063l0,-155.874Z" style="fill:#242424;"/><g id="Background-Keys" serif:id="Background Keys"><path id="Key" d="M334,55.806c0,-0.997 -0.809,-1.806 -1.806,-1.806l-8.388,0c-0.997,0 -1.806,0.809 -1.806,1.806l-0,8.388c-0,0.997 0.809,1.806 1.806,1.806l8.388,0c0.997,0 1.806,-0.809 1.806,-1.806l0,-8.388Z" style="fill:#3d3f3f;"/><path id="Key1" serif:id="Key" d="M316,37.806c0,-0.997 -0.809,-1.806 -1.806,-1.806l-8.388,0c-0.997,0 -1.806,0.809 -1.806,1.806l-0,8.388c-0,0.997 0.809,1.806 1.806,1.806l8.388,0c0.997,0 1.806,-0.809 1.806,-1.806l0,-8.388Z" style="fill:#3d3f3f;"/><path id="Key2" serif:id="Key" d="M334,37.806c0,-0.997 -0.809,-1.806 -1.806,-1.806l-8.388,0c-0.997,0 -1.806,0.809 -1.806,1.806l-0,8.388c-0,0.997 0.809,1.806 1.806,1.806l8.388,0c0.997,0 1.806,-0.809 1.806,-1.806l0,-8.388Z" style="fill:#3d3f3f;"/><path id="Key3" serif:id="Key" d="M316,55.806c0,-0.997 -0.809,-1.806 -1.806,-1.806l-8.388,0c-0.997,0 -1.806,0.809 -1.806,1.806l-0,8.388c-0,0.997 0.809,1.806 1.806,1.806l8.388,0c0.997,0 1.806,-0.809 1.806,-1.806l0,-8.388Z" style="fill:#3d3f3f;"/><path id="Key4" serif:id="Key" d="M298,91.806c0,-0.997 -0.809,-1.806 -1.806,-1.806l-8.388,0c-0.997,0 -1.806,0.809 -1.806,1.806l-0,8.388c-0,0.997 0.809,1.806 1.806,1.806l8.388,0c0.997,0 1.806,-0.809 1.806,-1.806l0,-8.388Z" style="fill:#3d3f3f;"/><path id="Key5" serif:id="Key" d="M280,73.806c-0,-0.997 -0.809,-1.806 -1.806,-1.806l-8.388,0c-0.997,0 -1.806,0.809 -1.806,1.806l-0,8.388c-0,0.997 0.809,1.806 1.806,1.806l8.388,0c0.997,0 1.806,-0.809 1.806,-1.806l-0,-8.388Z" style="fill:#3d3f3f;"/><path id="Key6" serif:id="Key" d="M298,73.806c0,-0.997 -0.809,-1.806 -1.806,-1.806l-8.388,0c-0.997,0 -1.806,0.809 -1.806,1.806l-0,8.388c-0,0.997 0.809,1.806 1.806,1.806l8.388,0c0.997,0 1.806,-0.809 1.806,-1.806l0,-8.388Z" style="fill:#3d3f3f;"/><path id="Key7" serif:id="Key" d="M280,91.806c0,-0.997 -0.809,-1.806 -1.806,-1.806l-8.388,0c-0.997,0 -1.806,0.809 -1.806,1.806l-0,8.388c-0,0.997 0.809,1.806 1.806,1.806l8.388,0c0.997,0 1.806,-0.809 1.806,-1.806l0,-8.388Z" style="fill:#3d3f3f;"/><path id="Key8" serif:id="Key" d="M334,91.806c0,-0.997 -0.809,-1.806 -1.806,-1.806l-8.388,0c-0.997,0 -1.806,0.809 -1.806,1.806l-0,8.388c-0,0.997 0.809,1.806 1.806,1.806l8.388,0c0.997,0 1.806,-0.809 1.806,-1.806l0,-8.388Z" style="fill:#3d3f3f;"/><path id="Key9" serif:id="Key" d="M316,73.806c0,-0.997 -0.809,-1.806 -1.806,-1.806l-8.388,0c-0.997,0 -1.806,0.809 -1.806,1.806l-0,8.388c-0,0.997 0.809,1.806 1.806,1.806l8.388,0c0.997,0 1.806,-0.809 1.806,-1.806l0,-8.388Z" style="fill:#3d3f3f;"/><path id="Key10" serif:id="Key" d="M334,73.806c0,-0.997 -0.809,-1.806 -1.806,-1.806l-8.388,0c-0.997,0 -1.806,0.809 -1.806,1.806l-0,8.388c-0,0.997 0.809,1.806 1.806,1.806l8.388,0c0.997,0 1.806,-0.809 1.806,-1.806l0,-8.388Z" style="fill:#3d3f3f;"/><path id="Key11" serif:id="Key" d="M316,91.806c0,-0.997 -0.809,-1.806 -1.806,-1.806l-8.388,0c-0.997,0 -1.806,0.809 -1.806,1.806l-0,8.388c-0,0.997 0.809,1.806 1.806,1.806l8.388,0c0.997,0 1.806,-0.809 1.806,-1.806l0,-8.388Z" style="fill:#3d3f3f;"/><path id="Key12" serif:id="Key" d="M298,55.806c0,-0.997 -0.809,-1.806 -1.806,-1.806l-8.388,0c-0.997,0 -1.806,0.809 -1.806,1.806l-0,8.388c-0,0.997 0.809,1.806 1.806,1.806l8.388,0c0.997,0 1.806,-0.809 1.806,-1.806l0,-8.388Z" style="fill:#3d3f3f;"/><path id="Key13" serif:id="Key" d="M280,37.806c0,-0.997 -0.809,-1.806 -1.806,-1.806l-8.388,0c-0.997,0 -1.806,0.809 -1.806,1.806l-0,8.388c-0,0.997 0.809,1.806 1.806,1.806l8.388,0c0.997,0 1.806,-0.809 1.806,-1.806l0,-8.388Z" style="fill:#3d3f3f;"/><path id="Key14" serif:id="Key" d="M298,37.806c0,-0.997 -0.809,-1.806 -1.806,-1.806l-8.388,0c-0.997,0 -1.806,0.809 -1.806,1.806l-0,8.388c-0,0.997 0.809,1.806 1.806,1.806l8.388,0c0.997,0 1.806,-0.809 1.806,-1.806l0,-8.388Z" style="fill:#3d3f3f;"/><path id="Key15" serif:id="Key" d="M280,55.806c0,-0.997 -0.809,-1.806 -1.806,-1.806l-8.388,0c-0.997,0 -1.806,0.809 -1.806,1.806l-0,8.388c-0,0.997 0.809,1.806 1.806,1.806l8.388,0c0.997,0 1.806,-0.809 1.806,-1.806l0,-8.388Z" style="fill:#3d3f3f;"/><path id="Key16" serif:id="Key" d="M244,55.806c0,-0.997 -0.809,-1.806 -1.806,-1.806l-8.388,0c-0.997,0 -1.806,0.809 -1.806,1.806l0,8.388c0,0.997 0.809,1.806 1.806,1.806l8.388,0c0.997,0 1.806,-0.809 1.806,-1.806l0,-8.388Z" style="fill:#3d3f3f;"/><path id="Key17" serif:id="Key" d="M244,37.806c0,-0.997 -0.809,-1.806 -1.806,-1.806l-8.388,0c-0.997,0 -1.806,0.809 -1.806,1.806l0,8.388c0,0.997 0.809,1.806 1.806,1.806l8.388,0c0.997,0 1.806,-0.809 1.806,-1.806l0,-8.388Z" style="fill:#3d3f3f;"/><path id="Key18" serif:id="Key" d="M262,37.806c0,-0.997 -0.809,-1.806 -1.806,-1.806l-8.388,0c-0.997,0 -1.806,0.809 -1.806,1.806l0,8.388c0,0.997 0.809,1.806 1.806,1.806l8.388,0c0.997,0 1.806,-0.809 1.806,-1.806l0,-8.388Z" style="fill:#3d3f3f;"/><path id="Key19" serif:id="Key" d="M262,55.806c0,-0.997 -0.809,-1.806 -1.806,-1.806l-8.388,0c-0.997,0 -1.806,0.809 -1.806,1.806l0,8.388c0,0.997 0.809,1.806 1.806,1.806l8.388,0c0.997,0 1.806,-0.809 1.806,-1.806l0,-8.388Z" style="fill:#3d3f3f;"/><path id="Key20" serif:id="Key" d="M226,91.806c0,-0.997 -0.809,-1.806 -1.806,-1.806l-8.388,0c-0.997,0 -1.806,0.809 -1.806,1.806l0,8.388c0,0.997 0.809,1.806 1.806,1.806l8.388,0c0.997,0 1.806,-0.809 1.806,-1.806l0,-8.388Z" style="fill:#3d3f3f;"/><path id="Key21" serif:id="Key" d="M208,73.806c0,-0.997 -0.809,-1.806 -1.806,-1.806l-8.388,0c-0.997,0 -1.806,0.809 -1.806,1.806l0,8.388c0,0.997 0.809,1.806 1.806,1.806l8.388,0c0.997,0 1.806,-0.809 1.806,-1.806l0,-8.388Z" style="fill:#3d3f3f;"/><path id="Key22" serif:id="Key" d="M226,73.806c0,-0.997 -0.809,-1.806 -1.806,-1.806l-8.388,0c-0.997,0 -1.806,0.809 -1.806,1.806l0,8.388c0,0.997 0.809,1.806 1.806,1.806l8.388,0c0.997,0 1.806,-0.809 1.806,-1.806l0,-8.388Z" style="fill:#3d3f3f;"/><path id="Key23" serif:id="Key" d="M208,91.806c0,-0.997 -0.809,-1.806 -1.806,-1.806l-8.388,0c-0.997,0 -1.806,0.809 -1.806,1.806l0,8.388c0,0.997 0.809,1.806 1.806,1.806l8.388,0c0.997,0 1.806,-0.809 1.806,-1.806l0,-8.388Z" style="fill:#3d3f3f;"/><path id="Key24" serif:id="Key" d="M262,91.806c0,-0.997 -0.809,-1.806 -1.806,-1.806l-8.388,0c-0.997,0 -1.806,0.809 -1.806,1.806l0,8.388c0,0.997 0.809,1.806 1.806,1.806l8.388,0c0.997,0 1.806,-0.809 1.806,-1.806l0,-8.388Z" style="fill:#3d3f3f;"/><path id="Key25" serif:id="Key" d="M244,73.806c0,-0.997 -0.809,-1.806 -1.806,-1.806l-8.388,0c-0.997,0 -1.806,0.809 -1.806,1.806l0,8.388c0,0.997 0.809,1.806 1.806,1.806l8.388,0c0.997,0 1.806,-0.809 1.806,-1.806l0,-8.388Z" style="fill:#3d3f3f;"/><path id="Key26" serif:id="Key" d="M262,73.806c0,-0.997 -0.809,-1.806 -1.806,-1.806l-8.388,0c-0.997,0 -1.806,0.809 -1.806,1.806l0,8.388c0,0.997 0.809,1.806 1.806,1.806l8.388,0c0.997,0 1.806,-0.809 1.806,-1.806l0,-8.388Z" style="fill:#3d3f3f;"/><path id="Key27" serif:id="Key" d="M244,91.806c0,-0.997 -0.809,-1.806 -1.806,-1.806l-8.388,0c-0.997,0 -1.806,0.809 -1.806,1.806l0,8.388c0,0.997 0.809,1.806 1.806,1.806l8.388,0c0.997,0 1.806,-0.809 1.806,-1.806l0,-8.388Z" style="fill:#3d3f3f;"/><path id="Key28" serif:id="Key" d="M226,55.806c0,-0.997 -0.809,-1.806 -1.806,-1.806l-8.388,0c-0.997,0 -1.806,0.809 -1.806,1.806l0,8.388c0,0.997 0.809,1.806 1.806,1.806l8.388,0c0.997,0 1.806,-0.809 1.806,-1.806l0,-8.388Z" style="fill:#3d3f3f;"/><path id="Key29" serif:id="Key" d="M208,37.806c0,-0.997 -0.809,-1.806 -1.806,-1.806l-8.388,0c-0.997,0 -1.806,0.809 -1.806,1.806l0,8.388c0,0.997 0.809,1.806 1.806,1.806l8.388,0c0.997,0 1.806,-0.809 1.806,-1.806l0,-8.388Z" style="fill:#3d3f3f;"/><path id="Key30" serif:id="Key" d="M226,37.806c0,-0.997 -0.809,-1.806 -1.806,-1.806l-8.388,0c-0.997,0 -1.806,0.809 -1.806,1.806l0,8.388c0,0.997 0.809,1.806 1.806,1.806l8.388,0c0.997,0 1.806,-0.809 1.806,-1.806l0,-8.388Z" style="fill:#3d3f3f;"/><path id="Key31" serif:id="Key" d="M208,55.806c0,-0.997 -0.809,-1.806 -1.806,-1.806l-8.388,0c-0.997,0 -1.806,0.809 -1.806,1.806l0,8.388c0,0.997 0.809,1.806 1.806,1.806l8.388,0c0.997,0 1.806,-0.809 1.806,-1.806l0,-8.388Z" style="fill:#3d3f3f;"/><path id="Key32" serif:id="Key" d="M190,55.806c0,-0.997 -0.809,-1.806 -1.806,-1.806l-8.388,0c-0.997,0 -1.806,0.809 -1.806,1.806l0,8.388c0,0.997 0.809,1.806 1.806,1.806l8.388,0c0.997,0 1.806,-0.809 1.806,-1.806l0,-8.388Z" style="fill:#3d3f3f;"/><path id="Key33" serif:id="Key" d="M172,37.806c-0,-0.997 -0.809,-1.806 -1.806,-1.806l-8.388,0c-0.997,0 -1.806,0.809 -1.806,1.806l0,8.388c0,0.997 0.809,1.806 1.806,1.806l8.388,0c0.997,0 1.806,-0.809 1.806,-1.806l-0,-8.388Z" style="fill:#3d3f3f;"/><path id="Key34" serif:id="Key" d="M190,37.806c0,-0.997 -0.809,-1.806 -1.806,-1.806l-8.388,0c-0.997,0 -1.806,0.809 -1.806,1.806l0,8.388c0,0.997 0.809,1.806 1.806,1.806l8.388,0c0.997,0 1.806,-0.809 1.806,-1.806l0,-8.388Z" style="fill:#3d3f3f;"/><path id="Key35" serif:id="Key" d="M172,55.806c0,-0.997 -0.809,-1.806 -1.806,-1.806l-8.388,0c-0.997,0 -1.806,0.809 -1.806,1.806l0,8.388c0,0.997 0.809,1.806 1.806,1.806l8.388,0c0.997,0 1.806,-0.809 1.806,-1.806l0,-8.388Z" style="fill:#3d3f3f;"/><path id="Key36" serif:id="Key" d="M154,91.806c0,-0.997 -0.809,-1.806 -1.806,-1.806l-8.388,0c-0.997,0 -1.806,0.809 -1.806,1.806l0,8.388c0,0.997 0.809,1.806 1.806,1.806l8.388,0c0.997,0 1.806,-0.809 1.806,-1.806l0,-8.388Z" style="fill:#3d3f3f;"/><path id="Key37" serif:id="Key" d="M136,73.806c-0,-0.997 -0.809,-1.806 -1.806,-1.806l-8.388,0c-0.997,0 -1.806,0.809 -1.806,1.806l-0,8.388c-0,0.997 0.809,1.806 1.806,1.806l8.388,0c0.997,0 1.806,-0.809 1.806,-1.806l-0,-8.388Z" style="fill:#3d3f3f;"/><path id="Key38" serif:id="Key" d="M154,73.806c0,-0.997 -0.809,-1.806 -1.806,-1.806l-8.388,0c-0.997,0 -1.806,0.809 -1.806,1.806l0,8.388c0,0.997 0.809,1.806 1.806,1.806l8.388,0c0.997,0 1.806,-0.809 1.806,-1.806l0,-8.388Z" style="fill:#3d3f3f;"/><path id="Key39" serif:id="Key" d="M136,91.806c0,-0.997 -0.809,-1.806 -1.806,-1.806l-8.388,0c-0.997,0 -1.806,0.809 -1.806,1.806l0,8.388c0,0.997 0.809,1.806 1.806,1.806l8.388,0c0.997,0 1.806,-0.809 1.806,-1.806l0,-8.388Z" style="fill:#3d3f3f;"/><path id="Key40" serif:id="Key" d="M190,91.806c0,-0.997 -0.809,-1.806 -1.806,-1.806l-8.388,0c-0.997,0 -1.806,0.809 -1.806,1.806l0,8.388c0,0.997 0.809,1.806 1.806,1.806l8.388,0c0.997,0 1.806,-0.809 1.806,-1.806l0,-8.388Z" style="fill:#3d3f3f;"/><path id="Key41" serif:id="Key" d="M172,73.806c0,-0.997 -0.809,-1.806 -1.806,-1.806l-8.388,0c-0.997,0 -1.806,0.809 -1.806,1.806l0,8.388c0,0.997 0.809,1.806 1.806,1.806l8.388,0c0.997,0 1.806,-0.809 1.806,-1.806l0,-8.388Z" style="fill:#3d3f3f;"/><path id="Key42" serif:id="Key" d="M190,73.806c0,-0.997 -0.809,-1.806 -1.806,-1.806l-8.388,0c-0.997,0 -1.806,0.809 -1.806,1.806l0,8.388c0,0.997 0.809,1.806 1.806,1.806l8.388,0c0.997,0 1.806,-0.809 1.806,-1.806l0,-8.388Z" style="fill:#3d3f3f;"/><path id="Key43" serif:id="Key" d="M172,91.806c0,-0.997 -0.809,-1.806 -1.806,-1.806l-8.388,0c-0.997,0 -1.806,0.809 -1.806,1.806l0,8.388c0,0.997 0.809,1.806 1.806,1.806l8.388,0c0.997,0 1.806,-0.809 1.806,-1.806l0,-8.388Z" style="fill:#3d3f3f;"/><path id="Key44" serif:id="Key" d="M154,55.806c0,-0.997 -0.809,-1.806 -1.806,-1.806l-8.388,0c-0.997,0 -1.806,0.809 -1.806,1.806l0,8.388c0,0.997 0.809,1.806 1.806,1.806l8.388,0c0.997,0 1.806,-0.809 1.806,-1.806l0,-8.388Z" style="fill:#3d3f3f;"/><path id="Key45" serif:id="Key" d="M136,37.806c0,-0.997 -0.809,-1.806 -1.806,-1.806l-8.388,0c-0.997,0 -1.806,0.809 -1.806,1.806l0,8.388c0,0.997 0.809,1.806 1.806,1.806l8.388,0c0.997,0 1.806,-0.809 1.806,-1.806l0,-8.388Z" style="fill:#3d3f3f;"/><path id="Key46" serif:id="Key" d="M154,37.806c0,-0.997 -0.809,-1.806 -1.806,-1.806l-8.388,0c-0.997,0 -1.806,0.809 -1.806,1.806l0,8.388c0,0.997 0.809,1.806 1.806,1.806l8.388,0c0.997,0 1.806,-0.809 1.806,-1.806l0,-8.388Z" style="fill:#3d3f3f;"/><path id="Key47" serif:id="Key" d="M136,55.806c0,-0.997 -0.809,-1.806 -1.806,-1.806l-8.388,0c-0.997,0 -1.806,0.809 -1.806,1.806l0,8.388c0,0.997 0.809,1.806 1.806,1.806l8.388,0c0.997,0 1.806,-0.809 1.806,-1.806l0,-8.388Z" style="fill:#3d3f3f;"/><path id="Key48" serif:id="Key" d="M100,55.806c0,-0.997 -0.809,-1.806 -1.806,-1.806l-8.388,0c-0.997,0 -1.806,0.809 -1.806,1.806l0,8.388c0,0.997 0.809,1.806 1.806,1.806l8.388,0c0.997,0 1.806,-0.809 1.806,-1.806l0,-8.388Z" style="fill:#3d3f3f;"/><path id="Key49" serif:id="Key" d="M100,37.806c0,-0.997 -0.809,-1.806 -1.806,-1.806l-8.388,0c-0.997,0 -1.806,0.809 -1.806,1.806l0,8.388c0,0.997 0.809,1.806 1.806,1.806l8.388,0c0.997,0 1.806,-0.809 1.806,-1.806l0,-8.388Z" style="fill:#3d3f3f;"/><path id="Key50" serif:id="Key" d="M118,37.806c0,-0.997 -0.809,-1.806 -1.806,-1.806l-8.388,0c-0.997,0 -1.806,0.809 -1.806,1.806l0,8.388c0,0.997 0.809,1.806 1.806,1.806l8.388,0c0.997,0 1.806,-0.809 1.806,-1.806l0,-8.388Z" style="fill:#3d3f3f;"/><path id="Key51" serif:id="Key" d="M118,55.806c0,-0.997 -0.809,-1.806 -1.806,-1.806l-8.388,0c-0.997,0 -1.806,0.809 -1.806,1.806l0,8.388c0,0.997 0.809,1.806 1.806,1.806l8.388,0c0.997,0 1.806,-0.809 1.806,-1.806l0,-8.388Z" style="fill:#3d3f3f;"/><path id="Key52" serif:id="Key" d="M82,91.806c0,-0.997 -0.809,-1.806 -1.806,-1.806l-8.388,0c-0.997,0 -1.806,0.809 -1.806,1.806l0,8.388c0,0.997 0.809,1.806 1.806,1.806l8.388,0c0.997,0 1.806,-0.809 1.806,-1.806l0,-8.388Z" style="fill:#3d3f3f;"/><path id="Key53" serif:id="Key" d="M64,73.806c0,-0.997 -0.809,-1.806 -1.806,-1.806l-8.388,0c-0.997,0 -1.806,0.809 -1.806,1.806l0,8.388c0,0.997 0.809,1.806 1.806,1.806l8.388,0c0.997,0 1.806,-0.809 1.806,-1.806l0,-8.388Z" style="fill:#3d3f3f;"/><path id="Key54" serif:id="Key" d="M82,73.806c0,-0.997 -0.809,-1.806 -1.806,-1.806l-8.388,0c-0.997,0 -1.806,0.809 -1.806,1.806l0,8.388c0,0.997 0.809,1.806 1.806,1.806l8.388,0c0.997,0 1.806,-0.809 1.806,-1.806l0,-8.388Z" style="fill:#3d3f3f;"/><path id="Key55" serif:id="Key" d="M64,91.806c0,-0.997 -0.809,-1.806 -1.806,-1.806l-8.388,0c-0.997,0 -1.806,0.809 -1.806,1.806l0,8.388c0,0.997 0.809,1.806 1.806,1.806l8.388,0c0.997,0 1.806,-0.809 1.806,-1.806l0,-8.388Z" style="fill:#3d3f3f;"/><path id="Key56" serif:id="Key" d="M118,91.806c0,-0.997 -0.809,-1.806 -1.806,-1.806l-8.388,0c-0.997,0 -1.806,0.809 -1.806,1.806l0,8.388c0,0.997 0.809,1.806 1.806,1.806l8.388,0c0.997,0 1.806,-0.809 1.806,-1.806l0,-8.388Z" style="fill:#3d3f3f;"/><path id="Key57" serif:id="Key" d="M100,73.806c0,-0.997 -0.809,-1.806 -1.806,-1.806l-8.388,0c-0.997,0 -1.806,0.809 -1.806,1.806l0,8.388c0,0.997 0.809,1.806 1.806,1.806l8.388,0c0.997,0 1.806,-0.809 1.806,-1.806l0,-8.388Z" style="fill:#3d3f3f;"/><path id="Key58" serif:id="Key" d="M118,73.806c0,-0.997 -0.809,-1.806 -1.806,-1.806l-8.388,0c-0.997,0 -1.806,0.809 -1.806,1.806l0,8.388c0,0.997 0.809,1.806 1.806,1.806l8.388,0c0.997,0 1.806,-0.809 1.806,-1.806l0,-8.388Z" style="fill:#3d3f3f;"/><path id="Key59" serif:id="Key" d="M100,91.806c0,-0.997 -0.809,-1.806 -1.806,-1.806l-8.388,0c-0.997,0 -1.806,0.809 -1.806,1.806l0,8.388c0,0.997 0.809,1.806 1.806,1.806l8.388,0c0.997,0 1.806,-0.809 1.806,-1.806l0,-8.388Z" style="fill:#3d3f3f;"/><path id="Key60" serif:id="Key" d="M82,55.806c0,-0.997 -0.809,-1.806 -1.806,-1.806l-8.388,0c-0.997,0 -1.806,0.809 -1.806,1.806l0,8.388c0,0.997 0.809,1.806 1.806,1.806l8.388,0c0.997,0 1.806,-0.809 1.806,-1.806l0,-8.388Z" style="fill:#3d3f3f;"/><path id="Key61" serif:id="Key" d="M64,37.806c0,-0.997 -0.809,-1.806 -1.806,-1.806l-8.388,0c-0.997,0 -1.806,0.809 -1.806,1.806l0,8.388c0,0.997 0.809,1.806 1.806,1.806l8.388,0c0.997,0 1.806,-0.809 1.806,-1.806l0,-8.388Z" style="fill:#3d3f3f;"/><path id="Key62" serif:id="Key" d="M82,37.806c0,-0.997 -0.809,-1.806 -1.806,-1.806l-8.388,0c-0.997,0 -1.806,0.809 -1.806,1.806l0,8.388c0,0.997 0.809,1.806 1.806,1.806l8.388,0c0.997,0 1.806,-0.809 1.806,-1.806l0,-8.388Z" style="fill:#3d3f3f;"/><path id="Key63" serif:id="Key" d="M64,55.806c0,-0.997 -0.809,-1.806 -1.806,-1.806l-8.388,0c-0.997,0 -1.806,0.809 -1.806,1.806l0,8.388c0,0.997 0.809,1.806 1.806,1.806l8.388,0c0.997,0 1.806,-0.809 1.806,-1.806l0,-8.388Z" style="fill:#3d3f3f;"/><path id="Key64" serif:id="Key" d="M334,127.806c0,-0.997 -0.809,-1.806 -1.806,-1.806l-8.388,0c-0.997,0 -1.806,0.809 -1.806,1.806l-0,8.388c-0,0.997 0.809,1.806 1.806,1.806l8.388,0c0.997,0 1.806,-0.809 1.806,-1.806l0,-8.388Z" style="fill:#3d3f3f;"/><path id="Key65" serif:id="Key" d="M316,109.806c0,-0.997 -0.809,-1.806 -1.806,-1.806l-8.388,0c-0.997,0 -1.806,0.809 -1.806,1.806l-0,8.388c-0,0.997 0.809,1.806 1.806,1.806l8.388,0c0.997,0 1.806,-0.809 1.806,-1.806l0,-8.388Z" style="fill:#3d3f3f;"/><path id="Key66" serif:id="Key" d="M334,109.806c0,-0.997 -0.809,-1.806 -1.806,-1.806l-8.388,0c-0.997,0 -1.806,0.809 -1.806,1.806l-0,8.388c-0,0.997 0.809,1.806 1.806,1.806l8.388,0c0.997,0 1.806,-0.809 1.806,-1.806l0,-8.388Z" style="fill:#3d3f3f;"/><path id="Key67" serif:id="Key" d="M316,127.806c0,-0.997 -0.809,-1.806 -1.806,-1.806l-8.388,0c-0.997,0 -1.806,0.809 -1.806,1.806l-0,8.388c-0,0.997 0.809,1.806 1.806,1.806l8.388,0c0.997,0 1.806,-0.809 1.806,-1.806l0,-8.388Z" style="fill:#3d3f3f;"/><path id="Key68" serif:id="Key" d="M298,163.806c0,-0.997 -0.809,-1.806 -1.806,-1.806l-8.388,0c-0.997,0 -1.806,0.809 -1.806,1.806l-0,8.388c-0,0.997 0.809,1.806 1.806,1.806l8.388,0c0.997,0 1.806,-0.809 1.806,-1.806l0,-8.388Z" style="fill:#3d3f3f;"/><path id="Key69" serif:id="Key" d="M280,145.806c-0,-0.997 -0.809,-1.806 -1.806,-1.806l-8.388,0c-0.997,0 -1.806,0.809 -1.806,1.806l-0,8.388c-0,0.997 0.809,1.806 1.806,1.806l8.388,0c0.997,0 1.806,-0.809 1.806,-1.806l-0,-8.388Z" style="fill:#3d3f3f;"/><path id="Key70" serif:id="Key" d="M298,145.806c0,-0.997 -0.809,-1.806 -1.806,-1.806l-8.388,0c-0.997,0 -1.806,0.809 -1.806,1.806l-0,8.388c-0,0.997 0.809,1.806 1.806,1.806l8.388,0c0.997,0 1.806,-0.809 1.806,-1.806l0,-8.388Z" style="fill:#3d3f3f;"/><path id="Key71" serif:id="Key" d="M280,163.806c0,-0.997 -0.809,-1.806 -1.806,-1.806l-8.388,0c-0.997,0 -1.806,0.809 -1.806,1.806l-0,8.388c-0,0.997 0.809,1.806 1.806,1.806l8.388,0c0.997,0 1.806,-0.809 1.806,-1.806l0,-8.388Z" style="fill:#3d3f3f;"/><path id="Key72" serif:id="Key" d="M334,163.806c0,-0.997 -0.809,-1.806 -1.806,-1.806l-8.388,0c-0.997,0 -1.806,0.809 -1.806,1.806l-0,8.388c-0,0.997 0.809,1.806 1.806,1.806l8.388,0c0.997,0 1.806,-0.809 1.806,-1.806l0,-8.388Z" style="fill:#3d3f3f;"/><path id="Key73" serif:id="Key" d="M316,145.806c0,-0.997 -0.809,-1.806 -1.806,-1.806l-8.388,0c-0.997,0 -1.806,0.809 -1.806,1.806l-0,8.388c-0,0.997 0.809,1.806 1.806,1.806l8.388,0c0.997,0 1.806,-0.809 1.806,-1.806l0,-8.388Z" style="fill:#3d3f3f;"/><path id="Key74" serif:id="Key" d="M334,145.806c0,-0.997 -0.809,-1.806 -1.806,-1.806l-8.388,0c-0.997,0 -1.806,0.809 -1.806,1.806l-0,8.388c-0,0.997 0.809,1.806 1.806,1.806l8.388,0c0.997,0 1.806,-0.809 1.806,-1.806l0,-8.388Z" style="fill:#3d3f3f;"/><path id="Key75" serif:id="Key" d="M316,163.806c0,-0.997 -0.809,-1.806 -1.806,-1.806l-8.388,0c-0.997,0 -1.806,0.809 -1.806,1.806l-0,8.388c-0,0.997 0.809,1.806 1.806,1.806l8.388,0c0.997,0 1.806,-0.809 1.806,-1.806l0,-8.388Z" style="fill:#3d3f3f;"/><path id="Key76" serif:id="Key" d="M298,127.806c0,-0.997 -0.809,-1.806 -1.806,-1.806l-8.388,0c-0.997,0 -1.806,0.809 -1.806,1.806l-0,8.388c-0,0.997 0.809,1.806 1.806,1.806l8.388,0c0.997,0 1.806,-0.809 1.806,-1.806l0,-8.388Z" style="fill:#3d3f3f;"/><path id="Key77" serif:id="Key" d="M280,109.806c0,-0.997 -0.809,-1.806 -1.806,-1.806l-8.388,0c-0.997,0 -1.806,0.809 -1.806,1.806l-0,8.388c-0,0.997 0.809,1.806 1.806,1.806l8.388,0c0.997,0 1.806,-0.809 1.806,-1.806l0,-8.388Z" style="fill:#3d3f3f;"/><path id="Key78" serif:id="Key" d="M298,109.806c0,-0.997 -0.809,-1.806 -1.806,-1.806l-8.388,0c-0.997,0 -1.806,0.809 -1.806,1.806l-0,8.388c-0,0.997 0.809,1.806 1.806,1.806l8.388,0c0.997,0 1.806,-0.809 1.806,-1.806l0,-8.388Z" style="fill:#3d3f3f;"/><path id="Key79" serif:id="Key" d="M280,127.806c0,-0.997 -0.809,-1.806 -1.806,-1.806l-8.388,0c-0.997,0 -1.806,0.809 -1.806,1.806l-0,8.388c-0,0.997 0.809,1.806 1.806,1.806l8.388,0c0.997,0 1.806,-0.809 1.806,-1.806l0,-8.388Z" style="fill:#3d3f3f;"/><path id="Key80" serif:id="Key" d="M244,127.806c0,-0.997 -0.809,-1.806 -1.806,-1.806l-8.388,0c-0.997,0 -1.806,0.809 -1.806,1.806l0,8.388c0,0.997 0.809,1.806 1.806,1.806l8.388,0c0.997,0 1.806,-0.809 1.806,-1.806l0,-8.388Z" style="fill:#3d3f3f;"/><path id="Key81" serif:id="Key" d="M244,109.806c0,-0.997 -0.809,-1.806 -1.806,-1.806l-8.388,0c-0.997,0 -1.806,0.809 -1.806,1.806l0,8.388c0,0.997 0.809,1.806 1.806,1.806l8.388,0c0.997,0 1.806,-0.809 1.806,-1.806l0,-8.388Z" style="fill:#3d3f3f;"/><path id="Key82" serif:id="Key" d="M262,109.806c0,-0.997 -0.809,-1.806 -1.806,-1.806l-8.388,0c-0.997,0 -1.806,0.809 -1.806,1.806l0,8.388c0,0.997 0.809,1.806 1.806,1.806l8.388,0c0.997,0 1.806,-0.809 1.806,-1.806l0,-8.388Z" style="fill:#3d3f3f;"/><path id="Key83" serif:id="Key" d="M262,127.806c0,-0.997 -0.809,-1.806 -1.806,-1.806l-8.388,0c-0.997,0 -1.806,0.809 -1.806,1.806l0,8.388c0,0.997 0.809,1.806 1.806,1.806l8.388,0c0.997,0 1.806,-0.809 1.806,-1.806l0,-8.388Z" style="fill:#3d3f3f;"/><path id="Key84" serif:id="Key" d="M226,163.806c0,-0.997 -0.809,-1.806 -1.806,-1.806l-8.388,0c-0.997,0 -1.806,0.809 -1.806,1.806l0,8.388c0,0.997 0.809,1.806 1.806,1.806l8.388,0c0.997,0 1.806,-0.809 1.806,-1.806l0,-8.388Z" style="fill:#3d3f3f;"/><path id="Key85" serif:id="Key" d="M208,145.806c0,-0.997 -0.809,-1.806 -1.806,-1.806l-8.388,0c-0.997,0 -1.806,0.809 -1.806,1.806l0,8.388c0,0.997 0.809,1.806 1.806,1.806l8.388,0c0.997,0 1.806,-0.809 1.806,-1.806l0,-8.388Z" style="fill:#3d3f3f;"/><path id="Key86" serif:id="Key" d="M226,145.806c0,-0.997 -0.809,-1.806 -1.806,-1.806l-8.388,0c-0.997,0 -1.806,0.809 -1.806,1.806l0,8.388c0,0.997 0.809,1.806 1.806,1.806l8.388,0c0.997,0 1.806,-0.809 1.806,-1.806l0,-8.388Z" style="fill:#3d3f3f;"/><path id="Key87" serif:id="Key" d="M208,163.806c0,-0.997 -0.809,-1.806 -1.806,-1.806l-8.388,0c-0.997,0 -1.806,0.809 -1.806,1.806l0,8.388c0,0.997 0.809,1.806 1.806,1.806l8.388,0c0.997,0 1.806,-0.809 1.806,-1.806l0,-8.388Z" style="fill:#3d3f3f;"/><path id="Key88" serif:id="Key" d="M262,163.806c0,-0.997 -0.809,-1.806 -1.806,-1.806l-8.388,0c-0.997,0 -1.806,0.809 -1.806,1.806l0,8.388c0,0.997 0.809,1.806 1.806,1.806l8.388,0c0.997,0 1.806,-0.809 1.806,-1.806l0,-8.388Z" style="fill:#3d3f3f;"/><path id="Key89" serif:id="Key" d="M244,145.806c0,-0.997 -0.809,-1.806 -1.806,-1.806l-8.388,0c-0.997,0 -1.806,0.809 -1.806,1.806l0,8.388c0,0.997 0.809,1.806 1.806,1.806l8.388,0c0.997,0 1.806,-0.809 1.806,-1.806l0,-8.388Z" style="fill:#3d3f3f;"/><path id="Key90" serif:id="Key" d="M262,145.806c0,-0.997 -0.809,-1.806 -1.806,-1.806l-8.388,0c-0.997,0 -1.806,0.809 -1.806,1.806l0,8.388c0,0.997 0.809,1.806 1.806,1.806l8.388,0c0.997,0 1.806,-0.809 1.806,-1.806l0,-8.388Z" style="fill:#3d3f3f;"/><path id="Key91" serif:id="Key" d="M244,163.806c0,-0.997 -0.809,-1.806 -1.806,-1.806l-8.388,0c-0.997,0 -1.806,0.809 -1.806,1.806l0,8.388c0,0.997 0.809,1.806 1.806,1.806l8.388,0c0.997,0 1.806,-0.809 1.806,-1.806l0,-8.388Z" style="fill:#3d3f3f;"/><path id="Key92" serif:id="Key" d="M226,127.806c0,-0.997 -0.809,-1.806 -1.806,-1.806l-8.388,0c-0.997,0 -1.806,0.809 -1.806,1.806l0,8.388c0,0.997 0.809,1.806 1.806,1.806l8.388,0c0.997,0 1.806,-0.809 1.806,-1.806l0,-8.388Z" style="fill:#3d3f3f;"/><path id="Key93" serif:id="Key" d="M208,109.806c0,-0.997 -0.809,-1.806 -1.806,-1.806l-8.388,0c-0.997,0 -1.806,0.809 -1.806,1.806l0,8.388c0,0.997 0.809,1.806 1.806,1.806l8.388,0c0.997,0 1.806,-0.809 1.806,-1.806l0,-8.388Z" style="fill:#3d3f3f;"/><path id="Key94" serif:id="Key" d="M226,109.806c0,-0.997 -0.809,-1.806 -1.806,-1.806l-8.388,0c-0.997,0 -1.806,0.809 -1.806,1.806l0,8.388c0,0.997 0.809,1.806 1.806,1.806l8.388,0c0.997,0 1.806,-0.809 1.806,-1.806l0,-8.388Z" style="fill:#3d3f3f;"/><path id="Key95" serif:id="Key" d="M208,127.806c0,-0.997 -0.809,-1.806 -1.806,-1.806l-8.388,0c-0.997,0 -1.806,0.809 -1.806,1.806l0,8.388c0,0.997 0.809,1.806 1.806,1.806l8.388,0c0.997,0 1.806,-0.809 1.806,-1.806l0,-8.388Z" style="fill:#3d3f3f;"/><path id="Key96" serif:id="Key" d="M190,127.806c-0,-0.997 -0.809,-1.806 -1.806,-1.806l-8.388,0c-0.997,0 -1.806,0.809 -1.806,1.806l0,8.388c0,0.997 0.809,1.806 1.806,1.806l8.388,0c0.997,0 1.806,-0.809 1.806,-1.806l-0,-8.388Z" style="fill:#3d3f3f;"/><path id="Key97" serif:id="Key" d="M172,109.806c-0,-0.997 -0.809,-1.806 -1.806,-1.806l-8.388,0c-0.997,0 -1.806,0.809 -1.806,1.806l-0,8.388c-0,0.997 0.809,1.806 1.806,1.806l8.388,0c0.997,0 1.806,-0.809 1.806,-1.806l-0,-8.388Z" style="fill:#3d3f3f;"/><path id="Key98" serif:id="Key" d="M190,109.806c-0,-0.997 -0.809,-1.806 -1.806,-1.806l-8.388,0c-0.997,0 -1.806,0.809 -1.806,1.806l0,8.388c0,0.997 0.809,1.806 1.806,1.806l8.388,0c0.997,0 1.806,-0.809 1.806,-1.806l-0,-8.388Z" style="fill:#3d3f3f;"/><path id="Key99" serif:id="Key" d="M172,127.806c-0,-0.997 -0.809,-1.806 -1.806,-1.806l-8.388,0c-0.997,0 -1.806,0.809 -1.806,1.806l0,8.388c0,0.997 0.809,1.806 1.806,1.806l8.388,0c0.997,0 1.806,-0.809 1.806,-1.806l-0,-8.388Z" style="fill:#3d3f3f;"/><path id="Key100" serif:id="Key" d="M154,163.806c-0,-0.997 -0.809,-1.806 -1.806,-1.806l-8.388,0c-0.997,0 -1.806,0.809 -1.806,1.806l0,8.388c0,0.997 0.809,1.806 1.806,1.806l8.388,0c0.997,0 1.806,-0.809 1.806,-1.806l-0,-8.388Z" style="fill:#3d3f3f;"/><path id="Key101" serif:id="Key" d="M136,145.806c-0,-0.997 -0.809,-1.806 -1.806,-1.806l-8.388,0c-0.997,0 -1.806,0.809 -1.806,1.806l-0,8.388c-0,0.997 0.809,1.806 1.806,1.806l8.388,0c0.997,0 1.806,-0.809 1.806,-1.806l-0,-8.388Z" style="fill:#3d3f3f;"/><path id="Key102" serif:id="Key" d="M154,145.806c-0,-0.997 -0.809,-1.806 -1.806,-1.806l-8.388,0c-0.997,0 -1.806,0.809 -1.806,1.806l0,8.388c0,0.997 0.809,1.806 1.806,1.806l8.388,0c0.997,0 1.806,-0.809 1.806,-1.806l-0,-8.388Z" style="fill:#3d3f3f;"/><path id="Key103" serif:id="Key" d="M136,163.806c-0,-0.997 -0.809,-1.806 -1.806,-1.806l-8.388,0c-0.997,0 -1.806,0.809 -1.806,1.806l-0,8.388c-0,0.997 0.809,1.806 1.806,1.806l8.388,0c0.997,0 1.806,-0.809 1.806,-1.806l-0,-8.388Z" style="fill:#3d3f3f;"/><path id="Key104" serif:id="Key" d="M190,163.806c0,-0.997 -0.809,-1.806 -1.806,-1.806l-8.388,0c-0.997,0 -1.806,0.809 -1.806,1.806l0,8.388c0,0.997 0.809,1.806 1.806,1.806l8.388,0c0.997,0 1.806,-0.809 1.806,-1.806l0,-8.388Z" style="fill:#3d3f3f;"/><path id="Key105" serif:id="Key" d="M172,145.806c0,-0.997 -0.809,-1.806 -1.806,-1.806l-8.388,0c-0.997,0 -1.806,0.809 -1.806,1.806l0,8.388c0,0.997 0.809,1.806 1.806,1.806l8.388,0c0.997,0 1.806,-0.809 1.806,-1.806l0,-8.388Z" style="fill:#3d3f3f;"/><path id="Key106" serif:id="Key" d="M190,145.806c0,-0.997 -0.809,-1.806 -1.806,-1.806l-8.388,0c-0.997,0 -1.806,0.809 -1.806,1.806l0,8.388c0,0.997 0.809,1.806 1.806,1.806l8.388,0c0.997,0 1.806,-0.809 1.806,-1.806l0,-8.388Z" style="fill:#3d3f3f;"/><path id="Key107" serif:id="Key" d="M172,163.806c0,-0.997 -0.809,-1.806 -1.806,-1.806l-8.388,0c-0.997,0 -1.806,0.809 -1.806,1.806l0,8.388c0,0.997 0.809,1.806 1.806,1.806l8.388,0c0.997,0 1.806,-0.809 1.806,-1.806l0,-8.388Z" style="fill:#3d3f3f;"/><path id="Key108" serif:id="Key" d="M154,127.806c0,-0.997 -0.809,-1.806 -1.806,-1.806l-8.388,0c-0.997,0 -1.806,0.809 -1.806,1.806l0,8.388c0,0.997 0.809,1.806 1.806,1.806l8.388,0c0.997,0 1.806,-0.809 1.806,-1.806l0,-8.388Z" style="fill:#3d3f3f;"/><path id="Key109" serif:id="Key" d="M136,109.806c0,-0.997 -0.809,-1.806 -1.806,-1.806l-8.388,0c-0.997,0 -1.806,0.809 -1.806,1.806l0,8.388c0,0.997 0.809,1.806 1.806,1.806l8.388,0c0.997,0 1.806,-0.809 1.806,-1.806l0,-8.388Z" style="fill:#3d3f3f;"/><path id="Key110" serif:id="Key" d="M154,109.806c0,-0.997 -0.809,-1.806 -1.806,-1.806l-8.388,0c-0.997,0 -1.806,0.809 -1.806,1.806l0,8.388c0,0.997 0.809,1.806 1.806,1.806l8.388,0c0.997,0 1.806,-0.809 1.806,-1.806l0,-8.388Z" style="fill:#3d3f3f;"/><path id="Key111" serif:id="Key" d="M136,127.806c0,-0.997 -0.809,-1.806 -1.806,-1.806l-8.388,0c-0.997,0 -1.806,0.809 -1.806,1.806l0,8.388c0,0.997 0.809,1.806 1.806,1.806l8.388,0c0.997,0 1.806,-0.809 1.806,-1.806l0,-8.388Z" style="fill:#3d3f3f;"/><path id="Key112" serif:id="Key" d="M100,127.806c0,-0.997 -0.809,-1.806 -1.806,-1.806l-8.388,0c-0.997,0 -1.806,0.809 -1.806,1.806l0,8.388c0,0.997 0.809,1.806 1.806,1.806l8.388,0c0.997,0 1.806,-0.809 1.806,-1.806l0,-8.388Z" style="fill:#3d3f3f;"/><path id="Key113" serif:id="Key" d="M100,109.806c0,-0.997 -0.809,-1.806 -1.806,-1.806l-8.388,0c-0.997,0 -1.806,0.809 -1.806,1.806l0,8.388c0,0.997 0.809,1.806 1.806,1.806l8.388,0c0.997,0 1.806,-0.809 1.806,-1.806l0,-8.388Z" style="fill:#3d3f3f;"/><path id="Key114" serif:id="Key" d="M118,109.806c0,-0.997 -0.809,-1.806 -1.806,-1.806l-8.388,0c-0.997,0 -1.806,0.809 -1.806,1.806l0,8.388c0,0.997 0.809,1.806 1.806,1.806l8.388,0c0.997,0 1.806,-0.809 1.806,-1.806l0,-8.388Z" style="fill:#3d3f3f;"/><path id="Key115" serif:id="Key" d="M118,127.806c0,-0.997 -0.809,-1.806 -1.806,-1.806l-8.388,0c-0.997,0 -1.806,0.809 -1.806,1.806l0,8.388c0,0.997 0.809,1.806 1.806,1.806l8.388,0c0.997,0 1.806,-0.809 1.806,-1.806l0,-8.388Z" style="fill:#3d3f3f;"/><path id="Key116" serif:id="Key" d="M82,163.806c0,-0.997 -0.809,-1.806 -1.806,-1.806l-8.388,0c-0.997,0 -1.806,0.809 -1.806,1.806l0,8.388c0,0.997 0.809,1.806 1.806,1.806l8.388,0c0.997,0 1.806,-0.809 1.806,-1.806l0,-8.388Z" style="fill:#3d3f3f;"/><path id="Key117" serif:id="Key" d="M64,145.806c0,-0.997 -0.809,-1.806 -1.806,-1.806l-8.388,0c-0.997,0 -1.806,0.809 -1.806,1.806l0,8.388c0,0.997 0.809,1.806 1.806,1.806l8.388,0c0.997,0 1.806,-0.809 1.806,-1.806l0,-8.388Z" style="fill:#3d3f3f;"/><path id="Key118" serif:id="Key" d="M82,145.806c0,-0.997 -0.809,-1.806 -1.806,-1.806l-8.388,0c-0.997,0 -1.806,0.809 -1.806,1.806l0,8.388c0,0.997 0.809,1.806 1.806,1.806l8.388,0c0.997,0 1.806,-0.809 1.806,-1.806l0,-8.388Z" style="fill:#3d3f3f;"/><path id="Key119" serif:id="Key" d="M64,163.806c0,-0.997 -0.809,-1.806 -1.806,-1.806l-8.388,0c-0.997,0 -1.806,0.809 -1.806,1.806l0,8.388c0,0.997 0.809,1.806 1.806,1.806l8.388,0c0.997,0 1.806,-0.809 1.806,-1.806l0,-8.388Z" style="fill:#3d3f3f;"/><path id="Key120" serif:id="Key" d="M118,163.806c0,-0.997 -0.809,-1.806 -1.806,-1.806l-8.388,0c-0.997,0 -1.806,0.809 -1.806,1.806l0,8.388c0,0.997 0.809,1.806 1.806,1.806l8.388,0c0.997,0 1.806,-0.809 1.806,-1.806l0,-8.388Z" style="fill:#3d3f3f;"/><path id="Key121" serif:id="Key" d="M100,145.806c0,-0.997 -0.809,-1.806 -1.806,-1.806l-8.388,0c-0.997,0 -1.806,0.809 -1.806,1.806l0,8.388c0,0.997 0.809,1.806 1.806,1.806l8.388,0c0.997,0 1.806,-0.809 1.806,-1.806l0,-8.388Z" style="fill:#3d3f3f;"/><path id="Key122" serif:id="Key" d="M118,145.806c0,-0.997 -0.809,-1.806 -1.806,-1.806l-8.388,0c-0.997,0 -1.806,0.809 -1.806,1.806l0,8.388c0,0.997 0.809,1.806 1.806,1.806l8.388,0c0.997,0 1.806,-0.809 1.806,-1.806l0,-8.388Z" style="fill:#3d3f3f;"/><path id="Key123" serif:id="Key" d="M100,163.806c0,-0.997 -0.809,-1.806 -1.806,-1.806l-8.388,0c-0.997,0 -1.806,0.809 -1.806,1.806l0,8.388c0,0.997 0.809,1.806 1.806,1.806l8.388,0c0.997,0 1.806,-0.809 1.806,-1.806l0,-8.388Z" style="fill:#3d3f3f;"/><path id="Key124" serif:id="Key" d="M82,127.806c0,-0.997 -0.809,-1.806 -1.806,-1.806l-8.388,0c-0.997,0 -1.806,0.809 -1.806,1.806l0,8.388c0,0.997 0.809,1.806 1.806,1.806l8.388,0c0.997,0 1.806,-0.809 1.806,-1.806l0,-8.388Z" style="fill:#3d3f3f;"/><path id="Key125" serif:id="Key" d="M64,109.806c0,-0.997 -0.809,-1.806 -1.806,-1.806l-8.388,0c-0.997,0 -1.806,0.809 -1.806,1.806l0,8.388c0,0.997 0.809,1.806 1.806,1.806l8.388,0c0.997,0 1.806,-0.809 1.806,-1.806l0,-8.388Z" style="fill:#3d3f3f;"/><path id="Key126" serif:id="Key" d="M82,109.806c0,-0.997 -0.809,-1.806 -1.806,-1.806l-8.388,0c-0.997,0 -1.806,0.809 -1.806,1.806l0,8.388c0,0.997 0.809,1.806 1.806,1.806l8.388,0c0.997,0 1.806,-0.809 1.806,-1.806l0,-8.388Z" style="fill:#3d3f3f;"/><path id="Key127" serif:id="Key" d="M64,127.806c0,-0.997 -0.809,-1.806 -1.806,-1.806l-8.388,0c-0.997,0 -1.806,0.809 -1.806,1.806l0,8.388c0,0.997 0.809,1.806 1.806,1.806l8.388,0c0.997,0 1.806,-0.809 1.806,-1.806l0,-8.388Z" style="fill:#3d3f3f;"/></g><g id="Seq-view" serif:id="Seq view"><path id="Arp-key" serif:id="Arp key" d="M334,163.806c0,-0.997 -0.809,-1.806 -1.806,-1.806l-8.388,0c-0.997,0 -1.806,0.809 -1.806,1.806l-0,8.388c-0,0.997 0.809,1.806 1.806,1.806l8.388,-0c0.997,-0 1.806,-0.809 1.806,-1.806l0,-8.388Z" style="fill:#858484;"/><path id="Chord-key" serif:id="Chord key" d="M334,145.806c0,-0.997 -0.809,-1.806 -1.806,-1.806l-8.388,0c-0.997,0 -1.806,0.809 -1.806,1.806l-0,8.388c-0,0.997 0.809,1.806 1.806,1.806l8.388,-0c0.997,-0 1.806,-0.809 1.806,-1.806l0,-8.388Z" style="fill:#858484;"/><path id="Arranger-key" serif:id="Arranger key" d="M334,127.806c0,-0.997 -0.809,-1.806 -1.806,-1.806l-8.388,0c-0.997,0 -1.806,0.809 -1.806,1.806l-0,8.388c-0,0.997 0.809,1.806 1.806,1.806l8.388,0c0.997,0 1.806,-0.809 1.806,-1.806l0,-8.388Z" style="fill:#858484;"/><g id="Chord-seq" serif:id="Chord seq"><path id="_15" serif:id="15" d="M334,163.806c0,-0.997 -0.809,-1.806 -1.806,-1.806l-8.388,0c-0.997,0 -1.806,0.809 -1.806,1.806l-0,8.388c-0,0.997 0.809,1.806 1.806,1.806l8.388,-0c0.997,-0 1.806,-0.809 1.806,-1.806l0,-8.388Z" style="fill:#ececec;"/><path id="_151" serif:id="15" d="M64,37.806c0,-0.997 -0.809,-1.806 -1.806,-1.806l-8.388,0c-0.997,0 -1.806,0.809 -1.806,1.806l0,8.388c0,0.997 0.809,1.806 1.806,1.806l8.388,0c0.997,0 1.806,-0.809 1.806,-1.806l0,-8.388Z" style="fill:#ececec;"/><path id="_152" serif:id="15" d="M82,55.806c0,-0.997 -0.809,-1.806 -1.806,-1.806l-8.388,0c-0.997,0 -1.806,0.809 -1.806,1.806l0,8.388c0,0.997 0.809,1.806 1.806,1.806l8.388,0c0.997,0 1.806,-0.809 1.806,-1.806l0,-8.388Z" style="fill:#ececec;"/><path id="_153" serif:id="15" d="M100,73.806c0,-0.997 -0.809,-1.806 -1.806,-1.806l-8.388,0c-0.997,0 -1.806,0.809 -1.806,1.806l0,8.388c0,0.997 0.809,1.806 1.806,1.806l8.388,0c0.997,0 1.806,-0.809 1.806,-1.806l0,-8.388Z" style="fill:#ececec;"/><path id="_154" serif:id="15" d="M118,91.806c0,-0.997 -0.809,-1.806 -1.806,-1.806l-8.388,0c-0.997,0 -1.806,0.809 -1.806,1.806l0,8.388c0,0.997 0.809,1.806 1.806,1.806l8.388,0c0.997,0 1.806,-0.809 1.806,-1.806l0,-8.388Z" style="fill:#ececec;"/><path id="_155" serif:id="15" d="M136,109.806c0,-0.997 -0.809,-1.806 -1.806,-1.806l-8.388,0c-0.997,0 -1.806,0.809 -1.806,1.806l0,8.388c0,0.997 0.809,1.806 1.806,1.806l8.388,0c0.997,0 1.806,-0.809 1.806,-1.806l0,-8.388Z" style="fill:#ececec;"/><path id="_156" serif:id="15" d="M154,127.806c0,-0.997 -0.809,-1.806 -1.806,-1.806l-8.388,0c-0.997,0 -1.806,0.809 -1.806,1.806l0,8.388c0,0.997 0.809,1.806 1.806,1.806l8.388,0c0.997,0 1.806,-0.809 1.806,-1.806l0,-8.388Z" style="fill:#ececec;"/><path id="_157" serif:id="15" d="M172,145.806c0,-0.997 -0.809,-1.806 -1.806,-1.806l-8.388,0c-0.997,0 -1.806,0.809 -1.806,1.806l0,8.388c0,0.997 0.809,1.806 1.806,1.806l8.388,-0c0.997,-0 1.806,-0.809 1.806,-1.806l0,-8.388Z" style="fill:#ececec;"/><path id="_158" serif:id="15" d="M190,163.806c0,-0.997 -0.809,-1.806 -1.806,-1.806l-8.388,0c-0.997,0 -1.806,0.809 -1.806,1.806l0,8.388c0,0.997 0.809,1.806 1.806,1.806l8.388,-0c0.997,-0 1.806,-0.809 1.806,-1.806l0,-8.388Z" style="fill:#ececec;"/></g><g id="Pattern-length" serif:id="Pattern length"><path id="_159" serif:id="15" d="M316,37.806c0,-0.997 -0.809,-1.806 -1.806,-1.806l-8.388,0c-0.997,0 -1.806,0.809 -1.806,1.806l-0,8.388c-0,0.997 0.809,1.806 1.806,1.806l8.388,0c0.997,0 1.806,-0.809 1.806,-1.806l0,-8.388Z" style="fill:#ececec;"/><path id="_1510" serif:id="15" d="M316,55.806c-0,-0.997 -0.809,-1.806 -1.806,-1.806l-8.388,-0c-0.997,-0 -1.806,0.809 -1.806,1.806l-0,8.388c-0,0.997 0.809,1.806 1.806,1.806l8.388,0c0.997,0 1.806,-0.809 1.806,-1.806l-0,-8.388Z" style="fill:#ececec;"/><path id="_1511" serif:id="15" d="M316,73.806c-0,-0.997 -0.809,-1.806 -1.806,-1.806l-8.388,0c-0.997,0 -1.806,0.809 -1.806,1.806l-0,8.388c-0,0.997 0.809,1.806 1.806,1.806l8.388,0c0.997,0 1.806,-0.809 1.806,-1.806l-0,-8.388Z" style="fill:#ececec;"/><path id="_1512" serif:id="15" d="M316,91.806c0,-0.997 -0.809,-1.806 -1.806,-1.806l-8.388,-0c-0.997,-0 -1.806,0.809 -1.806,1.806l-0,8.388c-0,0.997 0.809,1.806 1.806,1.806l8.388,-0c0.997,-0 1.806,-0.809 1.806,-1.806l0,-8.388Z" style="fill:#ececec;"/><path id="_1513" serif:id="15" d="M316,109.806c0,-0.997 -0.809,-1.806 -1.806,-1.806l-8.388,0c-0.997,0 -1.806,0.809 -1.806,1.806l-0,8.388c-0,0.997 0.809,1.806 1.806,1.806l8.388,0c0.997,0 1.806,-0.809 1.806,-1.806l0,-8.388Z" style="fill:#ececec;"/><path id="_1514" serif:id="15" d="M316,127.806c-0,-0.997 -0.809,-1.806 -1.806,-1.806l-8.388,-0c-0.997,-0 -1.806,0.809 -1.806,1.806l-0,8.388c-0,0.997 0.809,1.806 1.806,1.806l8.388,-0c0.997,-0 1.806,-0.809 1.806,-1.806l-0,-8.388Z" style="fill:#ececec;"/><path id="_1515" serif:id="15" d="M316,145.806c-0,-0.997 -0.809,-1.806 -1.806,-1.806l-8.388,-0c-0.997,-0 -1.806,0.809 -1.806,1.806l-0,8.388c-0,0.997 0.809,1.806 1.806,1.806l8.388,-0c0.997,-0 1.806,-0.809 1.806,-1.806l-0,-8.388Z" style="fill:#ececec;"/><path id="_1516" serif:id="15" d="M316,163.806c0,-0.997 -0.809,-1.806 -1.806,-1.806l-8.388,-0c-0.997,-0 -1.806,0.809 -1.806,1.806l-0,8.388c-0,0.997 0.809,1.806 1.806,1.806l8.388,-0c0.997,-0 1.806,-0.809 1.806,-1.806l0,-8.388Z" style="fill:#ececec;"/></g><g transform="matrix(1,0,0,1,64.3753,-90.2404)"><g transform="matrix(10,0,0,10,-51.6429,193.473)"><path d="M0.436,-0.14c0,-0.011 -0.002,-0.021 -0.006,-0.029c-0.005,-0.009 -0.012,-0.017 -0.022,-0.024c-0.01,-0.007 -0.023,-0.014 -0.04,-0.02c-0.016,-0.006 -0.037,-0.011 -0.062,-0.016c-0.03,-0.006 -0.058,-0.014 -0.083,-0.022c-0.025,-0.009 -0.046,-0.02 -0.064,-0.032c-0.017,-0.012 -0.031,-0.026 -0.041,-0.043c-0.01,-0.016 -0.014,-0.035 -0.014,-0.057c-0,-0.022 0.005,-0.042 0.015,-0.061c0.01,-0.018 0.024,-0.035 0.042,-0.049c0.018,-0.014 0.04,-0.025 0.065,-0.033c0.026,-0.008 0.053,-0.012 0.084,-0.012c0.032,-0 0.061,0.004 0.087,0.013c0.027,0.008 0.049,0.02 0.067,0.035c0.018,0.015 0.032,0.032 0.042,0.052c0.01,0.02 0.015,0.042 0.015,0.065l-0.09,-0c-0,-0.011 -0.003,-0.023 -0.009,-0.033c-0.006,-0.011 -0.014,-0.021 -0.025,-0.03c-0.01,-0.008 -0.023,-0.015 -0.037,-0.02c-0.015,-0.005 -0.032,-0.008 -0.05,-0.008c-0.02,0 -0.036,0.002 -0.051,0.006c-0.014,0.005 -0.026,0.01 -0.036,0.018c-0.01,0.007 -0.017,0.015 -0.022,0.024c-0.005,0.01 -0.007,0.02 -0.007,0.03c-0,0.01 0.002,0.019 0.006,0.028c0.004,0.008 0.01,0.015 0.02,0.022c0.01,0.006 0.022,0.012 0.039,0.017c0.016,0.005 0.036,0.01 0.061,0.015c0.032,0.007 0.062,0.015 0.087,0.024c0.026,0.009 0.048,0.02 0.065,0.032c0.018,0.013 0.031,0.027 0.04,0.044c0.01,0.016 0.014,0.036 0.014,0.058c0,0.023 -0.005,0.044 -0.016,0.063c-0.01,0.02 -0.025,0.036 -0.044,0.05c-0.019,0.013 -0.041,0.024 -0.068,0.032c-0.026,0.007 -0.055,0.011 -0.086,0.011c-0.036,-0 -0.068,-0.005 -0.096,-0.015c-0.028,-0.009 -0.051,-0.022 -0.071,-0.038c-0.019,-0.016 -0.034,-0.034 -0.044,-0.055c-0.01,-0.02 -0.016,-0.042 -0.016,-0.065l0.091,0c0.001,0.019 0.006,0.035 0.015,0.047c0.008,0.013 0.019,0.023 0.032,0.031c0.013,0.008 0.027,0.013 0.043,0.017c0.015,0.003 0.031,0.005 0.046,0.005c0.038,-0 0.068,-0.007 0.09,-0.021c0.022,-0.014 0.034,-0.033 0.034,-0.056Z" style="fill:#fff;fill-rule:nonzero;"/></g><g transform="matrix(10,0,0,10,-45.6419,193.473)"><path d="M0.299,-0.656l-0,0.128l0.201,-0l0,0.07l-0.201,-0l-0,0.287c-0,0.02 0.002,0.037 0.008,0.05c0.005,0.014 0.012,0.024 0.021,0.032c0.009,0.008 0.02,0.014 0.032,0.017c0.012,0.003 0.024,0.005 0.037,0.005c0.01,0 0.02,-0 0.031,-0.002c0.01,-0.001 0.02,-0.002 0.03,-0.004c0.01,-0.001 0.019,-0.003 0.028,-0.005c0.009,-0.002 0.016,-0.003 0.021,-0.005l0.013,0.064c-0.007,0.005 -0.017,0.009 -0.027,0.012c-0.011,0.004 -0.023,0.007 -0.035,0.009c-0.013,0.003 -0.027,0.005 -0.041,0.006c-0.014,0.001 -0.028,0.002 -0.042,0.002c-0.023,-0 -0.045,-0.004 -0.066,-0.01c-0.02,-0.007 -0.038,-0.017 -0.053,-0.032c-0.015,-0.014 -0.026,-0.033 -0.035,-0.056c-0.009,-0.023 -0.013,-0.051 -0.013,-0.083l0,-0.287l-0.139,-0l0,-0.07l0.139,-0l0,-0.128l0.091,-0Z" style="fill:#fff;fill-rule:nonzero;"/></g><g transform="matrix(10,0,0,10,-39.641,193.473)"><path d="M0.318,0.01c-0.037,-0 -0.071,-0.007 -0.102,-0.019c-0.031,-0.013 -0.058,-0.031 -0.08,-0.054c-0.022,-0.022 -0.039,-0.049 -0.052,-0.081c-0.012,-0.031 -0.018,-0.065 -0.018,-0.102l-0,-0.02c-0,-0.043 0.007,-0.081 0.02,-0.115c0.014,-0.033 0.032,-0.062 0.055,-0.085c0.022,-0.023 0.048,-0.041 0.077,-0.054c0.029,-0.012 0.058,-0.018 0.089,-0.018c0.038,-0 0.071,0.007 0.099,0.02c0.029,0.013 0.053,0.031 0.072,0.054c0.018,0.024 0.032,0.051 0.042,0.083c0.009,0.031 0.014,0.065 0.014,0.102l-0,0.041l-0.378,-0c0.001,0.024 0.006,0.046 0.014,0.068c0.008,0.021 0.02,0.039 0.034,0.055c0.015,0.016 0.032,0.028 0.052,0.037c0.021,0.009 0.043,0.014 0.067,0.014c0.032,0 0.061,-0.006 0.086,-0.019c0.025,-0.014 0.046,-0.031 0.063,-0.052l0.055,0.043c-0.009,0.013 -0.02,0.026 -0.033,0.038c-0.013,0.012 -0.029,0.023 -0.046,0.033c-0.017,0.009 -0.037,0.017 -0.058,0.022c-0.022,0.006 -0.046,0.009 -0.072,0.009Zm-0.011,-0.474c-0.019,0 -0.036,0.003 -0.052,0.01c-0.016,0.007 -0.031,0.017 -0.044,0.029c-0.013,0.013 -0.024,0.029 -0.033,0.048c-0.009,0.019 -0.015,0.04 -0.019,0.065l0.284,-0.001l0,-0.006c-0.001,-0.018 -0.004,-0.035 -0.01,-0.053c-0.005,-0.017 -0.014,-0.032 -0.025,-0.046c-0.011,-0.014 -0.025,-0.025 -0.042,-0.033c-0.016,-0.009 -0.036,-0.013 -0.059,-0.013Z" style="fill:#fff;fill-rule:nonzero;"/></g><g transform="matrix(10,0,0,10,-33.64,193.473)"><path d="M0.531,-0.258c-0,0.037 -0.005,0.073 -0.014,0.105c-0.009,0.033 -0.022,0.062 -0.04,0.086c-0.018,0.024 -0.039,0.043 -0.065,0.056c-0.026,0.014 -0.056,0.021 -0.089,0.021c-0.032,-0 -0.06,-0.005 -0.085,-0.016c-0.025,-0.01 -0.046,-0.025 -0.063,-0.045l-0,0.254l-0.091,0l0,-0.731l0.083,-0l0.004,0.057c0.018,-0.022 0.039,-0.038 0.064,-0.05c0.025,-0.011 0.054,-0.017 0.087,-0.017c0.034,-0 0.064,0.007 0.09,0.02c0.026,0.013 0.047,0.032 0.065,0.056c0.018,0.023 0.031,0.052 0.04,0.085c0.009,0.033 0.014,0.069 0.014,0.108l-0,0.011Zm-0.091,-0.011c0,-0.025 -0.002,-0.05 -0.008,-0.073c-0.006,-0.023 -0.015,-0.044 -0.026,-0.062c-0.012,-0.017 -0.027,-0.031 -0.046,-0.042c-0.018,-0.01 -0.04,-0.015 -0.065,-0.015c-0.029,-0 -0.053,0.006 -0.073,0.02c-0.02,0.013 -0.035,0.031 -0.047,0.052l-0,0.254c0.012,0.021 0.027,0.038 0.047,0.051c0.019,0.013 0.044,0.02 0.074,0.02c0.025,0 0.047,-0.005 0.065,-0.016c0.018,-0.01 0.033,-0.025 0.045,-0.043c0.011,-0.017 0.02,-0.038 0.026,-0.062c0.006,-0.023 0.008,-0.048 0.008,-0.073l0,-0.011Z" style="fill:#fff;fill-rule:nonzero;"/></g><g transform="matrix(10,0,0,10,-27.639,193.473)"><path d="M0.436,-0.14c0,-0.011 -0.002,-0.021 -0.006,-0.029c-0.005,-0.009 -0.012,-0.017 -0.022,-0.024c-0.01,-0.007 -0.023,-0.014 -0.04,-0.02c-0.016,-0.006 -0.037,-0.011 -0.062,-0.016c-0.03,-0.006 -0.058,-0.014 -0.083,-0.022c-0.025,-0.009 -0.046,-0.02 -0.064,-0.032c-0.017,-0.012 -0.031,-0.026 -0.041,-0.043c-0.01,-0.016 -0.014,-0.035 -0.014,-0.057c-0,-0.022 0.005,-0.042 0.015,-0.061c0.01,-0.018 0.024,-0.035 0.042,-0.049c0.018,-0.014 0.04,-0.025 0.065,-0.033c0.026,-0.008 0.053,-0.012 0.084,-0.012c0.032,-0 0.061,0.004 0.087,0.013c0.027,0.008 0.049,0.02 0.067,0.035c0.018,0.015 0.032,0.032 0.042,0.052c0.01,0.02 0.015,0.042 0.015,0.065l-0.09,-0c-0,-0.011 -0.003,-0.023 -0.009,-0.033c-0.006,-0.011 -0.014,-0.021 -0.025,-0.03c-0.01,-0.008 -0.023,-0.015 -0.037,-0.02c-0.015,-0.005 -0.032,-0.008 -0.05,-0.008c-0.02,0 -0.036,0.002 -0.051,0.006c-0.014,0.005 -0.026,0.01 -0.036,0.018c-0.01,0.007 -0.017,0.015 -0.022,0.024c-0.005,0.01 -0.007,0.02 -0.007,0.03c-0,0.01 0.002,0.019 0.006,0.028c0.004,0.008 0.01,0.015 0.02,0.022c0.01,0.006 0.022,0.012 0.039,0.017c0.016,0.005 0.036,0.01 0.061,0.015c0.032,0.007 0.062,0.015 0.087,0.024c0.026,0.009 0.048,0.02 0.065,0.032c0.018,0.013 0.031,0.027 0.04,0.044c0.01,0.016 0.014,0.036 0.014,0.058c0,0.023 -0.005,0.044 -0.016,0.063c-0.01,0.02 -0.025,0.036 -0.044,0.05c-0.019,0.013 -0.041,0.024 -0.068,0.032c-0.026,0.007 -0.055,0.011 -0.086,0.011c-0.036,-0 -0.068,-0.005 -0.096,-0.015c-0.028,-0.009 -0.051,-0.022 -0.071,-0.038c-0.019,-0.016 -0.034,-0.034 -0.044,-0.055c-0.01,-0.02 -0.016,-0.042 -0.016,-0.065l0.091,0c0.001,0.019 0.006,0.035 0.015,0.047c0.008,0.013 0.019,0.023 0.032,0.031c0.013,0.008 0.027,0.013 0.043,0.017c0.015,0.003 0.031,0.005 0.046,0.005c0.038,-0 0.068,-0.007 0.09,-0.021c0.022,-0.014 0.034,-0.033 0.034,-0.056Z" style="fill:#fff;fill-rule:nonzero;"/></g><g transform="matrix(10,0,0,10,-45.6444,203.473)"><path d="M0.378,-0l-0.09,-0l-0,-0.596l-0.186,0.071l-0,-0.082l0.269,-0.104l0.007,0l-0,0.711Z" style="fill:#fff;fill-rule:nonzero;"/></g><g transform="matrix(10,0,0,10,-39.6434,203.473)"><rect x="0.106" y="-0.348" width="0.374" height="0.074" style="fill:#fff;fill-rule:nonzero;"/></g><g transform="matrix(10,0,0,10,-33.6375,203.473)"><path d="M0.522,-0.525c0,0.035 -0.009,0.067 -0.028,0.094c-0.019,0.028 -0.044,0.05 -0.076,0.065c0.018,0.008 0.035,0.018 0.05,0.029c0.014,0.012 0.027,0.025 0.038,0.04c0.01,0.015 0.018,0.031 0.024,0.049c0.006,0.018 0.009,0.036 0.009,0.056c-0,0.032 -0.006,0.061 -0.018,0.086c-0.012,0.025 -0.028,0.046 -0.049,0.063c-0.02,0.017 -0.044,0.03 -0.071,0.039c-0.027,0.009 -0.057,0.014 -0.088,0.014c-0.032,-0 -0.062,-0.005 -0.089,-0.013c-0.028,-0.009 -0.052,-0.022 -0.072,-0.039c-0.02,-0.017 -0.036,-0.038 -0.048,-0.063c-0.012,-0.026 -0.018,-0.054 -0.018,-0.087c0,-0.02 0.003,-0.039 0.009,-0.056c0.005,-0.018 0.013,-0.034 0.024,-0.049c0.01,-0.015 0.023,-0.028 0.037,-0.04c0.015,-0.012 0.031,-0.021 0.05,-0.029c-0.016,-0.008 -0.03,-0.017 -0.043,-0.028c-0.013,-0.011 -0.023,-0.023 -0.032,-0.037c-0.009,-0.013 -0.016,-0.028 -0.021,-0.044c-0.005,-0.016 -0.007,-0.033 -0.007,-0.05c0,-0.031 0.005,-0.059 0.016,-0.083c0.01,-0.024 0.024,-0.045 0.043,-0.061c0.018,-0.017 0.04,-0.03 0.066,-0.039c0.025,-0.008 0.053,-0.013 0.084,-0.013c0.029,0 0.057,0.005 0.083,0.013c0.026,0.009 0.048,0.022 0.067,0.039c0.019,0.016 0.034,0.037 0.044,0.061c0.011,0.024 0.016,0.052 0.016,0.083Zm-0.074,0.331c0,-0.02 -0.003,-0.038 -0.01,-0.055c-0.006,-0.016 -0.016,-0.03 -0.028,-0.042c-0.012,-0.012 -0.026,-0.021 -0.043,-0.028c-0.017,-0.006 -0.035,-0.01 -0.055,-0.01c-0.02,0 -0.039,0.004 -0.056,0.01c-0.016,0.007 -0.03,0.016 -0.042,0.028c-0.012,0.012 -0.021,0.026 -0.027,0.042c-0.007,0.017 -0.01,0.035 -0.01,0.055c0,0.021 0.003,0.039 0.01,0.055c0.006,0.016 0.015,0.03 0.027,0.041c0.012,0.011 0.026,0.019 0.043,0.025c0.016,0.006 0.035,0.009 0.056,0.009c0.02,0 0.038,-0.003 0.055,-0.009c0.016,-0.006 0.031,-0.014 0.042,-0.025c0.012,-0.011 0.022,-0.025 0.028,-0.041c0.007,-0.016 0.01,-0.034 0.01,-0.055Zm-0.016,-0.33c-0,-0.018 -0.003,-0.034 -0.009,-0.049c-0.006,-0.015 -0.015,-0.028 -0.025,-0.039c-0.011,-0.011 -0.023,-0.019 -0.038,-0.025c-0.015,-0.006 -0.031,-0.009 -0.048,-0.009c-0.018,-0 -0.034,0.002 -0.048,0.008c-0.015,0.006 -0.027,0.014 -0.037,0.025c-0.011,0.01 -0.019,0.023 -0.025,0.039c-0.005,0.015 -0.008,0.032 -0.008,0.05c-0,0.019 0.003,0.035 0.008,0.05c0.006,0.015 0.014,0.028 0.025,0.038c0.01,0.011 0.023,0.019 0.037,0.025c0.015,0.005 0.031,0.008 0.048,0.008c0.018,0 0.034,-0.003 0.048,-0.008c0.015,-0.006 0.028,-0.014 0.038,-0.025c0.011,-0.01 0.019,-0.023 0.025,-0.038c0.006,-0.015 0.009,-0.032 0.009,-0.05Z" style="fill:#fff;fill-rule:nonzero;"/></g></g><path d="M101.592,20.637l0.063,0.781c0.192,-0.273 0.428,-0.487 0.708,-0.642c0.28,-0.155 0.593,-0.234 0.938,-0.237c0.276,0 0.528,0.039 0.754,0.117c0.226,0.078 0.419,0.2 0.579,0.366c0.159,0.166 0.282,0.377 0.368,0.633c0.087,0.255 0.13,0.559 0.13,0.91l-0,3.355l-0.903,-0l-0,-3.335c-0,-0.234 -0.027,-0.433 -0.079,-0.596c-0.052,-0.163 -0.129,-0.294 -0.232,-0.395c-0.102,-0.101 -0.227,-0.174 -0.376,-0.22c-0.148,-0.046 -0.318,-0.068 -0.51,-0.068c-0.303,-0 -0.569,0.075 -0.798,0.227c-0.23,0.151 -0.413,0.35 -0.549,0.598l-0,3.789l-0.904,-0l0,-5.283l0.811,-0Z" style="fill:#fff;fill-rule:nonzero;"/><path d="M106.528,23.229c0,-0.38 0.056,-0.734 0.166,-1.062c0.111,-0.327 0.27,-0.611 0.476,-0.852c0.207,-0.24 0.459,-0.43 0.755,-0.568c0.296,-0.139 0.63,-0.208 1.001,-0.208c0.374,0 0.71,0.069 1.008,0.208c0.298,0.138 0.55,0.328 0.757,0.568c0.207,0.241 0.365,0.525 0.476,0.852c0.111,0.328 0.166,0.682 0.166,1.062l0,0.108c0,0.381 -0.055,0.734 -0.166,1.059c-0.111,0.326 -0.269,0.609 -0.476,0.85c-0.207,0.241 -0.458,0.43 -0.754,0.566c-0.297,0.137 -0.63,0.206 -1.001,0.206c-0.375,-0 -0.711,-0.069 -1.009,-0.206c-0.298,-0.136 -0.55,-0.325 -0.757,-0.566c-0.206,-0.241 -0.365,-0.524 -0.476,-0.85c-0.11,-0.325 -0.166,-0.678 -0.166,-1.059l0,-0.108Zm0.904,0.108c-0,0.26 0.031,0.509 0.092,0.745c0.062,0.236 0.156,0.443 0.281,0.622c0.126,0.179 0.283,0.321 0.471,0.425c0.189,0.104 0.409,0.156 0.66,0.156c0.247,0 0.464,-0.052 0.651,-0.156c0.188,-0.104 0.344,-0.246 0.469,-0.425c0.125,-0.179 0.219,-0.386 0.281,-0.622c0.062,-0.236 0.093,-0.485 0.093,-0.745l-0,-0.108c-0,-0.257 -0.032,-0.503 -0.096,-0.739c-0.063,-0.236 -0.157,-0.444 -0.283,-0.623c-0.125,-0.179 -0.281,-0.321 -0.468,-0.427c-0.188,-0.106 -0.407,-0.159 -0.657,-0.159c-0.251,0 -0.469,0.053 -0.655,0.159c-0.185,0.106 -0.34,0.248 -0.466,0.427c-0.125,0.179 -0.219,0.387 -0.281,0.623c-0.061,0.236 -0.092,0.482 -0.092,0.739l-0,0.108Z" style="fill:#fff;fill-rule:nonzero;"/><path d="M114.922,19.357l-0,1.28l2.012,-0l-0,0.698l-2.012,-0l-0,2.871c-0,0.205 0.026,0.374 0.078,0.508c0.052,0.133 0.124,0.24 0.215,0.32c0.091,0.079 0.196,0.136 0.315,0.168c0.119,0.033 0.245,0.049 0.378,0.049c0.098,-0 0.199,-0.006 0.303,-0.017c0.104,-0.012 0.206,-0.025 0.305,-0.042c0.099,-0.016 0.192,-0.033 0.278,-0.051c0.087,-0.018 0.157,-0.033 0.213,-0.046l0.127,0.639c-0.075,0.046 -0.166,0.086 -0.274,0.12c-0.107,0.034 -0.224,0.063 -0.351,0.088c-0.127,0.024 -0.261,0.043 -0.403,0.056c-0.142,0.013 -0.282,0.02 -0.422,0.02c-0.235,-0 -0.454,-0.034 -0.657,-0.101c-0.204,-0.066 -0.38,-0.172 -0.53,-0.317c-0.15,-0.145 -0.268,-0.332 -0.354,-0.561c-0.086,-0.23 -0.129,-0.507 -0.129,-0.833l-0,-2.871l-1.387,-0l-0,-0.698l1.387,-0l-0,-1.28l0.908,0Z" style="fill:#fff;fill-rule:nonzero;"/><path d="M121.118,26.018c-0.371,-0 -0.712,-0.064 -1.023,-0.191c-0.311,-0.127 -0.577,-0.304 -0.798,-0.532c-0.221,-0.228 -0.394,-0.498 -0.518,-0.811c-0.123,-0.312 -0.185,-0.652 -0.185,-1.02l-0,-0.205c-0,-0.427 0.068,-0.808 0.205,-1.145c0.137,-0.337 0.318,-0.622 0.544,-0.855c0.226,-0.232 0.484,-0.411 0.772,-0.534c0.288,-0.124 0.583,-0.186 0.886,-0.186c0.381,0 0.714,0.066 0.999,0.198c0.284,0.132 0.521,0.314 0.71,0.547c0.189,0.232 0.33,0.507 0.422,0.822c0.093,0.316 0.139,0.658 0.139,1.026l0,0.405l-3.774,0c0.01,0.241 0.056,0.467 0.139,0.679c0.083,0.211 0.197,0.396 0.342,0.554c0.145,0.158 0.318,0.282 0.52,0.374c0.202,0.091 0.425,0.136 0.669,0.136c0.322,0 0.609,-0.065 0.859,-0.195c0.251,-0.13 0.459,-0.303 0.625,-0.518l0.552,0.43c-0.088,0.134 -0.198,0.261 -0.329,0.383c-0.132,0.122 -0.284,0.231 -0.457,0.325c-0.173,0.094 -0.368,0.17 -0.586,0.227c-0.218,0.057 -0.456,0.086 -0.713,0.086Zm-0.117,-4.737c-0.182,0 -0.355,0.034 -0.518,0.1c-0.162,0.067 -0.309,0.165 -0.439,0.293c-0.13,0.129 -0.24,0.287 -0.33,0.474c-0.089,0.187 -0.152,0.403 -0.188,0.647l2.842,-0l0,-0.068c-0.01,-0.176 -0.043,-0.35 -0.1,-0.523c-0.057,-0.172 -0.141,-0.327 -0.251,-0.464c-0.111,-0.136 -0.25,-0.247 -0.418,-0.332c-0.168,-0.084 -0.367,-0.127 -0.598,-0.127Z" style="fill:#fff;fill-rule:nonzero;"/><path d="M128.296,24.519c-0,-0.108 -0.021,-0.205 -0.064,-0.291c-0.042,-0.086 -0.114,-0.165 -0.214,-0.237c-0.101,-0.071 -0.235,-0.137 -0.401,-0.198c-0.166,-0.06 -0.373,-0.114 -0.62,-0.163c-0.303,-0.062 -0.579,-0.137 -0.828,-0.225c-0.249,-0.088 -0.462,-0.193 -0.639,-0.315c-0.178,-0.122 -0.315,-0.265 -0.413,-0.429c-0.097,-0.165 -0.146,-0.356 -0.146,-0.574c-0,-0.215 0.05,-0.416 0.151,-0.603c0.101,-0.187 0.243,-0.351 0.425,-0.491c0.182,-0.14 0.399,-0.25 0.652,-0.332c0.252,-0.081 0.53,-0.122 0.832,-0.122c0.326,0 0.619,0.042 0.879,0.127c0.261,0.085 0.482,0.202 0.664,0.352c0.183,0.149 0.323,0.324 0.423,0.524c0.099,0.201 0.149,0.416 0.149,0.647l-0.904,0c0,-0.113 -0.029,-0.225 -0.088,-0.334c-0.058,-0.109 -0.14,-0.206 -0.244,-0.291c-0.104,-0.084 -0.23,-0.153 -0.378,-0.205c-0.148,-0.052 -0.315,-0.078 -0.501,-0.078c-0.192,0 -0.36,0.021 -0.505,0.064c-0.145,0.042 -0.265,0.099 -0.361,0.171c-0.096,0.071 -0.169,0.154 -0.218,0.249c-0.049,0.094 -0.073,0.192 -0.073,0.293c0,0.104 0.02,0.197 0.059,0.278c0.039,0.081 0.106,0.155 0.202,0.22c0.096,0.065 0.225,0.123 0.386,0.175c0.161,0.053 0.365,0.103 0.613,0.152c0.325,0.068 0.617,0.147 0.874,0.237c0.257,0.089 0.473,0.197 0.649,0.322c0.176,0.125 0.31,0.271 0.403,0.437c0.093,0.166 0.139,0.358 0.139,0.576c0,0.234 -0.053,0.448 -0.158,0.64c-0.106,0.192 -0.254,0.356 -0.442,0.493c-0.189,0.137 -0.415,0.242 -0.679,0.317c-0.264,0.075 -0.552,0.113 -0.864,0.113c-0.358,-0 -0.677,-0.048 -0.957,-0.144c-0.28,-0.096 -0.517,-0.223 -0.711,-0.381c-0.194,-0.158 -0.342,-0.341 -0.444,-0.55c-0.103,-0.208 -0.154,-0.424 -0.154,-0.649l0.903,-0c0.013,0.185 0.063,0.342 0.149,0.469c0.087,0.127 0.194,0.229 0.323,0.307c0.128,0.078 0.271,0.134 0.427,0.166c0.156,0.033 0.311,0.049 0.464,0.049c0.381,0 0.682,-0.07 0.903,-0.21c0.221,-0.14 0.334,-0.325 0.337,-0.556Z" style="fill:#fff;fill-rule:nonzero;"/><path d="M132.603,25.334c-0,-0.098 0.015,-0.189 0.046,-0.273c0.031,-0.085 0.076,-0.159 0.134,-0.223c0.059,-0.063 0.132,-0.113 0.22,-0.149c0.088,-0.035 0.19,-0.053 0.308,-0.053c0.117,-0 0.22,0.018 0.31,0.053c0.089,0.036 0.164,0.086 0.224,0.149c0.06,0.064 0.106,0.138 0.137,0.223c0.031,0.084 0.046,0.175 0.046,0.273c0,0.094 -0.015,0.183 -0.046,0.266c-0.031,0.083 -0.077,0.156 -0.137,0.217c-0.06,0.062 -0.135,0.11 -0.224,0.144c-0.09,0.035 -0.193,0.052 -0.31,0.052c-0.118,-0 -0.22,-0.017 -0.308,-0.052c-0.088,-0.034 -0.161,-0.082 -0.22,-0.144c-0.058,-0.061 -0.103,-0.134 -0.134,-0.217c-0.031,-0.083 -0.046,-0.172 -0.046,-0.266Zm-0,-4.277c-0,-0.098 0.015,-0.189 0.046,-0.274c0.031,-0.084 0.076,-0.158 0.134,-0.222c0.059,-0.063 0.132,-0.113 0.22,-0.149c0.088,-0.036 0.19,-0.054 0.308,-0.054c0.117,0 0.22,0.018 0.31,0.054c0.089,0.036 0.164,0.086 0.224,0.149c0.06,0.064 0.106,0.138 0.137,0.222c0.031,0.085 0.046,0.176 0.046,0.274c0,0.094 -0.015,0.183 -0.046,0.266c-0.031,0.083 -0.077,0.155 -0.137,0.217c-0.06,0.062 -0.135,0.11 -0.224,0.144c-0.09,0.034 -0.193,0.051 -0.31,0.051c-0.118,0 -0.22,-0.017 -0.308,-0.051c-0.088,-0.034 -0.161,-0.082 -0.22,-0.144c-0.058,-0.062 -0.103,-0.134 -0.134,-0.217c-0.031,-0.083 -0.046,-0.172 -0.046,-0.266Z" style="fill:#fff;fill-rule:nonzero;"/><path d="M144.927,19.357l-0,1.28l2.011,-0l0,0.698l-2.011,-0l-0,2.871c-0,0.205 0.026,0.374 0.078,0.508c0.052,0.133 0.124,0.24 0.215,0.32c0.091,0.079 0.196,0.136 0.315,0.168c0.118,0.033 0.245,0.049 0.378,0.049c0.098,-0 0.199,-0.006 0.303,-0.017c0.104,-0.012 0.206,-0.025 0.305,-0.042c0.099,-0.016 0.192,-0.033 0.278,-0.051c0.087,-0.018 0.157,-0.033 0.213,-0.046l0.127,0.639c-0.075,0.046 -0.166,0.086 -0.274,0.12c-0.107,0.034 -0.224,0.063 -0.351,0.088c-0.127,0.024 -0.262,0.043 -0.403,0.056c-0.142,0.013 -0.283,0.02 -0.423,0.02c-0.234,-0 -0.453,-0.034 -0.656,-0.101c-0.204,-0.066 -0.38,-0.172 -0.53,-0.317c-0.15,-0.145 -0.268,-0.332 -0.354,-0.561c-0.086,-0.23 -0.129,-0.507 -0.129,-0.833l-0,-2.871l-1.387,-0l-0,-0.698l1.387,-0l-0,-1.28l0.908,0Z" style="fill:#fff;fill-rule:nonzero;"/><path d="M152.251,20.539c0.085,0 0.173,0.003 0.264,0.007c0.091,0.005 0.178,0.013 0.261,0.025c0.083,0.011 0.159,0.025 0.229,0.041c0.07,0.017 0.128,0.034 0.174,0.054l-0.122,0.884c-0.176,-0.039 -0.343,-0.068 -0.501,-0.086c-0.158,-0.018 -0.323,-0.027 -0.495,-0.027c-0.424,0 -0.766,0.097 -1.028,0.289c-0.262,0.192 -0.455,0.46 -0.579,0.805l0,3.389l-0.908,-0l-0,-5.283l0.859,-0l0.044,0.84c0.215,-0.29 0.473,-0.519 0.774,-0.686c0.301,-0.168 0.644,-0.252 1.028,-0.252Z" style="fill:#fff;fill-rule:nonzero;"/><path d="M154.932,20.637l2.7,-0l-0,4.502l1.723,-0l0,0.781l-4.423,-0l-0,-0.781l1.797,-0l-0,-3.716l-1.797,-0l-0,-0.786Zm1.679,-1.387c0,-0.15 0.045,-0.276 0.135,-0.378c0.089,-0.103 0.225,-0.154 0.407,-0.154c0.179,-0 0.314,0.051 0.406,0.154c0.091,0.102 0.136,0.228 0.136,0.378c0,0.146 -0.045,0.269 -0.136,0.366c-0.092,0.098 -0.227,0.147 -0.406,0.147c-0.182,-0 -0.318,-0.049 -0.407,-0.147c-0.09,-0.097 -0.135,-0.22 -0.135,-0.366Z" style="fill:#fff;fill-rule:nonzero;"/><path d="M164.263,25.92c-0.036,-0.068 -0.065,-0.154 -0.086,-0.256c-0.021,-0.103 -0.036,-0.21 -0.046,-0.32c-0.091,0.091 -0.193,0.177 -0.305,0.259c-0.113,0.081 -0.236,0.153 -0.371,0.214c-0.136,0.062 -0.28,0.111 -0.433,0.147c-0.153,0.036 -0.315,0.054 -0.488,0.054c-0.28,-0 -0.533,-0.041 -0.759,-0.122c-0.226,-0.082 -0.418,-0.192 -0.576,-0.33c-0.158,-0.138 -0.28,-0.303 -0.366,-0.493c-0.087,-0.191 -0.13,-0.397 -0.13,-0.618c0,-0.29 0.058,-0.544 0.173,-0.762c0.116,-0.218 0.28,-0.399 0.491,-0.544c0.212,-0.145 0.466,-0.253 0.764,-0.325c0.298,-0.071 0.631,-0.107 0.999,-0.107l0.986,-0l0,-0.415c0,-0.16 -0.029,-0.303 -0.088,-0.43c-0.058,-0.127 -0.141,-0.235 -0.249,-0.325c-0.107,-0.089 -0.238,-0.158 -0.393,-0.207c-0.154,-0.049 -0.328,-0.073 -0.52,-0.073c-0.179,-0 -0.339,0.022 -0.481,0.068c-0.141,0.046 -0.261,0.106 -0.359,0.181c-0.097,0.074 -0.173,0.163 -0.227,0.266c-0.053,0.102 -0.08,0.209 -0.08,0.32l-0.908,-0c0.003,-0.192 0.052,-0.381 0.148,-0.567c0.097,-0.185 0.235,-0.352 0.416,-0.5c0.18,-0.148 0.4,-0.268 0.659,-0.359c0.258,-0.091 0.552,-0.137 0.881,-0.137c0.3,0 0.578,0.037 0.835,0.11c0.257,0.073 0.479,0.184 0.667,0.332c0.187,0.148 0.334,0.333 0.441,0.554c0.108,0.222 0.162,0.48 0.162,0.777l-0,2.456c-0,0.175 0.016,0.362 0.048,0.559c0.033,0.197 0.078,0.368 0.137,0.515l0,0.078l-0.942,-0Zm-1.597,-0.689c0.176,0 0.34,-0.022 0.493,-0.068c0.153,-0.045 0.292,-0.106 0.418,-0.181c0.125,-0.074 0.233,-0.16 0.324,-0.256c0.092,-0.096 0.163,-0.196 0.215,-0.3l0,-1.07l-0.84,0c-0.527,0 -0.937,0.079 -1.23,0.235c-0.293,0.156 -0.44,0.402 -0.44,0.737c0,0.13 0.022,0.251 0.066,0.361c0.044,0.111 0.11,0.206 0.198,0.286c0.088,0.08 0.199,0.143 0.332,0.188c0.134,0.046 0.288,0.068 0.464,0.068Z" style="fill:#fff;fill-rule:nonzero;"/><path d="M166.621,23.234c0,-0.394 0.05,-0.756 0.149,-1.086c0.099,-0.33 0.241,-0.614 0.425,-0.852c0.184,-0.238 0.406,-0.423 0.666,-0.557c0.261,-0.133 0.552,-0.2 0.874,-0.2c0.316,0 0.592,0.053 0.828,0.159c0.236,0.106 0.44,0.259 0.613,0.461l-0,-2.739l0.903,-0l0,7.5l-0.83,-0l-0.039,-0.557c-0.176,0.215 -0.386,0.378 -0.63,0.489c-0.244,0.11 -0.529,0.166 -0.854,0.166c-0.319,-0 -0.608,-0.069 -0.867,-0.206c-0.259,-0.136 -0.479,-0.325 -0.662,-0.566c-0.182,-0.241 -0.324,-0.525 -0.425,-0.852c-0.1,-0.327 -0.151,-0.679 -0.151,-1.057l0,-0.103Zm0.903,0.103c0,0.257 0.028,0.501 0.083,0.732c0.056,0.231 0.141,0.435 0.257,0.611c0.115,0.175 0.263,0.315 0.442,0.417c0.179,0.103 0.394,0.154 0.644,0.154c0.153,-0 0.292,-0.018 0.415,-0.054c0.124,-0.036 0.236,-0.087 0.337,-0.154c0.101,-0.066 0.191,-0.146 0.269,-0.239c0.078,-0.093 0.146,-0.196 0.205,-0.31l-0,-2.451c-0.117,-0.215 -0.275,-0.391 -0.474,-0.53c-0.198,-0.138 -0.446,-0.207 -0.742,-0.207c-0.254,-0 -0.471,0.052 -0.652,0.156c-0.181,0.104 -0.329,0.245 -0.444,0.422c-0.116,0.178 -0.201,0.383 -0.257,0.616c-0.055,0.232 -0.083,0.477 -0.083,0.734l0,0.103Z" style="fill:#fff;fill-rule:nonzero;"/><path d="M179.985,26.53l-0.81,0l2.969,-7.719l0.805,-0l-2.964,7.719Z" style="fill:#fff;fill-rule:nonzero;"/><path d="M195.298,19.318l-2.944,6.602l-0.948,-0l2.935,-6.318l-3.848,-0l0,-0.791l4.805,-0l-0,0.507Z" style="fill:#fff;fill-rule:nonzero;"/><path d="M198.936,19.357l-0,1.28l2.011,-0l0,0.698l-2.011,-0l-0,2.871c-0,0.205 0.026,0.374 0.078,0.508c0.052,0.133 0.123,0.24 0.215,0.32c0.091,0.079 0.196,0.136 0.314,0.168c0.119,0.033 0.245,0.049 0.379,0.049c0.098,-0 0.198,-0.006 0.303,-0.017c0.104,-0.012 0.206,-0.025 0.305,-0.042c0.099,-0.016 0.192,-0.033 0.278,-0.051c0.086,-0.018 0.157,-0.033 0.213,-0.046l0.126,0.639c-0.074,0.046 -0.166,0.086 -0.273,0.12c-0.107,0.034 -0.225,0.063 -0.352,0.088c-0.126,0.024 -0.261,0.043 -0.402,0.056c-0.142,0.013 -0.283,0.02 -0.423,0.02c-0.234,-0 -0.453,-0.034 -0.656,-0.101c-0.204,-0.066 -0.381,-0.172 -0.53,-0.317c-0.15,-0.145 -0.268,-0.332 -0.354,-0.561c-0.087,-0.23 -0.13,-0.507 -0.13,-0.833l0,-2.871l-1.386,-0l-0,-0.698l1.386,-0l0,-1.28l0.909,0Z" style="fill:#fff;fill-rule:nonzero;"/><path d="M203.701,21.423c0.189,-0.277 0.422,-0.492 0.698,-0.647c0.277,-0.155 0.588,-0.234 0.933,-0.237c0.277,0 0.528,0.04 0.754,0.12c0.227,0.079 0.42,0.204 0.579,0.373c0.16,0.169 0.282,0.384 0.369,0.642c0.086,0.259 0.129,0.566 0.129,0.921l0,3.325l-0.903,-0l-0,-3.335c-0,-0.433 -0.104,-0.755 -0.31,-0.967c-0.207,-0.211 -0.502,-0.316 -0.887,-0.312c-0.289,-0 -0.552,0.07 -0.788,0.212c-0.236,0.142 -0.427,0.33 -0.574,0.564l0,3.838l-0.903,-0l-0,-7.5l0.903,-0l0,3.003Z" style="fill:#fff;fill-rule:nonzero;"/><path d="M215.991,26.53l-0.81,0l2.968,-7.719l0.806,-0l-2.964,7.719Z" style="fill:#fff;fill-rule:nonzero;"/><path d="M227.217,20.637l0.024,0.498c0.108,-0.186 0.248,-0.331 0.423,-0.435c0.174,-0.104 0.385,-0.158 0.632,-0.161c0.485,0 0.809,0.189 0.972,0.566c0.104,-0.169 0.241,-0.305 0.412,-0.407c0.171,-0.103 0.379,-0.156 0.623,-0.159c0.387,0 0.685,0.119 0.893,0.357c0.209,0.237 0.313,0.597 0.313,1.079l-0,3.945l-0.86,-0l0,-3.955c0,-0.443 -0.203,-0.663 -0.61,-0.659c-0.107,-0 -0.2,0.014 -0.278,0.044c-0.078,0.029 -0.143,0.069 -0.196,0.119c-0.052,0.051 -0.092,0.109 -0.122,0.176c-0.029,0.067 -0.048,0.136 -0.058,0.208l-0,4.067l-0.86,-0l0,-3.96c0,-0.212 -0.047,-0.374 -0.141,-0.488c-0.095,-0.114 -0.244,-0.17 -0.449,-0.166c-0.189,-0 -0.336,0.037 -0.44,0.112c-0.104,0.075 -0.181,0.174 -0.229,0.298l-0,4.204l-0.86,-0l0,-5.283l0.811,-0Z" style="fill:#fff;fill-rule:nonzero;"/><path d="M232.549,23.229c-0,-0.38 0.055,-0.734 0.166,-1.062c0.111,-0.327 0.269,-0.611 0.476,-0.852c0.207,-0.24 0.458,-0.43 0.754,-0.568c0.297,-0.139 0.63,-0.208 1.001,-0.208c0.375,0 0.711,0.069 1.009,0.208c0.297,0.138 0.55,0.328 0.756,0.568c0.207,0.241 0.366,0.525 0.477,0.852c0.11,0.328 0.166,0.682 0.166,1.062l-0,0.108c-0,0.381 -0.056,0.734 -0.166,1.059c-0.111,0.326 -0.27,0.609 -0.477,0.85c-0.206,0.241 -0.458,0.43 -0.754,0.566c-0.296,0.137 -0.63,0.206 -1.001,0.206c-0.374,-0 -0.71,-0.069 -1.008,-0.206c-0.298,-0.136 -0.55,-0.325 -0.757,-0.566c-0.207,-0.241 -0.365,-0.524 -0.476,-0.85c-0.111,-0.325 -0.166,-0.678 -0.166,-1.059l-0,-0.108Zm0.903,0.108c0,0.26 0.031,0.509 0.093,0.745c0.062,0.236 0.155,0.443 0.281,0.622c0.125,0.179 0.282,0.321 0.471,0.425c0.189,0.104 0.408,0.156 0.659,0.156c0.247,0 0.465,-0.052 0.652,-0.156c0.187,-0.104 0.343,-0.246 0.469,-0.425c0.125,-0.179 0.219,-0.386 0.28,-0.622c0.062,-0.236 0.093,-0.485 0.093,-0.745l0,-0.108c0,-0.257 -0.032,-0.503 -0.095,-0.739c-0.063,-0.236 -0.158,-0.444 -0.283,-0.623c-0.126,-0.179 -0.282,-0.321 -0.469,-0.427c-0.187,-0.106 -0.406,-0.159 -0.657,-0.159c-0.25,0 -0.468,0.053 -0.654,0.159c-0.186,0.106 -0.341,0.248 -0.466,0.427c-0.126,0.179 -0.219,0.387 -0.281,0.623c-0.062,0.236 -0.093,0.482 -0.093,0.739l0,0.108Z" style="fill:#fff;fill-rule:nonzero;"/><path d="M238.633,23.234c-0,-0.394 0.049,-0.756 0.149,-1.086c0.099,-0.33 0.241,-0.614 0.425,-0.852c0.183,-0.238 0.406,-0.423 0.666,-0.557c0.26,-0.133 0.552,-0.2 0.874,-0.2c0.316,0 0.592,0.053 0.828,0.159c0.236,0.106 0.44,0.259 0.612,0.461l0,-2.739l0.904,-0l-0,7.5l-0.83,-0l-0.039,-0.557c-0.176,0.215 -0.386,0.378 -0.63,0.489c-0.244,0.11 -0.529,0.166 -0.855,0.166c-0.319,-0 -0.608,-0.069 -0.866,-0.206c-0.259,-0.136 -0.48,-0.325 -0.662,-0.566c-0.182,-0.241 -0.324,-0.525 -0.425,-0.852c-0.101,-0.327 -0.151,-0.679 -0.151,-1.057l-0,-0.103Zm0.903,0.103c0,0.257 0.028,0.501 0.083,0.732c0.055,0.231 0.141,0.435 0.256,0.611c0.116,0.175 0.263,0.315 0.442,0.417c0.179,0.103 0.394,0.154 0.645,0.154c0.153,-0 0.291,-0.018 0.415,-0.054c0.124,-0.036 0.236,-0.087 0.337,-0.154c0.101,-0.066 0.19,-0.146 0.268,-0.239c0.079,-0.093 0.147,-0.196 0.206,-0.31l-0,-2.451c-0.118,-0.215 -0.276,-0.391 -0.474,-0.53c-0.199,-0.138 -0.446,-0.207 -0.742,-0.207c-0.254,-0 -0.472,0.052 -0.652,0.156c-0.181,0.104 -0.329,0.245 -0.445,0.422c-0.115,0.178 -0.201,0.383 -0.256,0.616c-0.055,0.232 -0.083,0.477 -0.083,0.734l0,0.103Z" style="fill:#fff;fill-rule:nonzero;"/><path d="M247.139,26.018c-0.371,-0 -0.712,-0.064 -1.023,-0.191c-0.311,-0.127 -0.577,-0.304 -0.799,-0.532c-0.221,-0.228 -0.393,-0.498 -0.517,-0.811c-0.124,-0.312 -0.186,-0.652 -0.186,-1.02l0,-0.205c0,-0.427 0.069,-0.808 0.205,-1.145c0.137,-0.337 0.319,-0.622 0.545,-0.855c0.226,-0.232 0.483,-0.411 0.771,-0.534c0.288,-0.124 0.584,-0.186 0.886,-0.186c0.381,0 0.714,0.066 0.999,0.198c0.285,0.132 0.522,0.314 0.71,0.547c0.189,0.232 0.33,0.507 0.423,0.822c0.093,0.316 0.139,0.658 0.139,1.026l-0,0.405l-3.774,0c0.009,0.241 0.056,0.467 0.139,0.679c0.083,0.211 0.197,0.396 0.342,0.554c0.144,0.158 0.318,0.282 0.52,0.374c0.201,0.091 0.424,0.136 0.668,0.136c0.323,0 0.609,-0.065 0.86,-0.195c0.251,-0.13 0.459,-0.303 0.625,-0.518l0.552,0.43c-0.088,0.134 -0.198,0.261 -0.33,0.383c-0.132,0.122 -0.284,0.231 -0.457,0.325c-0.172,0.094 -0.367,0.17 -0.585,0.227c-0.219,0.057 -0.456,0.086 -0.713,0.086Zm-0.118,-4.737c-0.182,0 -0.354,0.034 -0.517,0.1c-0.163,0.067 -0.309,0.165 -0.44,0.293c-0.13,0.129 -0.24,0.287 -0.329,0.474c-0.09,0.187 -0.152,0.403 -0.188,0.647l2.842,-0l-0,-0.068c-0.01,-0.176 -0.043,-0.35 -0.1,-0.523c-0.057,-0.172 -0.141,-0.327 -0.252,-0.464c-0.111,-0.136 -0.25,-0.247 -0.417,-0.332c-0.168,-0.084 -0.367,-0.127 -0.599,-0.127Z" style="fill:#fff;fill-rule:nonzero;"/><g transform="matrix(1,0,0,1,30.2396,-178.176)"><g transform="matrix(10,0,0,10,-18.6351,193.473)"><path d="M0.457,-0.18c0,-0.021 -0.005,-0.04 -0.015,-0.055c-0.01,-0.015 -0.023,-0.027 -0.038,-0.038c-0.016,-0.01 -0.033,-0.019 -0.052,-0.025c-0.018,-0.007 -0.036,-0.013 -0.054,-0.019c-0.025,-0.008 -0.05,-0.018 -0.076,-0.029c-0.026,-0.012 -0.05,-0.026 -0.071,-0.042c-0.021,-0.017 -0.039,-0.036 -0.052,-0.059c-0.014,-0.023 -0.02,-0.049 -0.02,-0.08c-0,-0.03 0.006,-0.058 0.02,-0.082c0.013,-0.024 0.031,-0.044 0.053,-0.061c0.022,-0.017 0.046,-0.029 0.074,-0.038c0.028,-0.008 0.056,-0.013 0.084,-0.013c0.03,0 0.06,0.005 0.089,0.016c0.029,0.01 0.054,0.024 0.076,0.043c0.022,0.018 0.04,0.041 0.053,0.067c0.014,0.027 0.021,0.056 0.021,0.089l-0.092,-0c-0.003,-0.021 -0.008,-0.039 -0.016,-0.056c-0.007,-0.017 -0.017,-0.031 -0.029,-0.043c-0.013,-0.013 -0.027,-0.022 -0.045,-0.029c-0.017,-0.006 -0.036,-0.01 -0.057,-0.01c-0.018,0 -0.035,0.003 -0.051,0.008c-0.016,0.005 -0.031,0.012 -0.044,0.022c-0.013,0.01 -0.023,0.022 -0.031,0.036c-0.007,0.014 -0.011,0.031 -0.011,0.05c0,0.02 0.005,0.038 0.015,0.052c0.011,0.014 0.023,0.026 0.039,0.036c0.015,0.009 0.032,0.017 0.05,0.024c0.018,0.006 0.035,0.012 0.051,0.017c0.018,0.006 0.035,0.012 0.053,0.019c0.018,0.007 0.036,0.015 0.052,0.024c0.017,0.009 0.032,0.019 0.046,0.031c0.015,0.011 0.027,0.024 0.038,0.039c0.011,0.014 0.019,0.03 0.025,0.047c0.006,0.018 0.009,0.037 0.009,0.058c0,0.032 -0.007,0.06 -0.021,0.084c-0.014,0.024 -0.032,0.043 -0.055,0.059c-0.022,0.016 -0.048,0.028 -0.076,0.036c-0.028,0.008 -0.057,0.012 -0.085,0.012c-0.032,-0 -0.063,-0.005 -0.093,-0.015c-0.03,-0.01 -0.057,-0.024 -0.081,-0.042c-0.024,-0.019 -0.043,-0.041 -0.058,-0.068c-0.015,-0.026 -0.023,-0.056 -0.024,-0.09l0.092,-0c0.003,0.022 0.009,0.042 0.018,0.059c0.009,0.017 0.021,0.031 0.035,0.043c0.014,0.012 0.031,0.021 0.05,0.027c0.018,0.006 0.039,0.009 0.061,0.009c0.018,0 0.035,-0.002 0.052,-0.006c0.017,-0.005 0.032,-0.012 0.046,-0.021c0.013,-0.009 0.024,-0.021 0.032,-0.035c0.009,-0.014 0.013,-0.031 0.013,-0.051Z" style="fill:#fff;fill-rule:nonzero;"/></g><g transform="matrix(10,0,0,10,-12.6341,193.473)"><path d="M0.476,-0.329l-0.297,0l0,0.252l0.346,0l0,0.077l-0.436,0l-0,-0.711l0.432,0l-0,0.077l-0.342,0l0,0.229l0.297,-0l0,0.076Z" style="fill:#fff;fill-rule:nonzero;"/></g><g transform="matrix(10,0,0,10,-6.63315,193.473)"><path d="M0.554,-0.324c-0.001,0.027 -0.003,0.053 -0.007,0.08c-0.004,0.027 -0.011,0.052 -0.019,0.077c-0.009,0.025 -0.02,0.048 -0.034,0.07c-0.013,0.021 -0.029,0.04 -0.048,0.056l0.122,0.102l-0.062,0.059l-0.14,-0.119c-0.02,0.006 -0.042,0.009 -0.066,0.009c-0.03,-0 -0.057,-0.005 -0.081,-0.014c-0.024,-0.009 -0.046,-0.022 -0.064,-0.038c-0.019,-0.016 -0.035,-0.035 -0.049,-0.056c-0.014,-0.022 -0.025,-0.045 -0.034,-0.07c-0.009,-0.025 -0.015,-0.05 -0.019,-0.077c-0.004,-0.026 -0.007,-0.053 -0.007,-0.079l-0,-0.062c0,-0.026 0.003,-0.053 0.007,-0.079c0.004,-0.027 0.01,-0.053 0.019,-0.077c0.009,-0.025 0.02,-0.048 0.033,-0.07c0.014,-0.022 0.03,-0.041 0.049,-0.057c0.018,-0.016 0.04,-0.029 0.064,-0.038c0.024,-0.009 0.052,-0.014 0.082,-0.014c0.03,0 0.057,0.005 0.082,0.014c0.024,0.009 0.045,0.022 0.064,0.038c0.019,0.016 0.035,0.035 0.048,0.056c0.014,0.022 0.025,0.045 0.034,0.07c0.008,0.025 0.015,0.051 0.019,0.077c0.004,0.027 0.006,0.054 0.007,0.08l-0,0.062Zm-0.09,-0.063c-0,-0.018 -0.002,-0.037 -0.003,-0.056c-0.002,-0.019 -0.005,-0.039 -0.01,-0.057c-0.005,-0.019 -0.011,-0.037 -0.019,-0.054c-0.008,-0.017 -0.018,-0.032 -0.03,-0.044c-0.012,-0.013 -0.027,-0.023 -0.043,-0.031c-0.017,-0.007 -0.037,-0.011 -0.059,-0.011c-0.022,-0 -0.042,0.004 -0.058,0.011c-0.017,0.008 -0.031,0.018 -0.043,0.031c-0.012,0.013 -0.022,0.028 -0.03,0.045c-0.008,0.017 -0.015,0.035 -0.02,0.053c-0.004,0.019 -0.008,0.038 -0.01,0.057c-0.002,0.02 -0.003,0.038 -0.003,0.056l-0,0.063c-0,0.018 0.001,0.036 0.003,0.056c0.002,0.019 0.006,0.038 0.01,0.057c0.005,0.019 0.012,0.037 0.02,0.054c0.008,0.017 0.018,0.032 0.03,0.045c0.012,0.013 0.026,0.023 0.043,0.031c0.017,0.007 0.036,0.011 0.058,0.011c0.023,0 0.042,-0.004 0.059,-0.011c0.017,-0.008 0.031,-0.018 0.043,-0.031c0.012,-0.013 0.022,-0.028 0.03,-0.045c0.008,-0.017 0.014,-0.035 0.019,-0.053c0.005,-0.019 0.008,-0.038 0.01,-0.058c0.001,-0.019 0.003,-0.038 0.003,-0.056l-0,-0.063Z" style="fill:#fff;fill-rule:nonzero;"/></g><g transform="matrix(10,0,0,10,5.3688,193.473)"><path d="M0.298,-0.146l0.168,-0.565l0.096,0l-0.224,0.711l-0.079,0l-0.224,-0.711l0.096,0l0.167,0.565Z" style="fill:#fff;fill-rule:nonzero;"/></g><g transform="matrix(10,0,0,10,11.3698,193.473)"><path d="M0.085,-0.711l0.43,0l-0,0.079l-0.171,-0l0,0.554l0.171,-0l-0,0.078l-0.43,-0l-0,-0.078l0.166,-0l0,-0.554l-0.166,-0l-0,-0.079Z" style="fill:#fff;fill-rule:nonzero;"/></g><g transform="matrix(10,0,0,10,17.3708,193.473)"><path d="M0.476,-0.329l-0.297,0l0,0.252l0.346,0l0,0.077l-0.436,0l-0,-0.711l0.432,0l-0,0.077l-0.342,0l0,0.229l0.297,-0l0,0.076Z" style="fill:#fff;fill-rule:nonzero;"/></g><g transform="matrix(10,0,0,10,23.3717,193.473)"><path d="M0.438,-0.192l0.054,-0.519l0.085,0l-0.086,0.711l-0.093,0l-0.091,-0.536l-0.092,0.536l-0.093,0l-0.086,-0.711l0.086,0l0.054,0.519l0.091,-0.519l0.079,0l0.092,0.519Z" style="fill:#fff;fill-rule:nonzero;"/></g><rect x="-18.635" y="194.205" width="48.008" height="0.488" style="fill:#fff;"/></g><path d="M292.771,183.006l2.701,-0l-0,6.719l1.723,-0l0,0.781l-4.424,-0l0,-0.781l1.797,-0l0,-5.933l-1.797,-0l0,-0.786Z" style="fill:#fff;fill-rule:nonzero;"/><path d="M300.965,190.604c-0.371,-0 -0.712,-0.064 -1.023,-0.191c-0.311,-0.127 -0.577,-0.304 -0.798,-0.532c-0.222,-0.228 -0.394,-0.498 -0.518,-0.811c-0.124,-0.312 -0.186,-0.652 -0.186,-1.02l0,-0.205c0,-0.427 0.069,-0.808 0.206,-1.145c0.136,-0.337 0.318,-0.622 0.544,-0.855c0.226,-0.233 0.483,-0.411 0.771,-0.534c0.289,-0.124 0.584,-0.186 0.887,-0.186c0.381,0 0.713,0.066 0.998,0.198c0.285,0.132 0.522,0.314 0.711,0.547c0.188,0.232 0.329,0.507 0.422,0.822c0.093,0.316 0.139,0.658 0.139,1.026l0,0.405l-3.774,0c0.01,0.241 0.056,0.467 0.139,0.679c0.083,0.211 0.197,0.396 0.342,0.554c0.145,0.158 0.318,0.282 0.52,0.373c0.202,0.092 0.425,0.137 0.669,0.137c0.322,0 0.608,-0.065 0.859,-0.195c0.251,-0.13 0.459,-0.303 0.625,-0.518l0.552,0.43c-0.088,0.133 -0.198,0.261 -0.33,0.383c-0.132,0.122 -0.284,0.231 -0.456,0.325c-0.173,0.094 -0.368,0.17 -0.586,0.227c-0.218,0.057 -0.456,0.086 -0.713,0.086Zm-0.117,-4.737c-0.183,0 -0.355,0.034 -0.518,0.1c-0.163,0.067 -0.309,0.165 -0.439,0.293c-0.131,0.129 -0.24,0.287 -0.33,0.474c-0.089,0.187 -0.152,0.403 -0.188,0.647l2.842,-0l-0,-0.069c-0.01,-0.175 -0.043,-0.349 -0.1,-0.522c-0.057,-0.172 -0.141,-0.327 -0.252,-0.464c-0.11,-0.137 -0.25,-0.247 -0.417,-0.332c-0.168,-0.084 -0.367,-0.127 -0.598,-0.127Z" style="fill:#fff;fill-rule:nonzero;"/><path d="M305.442,185.223l0.064,0.781c0.192,-0.274 0.428,-0.488 0.708,-0.642c0.28,-0.155 0.592,-0.234 0.937,-0.237c0.277,-0 0.529,0.039 0.755,0.117c0.226,0.078 0.419,0.2 0.578,0.366c0.16,0.166 0.283,0.377 0.369,0.633c0.086,0.255 0.129,0.559 0.129,0.91l0,3.355l-0.903,-0l0,-3.335c0,-0.234 -0.026,-0.433 -0.078,-0.596c-0.052,-0.163 -0.129,-0.294 -0.232,-0.395c-0.102,-0.101 -0.228,-0.174 -0.376,-0.22c-0.148,-0.046 -0.318,-0.068 -0.51,-0.068c-0.303,-0 -0.569,0.075 -0.799,0.227c-0.229,0.151 -0.412,0.35 -0.549,0.598l0,3.789l-0.903,-0l-0,-5.283l0.81,-0Z" style="fill:#fff;fill-rule:nonzero;"/><path d="M310.467,187.82c-0,-0.394 0.048,-0.756 0.144,-1.086c0.096,-0.331 0.235,-0.615 0.417,-0.852c0.183,-0.238 0.404,-0.423 0.664,-0.557c0.261,-0.133 0.555,-0.2 0.884,-0.2c0.326,0 0.611,0.058 0.857,0.173c0.246,0.116 0.455,0.283 0.628,0.501l0.043,-0.576l0.821,-0l-0,5.171c-0,0.348 -0.055,0.657 -0.164,0.927c-0.109,0.27 -0.262,0.5 -0.459,0.689c-0.197,0.189 -0.432,0.332 -0.705,0.429c-0.274,0.098 -0.576,0.147 -0.909,0.147c-0.136,-0 -0.292,-0.016 -0.468,-0.046c-0.176,-0.031 -0.354,-0.082 -0.535,-0.152c-0.181,-0.07 -0.355,-0.163 -0.522,-0.281c-0.168,-0.117 -0.312,-0.262 -0.433,-0.434l0.469,-0.542c0.111,0.133 0.225,0.246 0.342,0.339c0.117,0.093 0.236,0.167 0.356,0.222c0.121,0.056 0.241,0.096 0.362,0.12c0.12,0.024 0.241,0.037 0.361,0.037c0.215,-0 0.409,-0.031 0.581,-0.093c0.173,-0.062 0.32,-0.152 0.442,-0.271c0.122,-0.119 0.216,-0.266 0.281,-0.442c0.065,-0.176 0.097,-0.378 0.097,-0.606l0,-0.454c-0.175,0.202 -0.383,0.356 -0.622,0.462c-0.239,0.106 -0.517,0.159 -0.833,0.159c-0.322,-0 -0.613,-0.069 -0.874,-0.206c-0.26,-0.136 -0.481,-0.325 -0.661,-0.566c-0.181,-0.241 -0.32,-0.525 -0.418,-0.852c-0.097,-0.327 -0.146,-0.68 -0.146,-1.057l-0,-0.103Zm0.903,0.103c0,0.257 0.027,0.501 0.081,0.732c0.053,0.231 0.138,0.435 0.254,0.611c0.115,0.175 0.262,0.315 0.441,0.417c0.18,0.103 0.394,0.154 0.645,0.154c0.156,-0 0.297,-0.019 0.422,-0.056c0.126,-0.038 0.238,-0.091 0.337,-0.159c0.1,-0.068 0.188,-0.15 0.266,-0.244c0.079,-0.094 0.147,-0.199 0.205,-0.313l0,-2.421c-0.058,-0.111 -0.126,-0.212 -0.205,-0.303c-0.078,-0.091 -0.167,-0.17 -0.268,-0.237c-0.101,-0.067 -0.213,-0.119 -0.337,-0.156c-0.124,-0.038 -0.26,-0.056 -0.41,-0.056c-0.254,-0 -0.471,0.052 -0.652,0.156c-0.181,0.104 -0.329,0.245 -0.444,0.422c-0.116,0.178 -0.201,0.383 -0.254,0.615c-0.054,0.233 -0.081,0.478 -0.081,0.735l0,0.103Z" style="fill:#fff;fill-rule:nonzero;"/><path d="M318.772,183.943l0,1.28l2.012,-0l0,0.698l-2.012,-0l0,2.871c0,0.205 0.027,0.374 0.079,0.508c0.052,0.133 0.123,0.24 0.214,0.32c0.092,0.079 0.197,0.136 0.315,0.168c0.119,0.033 0.245,0.049 0.379,0.049c0.097,-0 0.198,-0.006 0.303,-0.017c0.104,-0.012 0.205,-0.025 0.305,-0.042c0.099,-0.016 0.192,-0.033 0.278,-0.051c0.086,-0.018 0.157,-0.033 0.212,-0.046l0.127,0.639c-0.074,0.046 -0.166,0.086 -0.273,0.12c-0.107,0.034 -0.225,0.063 -0.352,0.088c-0.127,0.024 -0.261,0.043 -0.402,0.056c-0.142,0.013 -0.283,0.02 -0.423,0.02c-0.234,-0 -0.453,-0.034 -0.657,-0.101c-0.203,-0.066 -0.38,-0.172 -0.529,-0.317c-0.15,-0.145 -0.268,-0.332 -0.354,-0.561c-0.087,-0.23 -0.13,-0.507 -0.13,-0.833l0,-2.871l-1.386,-0l-0,-0.698l1.386,-0l0,-1.28l0.908,0Z" style="fill:#fff;fill-rule:nonzero;"/><path d="M323.538,186.009c0.189,-0.277 0.422,-0.493 0.698,-0.647c0.277,-0.155 0.588,-0.234 0.933,-0.237c0.277,-0 0.528,0.04 0.754,0.12c0.227,0.079 0.419,0.204 0.579,0.373c0.159,0.169 0.282,0.383 0.369,0.642c0.086,0.259 0.129,0.566 0.129,0.921l-0,3.325l-0.903,-0l-0,-3.335c-0,-0.433 -0.104,-0.755 -0.31,-0.967c-0.207,-0.211 -0.502,-0.316 -0.887,-0.312c-0.289,-0 -0.552,0.07 -0.788,0.212c-0.236,0.142 -0.427,0.33 -0.574,0.564l0,3.838l-0.903,-0l-0,-7.5l0.903,-0l0,3.003Z" style="fill:#fff;fill-rule:nonzero;"/><path d="M48,168l-1,-2l2,0l-1,2Z" style="fill:#fff;"/><path d="M336,126l2,0l0,48l-2,0" style="fill:none;stroke:#fff;stroke-width:0.3px;"/><path d="M52,34l-0,-2l246,-0l-0,2" style="fill:none;stroke:#fff;stroke-width:0.3px;"/><path d="M48,42l0,124.5" style="fill:none;stroke:#fff;stroke-width:0.3px;"/><rect x="301" y="32" width="18" height="146" style="fill:none;stroke:#fff;stroke-width:0.3px;"/><g id="views"><path d="M347.575,134.881c-0.036,-0.068 -0.064,-0.154 -0.085,-0.256c-0.021,-0.103 -0.037,-0.21 -0.047,-0.32c-0.091,0.091 -0.193,0.177 -0.305,0.258c-0.112,0.082 -0.236,0.153 -0.371,0.215c-0.135,0.062 -0.279,0.111 -0.432,0.147c-0.153,0.036 -0.316,0.054 -0.488,0.054c-0.28,-0 -0.533,-0.041 -0.76,-0.123c-0.226,-0.081 -0.418,-0.191 -0.576,-0.329c-0.158,-0.138 -0.28,-0.303 -0.366,-0.493c-0.086,-0.191 -0.129,-0.397 -0.129,-0.618c-0,-0.29 0.057,-0.544 0.173,-0.762c0.116,-0.218 0.279,-0.399 0.491,-0.544c0.211,-0.145 0.466,-0.253 0.764,-0.325c0.298,-0.071 0.631,-0.107 0.998,-0.107l0.987,-0l-0,-0.415c-0,-0.16 -0.03,-0.303 -0.088,-0.43c-0.059,-0.127 -0.142,-0.235 -0.249,-0.325c-0.108,-0.089 -0.239,-0.158 -0.393,-0.207c-0.155,-0.049 -0.328,-0.073 -0.52,-0.073c-0.179,-0 -0.34,0.022 -0.481,0.068c-0.142,0.045 -0.261,0.106 -0.359,0.181c-0.098,0.074 -0.173,0.163 -0.227,0.266c-0.054,0.102 -0.081,0.209 -0.081,0.319l-0.908,0c0.003,-0.192 0.053,-0.38 0.149,-0.566c0.096,-0.185 0.234,-0.352 0.415,-0.5c0.181,-0.149 0.4,-0.268 0.659,-0.359c0.259,-0.091 0.553,-0.137 0.882,-0.137c0.299,0 0.577,0.037 0.834,0.11c0.258,0.073 0.48,0.184 0.667,0.332c0.187,0.148 0.334,0.333 0.442,0.554c0.107,0.221 0.161,0.48 0.161,0.776l0,2.457c0,0.175 0.016,0.362 0.049,0.559c0.032,0.197 0.078,0.368 0.137,0.515l-0,0.078l-0.943,-0Zm-1.596,-0.689c0.175,0 0.34,-0.022 0.493,-0.068c0.153,-0.046 0.292,-0.106 0.417,-0.181c0.125,-0.075 0.234,-0.16 0.325,-0.256c0.091,-0.096 0.163,-0.196 0.215,-0.3l-0,-1.07l-0.84,0c-0.527,0 -0.938,0.079 -1.231,0.235c-0.293,0.156 -0.439,0.402 -0.439,0.737c-0,0.13 0.022,0.251 0.066,0.361c0.044,0.111 0.11,0.206 0.198,0.286c0.088,0.08 0.198,0.142 0.332,0.188c0.133,0.046 0.288,0.068 0.464,0.068Z" style="fill:#858484;fill-rule:nonzero;"/><path d="M353.566,129.5c0.085,0 0.173,0.002 0.264,0.007c0.091,0.005 0.178,0.013 0.261,0.025c0.083,0.011 0.16,0.025 0.23,0.041c0.07,0.017 0.128,0.034 0.173,0.054l-0.122,0.884c-0.176,-0.039 -0.343,-0.068 -0.5,-0.086c-0.158,-0.018 -0.323,-0.027 -0.496,-0.027c-0.423,0 -0.766,0.096 -1.028,0.289c-0.262,0.192 -0.455,0.46 -0.578,0.805l-0,3.389l-0.909,-0l0,-5.283l0.86,-0l0.044,0.84c0.214,-0.29 0.472,-0.519 0.774,-0.687c0.301,-0.167 0.643,-0.251 1.027,-0.251Z" style="fill:#858484;fill-rule:nonzero;"/><path d="M359.567,129.5c0.085,0 0.173,0.002 0.264,0.007c0.091,0.005 0.178,0.013 0.261,0.025c0.083,0.011 0.16,0.025 0.23,0.041c0.07,0.017 0.128,0.034 0.173,0.054l-0.122,0.884c-0.176,-0.039 -0.343,-0.068 -0.5,-0.086c-0.158,-0.018 -0.324,-0.027 -0.496,-0.027c-0.423,0 -0.766,0.096 -1.028,0.289c-0.262,0.192 -0.455,0.46 -0.578,0.805l-0,3.389l-0.909,-0l0,-5.283l0.86,-0l0.044,0.84c0.214,-0.29 0.472,-0.519 0.774,-0.687c0.301,-0.167 0.643,-0.251 1.027,-0.251Z" style="fill:#858484;fill-rule:nonzero;"/><path d="M365.578,134.881c-0.036,-0.068 -0.064,-0.154 -0.085,-0.256c-0.021,-0.103 -0.037,-0.21 -0.047,-0.32c-0.091,0.091 -0.193,0.177 -0.305,0.258c-0.112,0.082 -0.236,0.153 -0.371,0.215c-0.135,0.062 -0.279,0.111 -0.432,0.147c-0.153,0.036 -0.316,0.054 -0.488,0.054c-0.28,-0 -0.533,-0.041 -0.76,-0.123c-0.226,-0.081 -0.418,-0.191 -0.576,-0.329c-0.158,-0.138 -0.28,-0.303 -0.366,-0.493c-0.086,-0.191 -0.129,-0.397 -0.129,-0.618c-0,-0.29 0.057,-0.544 0.173,-0.762c0.115,-0.218 0.279,-0.399 0.491,-0.544c0.211,-0.145 0.466,-0.253 0.764,-0.325c0.298,-0.071 0.63,-0.107 0.998,-0.107l0.987,-0l-0,-0.415c-0,-0.16 -0.03,-0.303 -0.088,-0.43c-0.059,-0.127 -0.142,-0.235 -0.249,-0.325c-0.108,-0.089 -0.239,-0.158 -0.393,-0.207c-0.155,-0.049 -0.328,-0.073 -0.52,-0.073c-0.179,-0 -0.34,0.022 -0.481,0.068c-0.142,0.045 -0.262,0.106 -0.359,0.181c-0.098,0.074 -0.174,0.163 -0.227,0.266c-0.054,0.102 -0.081,0.209 -0.081,0.319l-0.908,0c0.003,-0.192 0.053,-0.38 0.149,-0.566c0.096,-0.185 0.234,-0.352 0.415,-0.5c0.181,-0.149 0.4,-0.268 0.659,-0.359c0.259,-0.091 0.553,-0.137 0.881,-0.137c0.3,0 0.578,0.037 0.835,0.11c0.258,0.073 0.48,0.184 0.667,0.332c0.187,0.148 0.334,0.333 0.442,0.554c0.107,0.221 0.161,0.48 0.161,0.776l-0,2.457c-0,0.175 0.016,0.362 0.049,0.559c0.032,0.197 0.078,0.368 0.137,0.515l-0,0.078l-0.943,-0Zm-1.597,-0.689c0.176,0 0.341,-0.022 0.494,-0.068c0.153,-0.046 0.292,-0.106 0.417,-0.181c0.125,-0.075 0.234,-0.16 0.325,-0.256c0.091,-0.096 0.163,-0.196 0.215,-0.3l-0,-1.07l-0.84,0c-0.528,0 -0.938,0.079 -1.231,0.235c-0.293,0.156 -0.439,0.402 -0.439,0.737c-0,0.13 0.022,0.251 0.066,0.361c0.044,0.111 0.11,0.206 0.198,0.286c0.087,0.08 0.198,0.142 0.332,0.188c0.133,0.046 0.288,0.068 0.463,0.068Z" style="fill:#858484;fill-rule:nonzero;"/><path d="M368.918,129.598l0.063,0.781c0.193,-0.274 0.429,-0.488 0.708,-0.642c0.28,-0.155 0.593,-0.234 0.938,-0.237c0.277,0 0.528,0.039 0.754,0.117c0.227,0.078 0.419,0.2 0.579,0.366c0.159,0.166 0.282,0.377 0.369,0.633c0.086,0.255 0.129,0.559 0.129,0.91l0,3.355l-0.903,-0l-0,-3.335c-0,-0.234 -0.026,-0.433 -0.078,-0.596c-0.053,-0.163 -0.13,-0.294 -0.232,-0.395c-0.103,-0.101 -0.228,-0.174 -0.376,-0.22c-0.148,-0.046 -0.319,-0.068 -0.511,-0.068c-0.302,-0 -0.568,0.075 -0.798,0.227c-0.229,0.151 -0.413,0.35 -0.549,0.598l-0,3.789l-0.904,-0l0,-5.283l0.811,-0Z" style="fill:#858484;fill-rule:nonzero;"/><path d="M373.942,132.195c0,-0.394 0.048,-0.756 0.144,-1.086c0.096,-0.331 0.236,-0.615 0.418,-0.852c0.182,-0.238 0.404,-0.423 0.664,-0.557c0.26,-0.133 0.555,-0.2 0.884,-0.2c0.325,0 0.611,0.058 0.857,0.173c0.245,0.116 0.455,0.283 0.627,0.501l0.044,-0.576l0.82,-0l0,5.171c0,0.348 -0.054,0.657 -0.163,0.927c-0.109,0.27 -0.262,0.5 -0.459,0.689c-0.197,0.189 -0.432,0.332 -0.706,0.429c-0.273,0.098 -0.576,0.147 -0.908,0.147c-0.137,-0 -0.293,-0.016 -0.469,-0.046c-0.175,-0.031 -0.354,-0.082 -0.534,-0.152c-0.181,-0.07 -0.355,-0.163 -0.523,-0.281c-0.167,-0.117 -0.312,-0.262 -0.432,-0.434l0.469,-0.542c0.11,0.133 0.224,0.246 0.342,0.339c0.117,0.093 0.236,0.167 0.356,0.222c0.12,0.056 0.241,0.096 0.361,0.12c0.121,0.024 0.241,0.037 0.362,0.037c0.215,-0 0.408,-0.031 0.581,-0.093c0.172,-0.062 0.32,-0.152 0.442,-0.271c0.122,-0.119 0.215,-0.266 0.28,-0.442c0.066,-0.176 0.098,-0.378 0.098,-0.606l0,-0.454c-0.176,0.202 -0.383,0.356 -0.622,0.462c-0.24,0.106 -0.517,0.159 -0.833,0.159c-0.322,-0 -0.614,-0.069 -0.874,-0.206c-0.26,-0.136 -0.481,-0.325 -0.662,-0.566c-0.18,-0.241 -0.319,-0.525 -0.417,-0.852c-0.098,-0.327 -0.147,-0.68 -0.147,-1.057l0,-0.103Zm0.904,0.103c-0,0.257 0.027,0.501 0.08,0.732c0.054,0.231 0.139,0.435 0.254,0.611c0.116,0.175 0.263,0.315 0.442,0.417c0.179,0.103 0.394,0.154 0.645,0.154c0.156,-0 0.297,-0.019 0.422,-0.056c0.125,-0.038 0.238,-0.091 0.337,-0.159c0.099,-0.068 0.188,-0.15 0.266,-0.244c0.078,-0.094 0.146,-0.199 0.205,-0.313l0,-2.421c-0.059,-0.111 -0.127,-0.212 -0.205,-0.303c-0.078,-0.091 -0.168,-0.17 -0.269,-0.237c-0.1,-0.067 -0.213,-0.119 -0.336,-0.156c-0.124,-0.038 -0.261,-0.056 -0.411,-0.056c-0.254,-0 -0.471,0.052 -0.651,0.156c-0.181,0.104 -0.329,0.245 -0.445,0.422c-0.115,0.178 -0.2,0.383 -0.254,0.615c-0.053,0.233 -0.08,0.478 -0.08,0.735l-0,0.103Z" style="fill:#858484;fill-rule:nonzero;"/><path d="M382.443,134.979c-0.371,-0 -0.712,-0.064 -1.023,-0.191c-0.31,-0.127 -0.577,-0.304 -0.798,-0.532c-0.221,-0.228 -0.394,-0.498 -0.518,-0.811c-0.123,-0.312 -0.185,-0.652 -0.185,-1.02l-0,-0.205c-0,-0.427 0.068,-0.808 0.205,-1.145c0.137,-0.337 0.318,-0.622 0.544,-0.855c0.227,-0.233 0.484,-0.411 0.772,-0.534c0.288,-0.124 0.583,-0.186 0.886,-0.186c0.381,0 0.714,0.066 0.999,0.198c0.285,0.132 0.521,0.314 0.71,0.547c0.189,0.232 0.33,0.507 0.423,0.822c0.092,0.316 0.139,0.658 0.139,1.026l-0,0.405l-3.775,0c0.01,0.241 0.056,0.467 0.139,0.679c0.083,0.211 0.197,0.396 0.342,0.554c0.145,0.158 0.318,0.282 0.52,0.373c0.202,0.092 0.425,0.137 0.669,0.137c0.322,0 0.609,-0.065 0.86,-0.195c0.25,-0.13 0.459,-0.303 0.625,-0.518l0.551,0.43c-0.088,0.133 -0.197,0.261 -0.329,0.383c-0.132,0.122 -0.284,0.231 -0.457,0.325c-0.172,0.094 -0.368,0.17 -0.586,0.227c-0.218,0.057 -0.455,0.086 -0.713,0.086Zm-0.117,-4.737c-0.182,0 -0.355,0.034 -0.517,0.1c-0.163,0.067 -0.31,0.165 -0.44,0.293c-0.13,0.129 -0.24,0.287 -0.329,0.474c-0.09,0.187 -0.153,0.403 -0.188,0.647l2.841,-0l0,-0.068c-0.009,-0.176 -0.043,-0.35 -0.1,-0.523c-0.057,-0.172 -0.141,-0.327 -0.251,-0.464c-0.111,-0.137 -0.25,-0.247 -0.418,-0.332c-0.167,-0.084 -0.367,-0.127 -0.598,-0.127Z" style="fill:#858484;fill-rule:nonzero;"/><path d="M389.572,129.5c0.085,0 0.173,0.002 0.264,0.007c0.091,0.005 0.178,0.013 0.261,0.025c0.083,0.011 0.16,0.025 0.23,0.041c0.07,0.017 0.127,0.034 0.173,0.054l-0.122,0.884c-0.176,-0.039 -0.343,-0.068 -0.501,-0.086c-0.157,-0.018 -0.323,-0.027 -0.495,-0.027c-0.423,0 -0.766,0.096 -1.028,0.289c-0.262,0.192 -0.455,0.46 -0.579,0.805l0,3.389l-0.908,-0l0,-5.283l0.86,-0l0.044,0.84c0.214,-0.29 0.472,-0.519 0.773,-0.687c0.302,-0.167 0.644,-0.251 1.028,-0.251Z" style="fill:#858484;fill-rule:nonzero;"/><path d="M346.418,152.268c0.163,-0 0.321,-0.026 0.476,-0.079c0.155,-0.052 0.292,-0.124 0.413,-0.217c0.12,-0.093 0.217,-0.202 0.29,-0.327c0.073,-0.125 0.112,-0.261 0.115,-0.408l0.854,0c-0.003,0.235 -0.064,0.458 -0.183,0.672c-0.119,0.213 -0.277,0.4 -0.476,0.561c-0.198,0.161 -0.426,0.29 -0.683,0.386c-0.258,0.096 -0.526,0.144 -0.806,0.144c-0.4,0 -0.75,-0.072 -1.05,-0.215c-0.299,-0.143 -0.549,-0.336 -0.749,-0.578c-0.201,-0.243 -0.351,-0.523 -0.452,-0.84c-0.101,-0.318 -0.151,-0.652 -0.151,-1.004l-0,-0.205c-0,-0.348 0.05,-0.682 0.151,-1.001c0.101,-0.319 0.251,-0.6 0.452,-0.842c0.2,-0.243 0.45,-0.435 0.749,-0.579c0.3,-0.143 0.65,-0.215 1.05,-0.215c0.312,0 0.6,0.05 0.862,0.149c0.262,0.1 0.488,0.235 0.678,0.406c0.191,0.171 0.34,0.373 0.447,0.608c0.108,0.234 0.161,0.485 0.161,0.752l-0.854,-0c-0.003,-0.16 -0.038,-0.311 -0.105,-0.452c-0.067,-0.142 -0.157,-0.266 -0.271,-0.374c-0.114,-0.107 -0.25,-0.192 -0.408,-0.254c-0.158,-0.061 -0.328,-0.092 -0.51,-0.092c-0.28,-0 -0.515,0.056 -0.706,0.168c-0.19,0.112 -0.344,0.259 -0.461,0.44c-0.117,0.18 -0.201,0.383 -0.251,0.607c-0.051,0.225 -0.076,0.451 -0.076,0.679l-0,0.205c-0,0.231 0.025,0.46 0.076,0.686c0.05,0.227 0.133,0.43 0.249,0.611c0.115,0.18 0.268,0.327 0.459,0.439c0.19,0.112 0.427,0.169 0.71,0.169Z" style="fill:#858484;fill-rule:nonzero;"/><path d="M351.071,148.405c0.189,-0.276 0.422,-0.492 0.699,-0.647c0.276,-0.154 0.587,-0.233 0.932,-0.237c0.277,0 0.528,0.04 0.755,0.12c0.226,0.08 0.419,0.204 0.578,0.374c0.16,0.169 0.283,0.383 0.369,0.642c0.086,0.259 0.129,0.565 0.129,0.92l0,3.325l-0.903,0l-0,-3.335c-0,-0.433 -0.103,-0.755 -0.31,-0.966c-0.207,-0.212 -0.502,-0.316 -0.886,-0.313c-0.29,0 -0.553,0.071 -0.789,0.212c-0.236,0.142 -0.427,0.33 -0.574,0.564l0,3.838l-0.903,0l-0,-7.5l0.903,0l0,3.003Z" style="fill:#858484;fill-rule:nonzero;"/><path d="M355.915,150.212c0,-0.381 0.055,-0.735 0.166,-1.062c0.111,-0.327 0.269,-0.611 0.476,-0.852c0.207,-0.241 0.458,-0.431 0.755,-0.569c0.296,-0.138 0.629,-0.208 1,-0.208c0.375,0 0.711,0.07 1.009,0.208c0.298,0.138 0.55,0.328 0.757,0.569c0.206,0.241 0.365,0.525 0.476,0.852c0.11,0.327 0.166,0.681 0.166,1.062l-0,0.107c-0,0.381 -0.056,0.734 -0.166,1.06c-0.111,0.325 -0.27,0.609 -0.476,0.85c-0.207,0.24 -0.459,0.429 -0.755,0.566c-0.296,0.137 -0.63,0.205 -1.001,0.205c-0.374,0 -0.71,-0.068 -1.008,-0.205c-0.298,-0.137 -0.55,-0.326 -0.757,-0.566c-0.207,-0.241 -0.365,-0.525 -0.476,-0.85c-0.111,-0.326 -0.166,-0.679 -0.166,-1.06l0,-0.107Zm0.903,0.107c0,0.261 0.031,0.509 0.093,0.745c0.062,0.236 0.156,0.443 0.281,0.623c0.125,0.179 0.282,0.32 0.471,0.424c0.189,0.104 0.409,0.157 0.659,0.157c0.248,-0 0.465,-0.053 0.652,-0.157c0.187,-0.104 0.344,-0.245 0.469,-0.424c0.125,-0.18 0.219,-0.387 0.281,-0.623c0.061,-0.236 0.092,-0.484 0.092,-0.745l0,-0.107c0,-0.257 -0.031,-0.504 -0.095,-0.74c-0.063,-0.236 -0.158,-0.443 -0.283,-0.622c-0.125,-0.179 -0.282,-0.322 -0.469,-0.428c-0.187,-0.105 -0.406,-0.158 -0.657,-0.158c-0.25,-0 -0.468,0.053 -0.654,0.158c-0.185,0.106 -0.341,0.249 -0.466,0.428c-0.125,0.179 -0.219,0.386 -0.281,0.622c-0.062,0.236 -0.093,0.483 -0.093,0.74l0,0.107Z" style="fill:#858484;fill-rule:nonzero;"/><path d="M365.632,147.521c0.084,0 0.172,0.003 0.264,0.008c0.091,0.005 0.178,0.013 0.261,0.024c0.083,0.012 0.159,0.025 0.229,0.042c0.07,0.016 0.128,0.034 0.174,0.053l-0.123,0.884c-0.175,-0.039 -0.342,-0.067 -0.5,-0.085c-0.158,-0.018 -0.323,-0.027 -0.496,-0.027c-0.423,-0 -0.765,0.096 -1.027,0.288c-0.262,0.192 -0.455,0.461 -0.579,0.806l-0,3.388l-0.908,0l-0,-5.283l0.859,0l0.044,0.84c0.215,-0.29 0.473,-0.518 0.774,-0.686c0.301,-0.168 0.644,-0.252 1.028,-0.252Z" style="fill:#858484;fill-rule:nonzero;"/><path d="M368,150.217c0,-0.394 0.05,-0.756 0.149,-1.087c0.099,-0.33 0.241,-0.614 0.425,-0.852c0.184,-0.237 0.406,-0.423 0.666,-0.556c0.261,-0.134 0.552,-0.201 0.874,-0.201c0.316,0 0.592,0.053 0.828,0.159c0.236,0.106 0.44,0.26 0.613,0.462l-0,-2.74l0.903,0l0,7.5l-0.83,0l-0.039,-0.556c-0.176,0.215 -0.386,0.377 -0.63,0.488c-0.244,0.111 -0.529,0.166 -0.855,0.166c-0.319,0 -0.607,-0.068 -0.866,-0.205c-0.259,-0.137 -0.48,-0.326 -0.662,-0.566c-0.182,-0.241 -0.324,-0.525 -0.425,-0.853c-0.101,-0.327 -0.151,-0.679 -0.151,-1.057l-0,-0.102Zm0.903,0.102c0,0.257 0.028,0.502 0.083,0.733c0.056,0.231 0.141,0.434 0.257,0.61c0.115,0.176 0.263,0.315 0.442,0.418c0.179,0.102 0.393,0.153 0.644,0.153c0.153,0 0.291,-0.018 0.415,-0.053c0.124,-0.036 0.236,-0.087 0.337,-0.154c0.101,-0.067 0.19,-0.147 0.269,-0.239c0.078,-0.093 0.146,-0.197 0.205,-0.31l-0,-2.452c-0.118,-0.214 -0.275,-0.391 -0.474,-0.529c-0.199,-0.139 -0.446,-0.208 -0.742,-0.208c-0.254,0 -0.471,0.052 -0.652,0.156c-0.181,0.105 -0.329,0.245 -0.444,0.423c-0.116,0.177 -0.201,0.382 -0.257,0.615c-0.055,0.233 -0.083,0.478 -0.083,0.735l0,0.102Z" style="fill:#858484;fill-rule:nonzero;"/><path d="M347.614,169.479c0,-0.107 -0.021,-0.204 -0.063,-0.29c-0.043,-0.086 -0.114,-0.165 -0.215,-0.237c-0.101,-0.071 -0.234,-0.137 -0.4,-0.198c-0.166,-0.06 -0.373,-0.114 -0.621,-0.163c-0.302,-0.062 -0.578,-0.137 -0.827,-0.225c-0.249,-0.088 -0.462,-0.193 -0.64,-0.315c-0.177,-0.122 -0.315,-0.265 -0.412,-0.429c-0.098,-0.165 -0.147,-0.356 -0.147,-0.574c0,-0.215 0.051,-0.416 0.151,-0.603c0.101,-0.187 0.243,-0.351 0.425,-0.491c0.183,-0.14 0.4,-0.251 0.652,-0.332c0.252,-0.081 0.53,-0.122 0.833,-0.122c0.325,0 0.618,0.042 0.879,0.127c0.26,0.085 0.481,0.202 0.664,0.352c0.182,0.149 0.323,0.324 0.422,0.524c0.099,0.201 0.149,0.416 0.149,0.647l-0.903,0c-0,-0.114 -0.03,-0.225 -0.088,-0.334c-0.059,-0.109 -0.14,-0.206 -0.244,-0.291c-0.105,-0.084 -0.231,-0.153 -0.379,-0.205c-0.148,-0.052 -0.315,-0.078 -0.5,-0.078c-0.192,0 -0.361,0.021 -0.506,0.064c-0.145,0.042 -0.265,0.099 -0.361,0.171c-0.096,0.071 -0.169,0.154 -0.217,0.249c-0.049,0.094 -0.074,0.192 -0.074,0.293c0,0.104 0.02,0.196 0.059,0.278c0.039,0.081 0.107,0.154 0.203,0.22c0.096,0.065 0.224,0.123 0.385,0.175c0.161,0.052 0.366,0.103 0.613,0.152c0.326,0.068 0.617,0.147 0.874,0.237c0.257,0.089 0.474,0.197 0.65,0.322c0.175,0.125 0.31,0.271 0.402,0.437c0.093,0.166 0.14,0.358 0.14,0.576c-0,0.234 -0.053,0.448 -0.159,0.64c-0.106,0.192 -0.253,0.356 -0.442,0.493c-0.189,0.137 -0.415,0.242 -0.679,0.317c-0.263,0.075 -0.551,0.113 -0.864,0.113c-0.358,-0 -0.677,-0.048 -0.957,-0.145c-0.28,-0.096 -0.517,-0.223 -0.71,-0.38c-0.194,-0.158 -0.342,-0.341 -0.445,-0.55c-0.102,-0.208 -0.154,-0.425 -0.154,-0.649l0.904,-0c0.013,0.185 0.062,0.342 0.149,0.469c0.086,0.127 0.193,0.229 0.322,0.307c0.128,0.078 0.271,0.134 0.427,0.166c0.156,0.033 0.311,0.049 0.464,0.049c0.381,0 0.682,-0.07 0.903,-0.21c0.222,-0.14 0.334,-0.325 0.337,-0.557Z" style="fill:#fff;fill-rule:nonzero;"/><path d="M352.438,170.979c-0.371,-0 -0.712,-0.064 -1.022,-0.191c-0.311,-0.127 -0.577,-0.304 -0.799,-0.532c-0.221,-0.228 -0.394,-0.498 -0.517,-0.811c-0.124,-0.312 -0.186,-0.652 -0.186,-1.02l0,-0.205c0,-0.427 0.068,-0.808 0.205,-1.145c0.137,-0.337 0.318,-0.622 0.545,-0.855c0.226,-0.233 0.483,-0.411 0.771,-0.534c0.288,-0.124 0.584,-0.186 0.886,-0.186c0.381,0 0.714,0.066 0.999,0.198c0.285,0.132 0.521,0.314 0.71,0.547c0.189,0.232 0.33,0.507 0.423,0.822c0.092,0.316 0.139,0.658 0.139,1.026l-0,0.405l-3.775,0c0.01,0.241 0.057,0.467 0.14,0.679c0.083,0.211 0.196,0.396 0.341,0.554c0.145,0.158 0.319,0.282 0.52,0.373c0.202,0.092 0.425,0.137 0.669,0.137c0.323,0 0.609,-0.065 0.86,-0.195c0.25,-0.13 0.459,-0.303 0.625,-0.518l0.551,0.43c-0.087,0.133 -0.197,0.261 -0.329,0.383c-0.132,0.122 -0.284,0.231 -0.457,0.325c-0.172,0.094 -0.368,0.17 -0.586,0.227c-0.218,0.057 -0.455,0.086 -0.713,0.086Zm-0.117,-4.737c-0.182,0 -0.355,0.034 -0.517,0.1c-0.163,0.067 -0.31,0.165 -0.44,0.293c-0.13,0.129 -0.24,0.287 -0.329,0.474c-0.09,0.187 -0.153,0.403 -0.188,0.647l2.841,-0l0,-0.069c-0.009,-0.175 -0.043,-0.349 -0.1,-0.522c-0.057,-0.172 -0.14,-0.327 -0.251,-0.464c-0.111,-0.137 -0.25,-0.247 -0.418,-0.332c-0.167,-0.084 -0.367,-0.127 -0.598,-0.127Z" style="fill:#fff;fill-rule:nonzero;"/><path d="M355.939,168.195c0,-0.394 0.048,-0.756 0.142,-1.086c0.094,-0.331 0.233,-0.615 0.415,-0.852c0.182,-0.238 0.406,-0.423 0.671,-0.557c0.266,-0.133 0.568,-0.2 0.906,-0.2c0.313,0 0.589,0.053 0.828,0.159c0.239,0.105 0.447,0.259 0.622,0.461l0.039,-0.522l0.831,-0l-0,7.314l-0.904,0l0,-2.51c-0.176,0.186 -0.381,0.328 -0.615,0.428c-0.234,0.099 -0.505,0.149 -0.811,0.149c-0.335,-0 -0.633,-0.069 -0.896,-0.206c-0.262,-0.136 -0.484,-0.325 -0.666,-0.566c-0.182,-0.241 -0.321,-0.525 -0.418,-0.852c-0.096,-0.327 -0.144,-0.68 -0.144,-1.057l0,-0.103Zm0.904,0.103c-0,0.257 0.028,0.503 0.085,0.737c0.057,0.235 0.144,0.441 0.261,0.62c0.118,0.179 0.267,0.322 0.447,0.428c0.181,0.105 0.397,0.158 0.647,0.158c0.29,0 0.532,-0.065 0.728,-0.195c0.195,-0.13 0.355,-0.3 0.478,-0.508l0,-2.607c-0.062,-0.101 -0.132,-0.193 -0.212,-0.276c-0.08,-0.083 -0.169,-0.156 -0.269,-0.218c-0.099,-0.061 -0.208,-0.109 -0.327,-0.144c-0.119,-0.034 -0.248,-0.051 -0.388,-0.051c-0.251,0 -0.467,0.054 -0.649,0.161c-0.183,0.108 -0.333,0.252 -0.452,0.432c-0.119,0.181 -0.207,0.389 -0.264,0.623c-0.057,0.234 -0.085,0.48 -0.085,0.737l-0,0.103Z" style="fill:#fff;fill-rule:nonzero;"/></g></g></svg>