<?xml version="1.0" encoding="UTF-8" standalone="no"?><!DOCTYPE svg PUBLIC "-//W3C//DTD SVG 1.1//EN" "http://www.w3.org/Graphics/SVG/1.1/DTD/svg11.dtd"><svg width="100%" height="100%" viewBox="0 0 396 204" version="1.1" xmlns="http://www.w3.org/2000/svg" xmlns:xlink="http://www.w3.org/1999/xlink" xml:space="preserve" xmlns:serif="http://www.serif.com/" style="fill-rule:evenodd;clip-rule:evenodd;stroke-linecap:round;stroke-linejoin:round;stroke-miterlimit:1.5;"><rect id="background--Rectangle-" serif:id="background (Rectangle)" x="0" y="0" width="396" height="204" style="fill:#5a5c5c;"/><path id="Enclosure" d="M346,27.063c0,-1.69 -1.373,-3.063 -3.063,-3.063l-299.874,0c-1.69,0 -3.063,1.373 -3.063,3.063l0,155.874c0,1.69 1.373,3.063 3.063,3.063l299.874,0c1.69,0 3.063,-1.373 3.063,-3.063l0,-155.874Z" style="fill:#242424;"/><g id="Background-Keys" serif:id="Background Keys"><path id="Key" d="M334,55.806c0,-0.997 -0.809,-1.806 -1.806,-1.806l-8.388,0c-0.997,0 -1.806,0.809 -1.806,1.806l-0,8.388c-0,0.997 0.809,1.806 1.806,1.806l8.388,0c0.997,0 1.806,-0.809 1.806,-1.806l0,-8.388Z" style="fill:#3d3f3f;"/><path id="Key1" serif:id="Key" d="M316,37.806c0,-0.997 -0.809,-1.806 -1.806,-1.806l-8.388,0c-0.997,0 -1.806,0.809 -1.806,1.806l-0,8.388c-0,0.997 0.809,1.806 1.806,1.806l8.388,0c0.997,0 1.806,-0.809 1.806,-1.806l0,-8.388Z" style="fill:#3d3f3f;"/><path id="Key2" serif:id="Key" d="M334,37.806c0,-0.997 -0.809,-1.806 -1.806,-1.806l-8.388,0c-0.997,0 -1.806,0.809 -1.806,1.806l-0,8.388c-0,0.997 0.809,1.806 1.806,1.806l8.388,0c0.997,0 1.806,-0.809 1.806,-1.806l0,-8.388Z" style="fill:#3d3f3f;"/><path id="Key3" serif:id="Key" d="M316,55.806c0,-0.997 -0.809,-1.806 -1.806,-1.806l-8.388,0c-0.997,0 -1.806,0.809 -1.806,1.806l-0,8.388c-0,0.997 0.809,1.806 1.806,1.806l8.388,0c0.997,0 1.806,-0.809 1.806,-1.806l0,-8.388Z" style="fill:#3d3f3f;"/><path id="Key4" serif:id="Key" d="M298,91.806c0,-0.997 -0.809,-1.806 -1.806,-1.806l-8.388,0c-0.997,0 -1.806,0.809 -1.806,1.806l-0,8.388c-0,0.997 0.809,1.806 1.806,1.806l8.388,0c0.997,0 1.806,-0.809 1.806,-1.806l0,-8.388Z" style="fill:#3d3f3f;"/><path id="Key5" serif:id="Key" d="M280,73.806c-0,-0.997 -0.809,-1.806 -1.806,-1.806l-8.388,0c-0.997,0 -1.806,0.809 -1.806,1.806l-0,8.388c-0,0.997 0.809,1.806 1.806,1.806l8.388,0c0.997,0 1.806,-0.809 1.806,-1.806l-0,-8.388Z" style="fill:#3d3f3f;"/><path id="Key6" serif:id="Key" d="M298,73.806c0,-0.997 -0.809,-1.806 -1.806,-1.806l-8.388,0c-0.997,0 -1.806,0.809 -1.806,1.806l-0,8.388c-0,0.997 0.809,1.806 1.806,1.806l8.388,0c0.997,0 1.806,-0.809 1.806,-1.806l0,-8.388Z" style="fill:#3d3f3f;"/><path id="Key7" serif:id="Key" d="M280,91.806c0,-0.997 -0.809,-1.806 -1.806,-1.806l-8.388,0c-0.997,0 -1.806,0.809 -1.806,1.806l-0,8.388c-0,0.997 0.809,1.806 1.806,1.806l8.388,0c0.997,0 1.806,-0.809 1.806,-1.806l0,-8.388Z" style="fill:#3d3f3f;"/><path id="Key8" serif:id="Key" d="M334,91.806c0,-0.997 -0.809,-1.806 -1.806,-1.806l-8.388,0c-0.997,0 -1.806,0.809 -1.806,1.806l-0,8.388c-0,0.997 0.809,1.806 1.806,1.806l8.388,0c0.997,0 1.806,-0.809 1.806,-1.806l0,-8.388Z" style="fill:#3d3f3f;"/><path id="Key9" serif:id="Key" d="M316,73.806c0,-0.997 -0.809,-1.806 -1.806,-1.806l-8.388,0c-0.997,0 -1.806,0.809 -1.806,1.806l-0,8.388c-0,0.997 0.809,1.806 1.806,1.806l8.388,0c0.997,0 1.806,-0.809 1.806,-1.806l0,-8.388Z" style="fill:#3d3f3f;"/><path id="Key10" serif:id="Key" d="M334,73.806c0,-0.997 -0.809,-1.806 -1.806,-1.806l-8.388,0c-0.997,0 -1.806,0.809 -1.806,1.806l-0,8.388c-0,0.997 0.809,1.806 1.806,1.806l8.388,0c0.997,0 1.806,-0.809 1.806,-1.806l0,-8.388Z" style="fill:#3d3f3f;"/><path id="Key11" serif:id="Key" d="M316,91.806c0,-0.997 -0.809,-1.806 -1.806,-1.806l-8.388,0c-0.997,0 -1.806,0.809 -1.806,1.806l-0,8.388c-0,0.997 0.809,1.806 1.806,1.806l8.388,0c0.997,0 1.806,-0.809 1.806,-1.806l0,-8.388Z" style="fill:#3d3f3f;"/><path id="Key12" serif:id="Key" d="M298,55.806c0,-0.997 -0.809,-1.806 -1.806,-1.806l-8.388,0c-0.997,0 -1.806,0.809 -1.806,1.806l-0,8.388c-0,0.997 0.809,1.806 1.806,1.806l8.388,0c0.997,0 1.806,-0.809 1.806,-1.806l0,-8.388Z" style="fill:#3d3f3f;"/><path id="Key13" serif:id="Key" d="M280,37.806c0,-0.997 -0.809,-1.806 -1.806,-1.806l-8.388,0c-0.997,0 -1.806,0.809 -1.806,1.806l-0,8.388c-0,0.997 0.809,1.806 1.806,1.806l8.388,0c0.997,0 1.806,-0.809 1.806,-1.806l0,-8.388Z" style="fill:#3d3f3f;"/><path id="Key14" serif:id="Key" d="M298,37.806c0,-0.997 -0.809,-1.806 -1.806,-1.806l-8.388,0c-0.997,0 -1.806,0.809 -1.806,1.806l-0,8.388c-0,0.997 0.809,1.806 1.806,1.806l8.388,0c0.997,0 1.806,-0.809 1.806,-1.806l0,-8.388Z" style="fill:#3d3f3f;"/><path id="Key15" serif:id="Key" d="M280,55.806c0,-0.997 -0.809,-1.806 -1.806,-1.806l-8.388,0c-0.997,0 -1.806,0.809 -1.806,1.806l-0,8.388c-0,0.997 0.809,1.806 1.806,1.806l8.388,0c0.997,0 1.806,-0.809 1.806,-1.806l0,-8.388Z" style="fill:#3d3f3f;"/><path id="Key16" serif:id="Key" d="M244,55.806c0,-0.997 -0.809,-1.806 -1.806,-1.806l-8.388,0c-0.997,0 -1.806,0.809 -1.806,1.806l0,8.388c0,0.997 0.809,1.806 1.806,1.806l8.388,0c0.997,0 1.806,-0.809 1.806,-1.806l0,-8.388Z" style="fill:#3d3f3f;"/><path id="Key17" serif:id="Key" d="M244,37.806c0,-0.997 -0.809,-1.806 -1.806,-1.806l-8.388,0c-0.997,0 -1.806,0.809 -1.806,1.806l0,8.388c0,0.997 0.809,1.806 1.806,1.806l8.388,0c0.997,0 1.806,-0.809 1.806,-1.806l0,-8.388Z" style="fill:#3d3f3f;"/><path id="Key18" serif:id="Key" d="M262,37.806c0,-0.997 -0.809,-1.806 -1.806,-1.806l-8.388,0c-0.997,0 -1.806,0.809 -1.806,1.806l0,8.388c0,0.997 0.809,1.806 1.806,1.806l8.388,0c0.997,0 1.806,-0.809 1.806,-1.806l0,-8.388Z" style="fill:#3d3f3f;"/><path id="Key19" serif:id="Key" d="M262,55.806c0,-0.997 -0.809,-1.806 -1.806,-1.806l-8.388,0c-0.997,0 -1.806,0.809 -1.806,1.806l0,8.388c0,0.997 0.809,1.806 1.806,1.806l8.388,0c0.997,0 1.806,-0.809 1.806,-1.806l0,-8.388Z" style="fill:#3d3f3f;"/><path id="Key20" serif:id="Key" d="M226,91.806c0,-0.997 -0.809,-1.806 -1.806,-1.806l-8.388,0c-0.997,0 -1.806,0.809 -1.806,1.806l0,8.388c0,0.997 0.809,1.806 1.806,1.806l8.388,0c0.997,0 1.806,-0.809 1.806,-1.806l0,-8.388Z" style="fill:#3d3f3f;"/><path id="Key21" serif:id="Key" d="M208,73.806c0,-0.997 -0.809,-1.806 -1.806,-1.806l-8.388,0c-0.997,0 -1.806,0.809 -1.806,1.806l0,8.388c0,0.997 0.809,1.806 1.806,1.806l8.388,0c0.997,0 1.806,-0.809 1.806,-1.806l0,-8.388Z" style="fill:#3d3f3f;"/><path id="Key22" serif:id="Key" d="M226,73.806c0,-0.997 -0.809,-1.806 -1.806,-1.806l-8.388,0c-0.997,0 -1.806,0.809 -1.806,1.806l0,8.388c0,0.997 0.809,1.806 1.806,1.806l8.388,0c0.997,0 1.806,-0.809 1.806,-1.806l0,-8.388Z" style="fill:#3d3f3f;"/><path id="Key23" serif:id="Key" d="M208,91.806c0,-0.997 -0.809,-1.806 -1.806,-1.806l-8.388,0c-0.997,0 -1.806,0.809 -1.806,1.806l0,8.388c0,0.997 0.809,1.806 1.806,1.806l8.388,0c0.997,0 1.806,-0.809 1.806,-1.806l0,-8.388Z" style="fill:#3d3f3f;"/><path id="Key24" serif:id="Key" d="M262,91.806c0,-0.997 -0.809,-1.806 -1.806,-1.806l-8.388,0c-0.997,0 -1.806,0.809 -1.806,1.806l0,8.388c0,0.997 0.809,1.806 1.806,1.806l8.388,0c0.997,0 1.806,-0.809 1.806,-1.806l0,-8.388Z" style="fill:#3d3f3f;"/><path id="Key25" serif:id="Key" d="M244,73.806c0,-0.997 -0.809,-1.806 -1.806,-1.806l-8.388,0c-0.997,0 -1.806,0.809 -1.806,1.806l0,8.388c0,0.997 0.809,1.806 1.806,1.806l8.388,0c0.997,0 1.806,-0.809 1.806,-1.806l0,-8.388Z" style="fill:#3d3f3f;"/><path id="Key26" serif:id="Key" d="M262,73.806c0,-0.997 -0.809,-1.806 -1.806,-1.806l-8.388,0c-0.997,0 -1.806,0.809 -1.806,1.806l0,8.388c0,0.997 0.809,1.806 1.806,1.806l8.388,0c0.997,0 1.806,-0.809 1.806,-1.806l0,-8.388Z" style="fill:#3d3f3f;"/><path id="Key27" serif:id="Key" d="M244,91.806c0,-0.997 -0.809,-1.806 -1.806,-1.806l-8.388,0c-0.997,0 -1.806,0.809 -1.806,1.806l0,8.388c0,0.997 0.809,1.806 1.806,1.806l8.388,0c0.997,0 1.806,-0.809 1.806,-1.806l0,-8.388Z" style="fill:#3d3f3f;"/><path id="Key28" serif:id="Key" d="M226,55.806c0,-0.997 -0.809,-1.806 -1.806,-1.806l-8.388,0c-0.997,0 -1.806,0.809 -1.806,1.806l0,8.388c0,0.997 0.809,1.806 1.806,1.806l8.388,0c0.997,0 1.806,-0.809 1.806,-1.806l0,-8.388Z" style="fill:#3d3f3f;"/><path id="Key29" serif:id="Key" d="M208,37.806c0,-0.997 -0.809,-1.806 -1.806,-1.806l-8.388,0c-0.997,0 -1.806,0.809 -1.806,1.806l0,8.388c0,0.997 0.809,1.806 1.806,1.806l8.388,0c0.997,0 1.806,-0.809 1.806,-1.806l0,-8.388Z" style="fill:#3d3f3f;"/><path id="Key30" serif:id="Key" d="M226,37.806c0,-0.997 -0.809,-1.806 -1.806,-1.806l-8.388,0c-0.997,0 -1.806,0.809 -1.806,1.806l0,8.388c0,0.997 0.809,1.806 1.806,1.806l8.388,0c0.997,0 1.806,-0.809 1.806,-1.806l0,-8.388Z" style="fill:#3d3f3f;"/><path id="Key31" serif:id="Key" d="M208,55.806c0,-0.997 -0.809,-1.806 -1.806,-1.806l-8.388,0c-0.997,0 -1.806,0.809 -1.806,1.806l0,8.388c0,0.997 0.809,1.806 1.806,1.806l8.388,0c0.997,0 1.806,-0.809 1.806,-1.806l0,-8.388Z" style="fill:#3d3f3f;"/><path id="Key32" serif:id="Key" d="M190,55.806c0,-0.997 -0.809,-1.806 -1.806,-1.806l-8.388,0c-0.997,0 -1.806,0.809 -1.806,1.806l0,8.388c0,0.997 0.809,1.806 1.806,1.806l8.388,0c0.997,0 1.806,-0.809 1.806,-1.806l0,-8.388Z" style="fill:#3d3f3f;"/><path id="Key33" serif:id="Key" d="M172,37.806c-0,-0.997 -0.809,-1.806 -1.806,-1.806l-8.388,0c-0.997,0 -1.806,0.809 -1.806,1.806l0,8.388c0,0.997 0.809,1.806 1.806,1.806l8.388,0c0.997,0 1.806,-0.809 1.806,-1.806l-0,-8.388Z" style="fill:#3d3f3f;"/><path id="Key34" serif:id="Key" d="M190,37.806c0,-0.997 -0.809,-1.806 -1.806,-1.806l-8.388,0c-0.997,0 -1.806,0.809 -1.806,1.806l0,8.388c0,0.997 0.809,1.806 1.806,1.806l8.388,0c0.997,0 1.806,-0.809 1.806,-1.806l0,-8.388Z" style="fill:#3d3f3f;"/><path id="Key35" serif:id="Key" d="M172,55.806c0,-0.997 -0.809,-1.806 -1.806,-1.806l-8.388,0c-0.997,0 -1.806,0.809 -1.806,1.806l0,8.388c0,0.997 0.809,1.806 1.806,1.806l8.388,0c0.997,0 1.806,-0.809 1.806,-1.806l0,-8.388Z" style="fill:#3d3f3f;"/><path id="Key36" serif:id="Key" d="M154,91.806c0,-0.997 -0.809,-1.806 -1.806,-1.806l-8.388,0c-0.997,0 -1.806,0.809 -1.806,1.806l0,8.388c0,0.997 0.809,1.806 1.806,1.806l8.388,0c0.997,0 1.806,-0.809 1.806,-1.806l0,-8.388Z" style="fill:#3d3f3f;"/><path id="Key37" serif:id="Key" d="M136,73.806c-0,-0.997 -0.809,-1.806 -1.806,-1.806l-8.388,0c-0.997,0 -1.806,0.809 -1.806,1.806l-0,8.388c-0,0.997 0.809,1.806 1.806,1.806l8.388,0c0.997,0 1.806,-0.809 1.806,-1.806l-0,-8.388Z" style="fill:#3d3f3f;"/><path id="Key38" serif:id="Key" d="M154,73.806c0,-0.997 -0.809,-1.806 -1.806,-1.806l-8.388,0c-0.997,0 -1.806,0.809 -1.806,1.806l0,8.388c0,0.997 0.809,1.806 1.806,1.806l8.388,0c0.997,0 1.806,-0.809 1.806,-1.806l0,-8.388Z" style="fill:#3d3f3f;"/><path id="Key39" serif:id="Key" d="M136,91.806c0,-0.997 -0.809,-1.806 -1.806,-1.806l-8.388,0c-0.997,0 -1.806,0.809 -1.806,1.806l0,8.388c0,0.997 0.809,1.806 1.806,1.806l8.388,0c0.997,0 1.806,-0.809 1.806,-1.806l0,-8.388Z" style="fill:#3d3f3f;"/><path id="Key40" serif:id="Key" d="M190,91.806c0,-0.997 -0.809,-1.806 -1.806,-1.806l-8.388,0c-0.997,0 -1.806,0.809 -1.806,1.806l0,8.388c0,0.997 0.809,1.806 1.806,1.806l8.388,0c0.997,0 1.806,-0.809 1.806,-1.806l0,-8.388Z" style="fill:#3d3f3f;"/><path id="Key41" serif:id="Key" d="M172,73.806c0,-0.997 -0.809,-1.806 -1.806,-1.806l-8.388,0c-0.997,0 -1.806,0.809 -1.806,1.806l0,8.388c0,0.997 0.809,1.806 1.806,1.806l8.388,0c0.997,0 1.806,-0.809 1.806,-1.806l0,-8.388Z" style="fill:#3d3f3f;"/><path id="Key42" serif:id="Key" d="M190,73.806c0,-0.997 -0.809,-1.806 -1.806,-1.806l-8.388,0c-0.997,0 -1.806,0.809 -1.806,1.806l0,8.388c0,0.997 0.809,1.806 1.806,1.806l8.388,0c0.997,0 1.806,-0.809 1.806,-1.806l0,-8.388Z" style="fill:#3d3f3f;"/><path id="Key43" serif:id="Key" d="M172,91.806c0,-0.997 -0.809,-1.806 -1.806,-1.806l-8.388,0c-0.997,0 -1.806,0.809 -1.806,1.806l0,8.388c0,0.997 0.809,1.806 1.806,1.806l8.388,0c0.997,0 1.806,-0.809 1.806,-1.806l0,-8.388Z" style="fill:#3d3f3f;"/><path id="Key44" serif:id="Key" d="M154,55.806c0,-0.997 -0.809,-1.806 -1.806,-1.806l-8.388,0c-0.997,0 -1.806,0.809 -1.806,1.806l0,8.388c0,0.997 0.809,1.806 1.806,1.806l8.388,0c0.997,0 1.806,-0.809 1.806,-1.806l0,-8.388Z" style="fill:#3d3f3f;"/><path id="Key45" serif:id="Key" d="M136,37.806c0,-0.997 -0.809,-1.806 -1.806,-1.806l-8.388,0c-0.997,0 -1.806,0.809 -1.806,1.806l0,8.388c0,0.997 0.809,1.806 1.806,1.806l8.388,0c0.997,0 1.806,-0.809 1.806,-1.806l0,-8.388Z" style="fill:#3d3f3f;"/><path id="Key46" serif:id="Key" d="M154,37.806c0,-0.997 -0.809,-1.806 -1.806,-1.806l-8.388,0c-0.997,0 -1.806,0.809 -1.806,1.806l0,8.388c0,0.997 0.809,1.806 1.806,1.806l8.388,0c0.997,0 1.806,-0.809 1.806,-1.806l0,-8.388Z" style="fill:#3d3f3f;"/><path id="Key47" serif:id="Key" d="M136,55.806c0,-0.997 -0.809,-1.806 -1.806,-1.806l-8.388,0c-0.997,0 -1.806,0.809 -1.806,1.806l0,8.388c0,0.997 0.809,1.806 1.806,1.806l8.388,0c0.997,0 1.806,-0.809 1.806,-1.806l0,-8.388Z" style="fill:#3d3f3f;"/><path id="Key48" serif:id="Key" d="M100,55.806c0,-0.997 -0.809,-1.806 -1.806,-1.806l-8.388,0c-0.997,0 -1.806,0.809 -1.806,1.806l0,8.388c0,0.997 0.809,1.806 1.806,1.806l8.388,0c0.997,0 1.806,-0.809 1.806,-1.806l0,-8.388Z" style="fill:#3d3f3f;"/><path id="Key49" serif:id="Key" d="M100,37.806c0,-0.997 -0.809,-1.806 -1.806,-1.806l-8.388,0c-0.997,0 -1.806,0.809 -1.806,1.806l0,8.388c0,0.997 0.809,1.806 1.806,1.806l8.388,0c0.997,0 1.806,-0.809 1.806,-1.806l0,-8.388Z" style="fill:#3d3f3f;"/><path id="Key50" serif:id="Key" d="M118,37.806c0,-0.997 -0.809,-1.806 -1.806,-1.806l-8.388,0c-0.997,0 -1.806,0.809 -1.806,1.806l0,8.388c0,0.997 0.809,1.806 1.806,1.806l8.388,0c0.997,0 1.806,-0.809 1.806,-1.806l0,-8.388Z" style="fill:#3d3f3f;"/><path id="Key51" serif:id="Key" d="M118,55.806c0,-0.997 -0.809,-1.806 -1.806,-1.806l-8.388,0c-0.997,0 -1.806,0.809 -1.806,1.806l0,8.388c0,0.997 0.809,1.806 1.806,1.806l8.388,0c0.997,0 1.806,-0.809 1.806,-1.806l0,-8.388Z" style="fill:#3d3f3f;"/><path id="Key52" serif:id="Key" d="M82,91.806c0,-0.997 -0.809,-1.806 -1.806,-1.806l-8.388,0c-0.997,0 -1.806,0.809 -1.806,1.806l0,8.388c0,0.997 0.809,1.806 1.806,1.806l8.388,0c0.997,0 1.806,-0.809 1.806,-1.806l0,-8.388Z" style="fill:#3d3f3f;"/><path id="Key53" serif:id="Key" d="M64,73.806c0,-0.997 -0.809,-1.806 -1.806,-1.806l-8.388,0c-0.997,0 -1.806,0.809 -1.806,1.806l0,8.388c0,0.997 0.809,1.806 1.806,1.806l8.388,0c0.997,0 1.806,-0.809 1.806,-1.806l0,-8.388Z" style="fill:#3d3f3f;"/><path id="Key54" serif:id="Key" d="M82,73.806c0,-0.997 -0.809,-1.806 -1.806,-1.806l-8.388,0c-0.997,0 -1.806,0.809 -1.806,1.806l0,8.388c0,0.997 0.809,1.806 1.806,1.806l8.388,0c0.997,0 1.806,-0.809 1.806,-1.806l0,-8.388Z" style="fill:#3d3f3f;"/><path id="Key55" serif:id="Key" d="M64,91.806c0,-0.997 -0.809,-1.806 -1.806,-1.806l-8.388,0c-0.997,0 -1.806,0.809 -1.806,1.806l0,8.388c0,0.997 0.809,1.806 1.806,1.806l8.388,0c0.997,0 1.806,-0.809 1.806,-1.806l0,-8.388Z" style="fill:#3d3f3f;"/><path id="Key56" serif:id="Key" d="M118,91.806c0,-0.997 -0.809,-1.806 -1.806,-1.806l-8.388,0c-0.997,0 -1.806,0.809 -1.806,1.806l0,8.388c0,0.997 0.809,1.806 1.806,1.806l8.388,0c0.997,0 1.806,-0.809 1.806,-1.806l0,-8.388Z" style="fill:#3d3f3f;"/><path id="Key57" serif:id="Key" d="M100,73.806c0,-0.997 -0.809,-1.806 -1.806,-1.806l-8.388,0c-0.997,0 -1.806,0.809 -1.806,1.806l0,8.388c0,0.997 0.809,1.806 1.806,1.806l8.388,0c0.997,0 1.806,-0.809 1.806,-1.806l0,-8.388Z" style="fill:#3d3f3f;"/><path id="Key58" serif:id="Key" d="M118,73.806c0,-0.997 -0.809,-1.806 -1.806,-1.806l-8.388,0c-0.997,0 -1.806,0.809 -1.806,1.806l0,8.388c0,0.997 0.809,1.806 1.806,1.806l8.388,0c0.997,0 1.806,-0.809 1.806,-1.806l0,-8.388Z" style="fill:#3d3f3f;"/><path id="Key59" serif:id="Key" d="M100,91.806c0,-0.997 -0.809,-1.806 -1.806,-1.806l-8.388,0c-0.997,0 -1.806,0.809 -1.806,1.806l0,8.388c0,0.997 0.809,1.806 1.806,1.806l8.388,0c0.997,0 1.806,-0.809 1.806,-1.806l0,-8.388Z" style="fill:#3d3f3f;"/><path id="Key60" serif:id="Key" d="M82,55.806c0,-0.997 -0.809,-1.806 -1.806,-1.806l-8.388,0c-0.997,0 -1.806,0.809 -1.806,1.806l0,8.388c0,0.997 0.809,1.806 1.806,1.806l8.388,0c0.997,0 1.806,-0.809 1.806,-1.806l0,-8.388Z" style="fill:#3d3f3f;"/><path id="Key61" serif:id="Key" d="M64,37.806c0,-0.997 -0.809,-1.806 -1.806,-1.806l-8.388,0c-0.997,0 -1.806,0.809 -1.806,1.806l0,8.388c0,0.997 0.809,1.806 1.806,1.806l8.388,0c0.997,0 1.806,-0.809 1.806,-1.806l0,-8.388Z" style="fill:#3d3f3f;"/><path id="Key62" serif:id="Key" d="M82,37.806c0,-0.997 -0.809,-1.806 -1.806,-1.806l-8.388,0c-0.997,0 -1.806,0.809 -1.806,1.806l0,8.388c0,0.997 0.809,1.806 1.806,1.806l8.388,0c0.997,0 1.806,-0.809 1.806,-1.806l0,-8.388Z" style="fill:#3d3f3f;"/><path id="Key63" serif:id="Key" d="M64,55.806c0,-0.997 -0.809,-1.806 -1.806,-1.806l-8.388,0c-0.997,0 -1.806,0.809 -1.806,1.806l0,8.388c0,0.997 0.809,1.806 1.806,1.806l8.388,0c0.997,0 1.806,-0.809 1.806,-1.806l0,-8.388Z" style="fill:#3d3f3f;"/><path id="Key64" serif:id="Key" d="M334,127.806c0,-0.997 -0.809,-1.806 -1.806,-1.806l-8.388,0c-0.997,0 -1.806,0.809 -1.806,1.806l-0,8.388c-0,0.997 0.809,1.806 1.806,1.806l8.388,0c0.997,0 1.806,-0.809 1.806,-1.806l0,-8.388Z" style="fill:#3d3f3f;"/><path id="Key65" serif:id="Key" d="M316,109.806c0,-0.997 -0.809,-1.806 -1.806,-1.806l-8.388,0c-0.997,0 -1.806,0.809 -1.806,1.806l-0,8.388c-0,0.997 0.809,1.806 1.806,1.806l8.388,0c0.997,0 1.806,-0.809 1.806,-1.806l0,-8.388Z" style="fill:#3d3f3f;"/><path id="Key66" serif:id="Key" d="M334,109.806c0,-0.997 -0.809,-1.806 -1.806,-1.806l-8.388,0c-0.997,0 -1.806,0.809 -1.806,1.806l-0,8.388c-0,0.997 0.809,1.806 1.806,1.806l8.388,0c0.997,0 1.806,-0.809 1.806,-1.806l0,-8.388Z" style="fill:#3d3f3f;"/><path id="Key67" serif:id="Key" d="M316,127.806c0,-0.997 -0.809,-1.806 -1.806,-1.806l-8.388,0c-0.997,0 -1.806,0.809 -1.806,1.806l-0,8.388c-0,0.997 0.809,1.806 1.806,1.806l8.388,0c0.997,0 1.806,-0.809 1.806,-1.806l0,-8.388Z" style="fill:#3d3f3f;"/><path id="Key68" serif:id="Key" d="M298,163.806c0,-0.997 -0.809,-1.806 -1.806,-1.806l-8.388,0c-0.997,0 -1.806,0.809 -1.806,1.806l-0,8.388c-0,0.997 0.809,1.806 1.806,1.806l8.388,0c0.997,0 1.806,-0.809 1.806,-1.806l0,-8.388Z" style="fill:#3d3f3f;"/><path id="Key69" serif:id="Key" d="M280,145.806c-0,-0.997 -0.809,-1.806 -1.806,-1.806l-8.388,0c-0.997,0 -1.806,0.809 -1.806,1.806l-0,8.388c-0,0.997 0.809,1.806 1.806,1.806l8.388,0c0.997,0 1.806,-0.809 1.806,-1.806l-0,-8.388Z" style="fill:#3d3f3f;"/><path id="Key70" serif:id="Key" d="M298,145.806c0,-0.997 -0.809,-1.806 -1.806,-1.806l-8.388,0c-0.997,0 -1.806,0.809 -1.806,1.806l-0,8.388c-0,0.997 0.809,1.806 1.806,1.806l8.388,0c0.997,0 1.806,-0.809 1.806,-1.806l0,-8.388Z" style="fill:#3d3f3f;"/><path id="Key71" serif:id="Key" d="M280,163.806c0,-0.997 -0.809,-1.806 -1.806,-1.806l-8.388,0c-0.997,0 -1.806,0.809 -1.806,1.806l-0,8.388c-0,0.997 0.809,1.806 1.806,1.806l8.388,0c0.997,0 1.806,-0.809 1.806,-1.806l0,-8.388Z" style="fill:#3d3f3f;"/><path id="Key72" serif:id="Key" d="M334,163.806c0,-0.997 -0.809,-1.806 -1.806,-1.806l-8.388,0c-0.997,0 -1.806,0.809 -1.806,1.806l-0,8.388c-0,0.997 0.809,1.806 1.806,1.806l8.388,0c0.997,0 1.806,-0.809 1.806,-1.806l0,-8.388Z" style="fill:#3d3f3f;"/><path id="Key73" serif:id="Key" d="M316,145.806c0,-0.997 -0.809,-1.806 -1.806,-1.806l-8.388,0c-0.997,0 -1.806,0.809 -1.806,1.806l-0,8.388c-0,0.997 0.809,1.806 1.806,1.806l8.388,0c0.997,0 1.806,-0.809 1.806,-1.806l0,-8.388Z" style="fill:#3d3f3f;"/><path id="Key74" serif:id="Key" d="M334,145.806c0,-0.997 -0.809,-1.806 -1.806,-1.806l-8.388,0c-0.997,0 -1.806,0.809 -1.806,1.806l-0,8.388c-0,0.997 0.809,1.806 1.806,1.806l8.388,0c0.997,0 1.806,-0.809 1.806,-1.806l0,-8.388Z" style="fill:#3d3f3f;"/><path id="Key75" serif:id="Key" d="M316,163.806c0,-0.997 -0.809,-1.806 -1.806,-1.806l-8.388,0c-0.997,0 -1.806,0.809 -1.806,1.806l-0,8.388c-0,0.997 0.809,1.806 1.806,1.806l8.388,0c0.997,0 1.806,-0.809 1.806,-1.806l0,-8.388Z" style="fill:#3d3f3f;"/><path id="Key76" serif:id="Key" d="M298,127.806c0,-0.997 -0.809,-1.806 -1.806,-1.806l-8.388,0c-0.997,0 -1.806,0.809 -1.806,1.806l-0,8.388c-0,0.997 0.809,1.806 1.806,1.806l8.388,0c0.997,0 1.806,-0.809 1.806,-1.806l0,-8.388Z" style="fill:#3d3f3f;"/><path id="Key77" serif:id="Key" d="M280,109.806c0,-0.997 -0.809,-1.806 -1.806,-1.806l-8.388,0c-0.997,0 -1.806,0.809 -1.806,1.806l-0,8.388c-0,0.997 0.809,1.806 1.806,1.806l8.388,0c0.997,0 1.806,-0.809 1.806,-1.806l0,-8.388Z" style="fill:#3d3f3f;"/><path id="Key78" serif:id="Key" d="M298,109.806c0,-0.997 -0.809,-1.806 -1.806,-1.806l-8.388,0c-0.997,0 -1.806,0.809 -1.806,1.806l-0,8.388c-0,0.997 0.809,1.806 1.806,1.806l8.388,0c0.997,0 1.806,-0.809 1.806,-1.806l0,-8.388Z" style="fill:#3d3f3f;"/><path id="Key79" serif:id="Key" d="M280,127.806c0,-0.997 -0.809,-1.806 -1.806,-1.806l-8.388,0c-0.997,0 -1.806,0.809 -1.806,1.806l-0,8.388c-0,0.997 0.809,1.806 1.806,1.806l8.388,0c0.997,0 1.806,-0.809 1.806,-1.806l0,-8.388Z" style="fill:#3d3f3f;"/><path id="Key80" serif:id="Key" d="M244,127.806c0,-0.997 -0.809,-1.806 -1.806,-1.806l-8.388,0c-0.997,0 -1.806,0.809 -1.806,1.806l0,8.388c0,0.997 0.809,1.806 1.806,1.806l8.388,0c0.997,0 1.806,-0.809 1.806,-1.806l0,-8.388Z" style="fill:#3d3f3f;"/><path id="Key81" serif:id="Key" d="M244,109.806c0,-0.997 -0.809,-1.806 -1.806,-1.806l-8.388,0c-0.997,0 -1.806,0.809 -1.806,1.806l0,8.388c0,0.997 0.809,1.806 1.806,1.806l8.388,0c0.997,0 1.806,-0.809 1.806,-1.806l0,-8.388Z" style="fill:#3d3f3f;"/><path id="Key82" serif:id="Key" d="M262,109.806c0,-0.997 -0.809,-1.806 -1.806,-1.806l-8.388,0c-0.997,0 -1.806,0.809 -1.806,1.806l0,8.388c0,0.997 0.809,1.806 1.806,1.806l8.388,0c0.997,0 1.806,-0.809 1.806,-1.806l0,-8.388Z" style="fill:#3d3f3f;"/><path id="Key83" serif:id="Key" d="M262,127.806c0,-0.997 -0.809,-1.806 -1.806,-1.806l-8.388,0c-0.997,0 -1.806,0.809 -1.806,1.806l0,8.388c0,0.997 0.809,1.806 1.806,1.806l8.388,0c0.997,0 1.806,-0.809 1.806,-1.806l0,-8.388Z" style="fill:#3d3f3f;"/><path id="Key84" serif:id="Key" d="M226,163.806c0,-0.997 -0.809,-1.806 -1.806,-1.806l-8.388,0c-0.997,0 -1.806,0.809 -1.806,1.806l0,8.388c0,0.997 0.809,1.806 1.806,1.806l8.388,0c0.997,0 1.806,-0.809 1.806,-1.806l0,-8.388Z" style="fill:#3d3f3f;"/><path id="Key85" serif:id="Key" d="M208,145.806c0,-0.997 -0.809,-1.806 -1.806,-1.806l-8.388,0c-0.997,0 -1.806,0.809 -1.806,1.806l0,8.388c0,0.997 0.809,1.806 1.806,1.806l8.388,0c0.997,0 1.806,-0.809 1.806,-1.806l0,-8.388Z" style="fill:#3d3f3f;"/><path id="Key86" serif:id="Key" d="M226,145.806c0,-0.997 -0.809,-1.806 -1.806,-1.806l-8.388,0c-0.997,0 -1.806,0.809 -1.806,1.806l0,8.388c0,0.997 0.809,1.806 1.806,1.806l8.388,0c0.997,0 1.806,-0.809 1.806,-1.806l0,-8.388Z" style="fill:#3d3f3f;"/><path id="Key87" serif:id="Key" d="M208,163.806c0,-0.997 -0.809,-1.806 -1.806,-1.806l-8.388,0c-0.997,0 -1.806,0.809 -1.806,1.806l0,8.388c0,0.997 0.809,1.806 1.806,1.806l8.388,0c0.997,0 1.806,-0.809 1.806,-1.806l0,-8.388Z" style="fill:#3d3f3f;"/><path id="Key88" serif:id="Key" d="M262,163.806c0,-0.997 -0.809,-1.806 -1.806,-1.806l-8.388,0c-0.997,0 -1.806,0.809 -1.806,1.806l0,8.388c0,0.997 0.809,1.806 1.806,1.806l8.388,0c0.997,0 1.806,-0.809 1.806,-1.806l0,-8.388Z" style="fill:#3d3f3f;"/><path id="Key89" serif:id="Key" d="M244,145.806c0,-0.997 -0.809,-1.806 -1.806,-1.806l-8.388,0c-0.997,0 -1.806,0.809 -1.806,1.806l0,8.388c0,0.997 0.809,1.806 1.806,1.806l8.388,0c0.997,0 1.806,-0.809 1.806,-1.806l0,-8.388Z" style="fill:#3d3f3f;"/><path id="Key90" serif:id="Key" d="M262,145.806c0,-0.997 -0.809,-1.806 -1.806,-1.806l-8.388,0c-0.997,0 -1.806,0.809 -1.806,1.806l0,8.388c0,0.997 0.809,1.806 1.806,1.806l8.388,0c0.997,0 1.806,-0.809 1.806,-1.806l0,-8.388Z" style="fill:#3d3f3f;"/><path id="Key91" serif:id="Key" d="M244,163.806c0,-0.997 -0.809,-1.806 -1.806,-1.806l-8.388,0c-0.997,0 -1.806,0.809 -1.806,1.806l0,8.388c0,0.997 0.809,1.806 1.806,1.806l8.388,0c0.997,0 1.806,-0.809 1.806,-1.806l0,-8.388Z" style="fill:#3d3f3f;"/><path id="Key92" serif:id="Key" d="M226,127.806c0,-0.997 -0.809,-1.806 -1.806,-1.806l-8.388,0c-0.997,0 -1.806,0.809 -1.806,1.806l0,8.388c0,0.997 0.809,1.806 1.806,1.806l8.388,0c0.997,0 1.806,-0.809 1.806,-1.806l0,-8.388Z" style="fill:#3d3f3f;"/><path id="Key93" serif:id="Key" d="M208,109.806c0,-0.997 -0.809,-1.806 -1.806,-1.806l-8.388,0c-0.997,0 -1.806,0.809 -1.806,1.806l0,8.388c0,0.997 0.809,1.806 1.806,1.806l8.388,0c0.997,0 1.806,-0.809 1.806,-1.806l0,-8.388Z" style="fill:#3d3f3f;"/><path id="Key94" serif:id="Key" d="M226,109.806c0,-0.997 -0.809,-1.806 -1.806,-1.806l-8.388,0c-0.997,0 -1.806,0.809 -1.806,1.806l0,8.388c0,0.997 0.809,1.806 1.806,1.806l8.388,0c0.997,0 1.806,-0.809 1.806,-1.806l0,-8.388Z" style="fill:#3d3f3f;"/><path id="Key95" serif:id="Key" d="M208,127.806c0,-0.997 -0.809,-1.806 -1.806,-1.806l-8.388,0c-0.997,0 -1.806,0.809 -1.806,1.806l0,8.388c0,0.997 0.809,1.806 1.806,1.806l8.388,0c0.997,0 1.806,-0.809 1.806,-1.806l0,-8.388Z" style="fill:#3d3f3f;"/><path id="Key96" serif:id="Key" d="M190,127.806c-0,-0.997 -0.809,-1.806 -1.806,-1.806l-8.388,0c-0.997,0 -1.806,0.809 -1.806,1.806l0,8.388c0,0.997 0.809,1.806 1.806,1.806l8.388,0c0.997,0 1.806,-0.809 1.806,-1.806l-0,-8.388Z" style="fill:#3d3f3f;"/><path id="Key97" serif:id="Key" d="M172,109.806c-0,-0.997 -0.809,-1.806 -1.806,-1.806l-8.388,0c-0.997,0 -1.806,0.809 -1.806,1.806l-0,8.388c-0,0.997 0.809,1.806 1.806,1.806l8.388,0c0.997,0 1.806,-0.809 1.806,-1.806l-0,-8.388Z" style="fill:#3d3f3f;"/><path id="Key98" serif:id="Key" d="M190,109.806c-0,-0.997 -0.809,-1.806 -1.806,-1.806l-8.388,0c-0.997,0 -1.806,0.809 -1.806,1.806l0,8.388c0,0.997 0.809,1.806 1.806,1.806l8.388,0c0.997,0 1.806,-0.809 1.806,-1.806l-0,-8.388Z" style="fill:#3d3f3f;"/><path id="Key99" serif:id="Key" d="M172,127.806c-0,-0.997 -0.809,-1.806 -1.806,-1.806l-8.388,0c-0.997,0 -1.806,0.809 -1.806,1.806l0,8.388c0,0.997 0.809,1.806 1.806,1.806l8.388,0c0.997,0 1.806,-0.809 1.806,-1.806l-0,-8.388Z" style="fill:#3d3f3f;"/><path id="Key100" serif:id="Key" d="M154,163.806c-0,-0.997 -0.809,-1.806 -1.806,-1.806l-8.388,0c-0.997,0 -1.806,0.809 -1.806,1.806l0,8.388c0,0.997 0.809,1.806 1.806,1.806l8.388,0c0.997,0 1.806,-0.809 1.806,-1.806l-0,-8.388Z" style="fill:#3d3f3f;"/><path id="Key101" serif:id="Key" d="M136,145.806c-0,-0.997 -0.809,-1.806 -1.806,-1.806l-8.388,0c-0.997,0 -1.806,0.809 -1.806,1.806l-0,8.388c-0,0.997 0.809,1.806 1.806,1.806l8.388,0c0.997,0 1.806,-0.809 1.806,-1.806l-0,-8.388Z" style="fill:#3d3f3f;"/><path id="Key102" serif:id="Key" d="M154,145.806c-0,-0.997 -0.809,-1.806 -1.806,-1.806l-8.388,0c-0.997,0 -1.806,0.809 -1.806,1.806l0,8.388c0,0.997 0.809,1.806 1.806,1.806l8.388,0c0.997,0 1.806,-0.809 1.806,-1.806l-0,-8.388Z" style="fill:#3d3f3f;"/><path id="Key103" serif:id="Key" d="M136,163.806c-0,-0.997 -0.809,-1.806 -1.806,-1.806l-8.388,0c-0.997,0 -1.806,0.809 -1.806,1.806l-0,8.388c-0,0.997 0.809,1.806 1.806,1.806l8.388,0c0.997,0 1.806,-0.809 1.806,-1.806l-0,-8.388Z" style="fill:#3d3f3f;"/><path id="Key104" serif:id="Key" d="M190,163.806c0,-0.997 -0.809,-1.806 -1.806,-1.806l-8.388,0c-0.997,0 -1.806,0.809 -1.806,1.806l0,8.388c0,0.997 0.809,1.806 1.806,1.806l8.388,0c0.997,0 1.806,-0.809 1.806,-1.806l0,-8.388Z" style="fill:#3d3f3f;"/><path id="Key105" serif:id="Key" d="M172,145.806c0,-0.997 -0.809,-1.806 -1.806,-1.806l-8.388,0c-0.997,0 -1.806,0.809 -1.806,1.806l0,8.388c0,0.997 0.809,1.806 1.806,1.806l8.388,0c0.997,0 1.806,-0.809 1.806,-1.806l0,-8.388Z" style="fill:#3d3f3f;"/><path id="Key106" serif:id="Key" d="M190,145.806c0,-0.997 -0.809,-1.806 -1.806,-1.806l-8.388,0c-0.997,0 -1.806,0.809 -1.806,1.806l0,8.388c0,0.997 0.809,1.806 1.806,1.806l8.388,0c0.997,0 1.806,-0.809 1.806,-1.806l0,-8.388Z" style="fill:#3d3f3f;"/><path id="Key107" serif:id="Key" d="M172,163.806c0,-0.997 -0.809,-1.806 -1.806,-1.806l-8.388,0c-0.997,0 -1.806,0.809 -1.806,1.806l0,8.388c0,0.997 0.809,1.806 1.806,1.806l8.388,0c0.997,0 1.806,-0.809 1.806,-1.806l0,-8.388Z" style="fill:#3d3f3f;"/><path id="Key108" serif:id="Key" d="M154,127.806c0,-0.997 -0.809,-1.806 -1.806,-1.806l-8.388,0c-0.997,0 -1.806,0.809 -1.806,1.806l0,8.388c0,0.997 0.809,1.806 1.806,1.806l8.388,0c0.997,0 1.806,-0.809 1.806,-1.806l0,-8.388Z" style="fill:#3d3f3f;"/><path id="Key109" serif:id="Key" d="M136,109.806c0,-0.997 -0.809,-1.806 -1.806,-1.806l-8.388,0c-0.997,0 -1.806,0.809 -1.806,1.806l0,8.388c0,0.997 0.809,1.806 1.806,1.806l8.388,0c0.997,0 1.806,-0.809 1.806,-1.806l0,-8.388Z" style="fill:#3d3f3f;"/><path id="Key110" serif:id="Key" d="M154,109.806c0,-0.997 -0.809,-1.806 -1.806,-1.806l-8.388,0c-0.997,0 -1.806,0.809 -1.806,1.806l0,8.388c0,0.997 0.809,1.806 1.806,1.806l8.388,0c0.997,0 1.806,-0.809 1.806,-1.806l0,-8.388Z" style="fill:#3d3f3f;"/><path id="Key111" serif:id="Key" d="M136,127.806c0,-0.997 -0.809,-1.806 -1.806,-1.806l-8.388,0c-0.997,0 -1.806,0.809 -1.806,1.806l0,8.388c0,0.997 0.809,1.806 1.806,1.806l8.388,0c0.997,0 1.806,-0.809 1.806,-1.806l0,-8.388Z" style="fill:#3d3f3f;"/><path id="Key112" serif:id="Key" d="M100,127.806c0,-0.997 -0.809,-1.806 -1.806,-1.806l-8.388,0c-0.997,0 -1.806,0.809 -1.806,1.806l0,8.388c0,0.997 0.809,1.806 1.806,1.806l8.388,0c0.997,0 1.806,-0.809 1.806,-1.806l0,-8.388Z" style="fill:#3d3f3f;"/><path id="Key113" serif:id="Key" d="M100,109.806c0,-0.997 -0.809,-1.806 -1.806,-1.806l-8.388,0c-0.997,0 -1.806,0.809 -1.806,1.806l0,8.388c0,0.997 0.809,1.806 1.806,1.806l8.388,0c0.997,0 1.806,-0.809 1.806,-1.806l0,-8.388Z" style="fill:#3d3f3f;"/><path id="Key114" serif:id="Key" d="M118,109.806c0,-0.997 -0.809,-1.806 -1.806,-1.806l-8.388,0c-0.997,0 -1.806,0.809 -1.806,1.806l0,8.388c0,0.997 0.809,1.806 1.806,1.806l8.388,0c0.997,0 1.806,-0.809 1.806,-1.806l0,-8.388Z" style="fill:#3d3f3f;"/><path id="Key115" serif:id="Key" d="M118,127.806c0,-0.997 -0.809,-1.806 -1.806,-1.806l-8.388,0c-0.997,0 -1.806,0.809 -1.806,1.806l0,8.388c0,0.997 0.809,1.806 1.806,1.806l8.388,0c0.997,0 1.806,-0.809 1.806,-1.806l0,-8.388Z" style="fill:#3d3f3f;"/><path id="Key116" serif:id="Key" d="M82,163.806c0,-0.997 -0.809,-1.806 -1.806,-1.806l-8.388,0c-0.997,0 -1.806,0.809 -1.806,1.806l0,8.388c0,0.997 0.809,1.806 1.806,1.806l8.388,0c0.997,0 1.806,-0.809 1.806,-1.806l0,-8.388Z" style="fill:#3d3f3f;"/><path id="Key117" serif:id="Key" d="M64,145.806c0,-0.997 -0.809,-1.806 -1.806,-1.806l-8.388,0c-0.997,0 -1.806,0.809 -1.806,1.806l0,8.388c0,0.997 0.809,1.806 1.806,1.806l8.388,0c0.997,0 1.806,-0.809 1.806,-1.806l0,-8.388Z" style="fill:#3d3f3f;"/><path id="Key118" serif:id="Key" d="M82,145.806c0,-0.997 -0.809,-1.806 -1.806,-1.806l-8.388,0c-0.997,0 -1.806,0.809 -1.806,1.806l0,8.388c0,0.997 0.809,1.806 1.806,1.806l8.388,0c0.997,0 1.806,-0.809 1.806,-1.806l0,-8.388Z" style="fill:#3d3f3f;"/><path id="Key119" serif:id="Key" d="M64,163.806c0,-0.997 -0.809,-1.806 -1.806,-1.806l-8.388,0c-0.997,0 -1.806,0.809 -1.806,1.806l0,8.388c0,0.997 0.809,1.806 1.806,1.806l8.388,0c0.997,0 1.806,-0.809 1.806,-1.806l0,-8.388Z" style="fill:#3d3f3f;"/><path id="Key120" serif:id="Key" d="M118,163.806c0,-0.997 -0.809,-1.806 -1.806,-1.806l-8.388,0c-0.997,0 -1.806,0.809 -1.806,1.806l0,8.388c0,0.997 0.809,1.806 1.806,1.806l8.388,0c0.997,0 1.806,-0.809 1.806,-1.806l0,-8.388Z" style="fill:#3d3f3f;"/><path id="Key121" serif:id="Key" d="M100,145.806c0,-0.997 -0.809,-1.806 -1.806,-1.806l-8.388,0c-0.997,0 -1.806,0.809 -1.806,1.806l0,8.388c0,0.997 0.809,1.806 1.806,1.806l8.388,0c0.997,0 1.806,-0.809 1.806,-1.806l0,-8.388Z" style="fill:#3d3f3f;"/><path id="Key122" serif:id="Key" d="M118,145.806c0,-0.997 -0.809,-1.806 -1.806,-1.806l-8.388,0c-0.997,0 -1.806,0.809 -1.806,1.806l0,8.388c0,0.997 0.809,1.806 1.806,1.806l8.388,0c0.997,0 1.806,-0.809 1.806,-1.806l0,-8.388Z" style="fill:#3d3f3f;"/><path id="Key123" serif:id="Key" d="M100,163.806c0,-0.997 -0.809,-1.806 -1.806,-1.806l-8.388,0c-0.997,0 -1.806,0.809 -1.806,1.806l0,8.388c0,0.997 0.809,1.806 1.806,1.806l8.388,0c0.997,0 1.806,-0.809 1.806,-1.806l0,-8.388Z" style="fill:#3d3f3f;"/><path id="Key124" serif:id="Key" d="M82,127.806c0,-0.997 -0.809,-1.806 -1.806,-1.806l-8.388,0c-0.997,0 -1.806,0.809 -1.806,1.806l0,8.388c0,0.997 0.809,1.806 1.806,1.806l8.388,0c0.997,0 1.806,-0.809 1.806,-1.806l0,-8.388Z" style="fill:#3d3f3f;"/><path id="Key125" serif:id="Key" d="M64,109.806c0,-0.997 -0.809,-1.806 -1.806,-1.806l-8.388,0c-0.997,0 -1.806,0.809 -1.806,1.806l0,8.388c0,0.997 0.809,1.806 1.806,1.806l8.388,0c0.997,0 1.806,-0.809 1.806,-1.806l0,-8.388Z" style="fill:#3d3f3f;"/><path id="Key126" serif:id="Key" d="M82,109.806c0,-0.997 -0.809,-1.806 -1.806,-1.806l-8.388,0c-0.997,0 -1.806,0.809 -1.806,1.806l0,8.388c0,0.997 0.809,1.806 1.806,1.806l8.388,0c0.997,0 1.806,-0.809 1.806,-1.806l0,-8.388Z" style="fill:#3d3f3f;"/><path id="Key127" serif:id="Key" d="M64,127.806c0,-0.997 -0.809,-1.806 -1.806,-1.806l-8.388,0c-0.997,0 -1.806,0.809 -1.806,1.806l0,8.388c0,0.997 0.809,1.806 1.806,1.806l8.388,0c0.997,0 1.806,-0.809 1.806,-1.806l0,-8.388Z" style="fill:#3d3f3f;"/><path id="Arp-key" serif:id="Arp key" d="M334,163.806c0,-0.997 -0.809,-1.806 -1.806,-1.806l-8.388,0c-0.997,0 -1.806,0.809 -1.806,1.806l-0,8.388c-0,0.997 0.809,1.806 1.806,1.806l8.388,-0c0.997,-0 1.806,-0.809 1.806,-1.806l0,-8.388Z" style="fill:#858484;"/><path id="Chord-key" serif:id="Chord key" d="M334,145.806c0,-0.997 -0.809,-1.806 -1.806,-1.806l-8.388,0c-0.997,0 -1.806,0.809 -1.806,1.806l-0,8.388c-0,0.997 0.809,1.806 1.806,1.806l8.388,-0c0.997,-0 1.806,-0.809 1.806,-1.806l0,-8.388Z" style="fill:#858484;"/><path id="Arranger-key" serif:id="Arranger key" d="M334,127.806c0,-0.997 -0.809,-1.806 -1.806,-1.806l-8.388,0c-0.997,0 -1.806,0.809 -1.806,1.806l-0,8.388c-0,0.997 0.809,1.806 1.806,1.806l8.388,0c0.997,0 1.806,-0.809 1.806,-1.806l0,-8.388Z" style="fill:#858484;"/></g><g id="Arranger-view" serif:id="Arranger view"><g id="Arranger-seq" serif:id="Arranger seq"><path id="_15" serif:id="15" d="M334,127.806c0,-0.997 -0.809,-1.806 -1.806,-1.806l-8.388,-0c-0.997,-0 -1.806,0.809 -1.806,1.806l-0,8.388c-0,0.997 0.809,1.806 1.806,1.806l8.388,-0c0.997,-0 1.806,-0.809 1.806,-1.806l0,-8.388Z" style="fill:#ececec;"/><path id="_151" serif:id="15" d="M64,37.806c0,-0.997 -0.809,-1.806 -1.806,-1.806l-8.388,0c-0.997,0 -1.806,0.809 -1.806,1.806l0,8.388c0,0.997 0.809,1.806 1.806,1.806l8.388,0c0.997,0 1.806,-0.809 1.806,-1.806l0,-8.388Z" style="fill:#ececec;"/><path id="_152" serif:id="15" d="M172,55.806c0,-0.997 -0.809,-1.806 -1.806,-1.806l-8.388,0c-0.997,0 -1.806,0.809 -1.806,1.806l0,8.388c0,0.997 0.809,1.806 1.806,1.806l8.388,0c0.997,0 1.806,-0.809 1.806,-1.806l0,-8.388Z" style="fill:#ececec;"/><path id="_153" serif:id="15" d="M82,37.806c0,-0.997 -0.809,-1.806 -1.806,-1.806l-8.388,0c-0.997,0 -1.806,0.809 -1.806,1.806l0,8.388c0,0.997 0.809,1.806 1.806,1.806l8.388,0c0.997,0 1.806,-0.809 1.806,-1.806l0,-8.388Z" style="fill:#ececec;"/><path id="_154" serif:id="15" d="M100,37.806c0,-0.997 -0.809,-1.806 -1.806,-1.806l-8.388,0c-0.997,0 -1.806,0.809 -1.806,1.806l0,8.388c0,0.997 0.809,1.806 1.806,1.806l8.388,0c0.997,0 1.806,-0.809 1.806,-1.806l0,-8.388Z" style="fill:#ececec;"/><path id="_155" serif:id="15" d="M118,37.806c0,-0.997 -0.809,-1.806 -1.806,-1.806l-8.388,0c-0.997,0 -1.806,0.809 -1.806,1.806l0,8.388c0,0.997 0.809,1.806 1.806,1.806l8.388,0c0.997,0 1.806,-0.809 1.806,-1.806l0,-8.388Z" style="fill:#ececec;"/><path id="_156" serif:id="15" d="M190,55.806c0,-0.997 -0.809,-1.806 -1.806,-1.806l-8.388,0c-0.997,0 -1.806,0.809 -1.806,1.806l0,8.388c0,0.997 0.809,1.806 1.806,1.806l8.388,0c0.997,0 1.806,-0.809 1.806,-1.806l0,-8.388Z" style="fill:#ececec;"/><path id="_157" serif:id="15" d="M136,55.806c0,-0.997 -0.809,-1.806 -1.806,-1.806l-8.388,0c-0.997,0 -1.806,0.809 -1.806,1.806l0,8.388c0,0.997 0.809,1.806 1.806,1.806l8.388,0c0.997,0 1.806,-0.809 1.806,-1.806l0,-8.388Z" style="fill:#ececec;"/><path id="_158" serif:id="15" d="M154,55.806c0,-0.997 -0.809,-1.806 -1.806,-1.806l-8.388,0c-0.997,0 -1.806,0.809 -1.806,1.806l0,8.388c0,0.997 0.809,1.806 1.806,1.806l8.388,0c0.997,0 1.806,-0.809 1.806,-1.806l0,-8.388Z" style="fill:#ececec;"/><path id="_159" serif:id="15" d="M208,73.806c0,-0.997 -0.809,-1.806 -1.806,-1.806l-8.388,0c-0.997,0 -1.806,0.809 -1.806,1.806l0,8.388c0,0.997 0.809,1.806 1.806,1.806l8.388,0c0.997,0 1.806,-0.809 1.806,-1.806l0,-8.388Z" style="fill:#ececec;"/><path id="_1510" serif:id="15" d="M226,73.806c0,-0.997 -0.809,-1.806 -1.806,-1.806l-8.388,0c-0.997,0 -1.806,0.809 -1.806,1.806l0,8.388c0,0.997 0.809,1.806 1.806,1.806l8.388,0c0.997,0 1.806,-0.809 1.806,-1.806l0,-8.388Z" style="fill:#ececec;"/><path id="_1511" serif:id="15" d="M244,91.806c0,-0.997 -0.809,-1.806 -1.806,-1.806l-8.388,0c-0.997,0 -1.806,0.809 -1.806,1.806l0,8.388c0,0.997 0.809,1.806 1.806,1.806l8.388,0c0.997,0 1.806,-0.809 1.806,-1.806l0,-8.388Z" style="fill:#ececec;"/><path id="_1512" serif:id="15" d="M262,91.806c0,-0.997 -0.809,-1.806 -1.806,-1.806l-8.388,0c-0.997,0 -1.806,0.809 -1.806,1.806l0,8.388c0,0.997 0.809,1.806 1.806,1.806l8.388,0c0.997,0 1.806,-0.809 1.806,-1.806l0,-8.388Z" style="fill:#ececec;"/><path id="_1513" serif:id="15" d="M280,91.806c0,-0.997 -0.809,-1.806 -1.806,-1.806l-8.388,0c-0.997,0 -1.806,0.809 -1.806,1.806l-0,8.388c-0,0.997 0.809,1.806 1.806,1.806l8.388,0c0.997,0 1.806,-0.809 1.806,-1.806l0,-8.388Z" style="fill:#ececec;"/><path id="_1514" serif:id="15" d="M298,91.806c0,-0.997 -0.809,-1.806 -1.806,-1.806l-8.388,0c-0.997,0 -1.806,0.809 -1.806,1.806l-0,8.388c-0,0.997 0.809,1.806 1.806,1.806l8.388,0c0.997,0 1.806,-0.809 1.806,-1.806l0,-8.388Z" style="fill:#ececec;"/><path id="_1515" serif:id="15" d="M316,91.806c0,-0.997 -0.809,-1.806 -1.806,-1.806l-8.388,-0c-0.997,-0 -1.806,0.809 -1.806,1.806l-0,8.388c-0,0.997 0.809,1.806 1.806,1.806l8.388,-0c0.997,-0 1.806,-0.809 1.806,-1.806l0,-8.388Z" style="fill:#ececec;"/><path id="_1516" serif:id="15" d="M244,109.806c0,-0.997 -0.809,-1.806 -1.806,-1.806l-8.388,0c-0.997,0 -1.806,0.809 -1.806,1.806l0,8.388c0,0.997 0.809,1.806 1.806,1.806l8.388,0c0.997,0 1.806,-0.809 1.806,-1.806l0,-8.388Z" style="fill:#ececec;"/><path id="_1517" serif:id="15" d="M262,109.806c0,-0.997 -0.809,-1.806 -1.806,-1.806l-8.388,0c-0.997,0 -1.806,0.809 -1.806,1.806l0,8.388c0,0.997 0.809,1.806 1.806,1.806l8.388,0c0.997,0 1.806,-0.809 1.806,-1.806l0,-8.388Z" style="fill:#ececec;"/><path id="_1518" serif:id="15" d="M334,91.806c0,-0.997 -0.809,-1.806 -1.806,-1.806l-8.388,-0c-0.997,-0 -1.806,0.809 -1.806,1.806l-0,8.388c-0,0.997 0.809,1.806 1.806,1.806l8.388,-0c0.997,-0 1.806,-0.809 1.806,-1.806l0,-8.388Z" style="fill:#ececec;"/></g><text x="153.813px" y="25.92px" style="font-family:'RobotoMono-Regular', 'Roboto Mono';font-size:10px;fill:#fff;">segments 1-64</text><g transform="matrix(1,0,0,1,30.2396,-178.176)"><text x="-18.635px" y="193.473px" style="font-family:'RobotoMono-Regular', 'Roboto Mono';font-size:10px;fill:#fff;">ARRANGER VIEW</text><rect x="-18.635" y="194.205" width="78.013" height="0.488" style="fill:#fff;"/></g><text x="64.103px" y="190.506px" style="font-family:'RobotoMono-Regular', 'Roboto Mono';font-size:10px;fill:#fff;">mode</text><text x="6.658px" y="171px" style="font-family:'RobotoMono-Regular', 'Roboto Mono';font-size:10px;fill:#fff;">enable</text><text x="165.82px" y="190.506px" style="font-family:'RobotoMono-Regular', 'Roboto Mono';font-size:10px;fill:#fff;">pages 1-4</text><g transform="matrix(1,0,0,1,379.955,-125.91)"><text x="-36.638px" y="193.473px" style="font-family:'RobotoMono-Regular', 'Roboto Mono';font-size:10px;fill:#fff;">patterns</text><text x="-33.638px" y="203.473px" style="font-family:'RobotoMono-Regular', 'Roboto Mono';font-size:10px;fill:#fff;">a,b,c,d</text></g><path d="M328,32l-2,1l-0,-2l2,1Z" style="fill:#fff;"/><path d="M50,162l-2,0l-0,12l2,0" style="fill:none;stroke:#fff;stroke-width:0.3px;"/><path d="M70,176l0,2l12,0l0,-2" style="fill:none;stroke:#fff;stroke-width:0.3px;"/><path d="M160,176l0,2l66,0l0,-2" style="fill:none;stroke:#fff;stroke-width:0.3px;"/><path d="M336,126l2,0l0,48l-2,0" style="fill:none;stroke:#fff;stroke-width:0.3px;"/><path d="M336,36l2,0l0,66l-2,0" style="fill:none;stroke:#fff;stroke-width:0.3px;"/><path d="M58,32l268,0" style="fill:none;stroke:#fff;stroke-width:0.3px;"/><g id="views"><text x="343.317px" y="152.902px" style="font-family:'RobotoMono-Regular', 'Roboto Mono';font-size:10px;fill:#858484;">chord</text><text x="343.254px" y="170.881px" style="font-family:'RobotoMono-Regular', 'Roboto Mono';font-size:10px;fill:#858484;">arp</text><text x="343.254px" y="134.881px" style="font-family:'RobotoMono-Regular', 'Roboto Mono';font-size:10px;fill:#fff;">arranger</text></g><text x="6.731px" y="116.902px" style="font-family:'RobotoMono-Regular', 'Roboto Mono';font-size:10px;fill:#fff;">events</text><path id="_7" serif:id="7" d="M154,109.806c0,-0.997 -0.809,-1.806 -1.806,-1.806l-8.388,0c-0.997,0 -1.806,0.809 -1.806,1.806l0,8.388c0,0.997 0.809,1.806 1.806,1.806l8.388,0c0.997,0 1.806,-0.809 1.806,-1.806l0,-8.388Z" style="fill:#858484;"/><path id="_71" serif:id="7" d="M118,109.806c0,-0.997 -0.809,-1.806 -1.806,-1.806l-8.388,0c-0.997,0 -1.806,0.809 -1.806,1.806l0,8.388c0,0.997 0.809,1.806 1.806,1.806l8.388,0c0.997,0 1.806,-0.809 1.806,-1.806l0,-8.388Z" style="fill:#858484;"/><path id="_72" serif:id="7" d="M172,109.806c0,-0.997 -0.809,-1.806 -1.806,-1.806l-8.388,0c-0.997,0 -1.806,0.809 -1.806,1.806l0,8.388c0,0.997 0.809,1.806 1.806,1.806l8.388,0c0.997,0 1.806,-0.809 1.806,-1.806l0,-8.388Z" style="fill:#858484;"/><path id="_73" serif:id="7" d="M190,109.806c0,-0.997 -0.809,-1.806 -1.806,-1.806l-8.388,0c-0.997,0 -1.806,0.809 -1.806,1.806l0,8.388c0,0.997 0.809,1.806 1.806,1.806l8.388,0c0.997,0 1.806,-0.809 1.806,-1.806l0,-8.388Z" style="fill:#858484;"/><path id="_74" serif:id="7" d="M280,109.806c0,-0.997 -0.809,-1.806 -1.806,-1.806l-8.388,0c-0.997,0 -1.806,0.809 -1.806,1.806l0,8.388c0,0.997 0.809,1.806 1.806,1.806l8.388,0c0.997,0 1.806,-0.809 1.806,-1.806l0,-8.388Z" style="fill:#858484;"/><path id="_75" serif:id="7" d="M298,109.806c0,-0.997 -0.809,-1.806 -1.806,-1.806l-8.388,0c-0.997,0 -1.806,0.809 -1.806,1.806l-0,8.388c-0,0.997 0.809,1.806 1.806,1.806l8.388,0c0.997,0 1.806,-0.809 1.806,-1.806l0,-8.388Z" style="fill:#858484;"/><path id="_76" serif:id="7" d="M316,109.806c0,-0.997 -0.809,-1.806 -1.806,-1.806l-8.388,0c-0.997,0 -1.806,0.809 -1.806,1.806l-0,8.388c-0,0.997 0.809,1.806 1.806,1.806l8.388,0c0.997,0 1.806,-0.809 1.806,-1.806l0,-8.388Z" style="fill:#858484;"/><path id="_1519" serif:id="15" d="M64,109.806c-0,-0.997 -0.809,-1.806 -1.806,-1.806l-8.388,0c-0.997,0 -1.806,0.809 -1.806,1.806l-0,8.388c-0,0.997 0.809,1.806 1.806,1.806l8.388,0c0.997,0 1.806,-0.809 1.806,-1.806l-0,-8.388Z" style="fill:#ececec;"/><path id="_1520" serif:id="15" d="M64,109.806c-0,-0.997 -0.809,-1.806 -1.806,-1.806l-8.388,0c-0.997,0 -1.806,0.809 -1.806,1.806l-0,8.388c-0,0.997 0.809,1.806 1.806,1.806l8.388,0c0.997,0 1.806,-0.809 1.806,-1.806l-0,-8.388Z" style="fill:#ececec;"/><path id="_1521" serif:id="15" d="M136,109.806c0,-0.997 -0.809,-1.806 -1.806,-1.806l-8.388,0c-0.997,0 -1.806,0.809 -1.806,1.806l0,8.388c0,0.997 0.809,1.806 1.806,1.806l8.388,0c0.997,0 1.806,-0.809 1.806,-1.806l0,-8.388Z" style="fill:#ececec;"/><path id="_1522" serif:id="15" d="M208,109.806c0,-0.997 -0.809,-1.806 -1.806,-1.806l-8.388,0c-0.997,0 -1.806,0.809 -1.806,1.806l0,8.388c0,0.997 0.809,1.806 1.806,1.806l8.388,0c0.997,0 1.806,-0.809 1.806,-1.806l0,-8.388Z" style="fill:#ececec;"/><path id="_1523" serif:id="15" d="M226,109.806c0,-0.997 -0.809,-1.806 -1.806,-1.806l-8.388,0c-0.997,0 -1.806,0.809 -1.806,1.806l0,8.388c0,0.997 0.809,1.806 1.806,1.806l8.388,0c0.997,0 1.806,-0.809 1.806,-1.806l0,-8.388Z" style="fill:#ececec;"/><path id="_1524" serif:id="15" d="M172,163.806c-0,-0.997 -0.809,-1.806 -1.806,-1.806l-8.388,0c-0.997,0 -1.806,0.809 -1.806,1.806l-0,8.388c-0,0.997 0.809,1.806 1.806,1.806l8.388,-0c0.997,-0 1.806,-0.809 1.806,-1.806l-0,-8.388Z" style="fill:#ececec;"/><path id="_1525" serif:id="15" d="M64,163.806c0,-0.997 -0.809,-1.806 -1.806,-1.806l-8.388,0c-0.997,0 -1.806,0.809 -1.806,1.806l0,8.388c0,0.997 0.809,1.806 1.806,1.806l8.388,-0c0.997,-0 1.806,-0.809 1.806,-1.806l0,-8.388Z" style="fill:#ececec;"/><path id="_1526" serif:id="15" d="M82,163.806c0,-0.997 -0.809,-1.806 -1.806,-1.806l-8.388,0c-0.997,0 -1.806,0.809 -1.806,1.806l0,8.388c0,0.997 0.809,1.806 1.806,1.806l8.388,-0c0.997,-0 1.806,-0.809 1.806,-1.806l0,-8.388Z" style="fill:#ececec;"/><path id="_77" serif:id="7" d="M190,163.806c-0,-0.997 -0.809,-1.806 -1.806,-1.806l-8.388,0c-0.997,0 -1.806,0.809 -1.806,1.806l0,8.388c0,0.997 0.809,1.806 1.806,1.806l8.388,0c0.997,0 1.806,-0.809 1.806,-1.806l-0,-8.388Z" style="fill:#858484;"/><path id="_78" serif:id="7" d="M208,163.806c-0,-0.997 -0.809,-1.806 -1.806,-1.806l-8.388,0c-0.997,0 -1.806,0.809 -1.806,1.806l0,8.388c0,0.997 0.809,1.806 1.806,1.806l8.388,0c0.997,0 1.806,-0.809 1.806,-1.806l-0,-8.388Z" style="fill:#858484;"/><path id="_79" serif:id="7" d="M226,163.806c0,-0.997 -0.809,-1.806 -1.806,-1.806l-8.388,0c-0.997,0 -1.806,0.809 -1.806,1.806l0,8.388c0,0.997 0.809,1.806 1.806,1.806l8.388,0c0.997,0 1.806,-0.809 1.806,-1.806l0,-8.388Z" style="fill:#858484;"/><path id="_710" serif:id="7" d="M334,109.806c0,-0.997 -0.809,-1.806 -1.806,-1.806l-8.388,0c-0.997,0 -1.806,0.809 -1.806,1.806l-0,8.388c-0,0.997 0.809,1.806 1.806,1.806l8.388,0c0.997,0 1.806,-0.809 1.806,-1.806l0,-8.388Z" style="fill:#858484;"/><path id="_711" serif:id="7" d="M82,109.806c0,-0.997 -0.809,-1.806 -1.806,-1.806l-8.388,0c-0.997,0 -1.806,0.809 -1.806,1.806l0,8.388c0,0.997 0.809,1.806 1.806,1.806l8.388,0c0.997,0 1.806,-0.809 1.806,-1.806l0,-8.388Z" style="fill:#858484;"/><path id="_712" serif:id="7" d="M100,109.806c0,-0.997 -0.809,-1.806 -1.806,-1.806l-8.388,0c-0.997,0 -1.806,0.809 -1.806,1.806l0,8.388c0,0.997 0.809,1.806 1.806,1.806l8.388,0c0.997,0 1.806,-0.809 1.806,-1.806l0,-8.388Z" style="fill:#858484;"/><rect x="48" y="105" width="290" height="18" style="fill:none;stroke:#fff;stroke-width:0.3px;"/></g></svg>