<?xml version="1.0" encoding="UTF-8" standalone="no"?><!DOCTYPE svg PUBLIC "-//W3C//DTD SVG 1.1//EN" "http://www.w3.org/Graphics/SVG/1.1/DTD/svg11.dtd"><svg width="100%" height="100%" viewBox="0 0 396 204" version="1.1" xmlns="http://www.w3.org/2000/svg" xmlns:xlink="http://www.w3.org/1999/xlink" xml:space="preserve" xmlns:serif="http://www.serif.com/" style="fill-rule:evenodd;clip-rule:evenodd;stroke-linecap:round;stroke-linejoin:round;stroke-miterlimit:1.5;"><rect id="background--Rectangle-" serif:id="background (Rectangle)" x="0" y="0" width="396" height="204" style="fill:#5a5c5c;"/><path id="Enclosure" d="M346,27.063c0,-1.69 -1.373,-3.063 -3.063,-3.063l-299.874,0c-1.69,0 -3.063,1.373 -3.063,3.063l0,155.874c0,1.69 1.373,3.063 3.063,3.063l299.874,0c1.69,0 3.063,-1.373 3.063,-3.063l0,-155.874Z" style="fill:#242424;"/><g id="Background-Keys" serif:id="Background Keys"><path id="Key" d="M334,55.806c0,-0.997 -0.809,-1.806 -1.806,-1.806l-8.388,0c-0.997,0 -1.806,0.809 -1.806,1.806l-0,8.388c-0,0.997 0.809,1.806 1.806,1.806l8.388,0c0.997,0 1.806,-0.809 1.806,-1.806l0,-8.388Z" style="fill:#3d3f3f;"/><path id="Key1" serif:id="Key" d="M316,37.806c0,-0.997 -0.809,-1.806 -1.806,-1.806l-8.388,0c-0.997,0 -1.806,0.809 -1.806,1.806l-0,8.388c-0,0.997 0.809,1.806 1.806,1.806l8.388,0c0.997,0 1.806,-0.809 1.806,-1.806l0,-8.388Z" style="fill:#3d3f3f;"/><path id="Key2" serif:id="Key" d="M334,37.806c0,-0.997 -0.809,-1.806 -1.806,-1.806l-8.388,0c-0.997,0 -1.806,0.809 -1.806,1.806l-0,8.388c-0,0.997 0.809,1.806 1.806,1.806l8.388,0c0.997,0 1.806,-0.809 1.806,-1.806l0,-8.388Z" style="fill:#3d3f3f;"/><path id="Key3" serif:id="Key" d="M316,55.806c0,-0.997 -0.809,-1.806 -1.806,-1.806l-8.388,0c-0.997,0 -1.806,0.809 -1.806,1.806l-0,8.388c-0,0.997 0.809,1.806 1.806,1.806l8.388,0c0.997,0 1.806,-0.809 1.806,-1.806l0,-8.388Z" style="fill:#3d3f3f;"/><path id="Key4" serif:id="Key" d="M298,91.806c0,-0.997 -0.809,-1.806 -1.806,-1.806l-8.388,0c-0.997,0 -1.806,0.809 -1.806,1.806l-0,8.388c-0,0.997 0.809,1.806 1.806,1.806l8.388,0c0.997,0 1.806,-0.809 1.806,-1.806l0,-8.388Z" style="fill:#3d3f3f;"/><path id="Key5" serif:id="Key" d="M280,73.806c-0,-0.997 -0.809,-1.806 -1.806,-1.806l-8.388,0c-0.997,0 -1.806,0.809 -1.806,1.806l-0,8.388c-0,0.997 0.809,1.806 1.806,1.806l8.388,0c0.997,0 1.806,-0.809 1.806,-1.806l-0,-8.388Z" style="fill:#3d3f3f;"/><path id="Key6" serif:id="Key" d="M298,73.806c0,-0.997 -0.809,-1.806 -1.806,-1.806l-8.388,0c-0.997,0 -1.806,0.809 -1.806,1.806l-0,8.388c-0,0.997 0.809,1.806 1.806,1.806l8.388,0c0.997,0 1.806,-0.809 1.806,-1.806l0,-8.388Z" style="fill:#3d3f3f;"/><path id="Key7" serif:id="Key" d="M280,91.806c0,-0.997 -0.809,-1.806 -1.806,-1.806l-8.388,0c-0.997,0 -1.806,0.809 -1.806,1.806l-0,8.388c-0,0.997 0.809,1.806 1.806,1.806l8.388,0c0.997,0 1.806,-0.809 1.806,-1.806l0,-8.388Z" style="fill:#3d3f3f;"/><path id="Key8" serif:id="Key" d="M334,91.806c0,-0.997 -0.809,-1.806 -1.806,-1.806l-8.388,0c-0.997,0 -1.806,0.809 -1.806,1.806l-0,8.388c-0,0.997 0.809,1.806 1.806,1.806l8.388,0c0.997,0 1.806,-0.809 1.806,-1.806l0,-8.388Z" style="fill:#3d3f3f;"/><path id="Key9" serif:id="Key" d="M316,73.806c0,-0.997 -0.809,-1.806 -1.806,-1.806l-8.388,0c-0.997,0 -1.806,0.809 -1.806,1.806l-0,8.388c-0,0.997 0.809,1.806 1.806,1.806l8.388,0c0.997,0 1.806,-0.809 1.806,-1.806l0,-8.388Z" style="fill:#3d3f3f;"/><path id="Key10" serif:id="Key" d="M334,73.806c0,-0.997 -0.809,-1.806 -1.806,-1.806l-8.388,0c-0.997,0 -1.806,0.809 -1.806,1.806l-0,8.388c-0,0.997 0.809,1.806 1.806,1.806l8.388,0c0.997,0 1.806,-0.809 1.806,-1.806l0,-8.388Z" style="fill:#3d3f3f;"/><path id="Key11" serif:id="Key" d="M316,91.806c0,-0.997 -0.809,-1.806 -1.806,-1.806l-8.388,0c-0.997,0 -1.806,0.809 -1.806,1.806l-0,8.388c-0,0.997 0.809,1.806 1.806,1.806l8.388,0c0.997,0 1.806,-0.809 1.806,-1.806l0,-8.388Z" style="fill:#3d3f3f;"/><path id="Key12" serif:id="Key" d="M298,55.806c0,-0.997 -0.809,-1.806 -1.806,-1.806l-8.388,0c-0.997,0 -1.806,0.809 -1.806,1.806l-0,8.388c-0,0.997 0.809,1.806 1.806,1.806l8.388,0c0.997,0 1.806,-0.809 1.806,-1.806l0,-8.388Z" style="fill:#3d3f3f;"/><path id="Key13" serif:id="Key" d="M280,37.806c0,-0.997 -0.809,-1.806 -1.806,-1.806l-8.388,0c-0.997,0 -1.806,0.809 -1.806,1.806l-0,8.388c-0,0.997 0.809,1.806 1.806,1.806l8.388,0c0.997,0 1.806,-0.809 1.806,-1.806l0,-8.388Z" style="fill:#3d3f3f;"/><path id="Key14" serif:id="Key" d="M298,37.806c0,-0.997 -0.809,-1.806 -1.806,-1.806l-8.388,0c-0.997,0 -1.806,0.809 -1.806,1.806l-0,8.388c-0,0.997 0.809,1.806 1.806,1.806l8.388,0c0.997,0 1.806,-0.809 1.806,-1.806l0,-8.388Z" style="fill:#3d3f3f;"/><path id="Key15" serif:id="Key" d="M280,55.806c0,-0.997 -0.809,-1.806 -1.806,-1.806l-8.388,0c-0.997,0 -1.806,0.809 -1.806,1.806l-0,8.388c-0,0.997 0.809,1.806 1.806,1.806l8.388,0c0.997,0 1.806,-0.809 1.806,-1.806l0,-8.388Z" style="fill:#3d3f3f;"/><path id="Key16" serif:id="Key" d="M244,55.806c0,-0.997 -0.809,-1.806 -1.806,-1.806l-8.388,0c-0.997,0 -1.806,0.809 -1.806,1.806l0,8.388c0,0.997 0.809,1.806 1.806,1.806l8.388,0c0.997,0 1.806,-0.809 1.806,-1.806l0,-8.388Z" style="fill:#3d3f3f;"/><path id="Key17" serif:id="Key" d="M244,37.806c0,-0.997 -0.809,-1.806 -1.806,-1.806l-8.388,0c-0.997,0 -1.806,0.809 -1.806,1.806l0,8.388c0,0.997 0.809,1.806 1.806,1.806l8.388,0c0.997,0 1.806,-0.809 1.806,-1.806l0,-8.388Z" style="fill:#3d3f3f;"/><path id="Key18" serif:id="Key" d="M262,37.806c0,-0.997 -0.809,-1.806 -1.806,-1.806l-8.388,0c-0.997,0 -1.806,0.809 -1.806,1.806l0,8.388c0,0.997 0.809,1.806 1.806,1.806l8.388,0c0.997,0 1.806,-0.809 1.806,-1.806l0,-8.388Z" style="fill:#3d3f3f;"/><path id="Key19" serif:id="Key" d="M262,55.806c0,-0.997 -0.809,-1.806 -1.806,-1.806l-8.388,0c-0.997,0 -1.806,0.809 -1.806,1.806l0,8.388c0,0.997 0.809,1.806 1.806,1.806l8.388,0c0.997,0 1.806,-0.809 1.806,-1.806l0,-8.388Z" style="fill:#3d3f3f;"/><path id="Key20" serif:id="Key" d="M226,91.806c0,-0.997 -0.809,-1.806 -1.806,-1.806l-8.388,0c-0.997,0 -1.806,0.809 -1.806,1.806l0,8.388c0,0.997 0.809,1.806 1.806,1.806l8.388,0c0.997,0 1.806,-0.809 1.806,-1.806l0,-8.388Z" style="fill:#3d3f3f;"/><path id="Key21" serif:id="Key" d="M208,73.806c0,-0.997 -0.809,-1.806 -1.806,-1.806l-8.388,0c-0.997,0 -1.806,0.809 -1.806,1.806l0,8.388c0,0.997 0.809,1.806 1.806,1.806l8.388,0c0.997,0 1.806,-0.809 1.806,-1.806l0,-8.388Z" style="fill:#3d3f3f;"/><path id="Key22" serif:id="Key" d="M226,73.806c0,-0.997 -0.809,-1.806 -1.806,-1.806l-8.388,0c-0.997,0 -1.806,0.809 -1.806,1.806l0,8.388c0,0.997 0.809,1.806 1.806,1.806l8.388,0c0.997,0 1.806,-0.809 1.806,-1.806l0,-8.388Z" style="fill:#3d3f3f;"/><path id="Key23" serif:id="Key" d="M208,91.806c0,-0.997 -0.809,-1.806 -1.806,-1.806l-8.388,0c-0.997,0 -1.806,0.809 -1.806,1.806l0,8.388c0,0.997 0.809,1.806 1.806,1.806l8.388,0c0.997,0 1.806,-0.809 1.806,-1.806l0,-8.388Z" style="fill:#3d3f3f;"/><path id="Key24" serif:id="Key" d="M262,91.806c0,-0.997 -0.809,-1.806 -1.806,-1.806l-8.388,0c-0.997,0 -1.806,0.809 -1.806,1.806l0,8.388c0,0.997 0.809,1.806 1.806,1.806l8.388,0c0.997,0 1.806,-0.809 1.806,-1.806l0,-8.388Z" style="fill:#3d3f3f;"/><path id="Key25" serif:id="Key" d="M244,73.806c0,-0.997 -0.809,-1.806 -1.806,-1.806l-8.388,0c-0.997,0 -1.806,0.809 -1.806,1.806l0,8.388c0,0.997 0.809,1.806 1.806,1.806l8.388,0c0.997,0 1.806,-0.809 1.806,-1.806l0,-8.388Z" style="fill:#3d3f3f;"/><path id="Key26" serif:id="Key" d="M262,73.806c0,-0.997 -0.809,-1.806 -1.806,-1.806l-8.388,0c-0.997,0 -1.806,0.809 -1.806,1.806l0,8.388c0,0.997 0.809,1.806 1.806,1.806l8.388,0c0.997,0 1.806,-0.809 1.806,-1.806l0,-8.388Z" style="fill:#3d3f3f;"/><path id="Key27" serif:id="Key" d="M244,91.806c0,-0.997 -0.809,-1.806 -1.806,-1.806l-8.388,0c-0.997,0 -1.806,0.809 -1.806,1.806l0,8.388c0,0.997 0.809,1.806 1.806,1.806l8.388,0c0.997,0 1.806,-0.809 1.806,-1.806l0,-8.388Z" style="fill:#3d3f3f;"/><path id="Key28" serif:id="Key" d="M226,55.806c0,-0.997 -0.809,-1.806 -1.806,-1.806l-8.388,0c-0.997,0 -1.806,0.809 -1.806,1.806l0,8.388c0,0.997 0.809,1.806 1.806,1.806l8.388,0c0.997,0 1.806,-0.809 1.806,-1.806l0,-8.388Z" style="fill:#3d3f3f;"/><path id="Key29" serif:id="Key" d="M208,37.806c0,-0.997 -0.809,-1.806 -1.806,-1.806l-8.388,0c-0.997,0 -1.806,0.809 -1.806,1.806l0,8.388c0,0.997 0.809,1.806 1.806,1.806l8.388,0c0.997,0 1.806,-0.809 1.806,-1.806l0,-8.388Z" style="fill:#3d3f3f;"/><path id="Key30" serif:id="Key" d="M226,37.806c0,-0.997 -0.809,-1.806 -1.806,-1.806l-8.388,0c-0.997,0 -1.806,0.809 -1.806,1.806l0,8.388c0,0.997 0.809,1.806 1.806,1.806l8.388,0c0.997,0 1.806,-0.809 1.806,-1.806l0,-8.388Z" style="fill:#3d3f3f;"/><path id="Key31" serif:id="Key" d="M208,55.806c0,-0.997 -0.809,-1.806 -1.806,-1.806l-8.388,0c-0.997,0 -1.806,0.809 -1.806,1.806l0,8.388c0,0.997 0.809,1.806 1.806,1.806l8.388,0c0.997,0 1.806,-0.809 1.806,-1.806l0,-8.388Z" style="fill:#3d3f3f;"/><path id="Key32" serif:id="Key" d="M190,55.806c0,-0.997 -0.809,-1.806 -1.806,-1.806l-8.388,0c-0.997,0 -1.806,0.809 -1.806,1.806l0,8.388c0,0.997 0.809,1.806 1.806,1.806l8.388,0c0.997,0 1.806,-0.809 1.806,-1.806l0,-8.388Z" style="fill:#3d3f3f;"/><path id="Key33" serif:id="Key" d="M172,37.806c-0,-0.997 -0.809,-1.806 -1.806,-1.806l-8.388,0c-0.997,0 -1.806,0.809 -1.806,1.806l0,8.388c0,0.997 0.809,1.806 1.806,1.806l8.388,0c0.997,0 1.806,-0.809 1.806,-1.806l-0,-8.388Z" style="fill:#3d3f3f;"/><path id="Key34" serif:id="Key" d="M190,37.806c0,-0.997 -0.809,-1.806 -1.806,-1.806l-8.388,0c-0.997,0 -1.806,0.809 -1.806,1.806l0,8.388c0,0.997 0.809,1.806 1.806,1.806l8.388,0c0.997,0 1.806,-0.809 1.806,-1.806l0,-8.388Z" style="fill:#3d3f3f;"/><path id="Key35" serif:id="Key" d="M172,55.806c0,-0.997 -0.809,-1.806 -1.806,-1.806l-8.388,0c-0.997,0 -1.806,0.809 -1.806,1.806l0,8.388c0,0.997 0.809,1.806 1.806,1.806l8.388,0c0.997,0 1.806,-0.809 1.806,-1.806l0,-8.388Z" style="fill:#3d3f3f;"/><path id="Key36" serif:id="Key" d="M154,91.806c0,-0.997 -0.809,-1.806 -1.806,-1.806l-8.388,0c-0.997,0 -1.806,0.809 -1.806,1.806l0,8.388c0,0.997 0.809,1.806 1.806,1.806l8.388,0c0.997,0 1.806,-0.809 1.806,-1.806l0,-8.388Z" style="fill:#3d3f3f;"/><path id="Key37" serif:id="Key" d="M136,73.806c-0,-0.997 -0.809,-1.806 -1.806,-1.806l-8.388,0c-0.997,0 -1.806,0.809 -1.806,1.806l-0,8.388c-0,0.997 0.809,1.806 1.806,1.806l8.388,0c0.997,0 1.806,-0.809 1.806,-1.806l-0,-8.388Z" style="fill:#3d3f3f;"/><path id="Key38" serif:id="Key" d="M154,73.806c0,-0.997 -0.809,-1.806 -1.806,-1.806l-8.388,0c-0.997,0 -1.806,0.809 -1.806,1.806l0,8.388c0,0.997 0.809,1.806 1.806,1.806l8.388,0c0.997,0 1.806,-0.809 1.806,-1.806l0,-8.388Z" style="fill:#3d3f3f;"/><path id="Key39" serif:id="Key" d="M136,91.806c0,-0.997 -0.809,-1.806 -1.806,-1.806l-8.388,0c-0.997,0 -1.806,0.809 -1.806,1.806l0,8.388c0,0.997 0.809,1.806 1.806,1.806l8.388,0c0.997,0 1.806,-0.809 1.806,-1.806l0,-8.388Z" style="fill:#3d3f3f;"/><path id="Key40" serif:id="Key" d="M190,91.806c0,-0.997 -0.809,-1.806 -1.806,-1.806l-8.388,0c-0.997,0 -1.806,0.809 -1.806,1.806l0,8.388c0,0.997 0.809,1.806 1.806,1.806l8.388,0c0.997,0 1.806,-0.809 1.806,-1.806l0,-8.388Z" style="fill:#3d3f3f;"/><path id="Key41" serif:id="Key" d="M172,73.806c0,-0.997 -0.809,-1.806 -1.806,-1.806l-8.388,0c-0.997,0 -1.806,0.809 -1.806,1.806l0,8.388c0,0.997 0.809,1.806 1.806,1.806l8.388,0c0.997,0 1.806,-0.809 1.806,-1.806l0,-8.388Z" style="fill:#3d3f3f;"/><path id="Key42" serif:id="Key" d="M190,73.806c0,-0.997 -0.809,-1.806 -1.806,-1.806l-8.388,0c-0.997,0 -1.806,0.809 -1.806,1.806l0,8.388c0,0.997 0.809,1.806 1.806,1.806l8.388,0c0.997,0 1.806,-0.809 1.806,-1.806l0,-8.388Z" style="fill:#3d3f3f;"/><path id="Key43" serif:id="Key" d="M172,91.806c0,-0.997 -0.809,-1.806 -1.806,-1.806l-8.388,0c-0.997,0 -1.806,0.809 -1.806,1.806l0,8.388c0,0.997 0.809,1.806 1.806,1.806l8.388,0c0.997,0 1.806,-0.809 1.806,-1.806l0,-8.388Z" style="fill:#3d3f3f;"/><path id="Key44" serif:id="Key" d="M154,55.806c0,-0.997 -0.809,-1.806 -1.806,-1.806l-8.388,0c-0.997,0 -1.806,0.809 -1.806,1.806l0,8.388c0,0.997 0.809,1.806 1.806,1.806l8.388,0c0.997,0 1.806,-0.809 1.806,-1.806l0,-8.388Z" style="fill:#3d3f3f;"/><path id="Key45" serif:id="Key" d="M136,37.806c0,-0.997 -0.809,-1.806 -1.806,-1.806l-8.388,0c-0.997,0 -1.806,0.809 -1.806,1.806l0,8.388c0,0.997 0.809,1.806 1.806,1.806l8.388,0c0.997,0 1.806,-0.809 1.806,-1.806l0,-8.388Z" style="fill:#3d3f3f;"/><path id="Key46" serif:id="Key" d="M154,37.806c0,-0.997 -0.809,-1.806 -1.806,-1.806l-8.388,0c-0.997,0 -1.806,0.809 -1.806,1.806l0,8.388c0,0.997 0.809,1.806 1.806,1.806l8.388,0c0.997,0 1.806,-0.809 1.806,-1.806l0,-8.388Z" style="fill:#3d3f3f;"/><path id="Key47" serif:id="Key" d="M136,55.806c0,-0.997 -0.809,-1.806 -1.806,-1.806l-8.388,0c-0.997,0 -1.806,0.809 -1.806,1.806l0,8.388c0,0.997 0.809,1.806 1.806,1.806l8.388,0c0.997,0 1.806,-0.809 1.806,-1.806l0,-8.388Z" style="fill:#3d3f3f;"/><path id="Key48" serif:id="Key" d="M100,55.806c0,-0.997 -0.809,-1.806 -1.806,-1.806l-8.388,0c-0.997,0 -1.806,0.809 -1.806,1.806l0,8.388c0,0.997 0.809,1.806 1.806,1.806l8.388,0c0.997,0 1.806,-0.809 1.806,-1.806l0,-8.388Z" style="fill:#3d3f3f;"/><path id="Key49" serif:id="Key" d="M100,37.806c0,-0.997 -0.809,-1.806 -1.806,-1.806l-8.388,0c-0.997,0 -1.806,0.809 -1.806,1.806l0,8.388c0,0.997 0.809,1.806 1.806,1.806l8.388,0c0.997,0 1.806,-0.809 1.806,-1.806l0,-8.388Z" style="fill:#3d3f3f;"/><path id="Key50" serif:id="Key" d="M118,37.806c0,-0.997 -0.809,-1.806 -1.806,-1.806l-8.388,0c-0.997,0 -1.806,0.809 -1.806,1.806l0,8.388c0,0.997 0.809,1.806 1.806,1.806l8.388,0c0.997,0 1.806,-0.809 1.806,-1.806l0,-8.388Z" style="fill:#3d3f3f;"/><path id="Key51" serif:id="Key" d="M118,55.806c0,-0.997 -0.809,-1.806 -1.806,-1.806l-8.388,0c-0.997,0 -1.806,0.809 -1.806,1.806l0,8.388c0,0.997 0.809,1.806 1.806,1.806l8.388,0c0.997,0 1.806,-0.809 1.806,-1.806l0,-8.388Z" style="fill:#3d3f3f;"/><path id="Key52" serif:id="Key" d="M82,91.806c0,-0.997 -0.809,-1.806 -1.806,-1.806l-8.388,0c-0.997,0 -1.806,0.809 -1.806,1.806l0,8.388c0,0.997 0.809,1.806 1.806,1.806l8.388,0c0.997,0 1.806,-0.809 1.806,-1.806l0,-8.388Z" style="fill:#3d3f3f;"/><path id="Key53" serif:id="Key" d="M64,73.806c0,-0.997 -0.809,-1.806 -1.806,-1.806l-8.388,0c-0.997,0 -1.806,0.809 -1.806,1.806l0,8.388c0,0.997 0.809,1.806 1.806,1.806l8.388,0c0.997,0 1.806,-0.809 1.806,-1.806l0,-8.388Z" style="fill:#3d3f3f;"/><path id="Key54" serif:id="Key" d="M82,73.806c0,-0.997 -0.809,-1.806 -1.806,-1.806l-8.388,0c-0.997,0 -1.806,0.809 -1.806,1.806l0,8.388c0,0.997 0.809,1.806 1.806,1.806l8.388,0c0.997,0 1.806,-0.809 1.806,-1.806l0,-8.388Z" style="fill:#3d3f3f;"/><path id="Key55" serif:id="Key" d="M64,91.806c0,-0.997 -0.809,-1.806 -1.806,-1.806l-8.388,0c-0.997,0 -1.806,0.809 -1.806,1.806l0,8.388c0,0.997 0.809,1.806 1.806,1.806l8.388,0c0.997,0 1.806,-0.809 1.806,-1.806l0,-8.388Z" style="fill:#3d3f3f;"/><path id="Key56" serif:id="Key" d="M118,91.806c0,-0.997 -0.809,-1.806 -1.806,-1.806l-8.388,0c-0.997,0 -1.806,0.809 -1.806,1.806l0,8.388c0,0.997 0.809,1.806 1.806,1.806l8.388,0c0.997,0 1.806,-0.809 1.806,-1.806l0,-8.388Z" style="fill:#3d3f3f;"/><path id="Key57" serif:id="Key" d="M100,73.806c0,-0.997 -0.809,-1.806 -1.806,-1.806l-8.388,0c-0.997,0 -1.806,0.809 -1.806,1.806l0,8.388c0,0.997 0.809,1.806 1.806,1.806l8.388,0c0.997,0 1.806,-0.809 1.806,-1.806l0,-8.388Z" style="fill:#3d3f3f;"/><path id="Key58" serif:id="Key" d="M118,73.806c0,-0.997 -0.809,-1.806 -1.806,-1.806l-8.388,0c-0.997,0 -1.806,0.809 -1.806,1.806l0,8.388c0,0.997 0.809,1.806 1.806,1.806l8.388,0c0.997,0 1.806,-0.809 1.806,-1.806l0,-8.388Z" style="fill:#3d3f3f;"/><path id="Key59" serif:id="Key" d="M100,91.806c0,-0.997 -0.809,-1.806 -1.806,-1.806l-8.388,0c-0.997,0 -1.806,0.809 -1.806,1.806l0,8.388c0,0.997 0.809,1.806 1.806,1.806l8.388,0c0.997,0 1.806,-0.809 1.806,-1.806l0,-8.388Z" style="fill:#3d3f3f;"/><path id="Key60" serif:id="Key" d="M82,55.806c0,-0.997 -0.809,-1.806 -1.806,-1.806l-8.388,0c-0.997,0 -1.806,0.809 -1.806,1.806l0,8.388c0,0.997 0.809,1.806 1.806,1.806l8.388,0c0.997,0 1.806,-0.809 1.806,-1.806l0,-8.388Z" style="fill:#3d3f3f;"/><path id="Key61" serif:id="Key" d="M64,37.806c0,-0.997 -0.809,-1.806 -1.806,-1.806l-8.388,0c-0.997,0 -1.806,0.809 -1.806,1.806l0,8.388c0,0.997 0.809,1.806 1.806,1.806l8.388,0c0.997,0 1.806,-0.809 1.806,-1.806l0,-8.388Z" style="fill:#3d3f3f;"/><path id="Key62" serif:id="Key" d="M82,37.806c0,-0.997 -0.809,-1.806 -1.806,-1.806l-8.388,0c-0.997,0 -1.806,0.809 -1.806,1.806l0,8.388c0,0.997 0.809,1.806 1.806,1.806l8.388,0c0.997,0 1.806,-0.809 1.806,-1.806l0,-8.388Z" style="fill:#3d3f3f;"/><path id="Key63" serif:id="Key" d="M64,55.806c0,-0.997 -0.809,-1.806 -1.806,-1.806l-8.388,0c-0.997,0 -1.806,0.809 -1.806,1.806l0,8.388c0,0.997 0.809,1.806 1.806,1.806l8.388,0c0.997,0 1.806,-0.809 1.806,-1.806l0,-8.388Z" style="fill:#3d3f3f;"/><path id="Key64" serif:id="Key" d="M334,127.806c0,-0.997 -0.809,-1.806 -1.806,-1.806l-8.388,0c-0.997,0 -1.806,0.809 -1.806,1.806l-0,8.388c-0,0.997 0.809,1.806 1.806,1.806l8.388,0c0.997,0 1.806,-0.809 1.806,-1.806l0,-8.388Z" style="fill:#3d3f3f;"/><path id="Key65" serif:id="Key" d="M316,109.806c0,-0.997 -0.809,-1.806 -1.806,-1.806l-8.388,0c-0.997,0 -1.806,0.809 -1.806,1.806l-0,8.388c-0,0.997 0.809,1.806 1.806,1.806l8.388,0c0.997,0 1.806,-0.809 1.806,-1.806l0,-8.388Z" style="fill:#3d3f3f;"/><path id="Key66" serif:id="Key" d="M334,109.806c0,-0.997 -0.809,-1.806 -1.806,-1.806l-8.388,0c-0.997,0 -1.806,0.809 -1.806,1.806l-0,8.388c-0,0.997 0.809,1.806 1.806,1.806l8.388,0c0.997,0 1.806,-0.809 1.806,-1.806l0,-8.388Z" style="fill:#3d3f3f;"/><path id="Key67" serif:id="Key" d="M316,127.806c0,-0.997 -0.809,-1.806 -1.806,-1.806l-8.388,0c-0.997,0 -1.806,0.809 -1.806,1.806l-0,8.388c-0,0.997 0.809,1.806 1.806,1.806l8.388,0c0.997,0 1.806,-0.809 1.806,-1.806l0,-8.388Z" style="fill:#3d3f3f;"/><path id="Key68" serif:id="Key" d="M298,163.806c0,-0.997 -0.809,-1.806 -1.806,-1.806l-8.388,0c-0.997,0 -1.806,0.809 -1.806,1.806l-0,8.388c-0,0.997 0.809,1.806 1.806,1.806l8.388,0c0.997,0 1.806,-0.809 1.806,-1.806l0,-8.388Z" style="fill:#3d3f3f;"/><path id="Key69" serif:id="Key" d="M280,145.806c-0,-0.997 -0.809,-1.806 -1.806,-1.806l-8.388,0c-0.997,0 -1.806,0.809 -1.806,1.806l-0,8.388c-0,0.997 0.809,1.806 1.806,1.806l8.388,0c0.997,0 1.806,-0.809 1.806,-1.806l-0,-8.388Z" style="fill:#3d3f3f;"/><path id="Key70" serif:id="Key" d="M298,145.806c0,-0.997 -0.809,-1.806 -1.806,-1.806l-8.388,0c-0.997,0 -1.806,0.809 -1.806,1.806l-0,8.388c-0,0.997 0.809,1.806 1.806,1.806l8.388,0c0.997,0 1.806,-0.809 1.806,-1.806l0,-8.388Z" style="fill:#3d3f3f;"/><path id="Key71" serif:id="Key" d="M280,163.806c0,-0.997 -0.809,-1.806 -1.806,-1.806l-8.388,0c-0.997,0 -1.806,0.809 -1.806,1.806l-0,8.388c-0,0.997 0.809,1.806 1.806,1.806l8.388,0c0.997,0 1.806,-0.809 1.806,-1.806l0,-8.388Z" style="fill:#3d3f3f;"/><path id="Key72" serif:id="Key" d="M334,163.806c0,-0.997 -0.809,-1.806 -1.806,-1.806l-8.388,0c-0.997,0 -1.806,0.809 -1.806,1.806l-0,8.388c-0,0.997 0.809,1.806 1.806,1.806l8.388,0c0.997,0 1.806,-0.809 1.806,-1.806l0,-8.388Z" style="fill:#3d3f3f;"/><path id="Key73" serif:id="Key" d="M316,145.806c0,-0.997 -0.809,-1.806 -1.806,-1.806l-8.388,0c-0.997,0 -1.806,0.809 -1.806,1.806l-0,8.388c-0,0.997 0.809,1.806 1.806,1.806l8.388,0c0.997,0 1.806,-0.809 1.806,-1.806l0,-8.388Z" style="fill:#3d3f3f;"/><path id="Key74" serif:id="Key" d="M334,145.806c0,-0.997 -0.809,-1.806 -1.806,-1.806l-8.388,0c-0.997,0 -1.806,0.809 -1.806,1.806l-0,8.388c-0,0.997 0.809,1.806 1.806,1.806l8.388,0c0.997,0 1.806,-0.809 1.806,-1.806l0,-8.388Z" style="fill:#3d3f3f;"/><path id="Key75" serif:id="Key" d="M316,163.806c0,-0.997 -0.809,-1.806 -1.806,-1.806l-8.388,0c-0.997,0 -1.806,0.809 -1.806,1.806l-0,8.388c-0,0.997 0.809,1.806 1.806,1.806l8.388,0c0.997,0 1.806,-0.809 1.806,-1.806l0,-8.388Z" style="fill:#3d3f3f;"/><path id="Key76" serif:id="Key" d="M298,127.806c0,-0.997 -0.809,-1.806 -1.806,-1.806l-8.388,0c-0.997,0 -1.806,0.809 -1.806,1.806l-0,8.388c-0,0.997 0.809,1.806 1.806,1.806l8.388,0c0.997,0 1.806,-0.809 1.806,-1.806l0,-8.388Z" style="fill:#3d3f3f;"/><path id="Key77" serif:id="Key" d="M280,109.806c0,-0.997 -0.809,-1.806 -1.806,-1.806l-8.388,0c-0.997,0 -1.806,0.809 -1.806,1.806l-0,8.388c-0,0.997 0.809,1.806 1.806,1.806l8.388,0c0.997,0 1.806,-0.809 1.806,-1.806l0,-8.388Z" style="fill:#3d3f3f;"/><path id="Key78" serif:id="Key" d="M298,109.806c0,-0.997 -0.809,-1.806 -1.806,-1.806l-8.388,0c-0.997,0 -1.806,0.809 -1.806,1.806l-0,8.388c-0,0.997 0.809,1.806 1.806,1.806l8.388,0c0.997,0 1.806,-0.809 1.806,-1.806l0,-8.388Z" style="fill:#3d3f3f;"/><path id="Key79" serif:id="Key" d="M280,127.806c0,-0.997 -0.809,-1.806 -1.806,-1.806l-8.388,0c-0.997,0 -1.806,0.809 -1.806,1.806l-0,8.388c-0,0.997 0.809,1.806 1.806,1.806l8.388,0c0.997,0 1.806,-0.809 1.806,-1.806l0,-8.388Z" style="fill:#3d3f3f;"/><path id="Key80" serif:id="Key" d="M244,127.806c0,-0.997 -0.809,-1.806 -1.806,-1.806l-8.388,0c-0.997,0 -1.806,0.809 -1.806,1.806l0,8.388c0,0.997 0.809,1.806 1.806,1.806l8.388,0c0.997,0 1.806,-0.809 1.806,-1.806l0,-8.388Z" style="fill:#3d3f3f;"/><path id="Key81" serif:id="Key" d="M244,109.806c0,-0.997 -0.809,-1.806 -1.806,-1.806l-8.388,0c-0.997,0 -1.806,0.809 -1.806,1.806l0,8.388c0,0.997 0.809,1.806 1.806,1.806l8.388,0c0.997,0 1.806,-0.809 1.806,-1.806l0,-8.388Z" style="fill:#3d3f3f;"/><path id="Key82" serif:id="Key" d="M262,109.806c0,-0.997 -0.809,-1.806 -1.806,-1.806l-8.388,0c-0.997,0 -1.806,0.809 -1.806,1.806l0,8.388c0,0.997 0.809,1.806 1.806,1.806l8.388,0c0.997,0 1.806,-0.809 1.806,-1.806l0,-8.388Z" style="fill:#3d3f3f;"/><path id="Key83" serif:id="Key" d="M262,127.806c0,-0.997 -0.809,-1.806 -1.806,-1.806l-8.388,0c-0.997,0 -1.806,0.809 -1.806,1.806l0,8.388c0,0.997 0.809,1.806 1.806,1.806l8.388,0c0.997,0 1.806,-0.809 1.806,-1.806l0,-8.388Z" style="fill:#3d3f3f;"/><path id="Key84" serif:id="Key" d="M226,163.806c0,-0.997 -0.809,-1.806 -1.806,-1.806l-8.388,0c-0.997,0 -1.806,0.809 -1.806,1.806l0,8.388c0,0.997 0.809,1.806 1.806,1.806l8.388,0c0.997,0 1.806,-0.809 1.806,-1.806l0,-8.388Z" style="fill:#3d3f3f;"/><path id="Key85" serif:id="Key" d="M208,145.806c0,-0.997 -0.809,-1.806 -1.806,-1.806l-8.388,0c-0.997,0 -1.806,0.809 -1.806,1.806l0,8.388c0,0.997 0.809,1.806 1.806,1.806l8.388,0c0.997,0 1.806,-0.809 1.806,-1.806l0,-8.388Z" style="fill:#3d3f3f;"/><path id="Key86" serif:id="Key" d="M226,145.806c0,-0.997 -0.809,-1.806 -1.806,-1.806l-8.388,0c-0.997,0 -1.806,0.809 -1.806,1.806l0,8.388c0,0.997 0.809,1.806 1.806,1.806l8.388,0c0.997,0 1.806,-0.809 1.806,-1.806l0,-8.388Z" style="fill:#3d3f3f;"/><path id="Key87" serif:id="Key" d="M208,163.806c0,-0.997 -0.809,-1.806 -1.806,-1.806l-8.388,0c-0.997,0 -1.806,0.809 -1.806,1.806l0,8.388c0,0.997 0.809,1.806 1.806,1.806l8.388,0c0.997,0 1.806,-0.809 1.806,-1.806l0,-8.388Z" style="fill:#3d3f3f;"/><path id="Key88" serif:id="Key" d="M262,163.806c0,-0.997 -0.809,-1.806 -1.806,-1.806l-8.388,0c-0.997,0 -1.806,0.809 -1.806,1.806l0,8.388c0,0.997 0.809,1.806 1.806,1.806l8.388,0c0.997,0 1.806,-0.809 1.806,-1.806l0,-8.388Z" style="fill:#3d3f3f;"/><path id="Key89" serif:id="Key" d="M244,145.806c0,-0.997 -0.809,-1.806 -1.806,-1.806l-8.388,0c-0.997,0 -1.806,0.809 -1.806,1.806l0,8.388c0,0.997 0.809,1.806 1.806,1.806l8.388,0c0.997,0 1.806,-0.809 1.806,-1.806l0,-8.388Z" style="fill:#3d3f3f;"/><path id="Key90" serif:id="Key" d="M262,145.806c0,-0.997 -0.809,-1.806 -1.806,-1.806l-8.388,0c-0.997,0 -1.806,0.809 -1.806,1.806l0,8.388c0,0.997 0.809,1.806 1.806,1.806l8.388,0c0.997,0 1.806,-0.809 1.806,-1.806l0,-8.388Z" style="fill:#3d3f3f;"/><path id="Key91" serif:id="Key" d="M244,163.806c0,-0.997 -0.809,-1.806 -1.806,-1.806l-8.388,0c-0.997,0 -1.806,0.809 -1.806,1.806l0,8.388c0,0.997 0.809,1.806 1.806,1.806l8.388,0c0.997,0 1.806,-0.809 1.806,-1.806l0,-8.388Z" style="fill:#3d3f3f;"/><path id="Key92" serif:id="Key" d="M226,127.806c0,-0.997 -0.809,-1.806 -1.806,-1.806l-8.388,0c-0.997,0 -1.806,0.809 -1.806,1.806l0,8.388c0,0.997 0.809,1.806 1.806,1.806l8.388,0c0.997,0 1.806,-0.809 1.806,-1.806l0,-8.388Z" style="fill:#3d3f3f;"/><path id="Key93" serif:id="Key" d="M208,109.806c0,-0.997 -0.809,-1.806 -1.806,-1.806l-8.388,0c-0.997,0 -1.806,0.809 -1.806,1.806l0,8.388c0,0.997 0.809,1.806 1.806,1.806l8.388,0c0.997,0 1.806,-0.809 1.806,-1.806l0,-8.388Z" style="fill:#3d3f3f;"/><path id="Key94" serif:id="Key" d="M226,109.806c0,-0.997 -0.809,-1.806 -1.806,-1.806l-8.388,0c-0.997,0 -1.806,0.809 -1.806,1.806l0,8.388c0,0.997 0.809,1.806 1.806,1.806l8.388,0c0.997,0 1.806,-0.809 1.806,-1.806l0,-8.388Z" style="fill:#3d3f3f;"/><path id="Key95" serif:id="Key" d="M208,127.806c0,-0.997 -0.809,-1.806 -1.806,-1.806l-8.388,0c-0.997,0 -1.806,0.809 -1.806,1.806l0,8.388c0,0.997 0.809,1.806 1.806,1.806l8.388,0c0.997,0 1.806,-0.809 1.806,-1.806l0,-8.388Z" style="fill:#3d3f3f;"/><path id="Key96" serif:id="Key" d="M190,127.806c-0,-0.997 -0.809,-1.806 -1.806,-1.806l-8.388,0c-0.997,0 -1.806,0.809 -1.806,1.806l0,8.388c0,0.997 0.809,1.806 1.806,1.806l8.388,0c0.997,0 1.806,-0.809 1.806,-1.806l-0,-8.388Z" style="fill:#3d3f3f;"/><path id="Key97" serif:id="Key" d="M172,109.806c-0,-0.997 -0.809,-1.806 -1.806,-1.806l-8.388,0c-0.997,0 -1.806,0.809 -1.806,1.806l-0,8.388c-0,0.997 0.809,1.806 1.806,1.806l8.388,0c0.997,0 1.806,-0.809 1.806,-1.806l-0,-8.388Z" style="fill:#3d3f3f;"/><path id="Key98" serif:id="Key" d="M190,109.806c-0,-0.997 -0.809,-1.806 -1.806,-1.806l-8.388,0c-0.997,0 -1.806,0.809 -1.806,1.806l0,8.388c0,0.997 0.809,1.806 1.806,1.806l8.388,0c0.997,0 1.806,-0.809 1.806,-1.806l-0,-8.388Z" style="fill:#3d3f3f;"/><path id="Key99" serif:id="Key" d="M172,127.806c-0,-0.997 -0.809,-1.806 -1.806,-1.806l-8.388,0c-0.997,0 -1.806,0.809 -1.806,1.806l0,8.388c0,0.997 0.809,1.806 1.806,1.806l8.388,0c0.997,0 1.806,-0.809 1.806,-1.806l-0,-8.388Z" style="fill:#3d3f3f;"/><path id="Key100" serif:id="Key" d="M154,163.806c-0,-0.997 -0.809,-1.806 -1.806,-1.806l-8.388,0c-0.997,0 -1.806,0.809 -1.806,1.806l0,8.388c0,0.997 0.809,1.806 1.806,1.806l8.388,0c0.997,0 1.806,-0.809 1.806,-1.806l-0,-8.388Z" style="fill:#3d3f3f;"/><path id="Key101" serif:id="Key" d="M136,145.806c-0,-0.997 -0.809,-1.806 -1.806,-1.806l-8.388,0c-0.997,0 -1.806,0.809 -1.806,1.806l-0,8.388c-0,0.997 0.809,1.806 1.806,1.806l8.388,0c0.997,0 1.806,-0.809 1.806,-1.806l-0,-8.388Z" style="fill:#3d3f3f;"/><path id="Key102" serif:id="Key" d="M154,145.806c-0,-0.997 -0.809,-1.806 -1.806,-1.806l-8.388,0c-0.997,0 -1.806,0.809 -1.806,1.806l0,8.388c0,0.997 0.809,1.806 1.806,1.806l8.388,0c0.997,0 1.806,-0.809 1.806,-1.806l-0,-8.388Z" style="fill:#3d3f3f;"/><path id="Key103" serif:id="Key" d="M136,163.806c-0,-0.997 -0.809,-1.806 -1.806,-1.806l-8.388,0c-0.997,0 -1.806,0.809 -1.806,1.806l-0,8.388c-0,0.997 0.809,1.806 1.806,1.806l8.388,0c0.997,0 1.806,-0.809 1.806,-1.806l-0,-8.388Z" style="fill:#3d3f3f;"/><path id="Key104" serif:id="Key" d="M190,163.806c0,-0.997 -0.809,-1.806 -1.806,-1.806l-8.388,0c-0.997,0 -1.806,0.809 -1.806,1.806l0,8.388c0,0.997 0.809,1.806 1.806,1.806l8.388,0c0.997,0 1.806,-0.809 1.806,-1.806l0,-8.388Z" style="fill:#3d3f3f;"/><path id="Key105" serif:id="Key" d="M172,145.806c0,-0.997 -0.809,-1.806 -1.806,-1.806l-8.388,0c-0.997,0 -1.806,0.809 -1.806,1.806l0,8.388c0,0.997 0.809,1.806 1.806,1.806l8.388,0c0.997,0 1.806,-0.809 1.806,-1.806l0,-8.388Z" style="fill:#3d3f3f;"/><path id="Key106" serif:id="Key" d="M190,145.806c0,-0.997 -0.809,-1.806 -1.806,-1.806l-8.388,0c-0.997,0 -1.806,0.809 -1.806,1.806l0,8.388c0,0.997 0.809,1.806 1.806,1.806l8.388,0c0.997,0 1.806,-0.809 1.806,-1.806l0,-8.388Z" style="fill:#3d3f3f;"/><path id="Key107" serif:id="Key" d="M172,163.806c0,-0.997 -0.809,-1.806 -1.806,-1.806l-8.388,0c-0.997,0 -1.806,0.809 -1.806,1.806l0,8.388c0,0.997 0.809,1.806 1.806,1.806l8.388,0c0.997,0 1.806,-0.809 1.806,-1.806l0,-8.388Z" style="fill:#3d3f3f;"/><path id="Key108" serif:id="Key" d="M154,127.806c0,-0.997 -0.809,-1.806 -1.806,-1.806l-8.388,0c-0.997,0 -1.806,0.809 -1.806,1.806l0,8.388c0,0.997 0.809,1.806 1.806,1.806l8.388,0c0.997,0 1.806,-0.809 1.806,-1.806l0,-8.388Z" style="fill:#3d3f3f;"/><path id="Key109" serif:id="Key" d="M136,109.806c0,-0.997 -0.809,-1.806 -1.806,-1.806l-8.388,0c-0.997,0 -1.806,0.809 -1.806,1.806l0,8.388c0,0.997 0.809,1.806 1.806,1.806l8.388,0c0.997,0 1.806,-0.809 1.806,-1.806l0,-8.388Z" style="fill:#3d3f3f;"/><path id="Key110" serif:id="Key" d="M154,109.806c0,-0.997 -0.809,-1.806 -1.806,-1.806l-8.388,0c-0.997,0 -1.806,0.809 -1.806,1.806l0,8.388c0,0.997 0.809,1.806 1.806,1.806l8.388,0c0.997,0 1.806,-0.809 1.806,-1.806l0,-8.388Z" style="fill:#3d3f3f;"/><path id="Key111" serif:id="Key" d="M136,127.806c0,-0.997 -0.809,-1.806 -1.806,-1.806l-8.388,0c-0.997,0 -1.806,0.809 -1.806,1.806l0,8.388c0,0.997 0.809,1.806 1.806,1.806l8.388,0c0.997,0 1.806,-0.809 1.806,-1.806l0,-8.388Z" style="fill:#3d3f3f;"/><path id="Key112" serif:id="Key" d="M100,127.806c0,-0.997 -0.809,-1.806 -1.806,-1.806l-8.388,0c-0.997,0 -1.806,0.809 -1.806,1.806l0,8.388c0,0.997 0.809,1.806 1.806,1.806l8.388,0c0.997,0 1.806,-0.809 1.806,-1.806l0,-8.388Z" style="fill:#3d3f3f;"/><path id="Key113" serif:id="Key" d="M100,109.806c0,-0.997 -0.809,-1.806 -1.806,-1.806l-8.388,0c-0.997,0 -1.806,0.809 -1.806,1.806l0,8.388c0,0.997 0.809,1.806 1.806,1.806l8.388,0c0.997,0 1.806,-0.809 1.806,-1.806l0,-8.388Z" style="fill:#3d3f3f;"/><path id="Key114" serif:id="Key" d="M118,109.806c0,-0.997 -0.809,-1.806 -1.806,-1.806l-8.388,0c-0.997,0 -1.806,0.809 -1.806,1.806l0,8.388c0,0.997 0.809,1.806 1.806,1.806l8.388,0c0.997,0 1.806,-0.809 1.806,-1.806l0,-8.388Z" style="fill:#3d3f3f;"/><path id="Key115" serif:id="Key" d="M118,127.806c0,-0.997 -0.809,-1.806 -1.806,-1.806l-8.388,0c-0.997,0 -1.806,0.809 -1.806,1.806l0,8.388c0,0.997 0.809,1.806 1.806,1.806l8.388,0c0.997,0 1.806,-0.809 1.806,-1.806l0,-8.388Z" style="fill:#3d3f3f;"/><path id="Key116" serif:id="Key" d="M82,163.806c0,-0.997 -0.809,-1.806 -1.806,-1.806l-8.388,0c-0.997,0 -1.806,0.809 -1.806,1.806l0,8.388c0,0.997 0.809,1.806 1.806,1.806l8.388,0c0.997,0 1.806,-0.809 1.806,-1.806l0,-8.388Z" style="fill:#3d3f3f;"/><path id="Key117" serif:id="Key" d="M64,145.806c0,-0.997 -0.809,-1.806 -1.806,-1.806l-8.388,0c-0.997,0 -1.806,0.809 -1.806,1.806l0,8.388c0,0.997 0.809,1.806 1.806,1.806l8.388,0c0.997,0 1.806,-0.809 1.806,-1.806l0,-8.388Z" style="fill:#3d3f3f;"/><path id="Key118" serif:id="Key" d="M82,145.806c0,-0.997 -0.809,-1.806 -1.806,-1.806l-8.388,0c-0.997,0 -1.806,0.809 -1.806,1.806l0,8.388c0,0.997 0.809,1.806 1.806,1.806l8.388,0c0.997,0 1.806,-0.809 1.806,-1.806l0,-8.388Z" style="fill:#3d3f3f;"/><path id="Key119" serif:id="Key" d="M64,163.806c0,-0.997 -0.809,-1.806 -1.806,-1.806l-8.388,0c-0.997,0 -1.806,0.809 -1.806,1.806l0,8.388c0,0.997 0.809,1.806 1.806,1.806l8.388,0c0.997,0 1.806,-0.809 1.806,-1.806l0,-8.388Z" style="fill:#3d3f3f;"/><path id="Key120" serif:id="Key" d="M118,163.806c0,-0.997 -0.809,-1.806 -1.806,-1.806l-8.388,0c-0.997,0 -1.806,0.809 -1.806,1.806l0,8.388c0,0.997 0.809,1.806 1.806,1.806l8.388,0c0.997,0 1.806,-0.809 1.806,-1.806l0,-8.388Z" style="fill:#3d3f3f;"/><path id="Key121" serif:id="Key" d="M100,145.806c0,-0.997 -0.809,-1.806 -1.806,-1.806l-8.388,0c-0.997,0 -1.806,0.809 -1.806,1.806l0,8.388c0,0.997 0.809,1.806 1.806,1.806l8.388,0c0.997,0 1.806,-0.809 1.806,-1.806l0,-8.388Z" style="fill:#3d3f3f;"/><path id="Key122" serif:id="Key" d="M118,145.806c0,-0.997 -0.809,-1.806 -1.806,-1.806l-8.388,0c-0.997,0 -1.806,0.809 -1.806,1.806l0,8.388c0,0.997 0.809,1.806 1.806,1.806l8.388,0c0.997,0 1.806,-0.809 1.806,-1.806l0,-8.388Z" style="fill:#3d3f3f;"/><path id="Key123" serif:id="Key" d="M100,163.806c0,-0.997 -0.809,-1.806 -1.806,-1.806l-8.388,0c-0.997,0 -1.806,0.809 -1.806,1.806l0,8.388c0,0.997 0.809,1.806 1.806,1.806l8.388,0c0.997,0 1.806,-0.809 1.806,-1.806l0,-8.388Z" style="fill:#3d3f3f;"/><path id="Key124" serif:id="Key" d="M82,127.806c0,-0.997 -0.809,-1.806 -1.806,-1.806l-8.388,0c-0.997,0 -1.806,0.809 -1.806,1.806l0,8.388c0,0.997 0.809,1.806 1.806,1.806l8.388,0c0.997,0 1.806,-0.809 1.806,-1.806l0,-8.388Z" style="fill:#3d3f3f;"/><path id="Key125" serif:id="Key" d="M64,109.806c0,-0.997 -0.809,-1.806 -1.806,-1.806l-8.388,0c-0.997,0 -1.806,0.809 -1.806,1.806l0,8.388c0,0.997 0.809,1.806 1.806,1.806l8.388,0c0.997,0 1.806,-0.809 1.806,-1.806l0,-8.388Z" style="fill:#3d3f3f;"/><path id="Key126" serif:id="Key" d="M82,109.806c0,-0.997 -0.809,-1.806 -1.806,-1.806l-8.388,0c-0.997,0 -1.806,0.809 -1.806,1.806l0,8.388c0,0.997 0.809,1.806 1.806,1.806l8.388,0c0.997,0 1.806,-0.809 1.806,-1.806l0,-8.388Z" style="fill:#3d3f3f;"/><path id="Key127" serif:id="Key" d="M64,127.806c0,-0.997 -0.809,-1.806 -1.806,-1.806l-8.388,0c-0.997,0 -1.806,0.809 -1.806,1.806l0,8.388c0,0.997 0.809,1.806 1.806,1.806l8.388,0c0.997,0 1.806,-0.809 1.806,-1.806l0,-8.388Z" style="fill:#3d3f3f;"/></g><g id="Events-view" serif:id="Events view"><g id="highlighted-events-range" serif:id="highlighted events range"><path id="_3" serif:id="3" d="M64,37.806c-0,-0.997 -0.809,-1.806 -1.806,-1.806l-8.388,0c-0.997,0 -1.806,0.809 -1.806,1.806l-0,8.388c-0,0.997 0.809,1.806 1.806,1.806l8.388,0c0.997,0 1.806,-0.809 1.806,-1.806l-0,-8.388Z" style="fill:#545454;"/><path id="_31" serif:id="3" d="M82,37.806c0,-0.997 -0.809,-1.806 -1.806,-1.806l-8.388,0c-0.997,0 -1.806,0.809 -1.806,1.806l0,8.388c0,0.997 0.809,1.806 1.806,1.806l8.388,0c0.997,0 1.806,-0.809 1.806,-1.806l0,-8.388Z" style="fill:#545454;"/><path id="_32" serif:id="3" d="M100,37.806c0,-0.997 -0.809,-1.806 -1.806,-1.806l-8.388,0c-0.997,0 -1.806,0.809 -1.806,1.806l0,8.388c0,0.997 0.809,1.806 1.806,1.806l8.388,0c0.997,0 1.806,-0.809 1.806,-1.806l0,-8.388Z" style="fill:#545454;"/><path id="_33" serif:id="3" d="M118,37.806c0,-0.997 -0.809,-1.806 -1.806,-1.806l-8.388,0c-0.997,0 -1.806,0.809 -1.806,1.806l0,8.388c0,0.997 0.809,1.806 1.806,1.806l8.388,0c0.997,0 1.806,-0.809 1.806,-1.806l0,-8.388Z" style="fill:#545454;"/><path id="_34" serif:id="3" d="M136,37.806c0,-0.997 -0.809,-1.806 -1.806,-1.806l-8.388,0c-0.997,0 -1.806,0.809 -1.806,1.806l0,8.388c0,0.997 0.809,1.806 1.806,1.806l8.388,0c0.997,0 1.806,-0.809 1.806,-1.806l0,-8.388Z" style="fill:#545454;"/><path id="_35" serif:id="3" d="M154,37.806c0,-0.997 -0.809,-1.806 -1.806,-1.806l-8.388,0c-0.997,0 -1.806,0.809 -1.806,1.806l0,8.388c0,0.997 0.809,1.806 1.806,1.806l8.388,0c0.997,0 1.806,-0.809 1.806,-1.806l0,-8.388Z" style="fill:#545454;"/><path id="_36" serif:id="3" d="M172,37.806c0,-0.997 -0.809,-1.806 -1.806,-1.806l-8.388,0c-0.997,0 -1.806,0.809 -1.806,1.806l0,8.388c0,0.997 0.809,1.806 1.806,1.806l8.388,0c0.997,0 1.806,-0.809 1.806,-1.806l0,-8.388Z" style="fill:#545454;"/><path id="_37" serif:id="3" d="M190,37.806c0,-0.997 -0.809,-1.806 -1.806,-1.806l-8.388,0c-0.997,0 -1.806,0.809 -1.806,1.806l0,8.388c0,0.997 0.809,1.806 1.806,1.806l8.388,0c0.997,0 1.806,-0.809 1.806,-1.806l0,-8.388Z" style="fill:#545454;"/><path id="_38" serif:id="3" d="M208,37.806c0,-0.997 -0.809,-1.806 -1.806,-1.806l-8.388,0c-0.997,0 -1.806,0.809 -1.806,1.806l0,8.388c0,0.997 0.809,1.806 1.806,1.806l8.388,0c0.997,0 1.806,-0.809 1.806,-1.806l0,-8.388Z" style="fill:#545454;"/><path id="_39" serif:id="3" d="M226,37.806c0,-0.997 -0.809,-1.806 -1.806,-1.806l-8.388,0c-0.997,0 -1.806,0.809 -1.806,1.806l0,8.388c0,0.997 0.809,1.806 1.806,1.806l8.388,0c0.997,0 1.806,-0.809 1.806,-1.806l0,-8.388Z" style="fill:#545454;"/><path id="_310" serif:id="3" d="M244,37.806c0,-0.997 -0.809,-1.806 -1.806,-1.806l-8.388,0c-0.997,0 -1.806,0.809 -1.806,1.806l0,8.388c0,0.997 0.809,1.806 1.806,1.806l8.388,0c0.997,0 1.806,-0.809 1.806,-1.806l0,-8.388Z" style="fill:#545454;"/><path id="_311" serif:id="3" d="M262,37.806c0,-0.997 -0.809,-1.806 -1.806,-1.806l-8.388,0c-0.997,0 -1.806,0.809 -1.806,1.806l0,8.388c0,0.997 0.809,1.806 1.806,1.806l8.388,0c0.997,0 1.806,-0.809 1.806,-1.806l0,-8.388Z" style="fill:#545454;"/><path id="_312" serif:id="3" d="M280,37.806c0,-0.997 -0.809,-1.806 -1.806,-1.806l-8.388,0c-0.997,0 -1.806,0.809 -1.806,1.806l-0,8.388c-0,0.997 0.809,1.806 1.806,1.806l8.388,0c0.997,0 1.806,-0.809 1.806,-1.806l0,-8.388Z" style="fill:#545454;"/><path id="_313" serif:id="3" d="M298,37.806c0,-0.997 -0.809,-1.806 -1.806,-1.806l-8.388,0c-0.997,0 -1.806,0.809 -1.806,1.806l-0,8.388c-0,0.997 0.809,1.806 1.806,1.806l8.388,0c0.997,0 1.806,-0.809 1.806,-1.806l0,-8.388Z" style="fill:#545454;"/><path id="_314" serif:id="3" d="M316,37.806c0,-0.997 -0.809,-1.806 -1.806,-1.806l-8.388,0c-0.997,0 -1.806,0.809 -1.806,1.806l-0,8.388c-0,0.997 0.809,1.806 1.806,1.806l8.388,0c0.997,0 1.806,-0.809 1.806,-1.806l0,-8.388Z" style="fill:#545454;"/><path id="_315" serif:id="3" d="M334,37.806c0,-0.997 -0.809,-1.806 -1.806,-1.806l-8.388,0c-0.997,0 -1.806,0.809 -1.806,1.806l-0,8.388c-0,0.997 0.809,1.806 1.806,1.806l8.388,0c0.997,0 1.806,-0.809 1.806,-1.806l0,-8.388Z" style="fill:#545454;"/><path id="_316" serif:id="3" d="M64,55.806c0,-0.997 -0.809,-1.806 -1.806,-1.806l-8.388,-0c-0.997,-0 -1.806,0.809 -1.806,1.806l-0,8.388c-0,0.997 0.809,1.806 1.806,1.806l8.388,0c0.997,0 1.806,-0.809 1.806,-1.806l0,-8.388Z" style="fill:#545454;"/><path id="_317" serif:id="3" d="M82,55.806c0,-0.997 -0.809,-1.806 -1.806,-1.806l-8.388,-0c-0.997,-0 -1.806,0.809 -1.806,1.806l0,8.388c0,0.997 0.809,1.806 1.806,1.806l8.388,0c0.997,0 1.806,-0.809 1.806,-1.806l0,-8.388Z" style="fill:#545454;"/><path id="_318" serif:id="3" d="M100,55.806c0,-0.997 -0.809,-1.806 -1.806,-1.806l-8.388,-0c-0.997,-0 -1.806,0.809 -1.806,1.806l0,8.388c0,0.997 0.809,1.806 1.806,1.806l8.388,0c0.997,0 1.806,-0.809 1.806,-1.806l0,-8.388Z" style="fill:#545454;"/><path id="_319" serif:id="3" d="M118,55.806c0,-0.997 -0.809,-1.806 -1.806,-1.806l-8.388,-0c-0.997,-0 -1.806,0.809 -1.806,1.806l0,8.388c0,0.997 0.809,1.806 1.806,1.806l8.388,0c0.997,0 1.806,-0.809 1.806,-1.806l0,-8.388Z" style="fill:#545454;"/><path id="_320" serif:id="3" d="M136,55.806c0,-0.997 -0.809,-1.806 -1.806,-1.806l-8.388,-0c-0.997,-0 -1.806,0.809 -1.806,1.806l0,8.388c0,0.997 0.809,1.806 1.806,1.806l8.388,0c0.997,0 1.806,-0.809 1.806,-1.806l0,-8.388Z" style="fill:#545454;"/><path id="_321" serif:id="3" d="M154,55.806c0,-0.997 -0.809,-1.806 -1.806,-1.806l-8.388,-0c-0.997,-0 -1.806,0.809 -1.806,1.806l0,8.388c0,0.997 0.809,1.806 1.806,1.806l8.388,0c0.997,0 1.806,-0.809 1.806,-1.806l0,-8.388Z" style="fill:#545454;"/><path id="_322" serif:id="3" d="M172,55.806c0,-0.997 -0.809,-1.806 -1.806,-1.806l-8.388,-0c-0.997,-0 -1.806,0.809 -1.806,1.806l0,8.388c0,0.997 0.809,1.806 1.806,1.806l8.388,0c0.997,0 1.806,-0.809 1.806,-1.806l0,-8.388Z" style="fill:#545454;"/><path id="_323" serif:id="3" d="M190,55.806c0,-0.997 -0.809,-1.806 -1.806,-1.806l-8.388,-0c-0.997,-0 -1.806,0.809 -1.806,1.806l0,8.388c0,0.997 0.809,1.806 1.806,1.806l8.388,0c0.997,0 1.806,-0.809 1.806,-1.806l0,-8.388Z" style="fill:#545454;"/><path id="_324" serif:id="3" d="M208,55.806c0,-0.997 -0.809,-1.806 -1.806,-1.806l-8.388,-0c-0.997,-0 -1.806,0.809 -1.806,1.806l0,8.388c0,0.997 0.809,1.806 1.806,1.806l8.388,0c0.997,0 1.806,-0.809 1.806,-1.806l0,-8.388Z" style="fill:#545454;"/><path id="_325" serif:id="3" d="M226,55.806c0,-0.997 -0.809,-1.806 -1.806,-1.806l-8.388,-0c-0.997,-0 -1.806,0.809 -1.806,1.806l0,8.388c0,0.997 0.809,1.806 1.806,1.806l8.388,0c0.997,0 1.806,-0.809 1.806,-1.806l0,-8.388Z" style="fill:#545454;"/><path id="_326" serif:id="3" d="M244,55.806c0,-0.997 -0.809,-1.806 -1.806,-1.806l-8.388,-0c-0.997,-0 -1.806,0.809 -1.806,1.806l0,8.388c0,0.997 0.809,1.806 1.806,1.806l8.388,0c0.997,0 1.806,-0.809 1.806,-1.806l0,-8.388Z" style="fill:#545454;"/><path id="_327" serif:id="3" d="M262,55.806c0,-0.997 -0.809,-1.806 -1.806,-1.806l-8.388,-0c-0.997,-0 -1.806,0.809 -1.806,1.806l0,8.388c0,0.997 0.809,1.806 1.806,1.806l8.388,0c0.997,0 1.806,-0.809 1.806,-1.806l0,-8.388Z" style="fill:#545454;"/><path id="_328" serif:id="3" d="M280,55.806c0,-0.997 -0.809,-1.806 -1.806,-1.806l-8.388,-0c-0.997,-0 -1.806,0.809 -1.806,1.806l-0,8.388c-0,0.997 0.809,1.806 1.806,1.806l8.388,0c0.997,0 1.806,-0.809 1.806,-1.806l0,-8.388Z" style="fill:#545454;"/><path id="_329" serif:id="3" d="M298,55.806c0,-0.997 -0.809,-1.806 -1.806,-1.806l-8.388,-0c-0.997,-0 -1.806,0.809 -1.806,1.806l-0,8.388c-0,0.997 0.809,1.806 1.806,1.806l8.388,0c0.997,0 1.806,-0.809 1.806,-1.806l0,-8.388Z" style="fill:#545454;"/><path id="_330" serif:id="3" d="M316,55.806c0,-0.997 -0.809,-1.806 -1.806,-1.806l-8.388,-0c-0.997,-0 -1.806,0.809 -1.806,1.806l-0,8.388c-0,0.997 0.809,1.806 1.806,1.806l8.388,0c0.997,0 1.806,-0.809 1.806,-1.806l0,-8.388Z" style="fill:#545454;"/><path id="_331" serif:id="3" d="M334,55.806c0,-0.997 -0.809,-1.806 -1.806,-1.806l-8.388,-0c-0.997,-0 -1.806,0.809 -1.806,1.806l-0,8.388c-0,0.997 0.809,1.806 1.806,1.806l8.388,0c0.997,0 1.806,-0.809 1.806,-1.806l0,-8.388Z" style="fill:#545454;"/><path id="_332" serif:id="3" d="M64,73.806c-0,-0.997 -0.809,-1.806 -1.806,-1.806l-8.388,0c-0.997,0 -1.806,0.809 -1.806,1.806l-0,8.388c-0,0.997 0.809,1.806 1.806,1.806l8.388,0c0.997,0 1.806,-0.809 1.806,-1.806l-0,-8.388Z" style="fill:#545454;"/><path id="_333" serif:id="3" d="M82,73.806c0,-0.997 -0.809,-1.806 -1.806,-1.806l-8.388,0c-0.997,0 -1.806,0.809 -1.806,1.806l0,8.388c0,0.997 0.809,1.806 1.806,1.806l8.388,0c0.997,0 1.806,-0.809 1.806,-1.806l0,-8.388Z" style="fill:#545454;"/><path id="_334" serif:id="3" d="M100,73.806c0,-0.997 -0.809,-1.806 -1.806,-1.806l-8.388,0c-0.997,0 -1.806,0.809 -1.806,1.806l0,8.388c0,0.997 0.809,1.806 1.806,1.806l8.388,0c0.997,0 1.806,-0.809 1.806,-1.806l0,-8.388Z" style="fill:#545454;"/><path id="_335" serif:id="3" d="M118,73.806c0,-0.997 -0.809,-1.806 -1.806,-1.806l-8.388,0c-0.997,0 -1.806,0.809 -1.806,1.806l0,8.388c0,0.997 0.809,1.806 1.806,1.806l8.388,0c0.997,0 1.806,-0.809 1.806,-1.806l0,-8.388Z" style="fill:#545454;"/><path id="_336" serif:id="3" d="M136,73.806c0,-0.997 -0.809,-1.806 -1.806,-1.806l-8.388,0c-0.997,0 -1.806,0.809 -1.806,1.806l0,8.388c0,0.997 0.809,1.806 1.806,1.806l8.388,0c0.997,0 1.806,-0.809 1.806,-1.806l0,-8.388Z" style="fill:#545454;"/><path id="_337" serif:id="3" d="M154,73.806c0,-0.997 -0.809,-1.806 -1.806,-1.806l-8.388,0c-0.997,0 -1.806,0.809 -1.806,1.806l0,8.388c0,0.997 0.809,1.806 1.806,1.806l8.388,0c0.997,0 1.806,-0.809 1.806,-1.806l0,-8.388Z" style="fill:#545454;"/><path id="_338" serif:id="3" d="M172,73.806c0,-0.997 -0.809,-1.806 -1.806,-1.806l-8.388,0c-0.997,0 -1.806,0.809 -1.806,1.806l0,8.388c0,0.997 0.809,1.806 1.806,1.806l8.388,0c0.997,0 1.806,-0.809 1.806,-1.806l0,-8.388Z" style="fill:#545454;"/><path id="_339" serif:id="3" d="M190,73.806c0,-0.997 -0.809,-1.806 -1.806,-1.806l-8.388,0c-0.997,0 -1.806,0.809 -1.806,1.806l0,8.388c0,0.997 0.809,1.806 1.806,1.806l8.388,0c0.997,0 1.806,-0.809 1.806,-1.806l0,-8.388Z" style="fill:#545454;"/><path id="_340" serif:id="3" d="M208,73.806c0,-0.997 -0.809,-1.806 -1.806,-1.806l-8.388,0c-0.997,0 -1.806,0.809 -1.806,1.806l0,8.388c0,0.997 0.809,1.806 1.806,1.806l8.388,0c0.997,0 1.806,-0.809 1.806,-1.806l0,-8.388Z" style="fill:#545454;"/><path id="_341" serif:id="3" d="M226,73.806c0,-0.997 -0.809,-1.806 -1.806,-1.806l-8.388,0c-0.997,0 -1.806,0.809 -1.806,1.806l0,8.388c0,0.997 0.809,1.806 1.806,1.806l8.388,0c0.997,0 1.806,-0.809 1.806,-1.806l0,-8.388Z" style="fill:#545454;"/><path id="_342" serif:id="3" d="M244,73.806c0,-0.997 -0.809,-1.806 -1.806,-1.806l-8.388,0c-0.997,0 -1.806,0.809 -1.806,1.806l0,8.388c0,0.997 0.809,1.806 1.806,1.806l8.388,0c0.997,0 1.806,-0.809 1.806,-1.806l0,-8.388Z" style="fill:#545454;"/><path id="_343" serif:id="3" d="M262,73.806c0,-0.997 -0.809,-1.806 -1.806,-1.806l-8.388,0c-0.997,0 -1.806,0.809 -1.806,1.806l0,8.388c0,0.997 0.809,1.806 1.806,1.806l8.388,0c0.997,0 1.806,-0.809 1.806,-1.806l0,-8.388Z" style="fill:#545454;"/><path id="_344" serif:id="3" d="M280,73.806c0,-0.997 -0.809,-1.806 -1.806,-1.806l-8.388,0c-0.997,0 -1.806,0.809 -1.806,1.806l-0,8.388c-0,0.997 0.809,1.806 1.806,1.806l8.388,0c0.997,0 1.806,-0.809 1.806,-1.806l0,-8.388Z" style="fill:#545454;"/><path id="_345" serif:id="3" d="M298,73.806c0,-0.997 -0.809,-1.806 -1.806,-1.806l-8.388,0c-0.997,0 -1.806,0.809 -1.806,1.806l-0,8.388c-0,0.997 0.809,1.806 1.806,1.806l8.388,0c0.997,0 1.806,-0.809 1.806,-1.806l0,-8.388Z" style="fill:#545454;"/><path id="_346" serif:id="3" d="M316,73.806c0,-0.997 -0.809,-1.806 -1.806,-1.806l-8.388,0c-0.997,0 -1.806,0.809 -1.806,1.806l-0,8.388c-0,0.997 0.809,1.806 1.806,1.806l8.388,0c0.997,0 1.806,-0.809 1.806,-1.806l0,-8.388Z" style="fill:#545454;"/><path id="_347" serif:id="3" d="M334,73.806c0,-0.997 -0.809,-1.806 -1.806,-1.806l-8.388,0c-0.997,0 -1.806,0.809 -1.806,1.806l-0,8.388c-0,0.997 0.809,1.806 1.806,1.806l8.388,0c0.997,0 1.806,-0.809 1.806,-1.806l0,-8.388Z" style="fill:#545454;"/><path id="_348" serif:id="3" d="M64,91.806c-0,-0.997 -0.809,-1.806 -1.806,-1.806l-8.388,0c-0.997,0 -1.806,0.809 -1.806,1.806l-0,8.388c-0,0.997 0.809,1.806 1.806,1.806l8.388,0c0.997,0 1.806,-0.809 1.806,-1.806l-0,-8.388Z" style="fill:#545454;"/><path id="_349" serif:id="3" d="M82,91.806c0,-0.997 -0.809,-1.806 -1.806,-1.806l-8.388,0c-0.997,0 -1.806,0.809 -1.806,1.806l0,8.388c0,0.997 0.809,1.806 1.806,1.806l8.388,0c0.997,0 1.806,-0.809 1.806,-1.806l0,-8.388Z" style="fill:#545454;"/><path id="_350" serif:id="3" d="M100,91.806c0,-0.997 -0.809,-1.806 -1.806,-1.806l-8.388,0c-0.997,0 -1.806,0.809 -1.806,1.806l0,8.388c0,0.997 0.809,1.806 1.806,1.806l8.388,0c0.997,0 1.806,-0.809 1.806,-1.806l0,-8.388Z" style="fill:#545454;"/><path id="_351" serif:id="3" d="M118,91.806c0,-0.997 -0.809,-1.806 -1.806,-1.806l-8.388,0c-0.997,0 -1.806,0.809 -1.806,1.806l0,8.388c0,0.997 0.809,1.806 1.806,1.806l8.388,0c0.997,0 1.806,-0.809 1.806,-1.806l0,-8.388Z" style="fill:#545454;"/><path id="_352" serif:id="3" d="M136,91.806c0,-0.997 -0.809,-1.806 -1.806,-1.806l-8.388,0c-0.997,0 -1.806,0.809 -1.806,1.806l0,8.388c0,0.997 0.809,1.806 1.806,1.806l8.388,0c0.997,0 1.806,-0.809 1.806,-1.806l0,-8.388Z" style="fill:#545454;"/><path id="_353" serif:id="3" d="M154,91.806c0,-0.997 -0.809,-1.806 -1.806,-1.806l-8.388,0c-0.997,0 -1.806,0.809 -1.806,1.806l0,8.388c0,0.997 0.809,1.806 1.806,1.806l8.388,0c0.997,0 1.806,-0.809 1.806,-1.806l0,-8.388Z" style="fill:#545454;"/><path id="_354" serif:id="3" d="M172,91.806c0,-0.997 -0.809,-1.806 -1.806,-1.806l-8.388,0c-0.997,0 -1.806,0.809 -1.806,1.806l0,8.388c0,0.997 0.809,1.806 1.806,1.806l8.388,0c0.997,0 1.806,-0.809 1.806,-1.806l0,-8.388Z" style="fill:#545454;"/><path id="_355" serif:id="3" d="M190,91.806c0,-0.997 -0.809,-1.806 -1.806,-1.806l-8.388,0c-0.997,0 -1.806,0.809 -1.806,1.806l0,8.388c0,0.997 0.809,1.806 1.806,1.806l8.388,0c0.997,0 1.806,-0.809 1.806,-1.806l0,-8.388Z" style="fill:#545454;"/><path id="_356" serif:id="3" d="M208,91.806c0,-0.997 -0.809,-1.806 -1.806,-1.806l-8.388,0c-0.997,0 -1.806,0.809 -1.806,1.806l0,8.388c0,0.997 0.809,1.806 1.806,1.806l8.388,0c0.997,0 1.806,-0.809 1.806,-1.806l0,-8.388Z" style="fill:#545454;"/><path id="_357" serif:id="3" d="M226,91.806c0,-0.997 -0.809,-1.806 -1.806,-1.806l-8.388,0c-0.997,0 -1.806,0.809 -1.806,1.806l0,8.388c0,0.997 0.809,1.806 1.806,1.806l8.388,0c0.997,0 1.806,-0.809 1.806,-1.806l0,-8.388Z" style="fill:#545454;"/><path id="_358" serif:id="3" d="M244,91.806c0,-0.997 -0.809,-1.806 -1.806,-1.806l-8.388,0c-0.997,0 -1.806,0.809 -1.806,1.806l0,8.388c0,0.997 0.809,1.806 1.806,1.806l8.388,0c0.997,0 1.806,-0.809 1.806,-1.806l0,-8.388Z" style="fill:#545454;"/><path id="_359" serif:id="3" d="M262,91.806c0,-0.997 -0.809,-1.806 -1.806,-1.806l-8.388,0c-0.997,0 -1.806,0.809 -1.806,1.806l0,8.388c0,0.997 0.809,1.806 1.806,1.806l8.388,0c0.997,0 1.806,-0.809 1.806,-1.806l0,-8.388Z" style="fill:#545454;"/><path id="_360" serif:id="3" d="M280,91.806c0,-0.997 -0.809,-1.806 -1.806,-1.806l-8.388,0c-0.997,0 -1.806,0.809 -1.806,1.806l-0,8.388c-0,0.997 0.809,1.806 1.806,1.806l8.388,0c0.997,0 1.806,-0.809 1.806,-1.806l0,-8.388Z" style="fill:#545454;"/><path id="_361" serif:id="3" d="M298,91.806c0,-0.997 -0.809,-1.806 -1.806,-1.806l-8.388,0c-0.997,0 -1.806,0.809 -1.806,1.806l-0,8.388c-0,0.997 0.809,1.806 1.806,1.806l8.388,0c0.997,0 1.806,-0.809 1.806,-1.806l0,-8.388Z" style="fill:#545454;"/><path id="_362" serif:id="3" d="M316,91.806c0,-0.997 -0.809,-1.806 -1.806,-1.806l-8.388,0c-0.997,0 -1.806,0.809 -1.806,1.806l-0,8.388c-0,0.997 0.809,1.806 1.806,1.806l8.388,0c0.997,0 1.806,-0.809 1.806,-1.806l0,-8.388Z" style="fill:#545454;"/><path id="_363" serif:id="3" d="M334,91.806c0,-0.997 -0.809,-1.806 -1.806,-1.806l-8.388,0c-0.997,0 -1.806,0.809 -1.806,1.806l-0,8.388c-0,0.997 0.809,1.806 1.806,1.806l8.388,0c0.997,0 1.806,-0.809 1.806,-1.806l0,-8.388Z" style="fill:#545454;"/></g><g transform="matrix(1,0,0,1,64.3753,-90.2404)"><g transform="matrix(10,0,0,10,-51.6429,193.473)"><path d="M0.436,-0.14c0,-0.011 -0.002,-0.021 -0.006,-0.029c-0.005,-0.009 -0.012,-0.017 -0.022,-0.024c-0.01,-0.007 -0.023,-0.014 -0.04,-0.02c-0.016,-0.006 -0.037,-0.011 -0.062,-0.016c-0.03,-0.006 -0.058,-0.014 -0.083,-0.022c-0.025,-0.009 -0.046,-0.02 -0.064,-0.032c-0.017,-0.012 -0.031,-0.026 -0.041,-0.043c-0.01,-0.016 -0.014,-0.035 -0.014,-0.057c-0,-0.022 0.005,-0.042 0.015,-0.061c0.01,-0.018 0.024,-0.035 0.042,-0.049c0.018,-0.014 0.04,-0.025 0.065,-0.033c0.026,-0.008 0.053,-0.012 0.084,-0.012c0.032,-0 0.061,0.004 0.087,0.013c0.027,0.008 0.049,0.02 0.067,0.035c0.018,0.015 0.032,0.032 0.042,0.052c0.01,0.02 0.015,0.042 0.015,0.065l-0.09,-0c-0,-0.011 -0.003,-0.023 -0.009,-0.033c-0.006,-0.011 -0.014,-0.021 -0.025,-0.03c-0.01,-0.008 -0.023,-0.015 -0.037,-0.02c-0.015,-0.005 -0.032,-0.008 -0.05,-0.008c-0.02,0 -0.036,0.002 -0.051,0.006c-0.014,0.005 -0.026,0.01 -0.036,0.018c-0.01,0.007 -0.017,0.015 -0.022,0.024c-0.005,0.01 -0.007,0.02 -0.007,0.03c-0,0.01 0.002,0.019 0.006,0.028c0.004,0.008 0.01,0.015 0.02,0.022c0.01,0.006 0.022,0.012 0.039,0.017c0.016,0.005 0.036,0.01 0.061,0.015c0.032,0.007 0.062,0.015 0.087,0.024c0.026,0.009 0.048,0.02 0.065,0.032c0.018,0.013 0.031,0.027 0.04,0.044c0.01,0.016 0.014,0.036 0.014,0.058c0,0.023 -0.005,0.044 -0.016,0.063c-0.01,0.02 -0.025,0.036 -0.044,0.05c-0.019,0.013 -0.041,0.024 -0.068,0.032c-0.026,0.007 -0.055,0.011 -0.086,0.011c-0.036,-0 -0.068,-0.005 -0.096,-0.015c-0.028,-0.009 -0.051,-0.022 -0.071,-0.038c-0.019,-0.016 -0.034,-0.034 -0.044,-0.055c-0.01,-0.02 -0.016,-0.042 -0.016,-0.065l0.091,0c0.001,0.019 0.006,0.035 0.015,0.047c0.008,0.013 0.019,0.023 0.032,0.031c0.013,0.008 0.027,0.013 0.043,0.017c0.015,0.003 0.031,0.005 0.046,0.005c0.038,-0 0.068,-0.007 0.09,-0.021c0.022,-0.014 0.034,-0.033 0.034,-0.056Z" style="fill:#fff;fill-rule:nonzero;"/></g><g transform="matrix(10,0,0,10,-45.6419,193.473)"><path d="M0.299,-0.656l-0,0.128l0.201,-0l0,0.07l-0.201,-0l-0,0.287c-0,0.02 0.002,0.037 0.008,0.05c0.005,0.014 0.012,0.024 0.021,0.032c0.009,0.008 0.02,0.014 0.032,0.017c0.012,0.003 0.024,0.005 0.037,0.005c0.01,0 0.02,-0 0.031,-0.002c0.01,-0.001 0.02,-0.002 0.03,-0.004c0.01,-0.001 0.019,-0.003 0.028,-0.005c0.009,-0.002 0.016,-0.003 0.021,-0.005l0.013,0.064c-0.007,0.005 -0.017,0.009 -0.027,0.012c-0.011,0.004 -0.023,0.007 -0.035,0.009c-0.013,0.003 -0.027,0.005 -0.041,0.006c-0.014,0.001 -0.028,0.002 -0.042,0.002c-0.023,-0 -0.045,-0.004 -0.066,-0.01c-0.02,-0.007 -0.038,-0.017 -0.053,-0.032c-0.015,-0.014 -0.026,-0.033 -0.035,-0.056c-0.009,-0.023 -0.013,-0.051 -0.013,-0.083l0,-0.287l-0.139,-0l0,-0.07l0.139,-0l0,-0.128l0.091,-0Z" style="fill:#fff;fill-rule:nonzero;"/></g><g transform="matrix(10,0,0,10,-39.641,193.473)"><path d="M0.318,0.01c-0.037,-0 -0.071,-0.007 -0.102,-0.019c-0.031,-0.013 -0.058,-0.031 -0.08,-0.054c-0.022,-0.022 -0.039,-0.049 -0.052,-0.081c-0.012,-0.031 -0.018,-0.065 -0.018,-0.102l-0,-0.02c-0,-0.043 0.007,-0.081 0.02,-0.115c0.014,-0.033 0.032,-0.062 0.055,-0.085c0.022,-0.023 0.048,-0.041 0.077,-0.054c0.029,-0.012 0.058,-0.018 0.089,-0.018c0.038,-0 0.071,0.007 0.099,0.02c0.029,0.013 0.053,0.031 0.072,0.054c0.018,0.024 0.032,0.051 0.042,0.083c0.009,0.031 0.014,0.065 0.014,0.102l-0,0.041l-0.378,-0c0.001,0.024 0.006,0.046 0.014,0.068c0.008,0.021 0.02,0.039 0.034,0.055c0.015,0.016 0.032,0.028 0.052,0.037c0.021,0.009 0.043,0.014 0.067,0.014c0.032,0 0.061,-0.006 0.086,-0.019c0.025,-0.014 0.046,-0.031 0.063,-0.052l0.055,0.043c-0.009,0.013 -0.02,0.026 -0.033,0.038c-0.013,0.012 -0.029,0.023 -0.046,0.033c-0.017,0.009 -0.037,0.017 -0.058,0.022c-0.022,0.006 -0.046,0.009 -0.072,0.009Zm-0.011,-0.474c-0.019,0 -0.036,0.003 -0.052,0.01c-0.016,0.007 -0.031,0.017 -0.044,0.029c-0.013,0.013 -0.024,0.029 -0.033,0.048c-0.009,0.019 -0.015,0.04 -0.019,0.065l0.284,-0.001l0,-0.006c-0.001,-0.018 -0.004,-0.035 -0.01,-0.053c-0.005,-0.017 -0.014,-0.032 -0.025,-0.046c-0.011,-0.014 -0.025,-0.025 -0.042,-0.033c-0.016,-0.009 -0.036,-0.013 -0.059,-0.013Z" style="fill:#fff;fill-rule:nonzero;"/></g><g transform="matrix(10,0,0,10,-33.64,193.473)"><path d="M0.531,-0.258c-0,0.037 -0.005,0.073 -0.014,0.105c-0.009,0.033 -0.022,0.062 -0.04,0.086c-0.018,0.024 -0.039,0.043 -0.065,0.056c-0.026,0.014 -0.056,0.021 -0.089,0.021c-0.032,-0 -0.06,-0.005 -0.085,-0.016c-0.025,-0.01 -0.046,-0.025 -0.063,-0.045l-0,0.254l-0.091,0l0,-0.731l0.083,-0l0.004,0.057c0.018,-0.022 0.039,-0.038 0.064,-0.05c0.025,-0.011 0.054,-0.017 0.087,-0.017c0.034,-0 0.064,0.007 0.09,0.02c0.026,0.013 0.047,0.032 0.065,0.056c0.018,0.023 0.031,0.052 0.04,0.085c0.009,0.033 0.014,0.069 0.014,0.108l-0,0.011Zm-0.091,-0.011c0,-0.025 -0.002,-0.05 -0.008,-0.073c-0.006,-0.023 -0.015,-0.044 -0.026,-0.062c-0.012,-0.017 -0.027,-0.031 -0.046,-0.042c-0.018,-0.01 -0.04,-0.015 -0.065,-0.015c-0.029,-0 -0.053,0.006 -0.073,0.02c-0.02,0.013 -0.035,0.031 -0.047,0.052l-0,0.254c0.012,0.021 0.027,0.038 0.047,0.051c0.019,0.013 0.044,0.02 0.074,0.02c0.025,0 0.047,-0.005 0.065,-0.016c0.018,-0.01 0.033,-0.025 0.045,-0.043c0.011,-0.017 0.02,-0.038 0.026,-0.062c0.006,-0.023 0.008,-0.048 0.008,-0.073l0,-0.011Z" style="fill:#fff;fill-rule:nonzero;"/></g><g transform="matrix(10,0,0,10,-27.639,193.473)"><path d="M0.436,-0.14c0,-0.011 -0.002,-0.021 -0.006,-0.029c-0.005,-0.009 -0.012,-0.017 -0.022,-0.024c-0.01,-0.007 -0.023,-0.014 -0.04,-0.02c-0.016,-0.006 -0.037,-0.011 -0.062,-0.016c-0.03,-0.006 -0.058,-0.014 -0.083,-0.022c-0.025,-0.009 -0.046,-0.02 -0.064,-0.032c-0.017,-0.012 -0.031,-0.026 -0.041,-0.043c-0.01,-0.016 -0.014,-0.035 -0.014,-0.057c-0,-0.022 0.005,-0.042 0.015,-0.061c0.01,-0.018 0.024,-0.035 0.042,-0.049c0.018,-0.014 0.04,-0.025 0.065,-0.033c0.026,-0.008 0.053,-0.012 0.084,-0.012c0.032,-0 0.061,0.004 0.087,0.013c0.027,0.008 0.049,0.02 0.067,0.035c0.018,0.015 0.032,0.032 0.042,0.052c0.01,0.02 0.015,0.042 0.015,0.065l-0.09,-0c-0,-0.011 -0.003,-0.023 -0.009,-0.033c-0.006,-0.011 -0.014,-0.021 -0.025,-0.03c-0.01,-0.008 -0.023,-0.015 -0.037,-0.02c-0.015,-0.005 -0.032,-0.008 -0.05,-0.008c-0.02,0 -0.036,0.002 -0.051,0.006c-0.014,0.005 -0.026,0.01 -0.036,0.018c-0.01,0.007 -0.017,0.015 -0.022,0.024c-0.005,0.01 -0.007,0.02 -0.007,0.03c-0,0.01 0.002,0.019 0.006,0.028c0.004,0.008 0.01,0.015 0.02,0.022c0.01,0.006 0.022,0.012 0.039,0.017c0.016,0.005 0.036,0.01 0.061,0.015c0.032,0.007 0.062,0.015 0.087,0.024c0.026,0.009 0.048,0.02 0.065,0.032c0.018,0.013 0.031,0.027 0.04,0.044c0.01,0.016 0.014,0.036 0.014,0.058c0,0.023 -0.005,0.044 -0.016,0.063c-0.01,0.02 -0.025,0.036 -0.044,0.05c-0.019,0.013 -0.041,0.024 -0.068,0.032c-0.026,0.007 -0.055,0.011 -0.086,0.011c-0.036,-0 -0.068,-0.005 -0.096,-0.015c-0.028,-0.009 -0.051,-0.022 -0.071,-0.038c-0.019,-0.016 -0.034,-0.034 -0.044,-0.055c-0.01,-0.02 -0.016,-0.042 -0.016,-0.065l0.091,0c0.001,0.019 0.006,0.035 0.015,0.047c0.008,0.013 0.019,0.023 0.032,0.031c0.013,0.008 0.027,0.013 0.043,0.017c0.015,0.003 0.031,0.005 0.046,0.005c0.038,-0 0.068,-0.007 0.09,-0.021c0.022,-0.014 0.034,-0.033 0.034,-0.056Z" style="fill:#fff;fill-rule:nonzero;"/></g><g transform="matrix(10,0,0,10,-45.6444,203.473)"><path d="M0.378,-0l-0.09,-0l-0,-0.596l-0.186,0.071l-0,-0.082l0.269,-0.104l0.007,0l-0,0.711Z" style="fill:#fff;fill-rule:nonzero;"/></g><g transform="matrix(10,0,0,10,-39.6434,203.473)"><rect x="0.106" y="-0.348" width="0.374" height="0.074" style="fill:#fff;fill-rule:nonzero;"/></g><g transform="matrix(10,0,0,10,-33.6375,203.473)"><path d="M0.522,-0.525c0,0.035 -0.009,0.067 -0.028,0.094c-0.019,0.028 -0.044,0.05 -0.076,0.065c0.018,0.008 0.035,0.018 0.05,0.029c0.014,0.012 0.027,0.025 0.038,0.04c0.01,0.015 0.018,0.031 0.024,0.049c0.006,0.018 0.009,0.036 0.009,0.056c-0,0.032 -0.006,0.061 -0.018,0.086c-0.012,0.025 -0.028,0.046 -0.049,0.063c-0.02,0.017 -0.044,0.03 -0.071,0.039c-0.027,0.009 -0.057,0.014 -0.088,0.014c-0.032,-0 -0.062,-0.005 -0.089,-0.013c-0.028,-0.009 -0.052,-0.022 -0.072,-0.039c-0.02,-0.017 -0.036,-0.038 -0.048,-0.063c-0.012,-0.026 -0.018,-0.054 -0.018,-0.087c0,-0.02 0.003,-0.039 0.009,-0.056c0.005,-0.018 0.013,-0.034 0.024,-0.049c0.01,-0.015 0.023,-0.028 0.037,-0.04c0.015,-0.012 0.031,-0.021 0.05,-0.029c-0.016,-0.008 -0.03,-0.017 -0.043,-0.028c-0.013,-0.011 -0.023,-0.023 -0.032,-0.037c-0.009,-0.013 -0.016,-0.028 -0.021,-0.044c-0.005,-0.016 -0.007,-0.033 -0.007,-0.05c0,-0.031 0.005,-0.059 0.016,-0.083c0.01,-0.024 0.024,-0.045 0.043,-0.061c0.018,-0.017 0.04,-0.03 0.066,-0.039c0.025,-0.008 0.053,-0.013 0.084,-0.013c0.029,0 0.057,0.005 0.083,0.013c0.026,0.009 0.048,0.022 0.067,0.039c0.019,0.016 0.034,0.037 0.044,0.061c0.011,0.024 0.016,0.052 0.016,0.083Zm-0.074,0.331c0,-0.02 -0.003,-0.038 -0.01,-0.055c-0.006,-0.016 -0.016,-0.03 -0.028,-0.042c-0.012,-0.012 -0.026,-0.021 -0.043,-0.028c-0.017,-0.006 -0.035,-0.01 -0.055,-0.01c-0.02,0 -0.039,0.004 -0.056,0.01c-0.016,0.007 -0.03,0.016 -0.042,0.028c-0.012,0.012 -0.021,0.026 -0.027,0.042c-0.007,0.017 -0.01,0.035 -0.01,0.055c0,0.021 0.003,0.039 0.01,0.055c0.006,0.016 0.015,0.03 0.027,0.041c0.012,0.011 0.026,0.019 0.043,0.025c0.016,0.006 0.035,0.009 0.056,0.009c0.02,0 0.038,-0.003 0.055,-0.009c0.016,-0.006 0.031,-0.014 0.042,-0.025c0.012,-0.011 0.022,-0.025 0.028,-0.041c0.007,-0.016 0.01,-0.034 0.01,-0.055Zm-0.016,-0.33c-0,-0.018 -0.003,-0.034 -0.009,-0.049c-0.006,-0.015 -0.015,-0.028 -0.025,-0.039c-0.011,-0.011 -0.023,-0.019 -0.038,-0.025c-0.015,-0.006 -0.031,-0.009 -0.048,-0.009c-0.018,-0 -0.034,0.002 -0.048,0.008c-0.015,0.006 -0.027,0.014 -0.037,0.025c-0.011,0.01 -0.019,0.023 -0.025,0.039c-0.005,0.015 -0.008,0.032 -0.008,0.05c-0,0.019 0.003,0.035 0.008,0.05c0.006,0.015 0.014,0.028 0.025,0.038c0.01,0.011 0.023,0.019 0.037,0.025c0.015,0.005 0.031,0.008 0.048,0.008c0.018,0 0.034,-0.003 0.048,-0.008c0.015,-0.006 0.028,-0.014 0.038,-0.025c0.011,-0.01 0.019,-0.023 0.025,-0.038c0.006,-0.015 0.009,-0.032 0.009,-0.05Z" style="fill:#fff;fill-rule:nonzero;"/></g></g><path d="M147.254,26.018c-0.371,-0 -0.712,-0.064 -1.023,-0.191c-0.311,-0.127 -0.577,-0.304 -0.798,-0.532c-0.222,-0.228 -0.394,-0.498 -0.518,-0.811c-0.124,-0.312 -0.186,-0.652 -0.186,-1.02l0,-0.205c0,-0.427 0.069,-0.808 0.206,-1.145c0.136,-0.337 0.318,-0.622 0.544,-0.855c0.226,-0.232 0.483,-0.411 0.771,-0.534c0.289,-0.124 0.584,-0.186 0.887,-0.186c0.381,0 0.713,0.066 0.998,0.198c0.285,0.132 0.522,0.314 0.711,0.547c0.189,0.232 0.329,0.507 0.422,0.822c0.093,0.316 0.139,0.658 0.139,1.026l0,0.405l-3.774,0c0.01,0.241 0.056,0.467 0.139,0.679c0.083,0.211 0.197,0.396 0.342,0.554c0.145,0.158 0.318,0.282 0.52,0.374c0.202,0.091 0.425,0.136 0.669,0.136c0.322,0 0.608,-0.065 0.859,-0.195c0.251,-0.13 0.459,-0.303 0.625,-0.518l0.552,0.43c-0.088,0.134 -0.198,0.261 -0.33,0.383c-0.132,0.122 -0.284,0.231 -0.456,0.325c-0.173,0.094 -0.368,0.17 -0.586,0.227c-0.218,0.057 -0.456,0.086 -0.713,0.086Zm-0.117,-4.737c-0.183,0 -0.355,0.034 -0.518,0.1c-0.163,0.067 -0.309,0.165 -0.439,0.293c-0.131,0.129 -0.24,0.287 -0.33,0.474c-0.089,0.187 -0.152,0.403 -0.188,0.647l2.842,-0l-0,-0.068c-0.01,-0.176 -0.043,-0.35 -0.1,-0.523c-0.057,-0.172 -0.141,-0.327 -0.252,-0.464c-0.11,-0.136 -0.249,-0.247 -0.417,-0.332c-0.168,-0.084 -0.367,-0.127 -0.598,-0.127Z" style="fill:#fff;fill-rule:nonzero;"/><path d="M152.991,24.621l0.083,0.327l0.088,-0.327l1.48,-3.984l0.922,-0l-2.153,5.283l-0.688,-0l-2.173,-5.283l0.928,-0l1.513,3.984Z" style="fill:#fff;fill-rule:nonzero;"/><path d="M159.256,26.018c-0.371,-0 -0.712,-0.064 -1.023,-0.191c-0.311,-0.127 -0.577,-0.304 -0.798,-0.532c-0.222,-0.228 -0.394,-0.498 -0.518,-0.811c-0.124,-0.312 -0.186,-0.652 -0.186,-1.02l0,-0.205c0,-0.427 0.069,-0.808 0.206,-1.145c0.136,-0.337 0.318,-0.622 0.544,-0.855c0.226,-0.232 0.483,-0.411 0.771,-0.534c0.289,-0.124 0.584,-0.186 0.887,-0.186c0.381,0 0.713,0.066 0.998,0.198c0.285,0.132 0.522,0.314 0.711,0.547c0.188,0.232 0.329,0.507 0.422,0.822c0.093,0.316 0.139,0.658 0.139,1.026l0,0.405l-3.774,0c0.01,0.241 0.056,0.467 0.139,0.679c0.083,0.211 0.197,0.396 0.342,0.554c0.145,0.158 0.318,0.282 0.52,0.374c0.202,0.091 0.425,0.136 0.669,0.136c0.322,0 0.608,-0.065 0.859,-0.195c0.251,-0.13 0.459,-0.303 0.625,-0.518l0.552,0.43c-0.088,0.134 -0.198,0.261 -0.33,0.383c-0.132,0.122 -0.284,0.231 -0.456,0.325c-0.173,0.094 -0.368,0.17 -0.586,0.227c-0.218,0.057 -0.456,0.086 -0.713,0.086Zm-0.117,-4.737c-0.183,0 -0.355,0.034 -0.518,0.1c-0.163,0.067 -0.309,0.165 -0.439,0.293c-0.131,0.129 -0.24,0.287 -0.33,0.474c-0.089,0.187 -0.152,0.403 -0.188,0.647l2.842,-0l-0,-0.068c-0.01,-0.176 -0.043,-0.35 -0.1,-0.523c-0.057,-0.172 -0.141,-0.327 -0.252,-0.464c-0.11,-0.136 -0.25,-0.247 -0.417,-0.332c-0.168,-0.084 -0.367,-0.127 -0.598,-0.127Z" style="fill:#fff;fill-rule:nonzero;"/><path d="M163.733,20.637l0.064,0.781c0.192,-0.273 0.428,-0.487 0.708,-0.642c0.28,-0.155 0.592,-0.234 0.937,-0.237c0.277,0 0.529,0.039 0.755,0.117c0.226,0.078 0.419,0.2 0.578,0.366c0.16,0.166 0.283,0.377 0.369,0.633c0.086,0.255 0.129,0.559 0.129,0.91l0,3.355l-0.903,-0l0,-3.335c0,-0.234 -0.026,-0.433 -0.078,-0.596c-0.052,-0.163 -0.129,-0.294 -0.232,-0.395c-0.102,-0.101 -0.228,-0.174 -0.376,-0.22c-0.148,-0.046 -0.318,-0.068 -0.51,-0.068c-0.303,-0 -0.569,0.075 -0.799,0.227c-0.229,0.151 -0.412,0.35 -0.549,0.598l0,3.789l-0.903,-0l-0,-5.283l0.81,-0Z" style="fill:#fff;fill-rule:nonzero;"/><path d="M171.063,19.357l-0.001,1.28l2.012,-0l0,0.698l-2.012,-0l0,2.871c0,0.205 0.027,0.374 0.079,0.508c0.052,0.133 0.123,0.24 0.214,0.32c0.092,0.079 0.197,0.136 0.315,0.168c0.119,0.033 0.245,0.049 0.379,0.049c0.097,-0 0.198,-0.006 0.303,-0.017c0.104,-0.012 0.205,-0.025 0.305,-0.042c0.099,-0.016 0.192,-0.033 0.278,-0.051c0.086,-0.018 0.157,-0.033 0.212,-0.046l0.127,0.639c-0.074,0.046 -0.166,0.086 -0.273,0.12c-0.107,0.034 -0.225,0.063 -0.352,0.088c-0.127,0.024 -0.261,0.043 -0.402,0.056c-0.142,0.013 -0.283,0.02 -0.423,0.02c-0.234,-0 -0.453,-0.034 -0.657,-0.101c-0.203,-0.066 -0.38,-0.172 -0.529,-0.317c-0.15,-0.145 -0.268,-0.332 -0.354,-0.561c-0.087,-0.23 -0.13,-0.507 -0.13,-0.833l0,-2.871l-1.386,-0l-0,-0.698l1.386,-0l0,-1.28l0.909,0Z" style="fill:#fff;fill-rule:nonzero;"/><path d="M181.067,18.42l2.701,-0l-0,6.719l1.723,-0l0,0.781l-4.424,-0l0,-0.781l1.797,-0l0,-5.933l-1.797,0l0,-0.786Z" style="fill:#fff;fill-rule:nonzero;"/><path d="M190.398,25.92c-0.035,-0.068 -0.064,-0.154 -0.085,-0.256c-0.021,-0.103 -0.037,-0.21 -0.046,-0.32c-0.092,0.091 -0.193,0.177 -0.306,0.259c-0.112,0.081 -0.236,0.153 -0.371,0.214c-0.135,0.062 -0.279,0.111 -0.432,0.147c-0.153,0.036 -0.316,0.054 -0.488,0.054c-0.28,-0 -0.533,-0.041 -0.759,-0.122c-0.227,-0.082 -0.419,-0.192 -0.577,-0.33c-0.157,-0.138 -0.279,-0.303 -0.366,-0.493c-0.086,-0.191 -0.129,-0.397 -0.129,-0.618c-0,-0.29 0.058,-0.544 0.173,-0.762c0.116,-0.218 0.279,-0.399 0.491,-0.544c0.212,-0.145 0.466,-0.253 0.764,-0.325c0.298,-0.071 0.631,-0.107 0.999,-0.107l0.986,-0l-0,-0.415c-0,-0.16 -0.029,-0.303 -0.088,-0.43c-0.059,-0.127 -0.142,-0.235 -0.249,-0.325c-0.107,-0.089 -0.238,-0.158 -0.393,-0.207c-0.155,-0.049 -0.328,-0.073 -0.52,-0.073c-0.179,-0 -0.339,0.022 -0.481,0.068c-0.142,0.046 -0.261,0.106 -0.359,0.181c-0.098,0.074 -0.173,0.163 -0.227,0.266c-0.054,0.102 -0.081,0.209 -0.081,0.32l-0.908,-0c0.004,-0.192 0.053,-0.381 0.149,-0.567c0.096,-0.185 0.235,-0.352 0.415,-0.5c0.181,-0.148 0.401,-0.268 0.659,-0.359c0.259,-0.091 0.553,-0.137 0.882,-0.137c0.299,0 0.578,0.037 0.835,0.11c0.257,0.073 0.479,0.184 0.666,0.332c0.187,0.148 0.335,0.333 0.442,0.554c0.108,0.222 0.161,0.48 0.161,0.777l0,2.456c0,0.175 0.017,0.362 0.049,0.559c0.033,0.197 0.078,0.368 0.137,0.515l-0,0.078l-0.943,-0Zm-1.596,-0.689c0.176,0 0.34,-0.022 0.493,-0.068c0.153,-0.045 0.292,-0.106 0.417,-0.181c0.126,-0.074 0.234,-0.16 0.325,-0.256c0.091,-0.096 0.163,-0.196 0.215,-0.3l-0,-1.07l-0.84,0c-0.527,0 -0.937,0.079 -1.23,0.235c-0.293,0.156 -0.44,0.402 -0.44,0.737c0,0.13 0.022,0.251 0.066,0.361c0.044,0.111 0.11,0.206 0.198,0.286c0.088,0.08 0.198,0.143 0.332,0.188c0.133,0.046 0.288,0.068 0.464,0.068Z" style="fill:#fff;fill-rule:nonzero;"/><path d="M193.738,20.637l0.064,0.781c0.192,-0.273 0.428,-0.487 0.708,-0.642c0.28,-0.155 0.592,-0.234 0.937,-0.237c0.277,0 0.528,0.039 0.755,0.117c0.226,0.078 0.419,0.2 0.578,0.366c0.16,0.166 0.283,0.377 0.369,0.633c0.086,0.255 0.129,0.559 0.129,0.91l0,3.355l-0.903,-0l0,-3.335c0,-0.234 -0.026,-0.433 -0.078,-0.596c-0.052,-0.163 -0.13,-0.294 -0.232,-0.395c-0.103,-0.101 -0.228,-0.174 -0.376,-0.22c-0.148,-0.046 -0.318,-0.068 -0.51,-0.068c-0.303,-0 -0.569,0.075 -0.799,0.227c-0.229,0.151 -0.412,0.35 -0.549,0.598l0,3.789l-0.903,-0l-0,-5.283l0.81,-0Z" style="fill:#fff;fill-rule:nonzero;"/><path d="M201.263,26.018c-0.371,-0 -0.712,-0.064 -1.023,-0.191c-0.311,-0.127 -0.577,-0.304 -0.799,-0.532c-0.221,-0.228 -0.393,-0.498 -0.517,-0.811c-0.124,-0.312 -0.186,-0.652 -0.186,-1.02l0,-0.205c0,-0.427 0.069,-0.808 0.205,-1.145c0.137,-0.337 0.319,-0.622 0.545,-0.855c0.226,-0.232 0.483,-0.411 0.771,-0.534c0.288,-0.124 0.584,-0.186 0.887,-0.186c0.38,0 0.713,0.066 0.998,0.198c0.285,0.132 0.522,0.314 0.71,0.547c0.189,0.232 0.33,0.507 0.423,0.822c0.093,0.316 0.139,0.658 0.139,1.026l0,0.405l-3.774,0c0.009,0.241 0.056,0.467 0.139,0.679c0.083,0.211 0.197,0.396 0.342,0.554c0.144,0.158 0.318,0.282 0.52,0.374c0.201,0.091 0.424,0.136 0.669,0.136c0.322,0 0.608,-0.065 0.859,-0.195c0.251,-0.13 0.459,-0.303 0.625,-0.518l0.552,0.43c-0.088,0.134 -0.198,0.261 -0.33,0.383c-0.132,0.122 -0.284,0.231 -0.456,0.325c-0.173,0.094 -0.368,0.17 -0.586,0.227c-0.219,0.057 -0.456,0.086 -0.713,0.086Zm-0.117,-4.737c-0.183,0 -0.355,0.034 -0.518,0.1c-0.163,0.067 -0.309,0.165 -0.44,0.293c-0.13,0.129 -0.24,0.287 -0.329,0.474c-0.09,0.187 -0.152,0.403 -0.188,0.647l2.842,-0l-0,-0.068c-0.01,-0.176 -0.043,-0.35 -0.1,-0.523c-0.057,-0.172 -0.141,-0.327 -0.252,-0.464c-0.111,-0.136 -0.25,-0.247 -0.417,-0.332c-0.168,-0.084 -0.367,-0.127 -0.598,-0.127Z" style="fill:#fff;fill-rule:nonzero;"/><path d="M208.44,24.519c0,-0.108 -0.021,-0.205 -0.063,-0.291c-0.042,-0.086 -0.114,-0.165 -0.215,-0.237c-0.101,-0.071 -0.234,-0.137 -0.4,-0.198c-0.166,-0.06 -0.373,-0.114 -0.62,-0.163c-0.303,-0.062 -0.579,-0.137 -0.828,-0.225c-0.249,-0.088 -0.462,-0.193 -0.64,-0.315c-0.177,-0.122 -0.315,-0.265 -0.412,-0.429c-0.098,-0.165 -0.147,-0.356 -0.147,-0.574c0,-0.215 0.051,-0.416 0.152,-0.603c0.101,-0.187 0.242,-0.351 0.424,-0.491c0.183,-0.14 0.4,-0.25 0.652,-0.332c0.253,-0.081 0.53,-0.122 0.833,-0.122c0.325,0 0.618,0.042 0.879,0.127c0.26,0.085 0.481,0.202 0.664,0.352c0.182,0.149 0.323,0.324 0.422,0.524c0.099,0.201 0.149,0.416 0.149,0.647l-0.903,0c-0,-0.113 -0.03,-0.225 -0.088,-0.334c-0.059,-0.109 -0.14,-0.206 -0.244,-0.291c-0.104,-0.084 -0.231,-0.153 -0.379,-0.205c-0.148,-0.052 -0.315,-0.078 -0.5,-0.078c-0.192,0 -0.361,0.021 -0.506,0.064c-0.144,0.042 -0.265,0.099 -0.361,0.171c-0.096,0.071 -0.168,0.154 -0.217,0.249c-0.049,0.094 -0.073,0.192 -0.073,0.293c-0,0.104 0.019,0.197 0.058,0.278c0.039,0.081 0.107,0.155 0.203,0.22c0.096,0.065 0.224,0.123 0.386,0.175c0.161,0.053 0.365,0.103 0.612,0.152c0.326,0.068 0.617,0.147 0.874,0.237c0.258,0.089 0.474,0.197 0.65,0.322c0.176,0.125 0.31,0.271 0.403,0.437c0.092,0.166 0.139,0.358 0.139,0.576c-0,0.234 -0.053,0.448 -0.159,0.64c-0.106,0.192 -0.253,0.356 -0.442,0.493c-0.189,0.137 -0.415,0.242 -0.679,0.317c-0.263,0.075 -0.551,0.113 -0.864,0.113c-0.358,-0 -0.677,-0.048 -0.957,-0.144c-0.28,-0.096 -0.517,-0.223 -0.71,-0.381c-0.194,-0.158 -0.342,-0.341 -0.445,-0.55c-0.102,-0.208 -0.153,-0.424 -0.153,-0.649l0.903,-0c0.013,0.185 0.063,0.342 0.149,0.469c0.086,0.127 0.194,0.229 0.322,0.307c0.129,0.078 0.271,0.134 0.427,0.166c0.157,0.033 0.311,0.049 0.464,0.049c0.381,0 0.682,-0.07 0.904,-0.21c0.221,-0.14 0.333,-0.325 0.336,-0.556Z" style="fill:#fff;fill-rule:nonzero;"/><path d="M219.861,25.92l-0.903,-0l0,-5.957l-1.86,0.708l-0,-0.825l2.69,-1.035l0.073,-0l0,7.109Z" style="fill:#fff;fill-rule:nonzero;"/><rect x="223.147" y="22.438" width="3.735" height="0.742" style="fill:#fff;fill-rule:nonzero;"/><path d="M231.868,25.92l-0.903,-0l-0,-5.957l-1.861,0.708l0,-0.825l2.691,-1.035l0.073,-0l0,7.109Z" style="fill:#fff;fill-rule:nonzero;"/><path d="M238.27,18.806l-0,0.81l-0.079,0c-0.299,0 -0.567,0.031 -0.803,0.093c-0.236,0.062 -0.443,0.146 -0.622,0.254c-0.179,0.107 -0.333,0.235 -0.462,0.383c-0.128,0.148 -0.235,0.31 -0.32,0.486c-0.084,0.176 -0.149,0.36 -0.195,0.552c-0.046,0.192 -0.075,0.387 -0.088,0.586c0.085,-0.101 0.182,-0.195 0.293,-0.281c0.111,-0.086 0.23,-0.161 0.359,-0.225c0.129,-0.063 0.267,-0.114 0.415,-0.151c0.148,-0.037 0.304,-0.056 0.466,-0.056c0.355,-0 0.661,0.067 0.918,0.202c0.258,0.136 0.469,0.314 0.635,0.535c0.166,0.221 0.288,0.472 0.366,0.752c0.078,0.28 0.118,0.565 0.118,0.855c-0,0.332 -0.047,0.644 -0.14,0.937c-0.092,0.293 -0.232,0.549 -0.417,0.769c-0.186,0.22 -0.416,0.393 -0.691,0.52c-0.275,0.127 -0.593,0.191 -0.955,0.191c-0.257,-0 -0.492,-0.038 -0.705,-0.113c-0.213,-0.075 -0.405,-0.176 -0.574,-0.305c-0.169,-0.128 -0.317,-0.281 -0.444,-0.456c-0.127,-0.176 -0.232,-0.365 -0.315,-0.567c-0.083,-0.202 -0.146,-0.412 -0.188,-0.63c-0.043,-0.218 -0.064,-0.436 -0.064,-0.654l0,-0.425c0,-0.325 0.021,-0.652 0.061,-0.979c0.041,-0.327 0.11,-0.64 0.208,-0.94c0.098,-0.299 0.229,-0.58 0.395,-0.842c0.166,-0.262 0.376,-0.489 0.628,-0.681c0.252,-0.192 0.552,-0.344 0.901,-0.454c0.348,-0.111 0.755,-0.166 1.22,-0.166l0.079,-0Zm-1.182,3.203c-0.153,-0 -0.301,0.024 -0.444,0.073c-0.144,0.049 -0.277,0.117 -0.401,0.205c-0.124,0.088 -0.233,0.194 -0.327,0.317c-0.094,0.124 -0.169,0.261 -0.225,0.411l0,0.302c0,0.313 0.038,0.59 0.113,0.833c0.075,0.242 0.175,0.447 0.302,0.613c0.127,0.166 0.274,0.292 0.44,0.378c0.166,0.086 0.34,0.13 0.522,0.13c0.212,-0 0.399,-0.041 0.562,-0.123c0.163,-0.081 0.3,-0.193 0.412,-0.336c0.113,-0.144 0.197,-0.315 0.254,-0.516c0.057,-0.2 0.086,-0.417 0.086,-0.651c-0,-0.209 -0.026,-0.411 -0.078,-0.608c-0.052,-0.197 -0.132,-0.372 -0.24,-0.525c-0.107,-0.153 -0.242,-0.275 -0.405,-0.366c-0.163,-0.092 -0.353,-0.137 -0.571,-0.137Z" style="fill:#fff;fill-rule:nonzero;"/><g transform="matrix(1,0,0,1,30.2396,-178.176)"><g transform="matrix(10,0,0,10,-18.6351,193.473)"><path d="M0.476,-0.329l-0.297,0l0,0.252l0.346,0l0,0.077l-0.436,0l-0,-0.711l0.432,0l-0,0.077l-0.342,0l0,0.229l0.297,-0l0,0.076Z" style="fill:#fff;fill-rule:nonzero;"/></g><g transform="matrix(10,0,0,10,-12.6341,193.473)"><path d="M0.298,-0.146l0.168,-0.565l0.096,0l-0.224,0.711l-0.079,0l-0.224,-0.711l0.096,0l0.167,0.565Z" style="fill:#fff;fill-rule:nonzero;"/></g><g transform="matrix(10,0,0,10,-6.63315,193.473)"><path d="M0.476,-0.329l-0.297,0l0,0.252l0.346,0l0,0.077l-0.436,0l-0,-0.711l0.432,0l-0,0.077l-0.342,0l0,0.229l0.297,-0l0,0.076Z" style="fill:#fff;fill-rule:nonzero;"/></g><g transform="matrix(10,0,0,10,-0.632173,193.473)"><path d="M0.53,-0l-0.092,-0l-0.275,-0.531l-0.002,0.531l-0.091,-0l-0,-0.711l0.092,0l0.275,0.53l0.002,-0.53l0.091,0l0,0.711Z" style="fill:#fff;fill-rule:nonzero;"/></g><g transform="matrix(10,0,0,10,5.3688,193.473)"><path d="M0.564,-0.634l-0.219,0l-0,0.634l-0.088,-0l-0,-0.634l-0.22,0l0,-0.077l0.527,0l0,0.077Z" style="fill:#fff;fill-rule:nonzero;"/></g><g transform="matrix(10,0,0,10,11.3698,193.473)"><path d="M0.457,-0.18c0,-0.021 -0.005,-0.04 -0.015,-0.055c-0.01,-0.015 -0.023,-0.027 -0.038,-0.038c-0.016,-0.01 -0.033,-0.019 -0.052,-0.025c-0.018,-0.007 -0.036,-0.013 -0.054,-0.019c-0.025,-0.008 -0.05,-0.018 -0.076,-0.029c-0.026,-0.012 -0.05,-0.026 -0.071,-0.042c-0.021,-0.017 -0.039,-0.036 -0.052,-0.059c-0.014,-0.023 -0.02,-0.049 -0.02,-0.08c-0,-0.03 0.006,-0.058 0.02,-0.082c0.013,-0.024 0.031,-0.044 0.053,-0.061c0.022,-0.017 0.046,-0.029 0.074,-0.038c0.028,-0.008 0.056,-0.013 0.084,-0.013c0.03,0 0.06,0.005 0.089,0.016c0.029,0.01 0.054,0.024 0.076,0.043c0.022,0.018 0.04,0.041 0.053,0.067c0.014,0.027 0.021,0.056 0.021,0.089l-0.092,-0c-0.003,-0.021 -0.008,-0.039 -0.016,-0.056c-0.007,-0.017 -0.017,-0.031 -0.029,-0.043c-0.013,-0.013 -0.027,-0.022 -0.045,-0.029c-0.017,-0.006 -0.036,-0.01 -0.057,-0.01c-0.018,0 -0.035,0.003 -0.051,0.008c-0.016,0.005 -0.031,0.012 -0.044,0.022c-0.013,0.01 -0.023,0.022 -0.031,0.036c-0.007,0.014 -0.011,0.031 -0.011,0.05c0,0.02 0.005,0.038 0.015,0.052c0.011,0.014 0.023,0.026 0.039,0.036c0.015,0.009 0.032,0.017 0.05,0.024c0.018,0.006 0.035,0.012 0.051,0.017c0.018,0.006 0.035,0.012 0.053,0.019c0.018,0.007 0.036,0.015 0.052,0.024c0.017,0.009 0.032,0.019 0.046,0.031c0.015,0.011 0.027,0.024 0.038,0.039c0.011,0.014 0.019,0.03 0.025,0.047c0.006,0.018 0.009,0.037 0.009,0.058c0,0.032 -0.007,0.06 -0.021,0.084c-0.014,0.024 -0.032,0.043 -0.055,0.059c-0.022,0.016 -0.048,0.028 -0.076,0.036c-0.028,0.008 -0.057,0.012 -0.085,0.012c-0.032,-0 -0.063,-0.005 -0.093,-0.015c-0.03,-0.01 -0.057,-0.024 -0.081,-0.042c-0.024,-0.019 -0.043,-0.041 -0.058,-0.068c-0.015,-0.026 -0.023,-0.056 -0.024,-0.09l0.092,-0c0.003,0.022 0.009,0.042 0.018,0.059c0.009,0.017 0.021,0.031 0.035,0.043c0.014,0.012 0.031,0.021 0.05,0.027c0.018,0.006 0.039,0.009 0.061,0.009c0.018,0 0.035,-0.002 0.052,-0.006c0.017,-0.005 0.032,-0.012 0.046,-0.021c0.013,-0.009 0.024,-0.021 0.032,-0.035c0.009,-0.014 0.013,-0.031 0.013,-0.051Z" style="fill:#fff;fill-rule:nonzero;"/></g><g transform="matrix(10,0,0,10,23.3717,193.473)"><path d="M0.298,-0.146l0.168,-0.565l0.096,0l-0.224,0.711l-0.079,0l-0.224,-0.711l0.096,0l0.167,0.565Z" style="fill:#fff;fill-rule:nonzero;"/></g><g transform="matrix(10,0,0,10,29.3727,193.473)"><path d="M0.085,-0.711l0.43,0l-0,0.079l-0.171,-0l0,0.554l0.171,-0l-0,0.078l-0.43,-0l-0,-0.078l0.166,-0l0,-0.554l-0.166,-0l-0,-0.079Z" style="fill:#fff;fill-rule:nonzero;"/></g><g transform="matrix(10,0,0,10,35.3737,193.473)"><path d="M0.476,-0.329l-0.297,0l0,0.252l0.346,0l0,0.077l-0.436,0l-0,-0.711l0.432,0l-0,0.077l-0.342,0l0,0.229l0.297,-0l0,0.076Z" style="fill:#fff;fill-rule:nonzero;"/></g><g transform="matrix(10,0,0,10,41.3747,193.473)"><path d="M0.438,-0.192l0.054,-0.519l0.085,0l-0.086,0.711l-0.093,0l-0.091,-0.536l-0.092,0.536l-0.093,0l-0.086,-0.711l0.086,0l0.054,0.519l0.091,-0.519l0.079,0l0.092,0.519Z" style="fill:#fff;fill-rule:nonzero;"/></g><rect x="-18.635" y="194.205" width="66.011" height="0.488" style="fill:#fff;"/></g><path d="M48,168l-1,-2l2,0l-1,2Z" style="fill:#fff;"/><path d="M48,42l0,124.5" style="fill:none;stroke:#fff;stroke-width:0.3px;"/><path d="M328,96l-2,1l-0,-2l2,1Z" style="fill:#858484;"/><path d="M52,34l0,-2l282,0l0,2" style="fill:none;stroke:#fff;stroke-width:0.3px;"/><path id="_15" serif:id="15" d="M64,37.806c-0,-0.997 -0.809,-1.806 -1.806,-1.806l-8.388,0c-0.997,0 -1.806,0.809 -1.806,1.806l-0,8.388c-0,0.997 0.809,1.806 1.806,1.806l8.388,0c0.997,0 1.806,-0.809 1.806,-1.806l-0,-8.388Z" style="fill:#ececec;"/><path id="_151" serif:id="15" d="M82,37.806c0,-0.997 -0.809,-1.806 -1.806,-1.806l-8.388,0c-0.997,0 -1.806,0.809 -1.806,1.806l0,8.388c0,0.997 0.809,1.806 1.806,1.806l8.388,0c0.997,0 1.806,-0.809 1.806,-1.806l0,-8.388Z" style="fill:#ececec;"/><path id="_152" serif:id="15" d="M100,37.806c0,-0.997 -0.809,-1.806 -1.806,-1.806l-8.388,0c-0.997,0 -1.806,0.809 -1.806,1.806l0,8.388c0,0.997 0.809,1.806 1.806,1.806l8.388,0c0.997,0 1.806,-0.809 1.806,-1.806l0,-8.388Z" style="fill:#ececec;"/><path id="_153" serif:id="15" d="M118,37.806c0,-0.997 -0.809,-1.806 -1.806,-1.806l-8.388,0c-0.997,0 -1.806,0.809 -1.806,1.806l0,8.388c0,0.997 0.809,1.806 1.806,1.806l8.388,0c0.997,0 1.806,-0.809 1.806,-1.806l0,-8.388Z" style="fill:#ececec;"/><path id="_154" serif:id="15" d="M172,55.806c0,-0.997 -0.809,-1.806 -1.806,-1.806l-8.388,-0c-0.997,-0 -1.806,0.809 -1.806,1.806l0,8.388c0,0.997 0.809,1.806 1.806,1.806l8.388,0c0.997,0 1.806,-0.809 1.806,-1.806l0,-8.388Z" style="fill:#ececec;"/><path id="_155" serif:id="15" d="M172,37.806c0,-0.997 -0.809,-1.806 -1.806,-1.806l-8.388,0c-0.997,0 -1.806,0.809 -1.806,1.806l0,8.388c0,0.997 0.809,1.806 1.806,1.806l8.388,0c0.997,0 1.806,-0.809 1.806,-1.806l0,-8.388Z" style="fill:#ececec;"/><path id="_156" serif:id="15" d="M172,73.806c0,-0.997 -0.809,-1.806 -1.806,-1.806l-8.388,0c-0.997,0 -1.806,0.809 -1.806,1.806l0,8.388c0,0.997 0.809,1.806 1.806,1.806l8.388,0c0.997,0 1.806,-0.809 1.806,-1.806l0,-8.388Z" style="fill:#ececec;"/><path id="_157" serif:id="15" d="M172,91.806c0,-0.997 -0.809,-1.806 -1.806,-1.806l-8.388,0c-0.997,0 -1.806,0.809 -1.806,1.806l0,8.388c0,0.997 0.809,1.806 1.806,1.806l8.388,0c0.997,0 1.806,-0.809 1.806,-1.806l0,-8.388Z" style="fill:#ececec;"/><path id="_158" serif:id="15" d="M226,37.806c0,-0.997 -0.809,-1.806 -1.806,-1.806l-8.388,0c-0.997,0 -1.806,0.809 -1.806,1.806l0,8.388c0,0.997 0.809,1.806 1.806,1.806l8.388,0c0.997,0 1.806,-0.809 1.806,-1.806l0,-8.388Z" style="fill:#ececec;"/><path id="_159" serif:id="15" d="M226,55.806c0,-0.997 -0.809,-1.806 -1.806,-1.806l-8.388,-0c-0.997,-0 -1.806,0.809 -1.806,1.806l0,8.388c0,0.997 0.809,1.806 1.806,1.806l8.388,0c0.997,0 1.806,-0.809 1.806,-1.806l0,-8.388Z" style="fill:#ececec;"/><path id="_1510" serif:id="15" d="M298,73.806c0,-0.997 -0.809,-1.806 -1.806,-1.806l-8.388,0c-0.997,0 -1.806,0.809 -1.806,1.806l-0,8.388c-0,0.997 0.809,1.806 1.806,1.806l8.388,0c0.997,0 1.806,-0.809 1.806,-1.806l0,-8.388Z" style="fill:#ececec;"/><path id="_1511" serif:id="15" d="M226,73.806c0,-0.997 -0.809,-1.806 -1.806,-1.806l-8.388,0c-0.997,0 -1.806,0.809 -1.806,1.806l0,8.388c0,0.997 0.809,1.806 1.806,1.806l8.388,0c0.997,0 1.806,-0.809 1.806,-1.806l0,-8.388Z" style="fill:#ececec;"/><path id="_1512" serif:id="15" d="M226,91.806c0,-0.997 -0.809,-1.806 -1.806,-1.806l-8.388,0c-0.997,0 -1.806,0.809 -1.806,1.806l0,8.388c0,0.997 0.809,1.806 1.806,1.806l8.388,0c0.997,0 1.806,-0.809 1.806,-1.806l0,-8.388Z" style="fill:#ececec;"/><path id="_1513" serif:id="15" d="M244,37.806c0,-0.997 -0.809,-1.806 -1.806,-1.806l-8.388,0c-0.997,0 -1.806,0.809 -1.806,1.806l0,8.388c0,0.997 0.809,1.806 1.806,1.806l8.388,0c0.997,0 1.806,-0.809 1.806,-1.806l0,-8.388Z" style="fill:#ececec;"/><path id="_1514" serif:id="15" d="M244,55.806c0,-0.997 -0.809,-1.806 -1.806,-1.806l-8.388,-0c-0.997,-0 -1.806,0.809 -1.806,1.806l0,8.388c0,0.997 0.809,1.806 1.806,1.806l8.388,0c0.997,0 1.806,-0.809 1.806,-1.806l0,-8.388Z" style="fill:#ececec;"/><path id="_1515" serif:id="15" d="M244,73.806c0,-0.997 -0.809,-1.806 -1.806,-1.806l-8.388,0c-0.997,0 -1.806,0.809 -1.806,1.806l0,8.388c0,0.997 0.809,1.806 1.806,1.806l8.388,0c0.997,0 1.806,-0.809 1.806,-1.806l0,-8.388Z" style="fill:#ececec;"/><path id="_1516" serif:id="15" d="M244,91.806c0,-0.997 -0.809,-1.806 -1.806,-1.806l-8.388,0c-0.997,0 -1.806,0.809 -1.806,1.806l0,8.388c0,0.997 0.809,1.806 1.806,1.806l8.388,0c0.997,0 1.806,-0.809 1.806,-1.806l0,-8.388Z" style="fill:#ececec;"/><path id="event-firing-order-single" serif:id="event firing order single" d="M58,42l268.5,-0c3.211,-0 4.5,1.644 4.5,4.5c-0,2.856 -1.644,4.5 -4.5,4.5l-267,-0c-3.211,-0 -4.5,1.644 -4.5,4.5c0,2.856 1.644,4.5 4.5,4.5l267,-0c3.211,-0 4.5,1.644 4.5,4.5c-0,2.856 -1.644,4.5 -4.5,4.5l-267,0c-3.211,0 -4.5,1.644 -4.5,4.5c0,2.856 1.644,4.5 4.5,4.5l267,-0c3.211,-0 4.5,1.644 4.5,4.5c-0,2.856 -1.644,4.5 -4.5,4.5l-267,-0c-3.211,-0 -4.5,1.644 -4.5,4.5c0,2.856 1.644,4.5 4.5,4.5l267,0" style="fill:none;stroke:#858484;stroke-width:0.3px;stroke-dasharray:0.6,1.2,0,0;"/><g transform="matrix(1,0,0,1,382.955,-125.91)"><g transform="matrix(10,0,0,10,-39.6385,193.473)"><path d="M0.531,-0.258c-0,0.037 -0.005,0.073 -0.014,0.105c-0.009,0.033 -0.022,0.062 -0.04,0.086c-0.018,0.024 -0.039,0.043 -0.065,0.056c-0.026,0.014 -0.056,0.021 -0.089,0.021c-0.032,-0 -0.06,-0.005 -0.085,-0.016c-0.025,-0.01 -0.046,-0.025 -0.063,-0.045l-0,0.254l-0.091,0l0,-0.731l0.083,-0l0.004,0.057c0.018,-0.022 0.039,-0.038 0.064,-0.05c0.025,-0.011 0.054,-0.017 0.087,-0.017c0.034,-0 0.064,0.007 0.09,0.02c0.026,0.013 0.047,0.032 0.065,0.056c0.018,0.023 0.031,0.052 0.04,0.085c0.009,0.033 0.014,0.069 0.014,0.108l-0,0.011Zm-0.091,-0.011c0,-0.025 -0.002,-0.05 -0.008,-0.073c-0.006,-0.023 -0.015,-0.044 -0.026,-0.062c-0.012,-0.017 -0.027,-0.031 -0.046,-0.042c-0.018,-0.01 -0.04,-0.015 -0.065,-0.015c-0.029,-0 -0.053,0.006 -0.073,0.02c-0.02,0.013 -0.035,0.031 -0.047,0.052l-0,0.254c0.012,0.021 0.027,0.038 0.047,0.051c0.019,0.013 0.044,0.02 0.074,0.02c0.025,0 0.047,-0.005 0.065,-0.016c0.018,-0.01 0.033,-0.025 0.045,-0.043c0.011,-0.017 0.02,-0.038 0.026,-0.062c0.006,-0.023 0.008,-0.048 0.008,-0.073l0,-0.011Z" style="fill:#fff;fill-rule:nonzero;"/></g><g transform="matrix(10,0,0,10,-33.6375,193.473)"><path d="M0.432,-0c-0.003,-0.007 -0.006,-0.015 -0.008,-0.026c-0.003,-0.01 -0.004,-0.021 -0.005,-0.032c-0.009,0.009 -0.019,0.018 -0.031,0.026c-0.011,0.008 -0.023,0.016 -0.037,0.022c-0.013,0.006 -0.028,0.011 -0.043,0.014c-0.015,0.004 -0.031,0.006 -0.049,0.006c-0.028,-0 -0.053,-0.004 -0.076,-0.012c-0.022,-0.009 -0.041,-0.02 -0.057,-0.033c-0.016,-0.014 -0.028,-0.031 -0.037,-0.05c-0.009,-0.019 -0.013,-0.039 -0.013,-0.061c0,-0.029 0.006,-0.055 0.018,-0.077c0.011,-0.021 0.027,-0.04 0.049,-0.054c0.021,-0.015 0.046,-0.025 0.076,-0.033c0.03,-0.007 0.063,-0.01 0.1,-0.01l0.098,-0l0,-0.042c0,-0.016 -0.002,-0.03 -0.008,-0.043c-0.006,-0.012 -0.014,-0.023 -0.025,-0.032c-0.011,-0.009 -0.024,-0.016 -0.04,-0.021c-0.015,-0.005 -0.032,-0.007 -0.052,-0.007c-0.017,-0 -0.033,0.002 -0.048,0.007c-0.014,0.004 -0.026,0.01 -0.036,0.018c-0.009,0.007 -0.017,0.016 -0.022,0.026c-0.006,0.01 -0.008,0.021 -0.008,0.032l-0.091,0c0,-0.019 0.005,-0.038 0.015,-0.056c0.009,-0.019 0.023,-0.036 0.041,-0.051c0.018,-0.014 0.04,-0.026 0.066,-0.035c0.026,-0.01 0.055,-0.014 0.088,-0.014c0.03,-0 0.058,0.004 0.084,0.011c0.026,0.007 0.048,0.018 0.067,0.033c0.018,0.015 0.033,0.033 0.044,0.056c0.01,0.022 0.016,0.048 0.016,0.077l-0,0.246c-0,0.017 0.001,0.036 0.005,0.056c0.003,0.019 0.008,0.037 0.013,0.051l0,0.008l-0.094,-0Zm-0.16,-0.069c0.018,0 0.034,-0.002 0.05,-0.007c0.015,-0.004 0.029,-0.01 0.042,-0.018c0.012,-0.007 0.023,-0.016 0.032,-0.025c0.009,-0.01 0.016,-0.02 0.021,-0.03l0,-0.107l-0.084,-0c-0.052,-0 -0.093,0.007 -0.123,0.023c-0.029,0.016 -0.043,0.04 -0.043,0.074c-0,0.013 0.002,0.025 0.006,0.036c0.004,0.011 0.011,0.021 0.02,0.029c0.009,0.007 0.02,0.014 0.033,0.018c0.013,0.005 0.029,0.007 0.046,0.007Z" style="fill:#fff;fill-rule:nonzero;"/></g><g transform="matrix(10,0,0,10,-27.6366,193.473)"><path d="M0.299,-0.656l-0,0.128l0.201,-0l0,0.07l-0.201,-0l-0,0.287c-0,0.02 0.002,0.037 0.008,0.05c0.005,0.014 0.012,0.024 0.021,0.032c0.009,0.008 0.02,0.014 0.032,0.017c0.012,0.003 0.024,0.005 0.037,0.005c0.01,0 0.02,-0 0.031,-0.002c0.01,-0.001 0.02,-0.002 0.03,-0.004c0.01,-0.001 0.019,-0.003 0.028,-0.005c0.009,-0.002 0.016,-0.003 0.021,-0.005l0.013,0.064c-0.007,0.005 -0.017,0.009 -0.027,0.012c-0.011,0.004 -0.023,0.007 -0.035,0.009c-0.013,0.003 -0.027,0.005 -0.041,0.006c-0.014,0.001 -0.028,0.002 -0.042,0.002c-0.023,-0 -0.045,-0.004 -0.066,-0.01c-0.02,-0.007 -0.038,-0.017 -0.053,-0.032c-0.015,-0.014 -0.026,-0.033 -0.035,-0.056c-0.009,-0.023 -0.013,-0.051 -0.013,-0.083l0,-0.287l-0.139,-0l0,-0.07l0.139,-0l0,-0.128l0.091,-0Z" style="fill:#fff;fill-rule:nonzero;"/></g><g transform="matrix(10,0,0,10,-21.6356,193.473)"><path d="M0.299,-0.656l-0,0.128l0.201,-0l0,0.07l-0.201,-0l-0,0.287c-0,0.02 0.002,0.037 0.008,0.05c0.005,0.014 0.012,0.024 0.021,0.032c0.009,0.008 0.02,0.014 0.032,0.017c0.012,0.003 0.024,0.005 0.037,0.005c0.01,0 0.02,-0 0.031,-0.002c0.01,-0.001 0.02,-0.002 0.03,-0.004c0.01,-0.001 0.019,-0.003 0.028,-0.005c0.009,-0.002 0.016,-0.003 0.021,-0.005l0.013,0.064c-0.007,0.005 -0.017,0.009 -0.027,0.012c-0.011,0.004 -0.023,0.007 -0.035,0.009c-0.013,0.003 -0.027,0.005 -0.041,0.006c-0.014,0.001 -0.028,0.002 -0.042,0.002c-0.023,-0 -0.045,-0.004 -0.066,-0.01c-0.02,-0.007 -0.038,-0.017 -0.053,-0.032c-0.015,-0.014 -0.026,-0.033 -0.035,-0.056c-0.009,-0.023 -0.013,-0.051 -0.013,-0.083l0,-0.287l-0.139,-0l0,-0.07l0.139,-0l0,-0.128l0.091,-0Z" style="fill:#fff;fill-rule:nonzero;"/></g><g transform="matrix(10,0,0,10,-15.6346,193.473)"><path d="M0.318,0.01c-0.037,-0 -0.071,-0.007 -0.102,-0.019c-0.031,-0.013 -0.058,-0.031 -0.08,-0.054c-0.022,-0.022 -0.039,-0.049 -0.052,-0.081c-0.012,-0.031 -0.018,-0.065 -0.018,-0.102l-0,-0.02c-0,-0.043 0.007,-0.081 0.02,-0.115c0.014,-0.033 0.032,-0.062 0.055,-0.085c0.022,-0.023 0.048,-0.041 0.077,-0.054c0.029,-0.012 0.058,-0.018 0.089,-0.018c0.038,-0 0.071,0.007 0.099,0.02c0.029,0.013 0.053,0.031 0.072,0.054c0.018,0.024 0.032,0.051 0.042,0.083c0.009,0.031 0.014,0.065 0.014,0.102l-0,0.041l-0.378,-0c0.001,0.024 0.006,0.046 0.014,0.068c0.008,0.021 0.02,0.039 0.034,0.055c0.015,0.016 0.032,0.028 0.052,0.037c0.021,0.009 0.043,0.014 0.067,0.014c0.032,0 0.061,-0.006 0.086,-0.019c0.025,-0.014 0.046,-0.031 0.063,-0.052l0.055,0.043c-0.009,0.013 -0.02,0.026 -0.033,0.038c-0.013,0.012 -0.029,0.023 -0.046,0.033c-0.017,0.009 -0.037,0.017 -0.058,0.022c-0.022,0.006 -0.046,0.009 -0.072,0.009Zm-0.011,-0.474c-0.019,0 -0.036,0.003 -0.052,0.01c-0.016,0.007 -0.031,0.017 -0.044,0.029c-0.013,0.013 -0.024,0.029 -0.033,0.048c-0.009,0.019 -0.015,0.04 -0.019,0.065l0.284,-0.001l0,-0.006c-0.001,-0.018 -0.004,-0.035 -0.01,-0.053c-0.005,-0.017 -0.014,-0.032 -0.025,-0.046c-0.011,-0.014 -0.025,-0.025 -0.042,-0.033c-0.016,-0.009 -0.036,-0.013 -0.059,-0.013Z" style="fill:#fff;fill-rule:nonzero;"/></g><g transform="matrix(10,0,0,10,-9.63364,193.473)"><path d="M0.431,-0.538c0.009,-0 0.017,0 0.027,0.001c0.009,0 0.017,0.001 0.026,0.002c0.008,0.001 0.016,0.003 0.023,0.004c0.007,0.002 0.012,0.004 0.017,0.006l-0.012,0.088c-0.018,-0.004 -0.035,-0.007 -0.05,-0.009c-0.016,-0.001 -0.033,-0.002 -0.05,-0.002c-0.042,-0 -0.076,0.009 -0.103,0.029c-0.026,0.019 -0.045,0.046 -0.058,0.08l0,0.339l-0.09,-0l-0,-0.528l0.086,-0l0.004,0.084c0.021,-0.029 0.047,-0.052 0.077,-0.069c0.03,-0.017 0.065,-0.025 0.103,-0.025Z" style="fill:#fff;fill-rule:nonzero;"/></g><g transform="matrix(10,0,0,10,-3.63266,193.473)"><path d="M0.166,-0.528l0.006,0.078c0.02,-0.028 0.043,-0.049 0.071,-0.064c0.028,-0.016 0.059,-0.024 0.094,-0.024c0.028,-0 0.053,0.004 0.075,0.012c0.023,0.007 0.042,0.02 0.058,0.036c0.016,0.017 0.028,0.038 0.037,0.063c0.009,0.026 0.013,0.056 0.013,0.092l0,0.335l-0.09,-0l-0,-0.333c-0,-0.024 -0.003,-0.044 -0.008,-0.06c-0.005,-0.016 -0.013,-0.03 -0.023,-0.04c-0.011,-0.01 -0.023,-0.017 -0.038,-0.022c-0.015,-0.004 -0.032,-0.006 -0.051,-0.006c-0.03,-0 -0.057,0.007 -0.08,0.022c-0.023,0.015 -0.041,0.035 -0.055,0.06l0,0.379l-0.09,-0l-0,-0.528l0.081,-0Z" style="fill:#fff;fill-rule:nonzero;"/></g><g transform="matrix(10,0,0,10,-39.6385,203.473)"><path d="M0.099,-0.75l0.27,0l0,0.672l0.173,-0l-0,0.078l-0.443,-0l0,-0.078l0.18,-0l-0,-0.593l-0.18,-0l0,-0.079Z" style="fill:#fff;fill-rule:nonzero;"/></g><g transform="matrix(10,0,0,10,-33.6375,203.473)"><path d="M0.318,0.01c-0.037,-0 -0.071,-0.007 -0.102,-0.019c-0.031,-0.013 -0.058,-0.031 -0.08,-0.054c-0.022,-0.022 -0.039,-0.049 -0.052,-0.081c-0.012,-0.031 -0.018,-0.065 -0.018,-0.102l-0,-0.02c-0,-0.043 0.007,-0.081 0.02,-0.115c0.014,-0.033 0.032,-0.062 0.055,-0.085c0.022,-0.023 0.048,-0.041 0.077,-0.054c0.029,-0.012 0.058,-0.018 0.089,-0.018c0.038,-0 0.071,0.007 0.099,0.02c0.029,0.013 0.053,0.031 0.072,0.054c0.018,0.024 0.032,0.051 0.042,0.083c0.009,0.031 0.014,0.065 0.014,0.102l-0,0.041l-0.378,-0c0.001,0.024 0.006,0.046 0.014,0.068c0.008,0.021 0.02,0.039 0.034,0.055c0.015,0.016 0.032,0.028 0.052,0.037c0.021,0.009 0.043,0.014 0.067,0.014c0.032,0 0.061,-0.006 0.086,-0.019c0.025,-0.014 0.046,-0.031 0.063,-0.052l0.055,0.043c-0.009,0.013 -0.02,0.026 -0.033,0.038c-0.013,0.012 -0.029,0.023 -0.046,0.033c-0.017,0.009 -0.037,0.017 -0.058,0.022c-0.022,0.006 -0.046,0.009 -0.072,0.009Zm-0.011,-0.474c-0.019,0 -0.036,0.003 -0.052,0.01c-0.016,0.007 -0.031,0.017 -0.044,0.029c-0.013,0.013 -0.024,0.029 -0.033,0.048c-0.009,0.019 -0.015,0.04 -0.019,0.065l0.284,-0.001l0,-0.006c-0.001,-0.018 -0.004,-0.035 -0.01,-0.053c-0.005,-0.017 -0.014,-0.032 -0.025,-0.046c-0.011,-0.014 -0.025,-0.025 -0.042,-0.033c-0.016,-0.009 -0.036,-0.013 -0.059,-0.013Z" style="fill:#fff;fill-rule:nonzero;"/></g><g transform="matrix(10,0,0,10,-27.6366,203.473)"><path d="M0.166,-0.528l0.006,0.078c0.02,-0.028 0.043,-0.049 0.071,-0.064c0.028,-0.016 0.059,-0.024 0.094,-0.024c0.028,-0 0.053,0.004 0.075,0.012c0.023,0.007 0.042,0.02 0.058,0.036c0.016,0.017 0.028,0.038 0.037,0.063c0.009,0.026 0.013,0.056 0.013,0.092l0,0.335l-0.09,-0l-0,-0.333c-0,-0.024 -0.003,-0.044 -0.008,-0.06c-0.005,-0.016 -0.013,-0.03 -0.023,-0.04c-0.011,-0.01 -0.023,-0.017 -0.038,-0.022c-0.015,-0.004 -0.032,-0.006 -0.051,-0.006c-0.03,-0 -0.057,0.007 -0.08,0.022c-0.023,0.015 -0.041,0.035 -0.055,0.06l0,0.379l-0.09,-0l-0,-0.528l0.081,-0Z" style="fill:#fff;fill-rule:nonzero;"/></g><g transform="matrix(10,0,0,10,-21.6356,203.473)"><path d="M0.068,-0.269c0,-0.039 0.005,-0.075 0.015,-0.108c0.009,-0.033 0.023,-0.062 0.042,-0.085c0.018,-0.024 0.04,-0.043 0.066,-0.056c0.026,-0.013 0.055,-0.02 0.088,-0.02c0.033,-0 0.061,0.006 0.086,0.017c0.025,0.012 0.045,0.028 0.063,0.05l0.004,-0.057l0.082,-0l0,0.517c0,0.035 -0.005,0.066 -0.016,0.093c-0.011,0.027 -0.026,0.05 -0.046,0.068c-0.02,0.019 -0.043,0.034 -0.071,0.043c-0.027,0.01 -0.057,0.015 -0.09,0.015c-0.014,0 -0.03,-0.002 -0.047,-0.005c-0.018,-0.003 -0.036,-0.008 -0.054,-0.015c-0.018,-0.007 -0.035,-0.016 -0.052,-0.028c-0.017,-0.012 -0.031,-0.026 -0.043,-0.043l0.047,-0.054c0.011,0.013 0.022,0.024 0.034,0.033c0.011,0.01 0.023,0.017 0.035,0.023c0.012,0.005 0.025,0.009 0.037,0.012c0.012,0.002 0.024,0.003 0.036,0.003c0.021,0 0.041,-0.003 0.058,-0.009c0.017,-0.006 0.032,-0.015 0.044,-0.027c0.012,-0.012 0.022,-0.027 0.028,-0.044c0.007,-0.018 0.01,-0.038 0.01,-0.061l-0,-0.045c-0.018,0.02 -0.039,0.035 -0.062,0.046c-0.024,0.01 -0.052,0.016 -0.084,0.016c-0.032,-0 -0.061,-0.007 -0.087,-0.021c-0.026,-0.013 -0.048,-0.032 -0.066,-0.056c-0.018,-0.024 -0.032,-0.053 -0.042,-0.086c-0.01,-0.032 -0.015,-0.068 -0.015,-0.105l0,-0.011Zm0.091,0.011c-0,0.025 0.002,0.05 0.008,0.073c0.005,0.023 0.014,0.043 0.025,0.061c0.012,0.018 0.026,0.031 0.044,0.042c0.018,0.01 0.04,0.015 0.065,0.015c0.015,0 0.029,-0.002 0.042,-0.006c0.013,-0.003 0.024,-0.009 0.034,-0.015c0.01,-0.007 0.019,-0.015 0.026,-0.025c0.008,-0.009 0.015,-0.02 0.021,-0.031l-0,-0.242c-0.006,-0.011 -0.013,-0.021 -0.021,-0.031c-0.007,-0.009 -0.016,-0.017 -0.027,-0.023c-0.01,-0.007 -0.021,-0.012 -0.033,-0.016c-0.013,-0.004 -0.026,-0.005 -0.041,-0.005c-0.026,-0 -0.047,0.005 -0.065,0.015c-0.018,0.011 -0.033,0.025 -0.045,0.042c-0.011,0.018 -0.02,0.039 -0.025,0.062c-0.006,0.023 -0.008,0.048 -0.008,0.073l-0,0.011Z" style="fill:#fff;fill-rule:nonzero;"/></g><g transform="matrix(10,0,0,10,-15.6346,203.473)"><path d="M0.299,-0.656l-0,0.128l0.201,-0l0,0.07l-0.201,-0l-0,0.287c-0,0.02 0.002,0.037 0.008,0.05c0.005,0.014 0.012,0.024 0.021,0.032c0.009,0.008 0.02,0.014 0.032,0.017c0.012,0.003 0.024,0.005 0.037,0.005c0.01,0 0.02,-0 0.031,-0.002c0.01,-0.001 0.02,-0.002 0.03,-0.004c0.01,-0.001 0.019,-0.003 0.028,-0.005c0.009,-0.002 0.016,-0.003 0.021,-0.005l0.013,0.064c-0.007,0.005 -0.017,0.009 -0.027,0.012c-0.011,0.004 -0.023,0.007 -0.035,0.009c-0.013,0.003 -0.027,0.005 -0.041,0.006c-0.014,0.001 -0.028,0.002 -0.042,0.002c-0.023,-0 -0.045,-0.004 -0.066,-0.01c-0.02,-0.007 -0.038,-0.017 -0.053,-0.032c-0.015,-0.014 -0.026,-0.033 -0.035,-0.056c-0.009,-0.023 -0.013,-0.051 -0.013,-0.083l0,-0.287l-0.139,-0l0,-0.07l0.139,-0l0,-0.128l0.091,-0Z" style="fill:#fff;fill-rule:nonzero;"/></g><g transform="matrix(10,0,0,10,-9.63364,203.473)"><path d="M0.175,-0.45c0.019,-0.027 0.042,-0.049 0.07,-0.064c0.028,-0.016 0.059,-0.024 0.093,-0.024c0.028,-0 0.053,0.004 0.076,0.012c0.022,0.008 0.042,0.02 0.058,0.037c0.016,0.017 0.028,0.039 0.037,0.064c0.008,0.026 0.012,0.057 0.012,0.092l0,0.333l-0.09,0l0,-0.333c0,-0.044 -0.01,-0.076 -0.031,-0.097c-0.021,-0.021 -0.05,-0.032 -0.088,-0.031c-0.029,-0 -0.056,0.007 -0.079,0.021c-0.024,0.014 -0.043,0.033 -0.058,0.056l0,0.384l-0.09,0l-0,-0.75l0.09,0l0,0.3Z" style="fill:#fff;fill-rule:nonzero;"/></g></g><path d="M336,36l2,0l0,66l-2,0" style="fill:none;stroke:#fff;stroke-width:0.3px;"/></g></svg>