<?xml version="1.0" encoding="UTF-8" standalone="no"?><!DOCTYPE svg PUBLIC "-//W3C//DTD SVG 1.1//EN" "http://www.w3.org/Graphics/SVG/1.1/DTD/svg11.dtd"><svg width="100%" height="100%" viewBox="0 0 396 204" version="1.1" xmlns="http://www.w3.org/2000/svg" xmlns:xlink="http://www.w3.org/1999/xlink" xml:space="preserve" xmlns:serif="http://www.serif.com/" style="fill-rule:evenodd;clip-rule:evenodd;stroke-linecap:round;stroke-linejoin:round;stroke-miterlimit:1.5;"><g id="B-step-stop" serif:id="B step/stop"><rect id="background--Rectangle-" serif:id="background (Rectangle)" x="0" y="0" width="396" height="204" style="fill:#5a5c5c;"/><rect x="12" y="36" width="48" height="144" style="fill:#ececec;stroke:#858484;stroke-width:0.5px;"/><path d="M24,36l-0,144" style="fill:none;stroke:#858484;stroke-opacity:0.14;stroke-width:0.5px;"/><path d="M36,36l-0,144" style="fill:none;stroke:#858484;stroke-opacity:0.14;stroke-width:0.5px;"/><path d="M48,36l-0,144" style="fill:none;stroke:#858484;stroke-opacity:0.14;stroke-width:0.5px;"/><rect x="60" y="36" width="48" height="144" style="fill:#ececec;stroke:#858484;stroke-width:0.5px;"/><path d="M72,36l0,144" style="fill:none;stroke:#858484;stroke-opacity:0.14;stroke-width:0.5px;"/><path d="M84,36l0,144" style="fill:none;stroke:#858484;stroke-opacity:0.14;stroke-width:0.5px;"/><path d="M96,36l0,144" style="fill:none;stroke:#858484;stroke-opacity:0.14;stroke-width:0.5px;"/><rect x="108" y="36" width="48" height="144" style="fill:#ececec;stroke:#858484;stroke-width:0.5px;"/><path d="M120,36l0,144" style="fill:none;stroke:#858484;stroke-opacity:0.14;stroke-width:0.5px;"/><path d="M132,36l0,144" style="fill:none;stroke:#858484;stroke-opacity:0.14;stroke-width:0.5px;"/><path d="M144,36l0,144" style="fill:none;stroke:#858484;stroke-opacity:0.14;stroke-width:0.5px;"/><rect x="156" y="36" width="48" height="144" style="fill:#ececec;stroke:#858484;stroke-width:0.5px;"/><path d="M168,36l0,144" style="fill:none;stroke:#858484;stroke-opacity:0.14;stroke-width:0.5px;"/><path d="M180,36l0,144" style="fill:none;stroke:#858484;stroke-opacity:0.14;stroke-width:0.5px;"/><path d="M192,36l0,144" style="fill:none;stroke:#858484;stroke-opacity:0.14;stroke-width:0.5px;"/><g id="Piano-roll" serif:id="Piano roll"><rect x="0" y="174" width="12" height="6" style="fill:#ececec;stroke:#858484;stroke-width:0.5px;"/><rect x="0" y="168" width="12" height="6" style="fill:#242424;stroke:#858484;stroke-width:0.5px;"/><rect x="0" y="162" width="12" height="6" style="fill:#ececec;stroke:#858484;stroke-width:0.5px;"/><rect x="0" y="150" width="12" height="6" style="fill:#ececec;stroke:#858484;stroke-width:0.5px;"/><rect x="0" y="156" width="12" height="6" style="fill:#242424;stroke:#858484;stroke-width:0.5px;"/><rect x="0" y="144" width="12" height="6" style="fill:#ececec;stroke:#858484;stroke-width:0.5px;"/><rect x="0" y="138" width="12" height="6" style="fill:#242424;stroke:#858484;stroke-width:0.5px;"/><rect x="0" y="132" width="12" height="6" style="fill:#ececec;stroke:#858484;stroke-width:0.5px;"/><rect x="0" y="126" width="12" height="6" style="fill:#242424;stroke:#858484;stroke-width:0.5px;"/><rect x="0" y="120" width="12" height="6" style="fill:#ececec;stroke:#858484;stroke-width:0.5px;"/><rect x="0" y="150" width="12" height="6" style="fill:#ececec;stroke:#858484;stroke-width:0.5px;"/><rect x="0" y="120" width="12" height="6" style="fill:#ececec;stroke:#858484;stroke-width:0.5px;"/><rect x="0" y="108" width="12" height="6" style="fill:#ececec;stroke:#858484;stroke-width:0.5px;"/><rect x="0" y="114" width="12" height="6" style="fill:#242424;stroke:#858484;stroke-width:0.5px;"/><rect x="0" y="102" width="12" height="6" style="fill:#ececec;stroke:#858484;stroke-width:0.5px;"/><rect x="0" y="96" width="12" height="6" style="fill:#242424;stroke:#858484;stroke-width:0.5px;"/><rect x="0" y="90" width="12" height="6" style="fill:#ececec;stroke:#858484;stroke-width:0.5px;"/><rect x="0" y="78" width="12" height="6" style="fill:#ececec;stroke:#858484;stroke-width:0.5px;"/><rect x="0" y="84" width="12" height="6" style="fill:#242424;stroke:#858484;stroke-width:0.5px;"/><rect x="0" y="72" width="12" height="6" style="fill:#ececec;stroke:#858484;stroke-width:0.5px;"/><rect x="0" y="66" width="12" height="6" style="fill:#242424;stroke:#858484;stroke-width:0.5px;"/><rect x="0" y="60" width="12" height="6" style="fill:#ececec;stroke:#858484;stroke-width:0.5px;"/><rect x="0" y="54" width="12" height="6" style="fill:#242424;stroke:#858484;stroke-width:0.5px;"/><rect x="0" y="48" width="12" height="6" style="fill:#ececec;stroke:#858484;stroke-width:0.5px;"/><rect x="0" y="78" width="12" height="6" style="fill:#ececec;stroke:#858484;stroke-width:0.5px;"/><rect x="0" y="48" width="12" height="6" style="fill:#ececec;stroke:#858484;stroke-width:0.5px;"/><rect x="0" y="36" width="12" height="6" style="fill:#ececec;stroke:#858484;stroke-width:0.5px;"/><rect x="0" y="42" width="12" height="6" style="fill:#242424;stroke:#858484;stroke-width:0.5px;"/></g><rect x="204" y="36" width="48" height="144" style="fill:#ececec;stroke:#858484;stroke-width:0.5px;"/><path d="M216,36l0,144" style="fill:none;stroke:#858484;stroke-opacity:0.14;stroke-width:0.5px;"/><path d="M228,36l0,144" style="fill:none;stroke:#858484;stroke-opacity:0.14;stroke-width:0.5px;"/><path d="M240,36l0,144" style="fill:none;stroke:#858484;stroke-opacity:0.14;stroke-width:0.5px;"/><rect x="252" y="36" width="48" height="144" style="fill:#ececec;stroke:#858484;stroke-width:0.5px;"/><path d="M264,36l0,144" style="fill:none;stroke:#858484;stroke-opacity:0.14;stroke-width:0.5px;"/><path d="M276,36l0,144" style="fill:none;stroke:#858484;stroke-opacity:0.14;stroke-width:0.5px;"/><path d="M288,36l0,144" style="fill:none;stroke:#858484;stroke-opacity:0.14;stroke-width:0.5px;"/><rect x="300" y="36" width="48" height="144" style="fill:#ececec;stroke:#858484;stroke-width:0.5px;"/><path d="M312,36l0,144" style="fill:none;stroke:#858484;stroke-opacity:0.14;stroke-width:0.5px;"/><path d="M324,36l0,144" style="fill:none;stroke:#858484;stroke-opacity:0.14;stroke-width:0.5px;"/><path d="M336,36l0,144" style="fill:none;stroke:#858484;stroke-opacity:0.14;stroke-width:0.5px;"/><rect x="348" y="36" width="48" height="144" style="fill:#ececec;stroke:#858484;stroke-width:0.5px;"/><path d="M360,36l0,144" style="fill:none;stroke:#858484;stroke-opacity:0.14;stroke-width:0.5px;"/><path d="M372,36l0,144" style="fill:none;stroke:#858484;stroke-opacity:0.14;stroke-width:0.5px;"/><path d="M384,36l0,144" style="fill:none;stroke:#858484;stroke-opacity:0.14;stroke-width:0.5px;"/><rect x="12" y="102" width="12" height="6" style="fill:#f00;stroke:#858484;stroke-width:0.5px;"/><rect x="24" y="90" width="12" height="6" style="fill:#f00;stroke:#858484;stroke-width:0.5px;"/><rect x="36" y="78" width="12" height="6" style="fill:#f00;stroke:#858484;stroke-width:0.5px;"/><rect x="36" y="78" width="12" height="6" style="fill:#f00;stroke:#858484;stroke-width:0.5px;"/><rect x="48" y="66" width="12" height="6" style="fill:#f00;stroke:#858484;stroke-width:0.5px;"/><rect x="60" y="102" width="12" height="6" style="fill:#f00;stroke:#858484;stroke-width:0.5px;"/><rect x="72" y="90" width="12" height="6" style="fill:#f00;stroke:#858484;stroke-width:0.5px;"/><rect x="84" y="78" width="12" height="6" style="fill:#f00;stroke:#858484;stroke-width:0.5px;"/><rect x="96" y="66" width="12" height="6" style="fill:#f00;stroke:#858484;stroke-width:0.5px;"/><rect x="108" y="102" width="12" height="6" style="fill:#f00;stroke:#858484;stroke-width:0.5px;"/><rect x="120" y="90" width="12" height="6" style="fill:#f00;stroke:#858484;stroke-width:0.5px;"/><rect x="132" y="78" width="12" height="6" style="fill:#f00;stroke:#858484;stroke-width:0.5px;"/><rect x="144" y="66" width="12" height="6" style="fill:#f00;stroke:#858484;stroke-width:0.5px;"/><rect x="156" y="102" width="12" height="6" style="fill:#f00;stroke:#858484;stroke-width:0.5px;"/><rect x="168" y="90" width="12" height="6" style="fill:#f00;stroke:#858484;stroke-width:0.5px;"/><rect x="180" y="78" width="12" height="6" style="fill:#f00;stroke:#858484;stroke-width:0.5px;"/><rect x="192" y="66" width="12" height="6" style="fill:#f00;stroke:#858484;stroke-width:0.5px;"/><rect x="204" y="102" width="12" height="6" style="fill:#f00;stroke:#858484;stroke-width:0.5px;"/><rect x="216" y="90" width="12" height="6" style="fill:#f00;stroke:#858484;stroke-width:0.5px;"/><rect x="228" y="78" width="12" height="6" style="fill:#f00;stroke:#858484;stroke-width:0.5px;"/><rect x="240" y="66" width="12" height="6" style="fill:#f00;stroke:#858484;stroke-width:0.5px;"/><rect x="252" y="102" width="12" height="6" style="fill:#f00;stroke:#858484;stroke-width:0.5px;"/><rect x="264" y="90" width="12" height="6" style="fill:#f00;stroke:#858484;stroke-width:0.5px;"/><rect x="276" y="78" width="12" height="6" style="fill:#f00;stroke:#858484;stroke-width:0.5px;"/><rect x="288" y="66" width="12" height="6" style="fill:#f00;stroke:#858484;stroke-width:0.5px;"/><rect x="300" y="102" width="12" height="6" style="fill:#f00;stroke:#858484;stroke-width:0.5px;"/><rect x="312" y="90" width="12" height="6" style="fill:#f00;stroke:#858484;stroke-width:0.5px;"/><rect x="324" y="78" width="12" height="6" style="fill:#f00;stroke:#858484;stroke-width:0.5px;"/><rect x="336" y="66" width="12" height="6" style="fill:#f00;stroke:#858484;stroke-width:0.5px;"/><rect x="348" y="102" width="12" height="6" style="fill:#f00;stroke:#858484;stroke-width:0.5px;"/><rect x="360" y="90" width="12" height="6" style="fill:#f00;stroke:#858484;stroke-width:0.5px;"/><rect x="372" y="78" width="12" height="6" style="fill:#f00;stroke:#858484;stroke-width:0.5px;"/><rect x="384" y="66" width="12" height="6" style="fill:#f00;stroke:#858484;stroke-width:0.5px;"/><rect x="12" y="174" width="12" height="6" style="fill:#f00;stroke:#858484;stroke-width:0.5px;"/><rect x="12" y="162" width="12" height="6" style="fill:#f00;stroke:#858484;stroke-width:0.5px;"/><rect x="12" y="150" width="12" height="6" style="fill:#f00;stroke:#858484;stroke-width:0.5px;"/><rect x="204" y="174" width="12" height="6" style="fill:#f00;stroke:#858484;stroke-width:0.5px;"/><rect x="204" y="162" width="12" height="6" style="fill:#f00;stroke:#858484;stroke-width:0.5px;"/><rect x="204" y="150" width="12" height="6" style="fill:#f00;stroke:#858484;stroke-width:0.5px;"/><rect x="156" y="174" width="12" height="6" style="fill:#f00;stroke:#858484;stroke-width:0.5px;"/><rect x="156" y="162" width="12" height="6" style="fill:#f00;stroke:#858484;stroke-width:0.5px;"/><rect x="156" y="150" width="12" height="6" style="fill:#f00;stroke:#858484;stroke-width:0.5px;"/><g transform="matrix(1,0,0,1,30.2396,-178.176)"><g transform="matrix(10,0,0,10,-18.6351,193.473)"><path d="M0.476,-0.329l-0.297,0l0,0.252l0.346,0l0,0.077l-0.436,0l-0,-0.711l0.432,0l-0,0.077l-0.342,0l0,0.229l0.297,-0l0,0.076Z" style="fill:#fff;fill-rule:nonzero;"/></g><g transform="matrix(10,0,0,10,-12.6341,193.473)"><path d="M0.305,-0.432l0.153,-0.279l0.107,0l-0.207,0.353l0.212,0.358l-0.106,0l-0.157,-0.284l-0.158,0.284l-0.107,0l0.212,-0.358l-0.206,-0.353l0.106,0l0.151,0.279Z" style="fill:#fff;fill-rule:nonzero;"/></g><g transform="matrix(10,0,0,10,-6.63315,193.473)"><path d="M0.424,-0.184l-0.237,-0l-0.057,0.184l-0.09,-0l0.229,-0.711l0.076,0l0.225,0.711l-0.09,-0l-0.056,-0.184Zm-0.213,-0.079l0.189,0l-0.093,-0.308l-0.096,0.308Z" style="fill:#fff;fill-rule:nonzero;"/></g><g transform="matrix(10,0,0,10,-0.632173,193.473)"><path d="M0.184,-0.711l0.116,0.356l0.125,-0.356l0.112,0l0,0.711l-0.088,-0l0,-0.284l0.008,-0.297l-0.132,0.383l-0.052,0l-0.12,-0.372l0.007,0.286l0,0.284l-0.088,-0l0,-0.711l0.112,0Z" style="fill:#fff;fill-rule:nonzero;"/></g><g transform="matrix(10,0,0,10,5.3688,193.473)"><path d="M0.184,-0.285l-0,0.285l-0.091,-0l0,-0.711l0.231,0c0.032,0.001 0.062,0.006 0.09,0.015c0.029,0.01 0.054,0.023 0.075,0.041c0.022,0.018 0.039,0.04 0.051,0.067c0.013,0.026 0.019,0.056 0.019,0.09c0,0.035 -0.006,0.065 -0.019,0.091c-0.012,0.026 -0.029,0.048 -0.051,0.066c-0.021,0.018 -0.046,0.032 -0.075,0.041c-0.028,0.01 -0.058,0.015 -0.09,0.015l-0.14,-0Zm-0,-0.074l0.14,-0c0.021,-0.001 0.04,-0.004 0.057,-0.01c0.018,-0.007 0.033,-0.016 0.046,-0.027c0.013,-0.012 0.023,-0.026 0.031,-0.043c0.007,-0.017 0.011,-0.036 0.011,-0.058c-0,-0.021 -0.004,-0.04 -0.011,-0.058c-0.008,-0.017 -0.018,-0.032 -0.031,-0.044c-0.012,-0.012 -0.028,-0.021 -0.045,-0.027c-0.018,-0.007 -0.037,-0.01 -0.058,-0.011l-0.14,0l-0,0.278Z" style="fill:#fff;fill-rule:nonzero;"/></g><g transform="matrix(10,0,0,10,11.3698,193.473)"><path d="M0.187,-0.077l0.348,0l-0,0.077l-0.438,-0l-0,-0.711l0.09,0l0,0.634Z" style="fill:#fff;fill-rule:nonzero;"/></g><g transform="matrix(10,0,0,10,17.3708,193.473)"><path d="M0.476,-0.329l-0.297,0l0,0.252l0.346,0l0,0.077l-0.436,0l-0,-0.711l0.432,0l-0,0.077l-0.342,0l0,0.229l0.297,-0l0,0.076Z" style="fill:#fff;fill-rule:nonzero;"/></g><g transform="matrix(10,0,0,10,29.3727,193.473)"><path d="M0.084,-0l-0,-0.711l0.211,0c0.03,0 0.058,0.004 0.086,0.012c0.028,0.007 0.053,0.018 0.075,0.033c0.022,0.016 0.039,0.035 0.052,0.059c0.013,0.024 0.02,0.052 0.019,0.086c0,0.018 -0.003,0.035 -0.009,0.05c-0.005,0.016 -0.013,0.029 -0.023,0.042c-0.01,0.012 -0.022,0.022 -0.035,0.032c-0.013,0.009 -0.028,0.016 -0.043,0.023c0.019,0.006 0.037,0.013 0.052,0.024c0.016,0.01 0.03,0.022 0.041,0.037c0.012,0.014 0.021,0.031 0.027,0.049c0.006,0.018 0.009,0.038 0.009,0.059c0.001,0.033 -0.006,0.062 -0.019,0.088c-0.013,0.025 -0.03,0.046 -0.052,0.064c-0.022,0.017 -0.047,0.03 -0.075,0.039c-0.029,0.009 -0.058,0.014 -0.088,0.014l-0.228,-0Zm0.091,-0.333l-0,0.256l0.139,0c0.019,0 0.037,-0.003 0.054,-0.009c0.017,-0.006 0.032,-0.015 0.045,-0.025c0.013,-0.011 0.023,-0.024 0.031,-0.04c0.007,-0.016 0.011,-0.033 0.011,-0.053c0,-0.02 -0.003,-0.038 -0.01,-0.054c-0.007,-0.015 -0.017,-0.029 -0.029,-0.04c-0.012,-0.011 -0.027,-0.019 -0.043,-0.025c-0.017,-0.006 -0.035,-0.009 -0.054,-0.01l-0.144,0Zm-0,-0.075l0.126,0c0.017,-0 0.033,-0.003 0.05,-0.008c0.016,-0.005 0.03,-0.012 0.043,-0.022c0.013,-0.009 0.023,-0.021 0.031,-0.035c0.008,-0.014 0.012,-0.03 0.012,-0.049c-0,-0.02 -0.004,-0.037 -0.012,-0.051c-0.008,-0.014 -0.018,-0.025 -0.031,-0.034c-0.013,-0.009 -0.027,-0.016 -0.044,-0.02c-0.017,-0.004 -0.034,-0.006 -0.052,-0.007l-0.123,0l-0,0.226Z" style="fill:#fff;fill-rule:nonzero;"/></g><g transform="matrix(10,0,0,10,53.3766,193.473)"><path d="M0.436,-0.14c0,-0.011 -0.002,-0.021 -0.006,-0.029c-0.005,-0.009 -0.012,-0.017 -0.022,-0.024c-0.01,-0.007 -0.023,-0.014 -0.04,-0.02c-0.016,-0.006 -0.037,-0.011 -0.062,-0.016c-0.03,-0.006 -0.058,-0.014 -0.083,-0.022c-0.025,-0.009 -0.046,-0.02 -0.064,-0.032c-0.017,-0.012 -0.031,-0.026 -0.041,-0.043c-0.01,-0.016 -0.014,-0.035 -0.014,-0.057c-0,-0.022 0.005,-0.042 0.015,-0.061c0.01,-0.018 0.024,-0.035 0.042,-0.049c0.018,-0.014 0.04,-0.025 0.065,-0.033c0.026,-0.008 0.053,-0.012 0.084,-0.012c0.032,-0 0.061,0.004 0.087,0.013c0.027,0.008 0.049,0.02 0.067,0.035c0.018,0.015 0.032,0.032 0.042,0.052c0.01,0.02 0.015,0.042 0.015,0.065l-0.09,-0c-0,-0.011 -0.003,-0.023 -0.009,-0.033c-0.006,-0.011 -0.014,-0.021 -0.025,-0.03c-0.01,-0.008 -0.023,-0.015 -0.037,-0.02c-0.015,-0.005 -0.032,-0.008 -0.05,-0.008c-0.02,0 -0.036,0.002 -0.051,0.006c-0.014,0.005 -0.026,0.01 -0.036,0.018c-0.01,0.007 -0.017,0.015 -0.022,0.024c-0.005,0.01 -0.007,0.02 -0.007,0.03c-0,0.01 0.002,0.019 0.006,0.028c0.004,0.008 0.01,0.015 0.02,0.022c0.01,0.006 0.022,0.012 0.039,0.017c0.016,0.005 0.036,0.01 0.061,0.015c0.032,0.007 0.062,0.015 0.087,0.024c0.026,0.009 0.048,0.02 0.065,0.032c0.018,0.013 0.031,0.027 0.04,0.044c0.01,0.016 0.014,0.036 0.014,0.058c0,0.023 -0.005,0.044 -0.016,0.063c-0.01,0.02 -0.025,0.036 -0.044,0.05c-0.019,0.013 -0.041,0.024 -0.068,0.032c-0.026,0.007 -0.055,0.011 -0.086,0.011c-0.036,-0 -0.068,-0.005 -0.096,-0.015c-0.028,-0.009 -0.051,-0.022 -0.071,-0.038c-0.019,-0.016 -0.034,-0.034 -0.044,-0.055c-0.01,-0.02 -0.016,-0.042 -0.016,-0.065l0.091,0c0.001,0.019 0.006,0.035 0.015,0.047c0.008,0.013 0.019,0.023 0.032,0.031c0.013,0.008 0.027,0.013 0.043,0.017c0.015,0.003 0.031,0.005 0.046,0.005c0.038,-0 0.068,-0.007 0.09,-0.021c0.022,-0.014 0.034,-0.033 0.034,-0.056Z" style="fill:#fff;fill-rule:nonzero;"/></g><g transform="matrix(10,0,0,10,59.3776,193.473)"><path d="M0.299,-0.656l-0,0.128l0.201,-0l0,0.07l-0.201,-0l-0,0.287c-0,0.02 0.002,0.037 0.008,0.05c0.005,0.014 0.012,0.024 0.021,0.032c0.009,0.008 0.02,0.014 0.032,0.017c0.012,0.003 0.024,0.005 0.037,0.005c0.01,0 0.02,-0 0.031,-0.002c0.01,-0.001 0.02,-0.002 0.03,-0.004c0.01,-0.001 0.019,-0.003 0.028,-0.005c0.009,-0.002 0.016,-0.003 0.021,-0.005l0.013,0.064c-0.007,0.005 -0.017,0.009 -0.027,0.012c-0.011,0.004 -0.023,0.007 -0.035,0.009c-0.013,0.003 -0.027,0.005 -0.041,0.006c-0.014,0.001 -0.028,0.002 -0.042,0.002c-0.023,-0 -0.045,-0.004 -0.066,-0.01c-0.02,-0.007 -0.038,-0.017 -0.053,-0.032c-0.015,-0.014 -0.026,-0.033 -0.035,-0.056c-0.009,-0.023 -0.013,-0.051 -0.013,-0.083l0,-0.287l-0.139,-0l0,-0.07l0.139,-0l0,-0.128l0.091,-0Z" style="fill:#fff;fill-rule:nonzero;"/></g><g transform="matrix(10,0,0,10,65.3786,193.473)"><path d="M0.432,-0c-0.003,-0.007 -0.006,-0.015 -0.008,-0.026c-0.003,-0.01 -0.004,-0.021 -0.005,-0.032c-0.009,0.009 -0.019,0.018 -0.031,0.026c-0.011,0.008 -0.023,0.016 -0.037,0.022c-0.013,0.006 -0.028,0.011 -0.043,0.014c-0.015,0.004 -0.031,0.006 -0.049,0.006c-0.028,-0 -0.053,-0.004 -0.076,-0.012c-0.022,-0.009 -0.041,-0.02 -0.057,-0.033c-0.016,-0.014 -0.028,-0.031 -0.037,-0.05c-0.009,-0.019 -0.013,-0.039 -0.013,-0.061c0,-0.029 0.006,-0.055 0.018,-0.077c0.011,-0.021 0.027,-0.04 0.049,-0.054c0.021,-0.015 0.046,-0.025 0.076,-0.033c0.03,-0.007 0.063,-0.01 0.1,-0.01l0.098,-0l0,-0.042c0,-0.016 -0.002,-0.03 -0.008,-0.043c-0.006,-0.012 -0.014,-0.023 -0.025,-0.032c-0.011,-0.009 -0.024,-0.016 -0.04,-0.021c-0.015,-0.005 -0.032,-0.007 -0.052,-0.007c-0.017,-0 -0.033,0.002 -0.048,0.007c-0.014,0.004 -0.026,0.01 -0.036,0.018c-0.009,0.007 -0.017,0.016 -0.022,0.026c-0.006,0.01 -0.008,0.021 -0.008,0.032l-0.091,0c0,-0.019 0.005,-0.038 0.015,-0.056c0.009,-0.019 0.023,-0.036 0.041,-0.051c0.018,-0.014 0.04,-0.026 0.066,-0.035c0.026,-0.01 0.055,-0.014 0.088,-0.014c0.03,-0 0.058,0.004 0.084,0.011c0.026,0.007 0.048,0.018 0.067,0.033c0.018,0.015 0.033,0.033 0.044,0.056c0.01,0.022 0.016,0.048 0.016,0.077l-0,0.246c-0,0.017 0.001,0.036 0.005,0.056c0.003,0.019 0.008,0.037 0.013,0.051l0,0.008l-0.094,-0Zm-0.16,-0.069c0.018,0 0.034,-0.002 0.05,-0.007c0.015,-0.004 0.029,-0.01 0.042,-0.018c0.012,-0.007 0.023,-0.016 0.032,-0.025c0.009,-0.01 0.016,-0.02 0.021,-0.03l0,-0.107l-0.084,-0c-0.052,-0 -0.093,0.007 -0.123,0.023c-0.029,0.016 -0.043,0.04 -0.043,0.074c-0,0.013 0.002,0.025 0.006,0.036c0.004,0.011 0.011,0.021 0.02,0.029c0.009,0.007 0.02,0.014 0.033,0.018c0.013,0.005 0.029,0.007 0.046,0.007Z" style="fill:#fff;fill-rule:nonzero;"/></g><g transform="matrix(10,0,0,10,71.3795,193.473)"><path d="M0.431,-0.538c0.009,-0 0.017,0 0.027,0.001c0.009,0 0.017,0.001 0.026,0.002c0.008,0.001 0.016,0.003 0.023,0.004c0.007,0.002 0.012,0.004 0.017,0.006l-0.012,0.088c-0.018,-0.004 -0.035,-0.007 -0.05,-0.009c-0.016,-0.001 -0.033,-0.002 -0.05,-0.002c-0.042,-0 -0.076,0.009 -0.103,0.029c-0.026,0.019 -0.045,0.046 -0.058,0.08l0,0.339l-0.09,-0l-0,-0.528l0.086,-0l0.004,0.084c0.021,-0.029 0.047,-0.052 0.077,-0.069c0.03,-0.017 0.065,-0.025 0.103,-0.025Z" style="fill:#fff;fill-rule:nonzero;"/></g><g transform="matrix(10,0,0,10,77.3805,193.473)"><path d="M0.299,-0.656l-0,0.128l0.201,-0l0,0.07l-0.201,-0l-0,0.287c-0,0.02 0.002,0.037 0.008,0.05c0.005,0.014 0.012,0.024 0.021,0.032c0.009,0.008 0.02,0.014 0.032,0.017c0.012,0.003 0.024,0.005 0.037,0.005c0.01,0 0.02,-0 0.031,-0.002c0.01,-0.001 0.02,-0.002 0.03,-0.004c0.01,-0.001 0.019,-0.003 0.028,-0.005c0.009,-0.002 0.016,-0.003 0.021,-0.005l0.013,0.064c-0.007,0.005 -0.017,0.009 -0.027,0.012c-0.011,0.004 -0.023,0.007 -0.035,0.009c-0.013,0.003 -0.027,0.005 -0.041,0.006c-0.014,0.001 -0.028,0.002 -0.042,0.002c-0.023,-0 -0.045,-0.004 -0.066,-0.01c-0.02,-0.007 -0.038,-0.017 -0.053,-0.032c-0.015,-0.014 -0.026,-0.033 -0.035,-0.056c-0.009,-0.023 -0.013,-0.051 -0.013,-0.083l0,-0.287l-0.139,-0l0,-0.07l0.139,-0l0,-0.128l0.091,-0Z" style="fill:#fff;fill-rule:nonzero;"/></g><g transform="matrix(10,0,0,10,89.3825,193.473)"><path d="M0.06,-0.269c-0,-0.038 0.005,-0.074 0.016,-0.106c0.011,-0.033 0.027,-0.061 0.048,-0.085c0.02,-0.025 0.046,-0.043 0.075,-0.057c0.03,-0.014 0.063,-0.021 0.1,-0.021c0.038,-0 0.071,0.007 0.101,0.021c0.03,0.014 0.055,0.032 0.076,0.057c0.021,0.024 0.036,0.052 0.047,0.085c0.012,0.032 0.017,0.068 0.017,0.106l0,0.011c0,0.038 -0.005,0.073 -0.017,0.106c-0.011,0.032 -0.026,0.061 -0.047,0.085c-0.021,0.024 -0.046,0.043 -0.076,0.056c-0.029,0.014 -0.063,0.021 -0.1,0.021c-0.037,-0 -0.071,-0.007 -0.101,-0.021c-0.029,-0.013 -0.055,-0.032 -0.075,-0.056c-0.021,-0.024 -0.037,-0.053 -0.048,-0.085c-0.011,-0.033 -0.016,-0.068 -0.016,-0.106l-0,-0.011Zm0.09,0.011c-0,0.026 0.003,0.051 0.009,0.074c0.006,0.024 0.016,0.045 0.028,0.062c0.013,0.018 0.028,0.032 0.047,0.043c0.019,0.01 0.041,0.016 0.066,0.016c0.025,-0 0.047,-0.006 0.065,-0.016c0.019,-0.011 0.035,-0.025 0.047,-0.043c0.013,-0.017 0.022,-0.038 0.028,-0.062c0.007,-0.023 0.01,-0.048 0.01,-0.074l-0,-0.011c-0,-0.026 -0.003,-0.05 -0.01,-0.074c-0.006,-0.024 -0.016,-0.044 -0.028,-0.062c-0.013,-0.018 -0.028,-0.032 -0.047,-0.043c-0.019,-0.011 -0.041,-0.016 -0.066,-0.016c-0.025,0 -0.047,0.005 -0.065,0.016c-0.019,0.011 -0.034,0.025 -0.047,0.043c-0.012,0.018 -0.022,0.038 -0.028,0.062c-0.006,0.024 -0.009,0.048 -0.009,0.074l-0,0.011Z" style="fill:#fff;fill-rule:nonzero;"/></g><g transform="matrix(10,0,0,10,95.3835,193.473)"><path d="M0.166,-0.528l0.006,0.078c0.02,-0.028 0.043,-0.049 0.071,-0.064c0.028,-0.016 0.059,-0.024 0.094,-0.024c0.028,-0 0.053,0.004 0.075,0.012c0.023,0.007 0.042,0.02 0.058,0.036c0.016,0.017 0.028,0.038 0.037,0.063c0.009,0.026 0.013,0.056 0.013,0.092l0,0.335l-0.09,-0l-0,-0.333c-0,-0.024 -0.003,-0.044 -0.008,-0.06c-0.005,-0.016 -0.013,-0.03 -0.023,-0.04c-0.011,-0.01 -0.023,-0.017 -0.038,-0.022c-0.015,-0.004 -0.032,-0.006 -0.051,-0.006c-0.03,-0 -0.057,0.007 -0.08,0.022c-0.023,0.015 -0.041,0.035 -0.055,0.06l0,0.379l-0.09,-0l-0,-0.528l0.081,-0Z" style="fill:#fff;fill-rule:nonzero;"/></g><g transform="matrix(10,0,0,10,101.384,193.473)"><path d="M0.267,-0.059c-0,-0.009 0.001,-0.018 0.004,-0.027c0.003,-0.008 0.008,-0.016 0.014,-0.022c0.006,-0.007 0.013,-0.011 0.022,-0.015c0.008,-0.004 0.019,-0.005 0.03,-0.005c0.012,-0 0.022,0.001 0.031,0.005c0.009,0.004 0.017,0.008 0.023,0.015c0.006,0.006 0.01,0.014 0.014,0.022c0.003,0.009 0.004,0.018 0.004,0.027c0,0.01 -0.001,0.019 -0.004,0.027c-0.004,0.008 -0.008,0.016 -0.014,0.022c-0.006,0.006 -0.014,0.011 -0.023,0.014c-0.009,0.004 -0.019,0.005 -0.031,0.005c-0.011,0 -0.022,-0.001 -0.03,-0.005c-0.009,-0.003 -0.016,-0.008 -0.022,-0.014c-0.006,-0.006 -0.011,-0.014 -0.014,-0.022c-0.003,-0.008 -0.004,-0.017 -0.004,-0.027Zm-0,-0.427c-0,-0.01 0.001,-0.019 0.004,-0.028c0.003,-0.008 0.008,-0.016 0.014,-0.022c0.006,-0.006 0.013,-0.011 0.022,-0.015c0.008,-0.003 0.019,-0.005 0.03,-0.005c0.012,-0 0.022,0.002 0.031,0.005c0.009,0.004 0.017,0.009 0.023,0.015c0.006,0.006 0.01,0.014 0.014,0.022c0.003,0.009 0.004,0.018 0.004,0.028c0,0.009 -0.001,0.018 -0.004,0.026c-0.004,0.009 -0.008,0.016 -0.014,0.022c-0.006,0.006 -0.014,0.011 -0.023,0.014c-0.009,0.004 -0.019,0.006 -0.031,0.006c-0.011,-0 -0.022,-0.002 -0.03,-0.006c-0.009,-0.003 -0.016,-0.008 -0.022,-0.014c-0.006,-0.006 -0.011,-0.013 -0.014,-0.022c-0.003,-0.008 -0.004,-0.017 -0.004,-0.026Z" style="fill:#fff;fill-rule:nonzero;"/></g><g transform="matrix(10,0,0,10,113.386,193.473)"><path d="M0.436,-0.14c0,-0.011 -0.002,-0.021 -0.006,-0.029c-0.005,-0.009 -0.012,-0.017 -0.022,-0.024c-0.01,-0.007 -0.023,-0.014 -0.04,-0.02c-0.016,-0.006 -0.037,-0.011 -0.062,-0.016c-0.03,-0.006 -0.058,-0.014 -0.083,-0.022c-0.025,-0.009 -0.046,-0.02 -0.064,-0.032c-0.017,-0.012 -0.031,-0.026 -0.041,-0.043c-0.01,-0.016 -0.014,-0.035 -0.014,-0.057c-0,-0.022 0.005,-0.042 0.015,-0.061c0.01,-0.018 0.024,-0.035 0.042,-0.049c0.018,-0.014 0.04,-0.025 0.065,-0.033c0.026,-0.008 0.053,-0.012 0.084,-0.012c0.032,-0 0.061,0.004 0.087,0.013c0.027,0.008 0.049,0.02 0.067,0.035c0.018,0.015 0.032,0.032 0.042,0.052c0.01,0.02 0.015,0.042 0.015,0.065l-0.09,-0c-0,-0.011 -0.003,-0.023 -0.009,-0.033c-0.006,-0.011 -0.014,-0.021 -0.025,-0.03c-0.01,-0.008 -0.023,-0.015 -0.037,-0.02c-0.015,-0.005 -0.032,-0.008 -0.05,-0.008c-0.02,0 -0.036,0.002 -0.051,0.006c-0.014,0.005 -0.026,0.01 -0.036,0.018c-0.01,0.007 -0.017,0.015 -0.022,0.024c-0.005,0.01 -0.007,0.02 -0.007,0.03c-0,0.01 0.002,0.019 0.006,0.028c0.004,0.008 0.01,0.015 0.02,0.022c0.01,0.006 0.022,0.012 0.039,0.017c0.016,0.005 0.036,0.01 0.061,0.015c0.032,0.007 0.062,0.015 0.087,0.024c0.026,0.009 0.048,0.02 0.065,0.032c0.018,0.013 0.031,0.027 0.04,0.044c0.01,0.016 0.014,0.036 0.014,0.058c0,0.023 -0.005,0.044 -0.016,0.063c-0.01,0.02 -0.025,0.036 -0.044,0.05c-0.019,0.013 -0.041,0.024 -0.068,0.032c-0.026,0.007 -0.055,0.011 -0.086,0.011c-0.036,-0 -0.068,-0.005 -0.096,-0.015c-0.028,-0.009 -0.051,-0.022 -0.071,-0.038c-0.019,-0.016 -0.034,-0.034 -0.044,-0.055c-0.01,-0.02 -0.016,-0.042 -0.016,-0.065l0.091,0c0.001,0.019 0.006,0.035 0.015,0.047c0.008,0.013 0.019,0.023 0.032,0.031c0.013,0.008 0.027,0.013 0.043,0.017c0.015,0.003 0.031,0.005 0.046,0.005c0.038,-0 0.068,-0.007 0.09,-0.021c0.022,-0.014 0.034,-0.033 0.034,-0.056Z" style="fill:#fff;fill-rule:nonzero;"/></g><g transform="matrix(10,0,0,10,119.387,193.473)"><path d="M0.299,-0.656l-0,0.128l0.201,-0l0,0.07l-0.201,-0l-0,0.287c-0,0.02 0.002,0.037 0.008,0.05c0.005,0.014 0.012,0.024 0.021,0.032c0.009,0.008 0.02,0.014 0.032,0.017c0.012,0.003 0.024,0.005 0.037,0.005c0.01,0 0.02,-0 0.031,-0.002c0.01,-0.001 0.02,-0.002 0.03,-0.004c0.01,-0.001 0.019,-0.003 0.028,-0.005c0.009,-0.002 0.016,-0.003 0.021,-0.005l0.013,0.064c-0.007,0.005 -0.017,0.009 -0.027,0.012c-0.011,0.004 -0.023,0.007 -0.035,0.009c-0.013,0.003 -0.027,0.005 -0.041,0.006c-0.014,0.001 -0.028,0.002 -0.042,0.002c-0.023,-0 -0.045,-0.004 -0.066,-0.01c-0.02,-0.007 -0.038,-0.017 -0.053,-0.032c-0.015,-0.014 -0.026,-0.033 -0.035,-0.056c-0.009,-0.023 -0.013,-0.051 -0.013,-0.083l0,-0.287l-0.139,-0l0,-0.07l0.139,-0l0,-0.128l0.091,-0Z" style="fill:#fff;fill-rule:nonzero;"/></g><g transform="matrix(10,0,0,10,125.388,193.473)"><path d="M0.318,0.01c-0.037,-0 -0.071,-0.007 -0.102,-0.019c-0.031,-0.013 -0.058,-0.031 -0.08,-0.054c-0.022,-0.022 -0.039,-0.049 -0.052,-0.081c-0.012,-0.031 -0.018,-0.065 -0.018,-0.102l-0,-0.02c-0,-0.043 0.007,-0.081 0.02,-0.115c0.014,-0.033 0.032,-0.062 0.055,-0.085c0.022,-0.023 0.048,-0.041 0.077,-0.054c0.029,-0.012 0.058,-0.018 0.089,-0.018c0.038,-0 0.071,0.007 0.099,0.02c0.029,0.013 0.053,0.031 0.072,0.054c0.018,0.024 0.032,0.051 0.042,0.083c0.009,0.031 0.014,0.065 0.014,0.102l-0,0.041l-0.378,-0c0.001,0.024 0.006,0.046 0.014,0.068c0.008,0.021 0.02,0.039 0.034,0.055c0.015,0.016 0.032,0.028 0.052,0.037c0.021,0.009 0.043,0.014 0.067,0.014c0.032,0 0.061,-0.006 0.086,-0.019c0.025,-0.014 0.046,-0.031 0.063,-0.052l0.055,0.043c-0.009,0.013 -0.02,0.026 -0.033,0.038c-0.013,0.012 -0.029,0.023 -0.046,0.033c-0.017,0.009 -0.037,0.017 -0.058,0.022c-0.022,0.006 -0.046,0.009 -0.072,0.009Zm-0.011,-0.474c-0.019,0 -0.036,0.003 -0.052,0.01c-0.016,0.007 -0.031,0.017 -0.044,0.029c-0.013,0.013 -0.024,0.029 -0.033,0.048c-0.009,0.019 -0.015,0.04 -0.019,0.065l0.284,-0.001l0,-0.006c-0.001,-0.018 -0.004,-0.035 -0.01,-0.053c-0.005,-0.017 -0.014,-0.032 -0.025,-0.046c-0.011,-0.014 -0.025,-0.025 -0.042,-0.033c-0.016,-0.009 -0.036,-0.013 -0.059,-0.013Z" style="fill:#fff;fill-rule:nonzero;"/></g><g transform="matrix(10,0,0,10,131.389,193.473)"><path d="M0.531,-0.258c-0,0.037 -0.005,0.073 -0.014,0.105c-0.009,0.033 -0.022,0.062 -0.04,0.086c-0.018,0.024 -0.039,0.043 -0.065,0.056c-0.026,0.014 -0.056,0.021 -0.089,0.021c-0.032,-0 -0.06,-0.005 -0.085,-0.016c-0.025,-0.01 -0.046,-0.025 -0.063,-0.045l-0,0.254l-0.091,0l0,-0.731l0.083,-0l0.004,0.057c0.018,-0.022 0.039,-0.038 0.064,-0.05c0.025,-0.011 0.054,-0.017 0.087,-0.017c0.034,-0 0.064,0.007 0.09,0.02c0.026,0.013 0.047,0.032 0.065,0.056c0.018,0.023 0.031,0.052 0.04,0.085c0.009,0.033 0.014,0.069 0.014,0.108l-0,0.011Zm-0.091,-0.011c0,-0.025 -0.002,-0.05 -0.008,-0.073c-0.006,-0.023 -0.015,-0.044 -0.026,-0.062c-0.012,-0.017 -0.027,-0.031 -0.046,-0.042c-0.018,-0.01 -0.04,-0.015 -0.065,-0.015c-0.029,-0 -0.053,0.006 -0.073,0.02c-0.02,0.013 -0.035,0.031 -0.047,0.052l-0,0.254c0.012,0.021 0.027,0.038 0.047,0.051c0.019,0.013 0.044,0.02 0.074,0.02c0.025,0 0.047,-0.005 0.065,-0.016c0.018,-0.01 0.033,-0.025 0.045,-0.043c0.011,-0.017 0.02,-0.038 0.026,-0.062c0.006,-0.023 0.008,-0.048 0.008,-0.073l0,-0.011Z" style="fill:#fff;fill-rule:nonzero;"/></g><rect x="-18.635" y="194.205" width="54.009" height="0.488" style="fill:#fff;"/><g transform="matrix(10,0,0,10,53.3766,203.473)"><path d="M0.431,-0.538c0.009,-0 0.017,0 0.027,0.001c0.009,0 0.017,0.001 0.026,0.002c0.008,0.001 0.016,0.003 0.023,0.004c0.007,0.002 0.012,0.004 0.017,0.006l-0.012,0.088c-0.018,-0.004 -0.035,-0.007 -0.05,-0.009c-0.016,-0.001 -0.033,-0.002 -0.05,-0.002c-0.042,-0 -0.076,0.009 -0.103,0.029c-0.026,0.019 -0.045,0.046 -0.058,0.08l0,0.339l-0.09,-0l-0,-0.528l0.086,-0l0.004,0.084c0.021,-0.029 0.047,-0.052 0.077,-0.069c0.03,-0.017 0.065,-0.025 0.103,-0.025Z" style="fill:#fff;fill-rule:nonzero;"/></g><g transform="matrix(10,0,0,10,59.3776,203.473)"><path d="M0.318,0.01c-0.037,-0 -0.071,-0.007 -0.102,-0.019c-0.031,-0.013 -0.058,-0.031 -0.08,-0.054c-0.022,-0.022 -0.039,-0.049 -0.052,-0.081c-0.012,-0.031 -0.018,-0.065 -0.018,-0.102l-0,-0.02c-0,-0.043 0.007,-0.081 0.02,-0.115c0.014,-0.033 0.032,-0.062 0.055,-0.085c0.022,-0.023 0.048,-0.041 0.077,-0.054c0.029,-0.012 0.058,-0.018 0.089,-0.018c0.038,-0 0.071,0.007 0.099,0.02c0.029,0.013 0.053,0.031 0.072,0.054c0.018,0.024 0.032,0.051 0.042,0.083c0.009,0.031 0.014,0.065 0.014,0.102l-0,0.041l-0.378,-0c0.001,0.024 0.006,0.046 0.014,0.068c0.008,0.021 0.02,0.039 0.034,0.055c0.015,0.016 0.032,0.028 0.052,0.037c0.021,0.009 0.043,0.014 0.067,0.014c0.032,0 0.061,-0.006 0.086,-0.019c0.025,-0.014 0.046,-0.031 0.063,-0.052l0.055,0.043c-0.009,0.013 -0.02,0.026 -0.033,0.038c-0.013,0.012 -0.029,0.023 -0.046,0.033c-0.017,0.009 -0.037,0.017 -0.058,0.022c-0.022,0.006 -0.046,0.009 -0.072,0.009Zm-0.011,-0.474c-0.019,0 -0.036,0.003 -0.052,0.01c-0.016,0.007 -0.031,0.017 -0.044,0.029c-0.013,0.013 -0.024,0.029 -0.033,0.048c-0.009,0.019 -0.015,0.04 -0.019,0.065l0.284,-0.001l0,-0.006c-0.001,-0.018 -0.004,-0.035 -0.01,-0.053c-0.005,-0.017 -0.014,-0.032 -0.025,-0.046c-0.011,-0.014 -0.025,-0.025 -0.042,-0.033c-0.016,-0.009 -0.036,-0.013 -0.059,-0.013Z" style="fill:#fff;fill-rule:nonzero;"/></g><g transform="matrix(10,0,0,10,65.3786,203.473)"><path d="M0.436,-0.14c0,-0.011 -0.002,-0.021 -0.006,-0.029c-0.005,-0.009 -0.012,-0.017 -0.022,-0.024c-0.01,-0.007 -0.023,-0.014 -0.04,-0.02c-0.016,-0.006 -0.037,-0.011 -0.062,-0.016c-0.03,-0.006 -0.058,-0.014 -0.083,-0.022c-0.025,-0.009 -0.046,-0.02 -0.064,-0.032c-0.017,-0.012 -0.031,-0.026 -0.041,-0.043c-0.01,-0.016 -0.014,-0.035 -0.014,-0.057c-0,-0.022 0.005,-0.042 0.015,-0.061c0.01,-0.018 0.024,-0.035 0.042,-0.049c0.018,-0.014 0.04,-0.025 0.065,-0.033c0.026,-0.008 0.053,-0.012 0.084,-0.012c0.032,-0 0.061,0.004 0.087,0.013c0.027,0.008 0.049,0.02 0.067,0.035c0.018,0.015 0.032,0.032 0.042,0.052c0.01,0.02 0.015,0.042 0.015,0.065l-0.09,-0c-0,-0.011 -0.003,-0.023 -0.009,-0.033c-0.006,-0.011 -0.014,-0.021 -0.025,-0.03c-0.01,-0.008 -0.023,-0.015 -0.037,-0.02c-0.015,-0.005 -0.032,-0.008 -0.05,-0.008c-0.02,0 -0.036,0.002 -0.051,0.006c-0.014,0.005 -0.026,0.01 -0.036,0.018c-0.01,0.007 -0.017,0.015 -0.022,0.024c-0.005,0.01 -0.007,0.02 -0.007,0.03c-0,0.01 0.002,0.019 0.006,0.028c0.004,0.008 0.01,0.015 0.02,0.022c0.01,0.006 0.022,0.012 0.039,0.017c0.016,0.005 0.036,0.01 0.061,0.015c0.032,0.007 0.062,0.015 0.087,0.024c0.026,0.009 0.048,0.02 0.065,0.032c0.018,0.013 0.031,0.027 0.04,0.044c0.01,0.016 0.014,0.036 0.014,0.058c0,0.023 -0.005,0.044 -0.016,0.063c-0.01,0.02 -0.025,0.036 -0.044,0.05c-0.019,0.013 -0.041,0.024 -0.068,0.032c-0.026,0.007 -0.055,0.011 -0.086,0.011c-0.036,-0 -0.068,-0.005 -0.096,-0.015c-0.028,-0.009 -0.051,-0.022 -0.071,-0.038c-0.019,-0.016 -0.034,-0.034 -0.044,-0.055c-0.01,-0.02 -0.016,-0.042 -0.016,-0.065l0.091,0c0.001,0.019 0.006,0.035 0.015,0.047c0.008,0.013 0.019,0.023 0.032,0.031c0.013,0.008 0.027,0.013 0.043,0.017c0.015,0.003 0.031,0.005 0.046,0.005c0.038,-0 0.068,-0.007 0.09,-0.021c0.022,-0.014 0.034,-0.033 0.034,-0.056Z" style="fill:#fff;fill-rule:nonzero;"/></g><g transform="matrix(10,0,0,10,71.3795,203.473)"><path d="M0.318,0.01c-0.037,-0 -0.071,-0.007 -0.102,-0.019c-0.031,-0.013 -0.058,-0.031 -0.08,-0.054c-0.022,-0.022 -0.039,-0.049 -0.052,-0.081c-0.012,-0.031 -0.018,-0.065 -0.018,-0.102l-0,-0.02c-0,-0.043 0.007,-0.081 0.02,-0.115c0.014,-0.033 0.032,-0.062 0.055,-0.085c0.022,-0.023 0.048,-0.041 0.077,-0.054c0.029,-0.012 0.058,-0.018 0.089,-0.018c0.038,-0 0.071,0.007 0.099,0.02c0.029,0.013 0.053,0.031 0.072,0.054c0.018,0.024 0.032,0.051 0.042,0.083c0.009,0.031 0.014,0.065 0.014,0.102l-0,0.041l-0.378,-0c0.001,0.024 0.006,0.046 0.014,0.068c0.008,0.021 0.02,0.039 0.034,0.055c0.015,0.016 0.032,0.028 0.052,0.037c0.021,0.009 0.043,0.014 0.067,0.014c0.032,0 0.061,-0.006 0.086,-0.019c0.025,-0.014 0.046,-0.031 0.063,-0.052l0.055,0.043c-0.009,0.013 -0.02,0.026 -0.033,0.038c-0.013,0.012 -0.029,0.023 -0.046,0.033c-0.017,0.009 -0.037,0.017 -0.058,0.022c-0.022,0.006 -0.046,0.009 -0.072,0.009Zm-0.011,-0.474c-0.019,0 -0.036,0.003 -0.052,0.01c-0.016,0.007 -0.031,0.017 -0.044,0.029c-0.013,0.013 -0.024,0.029 -0.033,0.048c-0.009,0.019 -0.015,0.04 -0.019,0.065l0.284,-0.001l0,-0.006c-0.001,-0.018 -0.004,-0.035 -0.01,-0.053c-0.005,-0.017 -0.014,-0.032 -0.025,-0.046c-0.011,-0.014 -0.025,-0.025 -0.042,-0.033c-0.016,-0.009 -0.036,-0.013 -0.059,-0.013Z" style="fill:#fff;fill-rule:nonzero;"/></g><g transform="matrix(10,0,0,10,77.3805,203.473)"><path d="M0.299,-0.656l-0,0.128l0.201,-0l0,0.07l-0.201,-0l-0,0.287c-0,0.02 0.002,0.037 0.008,0.05c0.005,0.014 0.012,0.024 0.021,0.032c0.009,0.008 0.02,0.014 0.032,0.017c0.012,0.003 0.024,0.005 0.037,0.005c0.01,0 0.02,-0 0.031,-0.002c0.01,-0.001 0.02,-0.002 0.03,-0.004c0.01,-0.001 0.019,-0.003 0.028,-0.005c0.009,-0.002 0.016,-0.003 0.021,-0.005l0.013,0.064c-0.007,0.005 -0.017,0.009 -0.027,0.012c-0.011,0.004 -0.023,0.007 -0.035,0.009c-0.013,0.003 -0.027,0.005 -0.041,0.006c-0.014,0.001 -0.028,0.002 -0.042,0.002c-0.023,-0 -0.045,-0.004 -0.066,-0.01c-0.02,-0.007 -0.038,-0.017 -0.053,-0.032c-0.015,-0.014 -0.026,-0.033 -0.035,-0.056c-0.009,-0.023 -0.013,-0.051 -0.013,-0.083l0,-0.287l-0.139,-0l0,-0.07l0.139,-0l0,-0.128l0.091,-0Z" style="fill:#fff;fill-rule:nonzero;"/></g><g transform="matrix(10,0,0,10,89.3825,203.473)"><path d="M0.06,-0.269c-0,-0.038 0.005,-0.074 0.016,-0.106c0.011,-0.033 0.027,-0.061 0.048,-0.085c0.02,-0.025 0.046,-0.043 0.075,-0.057c0.03,-0.014 0.063,-0.021 0.1,-0.021c0.038,-0 0.071,0.007 0.101,0.021c0.03,0.014 0.055,0.032 0.076,0.057c0.021,0.024 0.036,0.052 0.047,0.085c0.012,0.032 0.017,0.068 0.017,0.106l0,0.011c0,0.038 -0.005,0.073 -0.017,0.106c-0.011,0.032 -0.026,0.061 -0.047,0.085c-0.021,0.024 -0.046,0.043 -0.076,0.056c-0.029,0.014 -0.063,0.021 -0.1,0.021c-0.037,-0 -0.071,-0.007 -0.101,-0.021c-0.029,-0.013 -0.055,-0.032 -0.075,-0.056c-0.021,-0.024 -0.037,-0.053 -0.048,-0.085c-0.011,-0.033 -0.016,-0.068 -0.016,-0.106l-0,-0.011Zm0.09,0.011c-0,0.026 0.003,0.051 0.009,0.074c0.006,0.024 0.016,0.045 0.028,0.062c0.013,0.018 0.028,0.032 0.047,0.043c0.019,0.01 0.041,0.016 0.066,0.016c0.025,-0 0.047,-0.006 0.065,-0.016c0.019,-0.011 0.035,-0.025 0.047,-0.043c0.013,-0.017 0.022,-0.038 0.028,-0.062c0.007,-0.023 0.01,-0.048 0.01,-0.074l-0,-0.011c-0,-0.026 -0.003,-0.05 -0.01,-0.074c-0.006,-0.024 -0.016,-0.044 -0.028,-0.062c-0.013,-0.018 -0.028,-0.032 -0.047,-0.043c-0.019,-0.011 -0.041,-0.016 -0.066,-0.016c-0.025,0 -0.047,0.005 -0.065,0.016c-0.019,0.011 -0.034,0.025 -0.047,0.043c-0.012,0.018 -0.022,0.038 -0.028,0.062c-0.006,0.024 -0.009,0.048 -0.009,0.074l-0,0.011Z" style="fill:#fff;fill-rule:nonzero;"/></g><g transform="matrix(10,0,0,10,95.3835,203.473)"><path d="M0.166,-0.528l0.006,0.078c0.02,-0.028 0.043,-0.049 0.071,-0.064c0.028,-0.016 0.059,-0.024 0.094,-0.024c0.028,-0 0.053,0.004 0.075,0.012c0.023,0.007 0.042,0.02 0.058,0.036c0.016,0.017 0.028,0.038 0.037,0.063c0.009,0.026 0.013,0.056 0.013,0.092l0,0.335l-0.09,-0l-0,-0.333c-0,-0.024 -0.003,-0.044 -0.008,-0.06c-0.005,-0.016 -0.013,-0.03 -0.023,-0.04c-0.011,-0.01 -0.023,-0.017 -0.038,-0.022c-0.015,-0.004 -0.032,-0.006 -0.051,-0.006c-0.03,-0 -0.057,0.007 -0.08,0.022c-0.023,0.015 -0.041,0.035 -0.055,0.06l0,0.379l-0.09,-0l-0,-0.528l0.081,-0Z" style="fill:#fff;fill-rule:nonzero;"/></g><g transform="matrix(10,0,0,10,101.384,203.473)"><path d="M0.267,-0.059c-0,-0.009 0.001,-0.018 0.004,-0.027c0.003,-0.008 0.008,-0.016 0.014,-0.022c0.006,-0.007 0.013,-0.011 0.022,-0.015c0.008,-0.004 0.019,-0.005 0.03,-0.005c0.012,-0 0.022,0.001 0.031,0.005c0.009,0.004 0.017,0.008 0.023,0.015c0.006,0.006 0.01,0.014 0.014,0.022c0.003,0.009 0.004,0.018 0.004,0.027c0,0.01 -0.001,0.019 -0.004,0.027c-0.004,0.008 -0.008,0.016 -0.014,0.022c-0.006,0.006 -0.014,0.011 -0.023,0.014c-0.009,0.004 -0.019,0.005 -0.031,0.005c-0.011,0 -0.022,-0.001 -0.03,-0.005c-0.009,-0.003 -0.016,-0.008 -0.022,-0.014c-0.006,-0.006 -0.011,-0.014 -0.014,-0.022c-0.003,-0.008 -0.004,-0.017 -0.004,-0.027Zm-0,-0.427c-0,-0.01 0.001,-0.019 0.004,-0.028c0.003,-0.008 0.008,-0.016 0.014,-0.022c0.006,-0.006 0.013,-0.011 0.022,-0.015c0.008,-0.003 0.019,-0.005 0.03,-0.005c0.012,-0 0.022,0.002 0.031,0.005c0.009,0.004 0.017,0.009 0.023,0.015c0.006,0.006 0.01,0.014 0.014,0.022c0.003,0.009 0.004,0.018 0.004,0.028c0,0.009 -0.001,0.018 -0.004,0.026c-0.004,0.009 -0.008,0.016 -0.014,0.022c-0.006,0.006 -0.014,0.011 -0.023,0.014c-0.009,0.004 -0.019,0.006 -0.031,0.006c-0.011,-0 -0.022,-0.002 -0.03,-0.006c-0.009,-0.003 -0.016,-0.008 -0.022,-0.014c-0.006,-0.006 -0.011,-0.013 -0.014,-0.022c-0.003,-0.008 -0.004,-0.017 -0.004,-0.026Z" style="fill:#fff;fill-rule:nonzero;"/></g><g transform="matrix(10,0,0,10,113.386,203.473)"><path d="M0.436,-0.14c0,-0.011 -0.002,-0.021 -0.006,-0.029c-0.005,-0.009 -0.012,-0.017 -0.022,-0.024c-0.01,-0.007 -0.023,-0.014 -0.04,-0.02c-0.016,-0.006 -0.037,-0.011 -0.062,-0.016c-0.03,-0.006 -0.058,-0.014 -0.083,-0.022c-0.025,-0.009 -0.046,-0.02 -0.064,-0.032c-0.017,-0.012 -0.031,-0.026 -0.041,-0.043c-0.01,-0.016 -0.014,-0.035 -0.014,-0.057c-0,-0.022 0.005,-0.042 0.015,-0.061c0.01,-0.018 0.024,-0.035 0.042,-0.049c0.018,-0.014 0.04,-0.025 0.065,-0.033c0.026,-0.008 0.053,-0.012 0.084,-0.012c0.032,-0 0.061,0.004 0.087,0.013c0.027,0.008 0.049,0.02 0.067,0.035c0.018,0.015 0.032,0.032 0.042,0.052c0.01,0.02 0.015,0.042 0.015,0.065l-0.09,-0c-0,-0.011 -0.003,-0.023 -0.009,-0.033c-0.006,-0.011 -0.014,-0.021 -0.025,-0.03c-0.01,-0.008 -0.023,-0.015 -0.037,-0.02c-0.015,-0.005 -0.032,-0.008 -0.05,-0.008c-0.02,0 -0.036,0.002 -0.051,0.006c-0.014,0.005 -0.026,0.01 -0.036,0.018c-0.01,0.007 -0.017,0.015 -0.022,0.024c-0.005,0.01 -0.007,0.02 -0.007,0.03c-0,0.01 0.002,0.019 0.006,0.028c0.004,0.008 0.01,0.015 0.02,0.022c0.01,0.006 0.022,0.012 0.039,0.017c0.016,0.005 0.036,0.01 0.061,0.015c0.032,0.007 0.062,0.015 0.087,0.024c0.026,0.009 0.048,0.02 0.065,0.032c0.018,0.013 0.031,0.027 0.04,0.044c0.01,0.016 0.014,0.036 0.014,0.058c0,0.023 -0.005,0.044 -0.016,0.063c-0.01,0.02 -0.025,0.036 -0.044,0.05c-0.019,0.013 -0.041,0.024 -0.068,0.032c-0.026,0.007 -0.055,0.011 -0.086,0.011c-0.036,-0 -0.068,-0.005 -0.096,-0.015c-0.028,-0.009 -0.051,-0.022 -0.071,-0.038c-0.019,-0.016 -0.034,-0.034 -0.044,-0.055c-0.01,-0.02 -0.016,-0.042 -0.016,-0.065l0.091,0c0.001,0.019 0.006,0.035 0.015,0.047c0.008,0.013 0.019,0.023 0.032,0.031c0.013,0.008 0.027,0.013 0.043,0.017c0.015,0.003 0.031,0.005 0.046,0.005c0.038,-0 0.068,-0.007 0.09,-0.021c0.022,-0.014 0.034,-0.033 0.034,-0.056Z" style="fill:#fff;fill-rule:nonzero;"/></g><g transform="matrix(10,0,0,10,119.387,203.473)"><path d="M0.299,-0.656l-0,0.128l0.201,-0l0,0.07l-0.201,-0l-0,0.287c-0,0.02 0.002,0.037 0.008,0.05c0.005,0.014 0.012,0.024 0.021,0.032c0.009,0.008 0.02,0.014 0.032,0.017c0.012,0.003 0.024,0.005 0.037,0.005c0.01,0 0.02,-0 0.031,-0.002c0.01,-0.001 0.02,-0.002 0.03,-0.004c0.01,-0.001 0.019,-0.003 0.028,-0.005c0.009,-0.002 0.016,-0.003 0.021,-0.005l0.013,0.064c-0.007,0.005 -0.017,0.009 -0.027,0.012c-0.011,0.004 -0.023,0.007 -0.035,0.009c-0.013,0.003 -0.027,0.005 -0.041,0.006c-0.014,0.001 -0.028,0.002 -0.042,0.002c-0.023,-0 -0.045,-0.004 -0.066,-0.01c-0.02,-0.007 -0.038,-0.017 -0.053,-0.032c-0.015,-0.014 -0.026,-0.033 -0.035,-0.056c-0.009,-0.023 -0.013,-0.051 -0.013,-0.083l0,-0.287l-0.139,-0l0,-0.07l0.139,-0l0,-0.128l0.091,-0Z" style="fill:#fff;fill-rule:nonzero;"/></g><g transform="matrix(10,0,0,10,125.388,203.473)"><path d="M0.06,-0.269c-0,-0.038 0.005,-0.074 0.016,-0.106c0.011,-0.033 0.027,-0.061 0.048,-0.085c0.02,-0.025 0.046,-0.043 0.075,-0.057c0.03,-0.014 0.063,-0.021 0.1,-0.021c0.038,-0 0.071,0.007 0.101,0.021c0.03,0.014 0.055,0.032 0.076,0.057c0.021,0.024 0.036,0.052 0.047,0.085c0.012,0.032 0.017,0.068 0.017,0.106l0,0.011c0,0.038 -0.005,0.073 -0.017,0.106c-0.011,0.032 -0.026,0.061 -0.047,0.085c-0.021,0.024 -0.046,0.043 -0.076,0.056c-0.029,0.014 -0.063,0.021 -0.1,0.021c-0.037,-0 -0.071,-0.007 -0.101,-0.021c-0.029,-0.013 -0.055,-0.032 -0.075,-0.056c-0.021,-0.024 -0.037,-0.053 -0.048,-0.085c-0.011,-0.033 -0.016,-0.068 -0.016,-0.106l-0,-0.011Zm0.09,0.011c-0,0.026 0.003,0.051 0.009,0.074c0.006,0.024 0.016,0.045 0.028,0.062c0.013,0.018 0.028,0.032 0.047,0.043c0.019,0.01 0.041,0.016 0.066,0.016c0.025,-0 0.047,-0.006 0.065,-0.016c0.019,-0.011 0.035,-0.025 0.047,-0.043c0.013,-0.017 0.022,-0.038 0.028,-0.062c0.007,-0.023 0.01,-0.048 0.01,-0.074l-0,-0.011c-0,-0.026 -0.003,-0.05 -0.01,-0.074c-0.006,-0.024 -0.016,-0.044 -0.028,-0.062c-0.013,-0.018 -0.028,-0.032 -0.047,-0.043c-0.019,-0.011 -0.041,-0.016 -0.066,-0.016c-0.025,0 -0.047,0.005 -0.065,0.016c-0.019,0.011 -0.034,0.025 -0.047,0.043c-0.012,0.018 -0.022,0.038 -0.028,0.062c-0.006,0.024 -0.009,0.048 -0.009,0.074l-0,0.011Z" style="fill:#fff;fill-rule:nonzero;"/></g><g transform="matrix(10,0,0,10,131.389,203.473)"><path d="M0.531,-0.258c-0,0.037 -0.005,0.073 -0.014,0.105c-0.009,0.033 -0.022,0.062 -0.04,0.086c-0.018,0.024 -0.039,0.043 -0.065,0.056c-0.026,0.014 -0.056,0.021 -0.089,0.021c-0.032,-0 -0.06,-0.005 -0.085,-0.016c-0.025,-0.01 -0.046,-0.025 -0.063,-0.045l-0,0.254l-0.091,0l0,-0.731l0.083,-0l0.004,0.057c0.018,-0.022 0.039,-0.038 0.064,-0.05c0.025,-0.011 0.054,-0.017 0.087,-0.017c0.034,-0 0.064,0.007 0.09,0.02c0.026,0.013 0.047,0.032 0.065,0.056c0.018,0.023 0.031,0.052 0.04,0.085c0.009,0.033 0.014,0.069 0.014,0.108l-0,0.011Zm-0.091,-0.011c0,-0.025 -0.002,-0.05 -0.008,-0.073c-0.006,-0.023 -0.015,-0.044 -0.026,-0.062c-0.012,-0.017 -0.027,-0.031 -0.046,-0.042c-0.018,-0.01 -0.04,-0.015 -0.065,-0.015c-0.029,-0 -0.053,0.006 -0.073,0.02c-0.02,0.013 -0.035,0.031 -0.047,0.052l-0,0.254c0.012,0.021 0.027,0.038 0.047,0.051c0.019,0.013 0.044,0.02 0.074,0.02c0.025,0 0.047,-0.005 0.065,-0.016c0.018,-0.01 0.033,-0.025 0.045,-0.043c0.011,-0.017 0.02,-0.038 0.026,-0.062c0.006,-0.023 0.008,-0.048 0.008,-0.073l0,-0.011Z" style="fill:#fff;fill-rule:nonzero;"/></g></g></g></svg>